<?xml version="1.0" encoding="utf-8"?>
<svg xmlns="http://www.w3.org/2000/svg" xmlns:xlink="http://www.w3.org/1999/xlink" width="700" height="350" viewBox="0 0 2800 1400">
<defs>
  <clipPath id="clip080">
    <rect x="0" y="0" width="2800" height="1400"/>
  </clipPath>
</defs>
<path clip-path="url(#clip080)" d="M0 1400 L2800 1400 L2800 0 L0 0  Z" fill="#ffffff" fill-rule="evenodd" fill-opacity="1"/>
<defs>
  <clipPath id="clip081">
    <rect x="256" y="108" width="2497" height="1138"/>
  </clipPath>
</defs>
<path clip-path="url(#clip080)" d="M256.407 1245.7 L2752.76 1245.7 L2752.76 108.352 L256.407 108.352  Z" fill="#ffffff" fill-rule="evenodd" fill-opacity="1"/>
<polyline clip-path="url(#clip081)" style="stroke:#000000; stroke-linecap:round; stroke-linejoin:round; stroke-width:2; stroke-opacity:0.1; fill:none" points="327.059,1245.7 327.059,108.352 "/>
<polyline clip-path="url(#clip081)" style="stroke:#000000; stroke-linecap:round; stroke-linejoin:round; stroke-width:2; stroke-opacity:0.1; fill:none" points="974.049,1245.7 974.049,108.352 "/>
<polyline clip-path="url(#clip081)" style="stroke:#000000; stroke-linecap:round; stroke-linejoin:round; stroke-width:2; stroke-opacity:0.1; fill:none" points="1621.04,1245.7 1621.04,108.352 "/>
<polyline clip-path="url(#clip081)" style="stroke:#000000; stroke-linecap:round; stroke-linejoin:round; stroke-width:2; stroke-opacity:0.1; fill:none" points="2268.03,1245.7 2268.03,108.352 "/>
<polyline clip-path="url(#clip081)" style="stroke:#000000; stroke-linecap:round; stroke-linejoin:round; stroke-width:2; stroke-opacity:0.1; fill:none" points="256.407,1213.51 2752.76,1213.51 "/>
<polyline clip-path="url(#clip081)" style="stroke:#000000; stroke-linecap:round; stroke-linejoin:round; stroke-width:2; stroke-opacity:0.1; fill:none" points="256.407,875.826 2752.76,875.826 "/>
<polyline clip-path="url(#clip081)" style="stroke:#000000; stroke-linecap:round; stroke-linejoin:round; stroke-width:2; stroke-opacity:0.1; fill:none" points="256.407,538.141 2752.76,538.141 "/>
<polyline clip-path="url(#clip081)" style="stroke:#000000; stroke-linecap:round; stroke-linejoin:round; stroke-width:2; stroke-opacity:0.1; fill:none" points="256.407,200.457 2752.76,200.457 "/>
<polyline clip-path="url(#clip080)" style="stroke:#000000; stroke-linecap:round; stroke-linejoin:round; stroke-width:4; stroke-opacity:1; fill:none" points="256.407,1245.7 2752.76,1245.7 "/>
<polyline clip-path="url(#clip080)" style="stroke:#000000; stroke-linecap:round; stroke-linejoin:round; stroke-width:4; stroke-opacity:1; fill:none" points="327.059,1245.7 327.059,1226.8 "/>
<polyline clip-path="url(#clip080)" style="stroke:#000000; stroke-linecap:round; stroke-linejoin:round; stroke-width:4; stroke-opacity:1; fill:none" points="974.049,1245.7 974.049,1226.8 "/>
<polyline clip-path="url(#clip080)" style="stroke:#000000; stroke-linecap:round; stroke-linejoin:round; stroke-width:4; stroke-opacity:1; fill:none" points="1621.04,1245.7 1621.04,1226.8 "/>
<polyline clip-path="url(#clip080)" style="stroke:#000000; stroke-linecap:round; stroke-linejoin:round; stroke-width:4; stroke-opacity:1; fill:none" points="2268.03,1245.7 2268.03,1226.8 "/>
<path clip-path="url(#clip080)" d="M327.059 1279.82 Q323.448 1279.82 321.619 1283.38 Q319.813 1286.92 319.813 1294.05 Q319.813 1301.16 321.619 1304.73 Q323.448 1308.27 327.059 1308.27 Q330.693 1308.27 332.498 1304.73 Q334.327 1301.16 334.327 1294.05 Q334.327 1286.92 332.498 1283.38 Q330.693 1279.82 327.059 1279.82 M327.059 1276.11 Q332.869 1276.11 335.924 1280.72 Q339.003 1285.3 339.003 1294.05 Q339.003 1302.78 335.924 1307.39 Q332.869 1311.97 327.059 1311.97 Q321.249 1311.97 318.17 1307.39 Q315.114 1302.78 315.114 1294.05 Q315.114 1285.3 318.17 1280.72 Q321.249 1276.11 327.059 1276.11 Z" fill="#000000" fill-rule="nonzero" fill-opacity="1" /><path clip-path="url(#clip080)" d="M933.656 1307.36 L941.295 1307.36 L941.295 1281 L932.985 1282.67 L932.985 1278.41 L941.249 1276.74 L945.924 1276.74 L945.924 1307.36 L953.563 1307.36 L953.563 1311.3 L933.656 1311.3 L933.656 1307.36 Z" fill="#000000" fill-rule="nonzero" fill-opacity="1" /><path clip-path="url(#clip080)" d="M973.008 1279.82 Q969.397 1279.82 967.568 1283.38 Q965.762 1286.92 965.762 1294.05 Q965.762 1301.16 967.568 1304.73 Q969.397 1308.27 973.008 1308.27 Q976.642 1308.27 978.447 1304.73 Q980.276 1301.16 980.276 1294.05 Q980.276 1286.92 978.447 1283.38 Q976.642 1279.82 973.008 1279.82 M973.008 1276.11 Q978.818 1276.11 981.873 1280.72 Q984.952 1285.3 984.952 1294.05 Q984.952 1302.78 981.873 1307.39 Q978.818 1311.97 973.008 1311.97 Q967.197 1311.97 964.119 1307.39 Q961.063 1302.78 961.063 1294.05 Q961.063 1285.3 964.119 1280.72 Q967.197 1276.11 973.008 1276.11 Z" fill="#000000" fill-rule="nonzero" fill-opacity="1" /><path clip-path="url(#clip080)" d="M1003.17 1279.82 Q999.558 1279.82 997.73 1283.38 Q995.924 1286.92 995.924 1294.05 Q995.924 1301.16 997.73 1304.73 Q999.558 1308.27 1003.17 1308.27 Q1006.8 1308.27 1008.61 1304.73 Q1010.44 1301.16 1010.44 1294.05 Q1010.44 1286.92 1008.61 1283.38 Q1006.8 1279.82 1003.17 1279.82 M1003.17 1276.11 Q1008.98 1276.11 1012.04 1280.72 Q1015.11 1285.3 1015.11 1294.05 Q1015.11 1302.78 1012.04 1307.39 Q1008.98 1311.97 1003.17 1311.97 Q997.359 1311.97 994.281 1307.39 Q991.225 1302.78 991.225 1294.05 Q991.225 1285.3 994.281 1280.72 Q997.359 1276.11 1003.17 1276.11 Z" fill="#000000" fill-rule="nonzero" fill-opacity="1" /><path clip-path="url(#clip080)" d="M1584.73 1307.36 L1601.05 1307.36 L1601.05 1311.3 L1579.11 1311.3 L1579.11 1307.36 Q1581.77 1304.61 1586.35 1299.98 Q1590.96 1295.33 1592.14 1293.99 Q1594.38 1291.46 1595.26 1289.73 Q1596.17 1287.97 1596.17 1286.28 Q1596.17 1283.52 1594.22 1281.79 Q1592.3 1280.05 1589.2 1280.05 Q1587 1280.05 1584.55 1280.81 Q1582.12 1281.58 1579.34 1283.13 L1579.34 1278.41 Q1582.16 1277.27 1584.62 1276.69 Q1587.07 1276.11 1589.11 1276.11 Q1594.48 1276.11 1597.67 1278.8 Q1600.87 1281.49 1600.87 1285.98 Q1600.87 1288.11 1600.06 1290.03 Q1599.27 1291.92 1597.16 1294.52 Q1596.58 1295.19 1593.48 1298.41 Q1590.38 1301.6 1584.73 1307.36 Z" fill="#000000" fill-rule="nonzero" fill-opacity="1" /><path clip-path="url(#clip080)" d="M1620.87 1279.82 Q1617.26 1279.82 1615.43 1283.38 Q1613.62 1286.92 1613.62 1294.05 Q1613.62 1301.16 1615.43 1304.73 Q1617.26 1308.27 1620.87 1308.27 Q1624.5 1308.27 1626.31 1304.73 Q1628.13 1301.16 1628.13 1294.05 Q1628.13 1286.92 1626.31 1283.38 Q1624.5 1279.82 1620.87 1279.82 M1620.87 1276.11 Q1626.68 1276.11 1629.73 1280.72 Q1632.81 1285.3 1632.81 1294.05 Q1632.81 1302.78 1629.73 1307.39 Q1626.68 1311.97 1620.87 1311.97 Q1615.06 1311.97 1611.98 1307.39 Q1608.92 1302.78 1608.92 1294.05 Q1608.92 1285.3 1611.98 1280.72 Q1615.06 1276.11 1620.87 1276.11 Z" fill="#000000" fill-rule="nonzero" fill-opacity="1" /><path clip-path="url(#clip080)" d="M1651.03 1279.82 Q1647.42 1279.82 1645.59 1283.38 Q1643.78 1286.92 1643.78 1294.05 Q1643.78 1301.16 1645.59 1304.73 Q1647.42 1308.27 1651.03 1308.27 Q1654.66 1308.27 1656.47 1304.73 Q1658.3 1301.16 1658.3 1294.05 Q1658.3 1286.92 1656.47 1283.38 Q1654.66 1279.82 1651.03 1279.82 M1651.03 1276.11 Q1656.84 1276.11 1659.89 1280.72 Q1662.97 1285.3 1662.97 1294.05 Q1662.97 1302.78 1659.89 1307.39 Q1656.84 1311.97 1651.03 1311.97 Q1645.22 1311.97 1642.14 1307.39 Q1639.08 1302.78 1639.08 1294.05 Q1639.08 1285.3 1642.14 1280.72 Q1645.22 1276.11 1651.03 1276.11 Z" fill="#000000" fill-rule="nonzero" fill-opacity="1" /><path clip-path="url(#clip080)" d="M2241.79 1292.67 Q2245.15 1293.38 2247.02 1295.65 Q2248.92 1297.92 2248.92 1301.25 Q2248.92 1306.37 2245.4 1309.17 Q2241.88 1311.97 2235.4 1311.97 Q2233.23 1311.97 2230.91 1311.53 Q2228.62 1311.11 2226.17 1310.26 L2226.17 1305.74 Q2228.11 1306.88 2230.43 1307.46 Q2232.74 1308.04 2235.26 1308.04 Q2239.66 1308.04 2241.95 1306.3 Q2244.27 1304.56 2244.27 1301.25 Q2244.27 1298.2 2242.12 1296.49 Q2239.99 1294.75 2236.17 1294.75 L2232.14 1294.75 L2232.14 1290.91 L2236.35 1290.91 Q2239.8 1290.91 2241.63 1289.54 Q2243.46 1288.15 2243.46 1285.56 Q2243.46 1282.9 2241.56 1281.49 Q2239.69 1280.05 2236.17 1280.05 Q2234.25 1280.05 2232.05 1280.47 Q2229.85 1280.88 2227.21 1281.76 L2227.21 1277.6 Q2229.87 1276.86 2232.19 1276.49 Q2234.52 1276.11 2236.58 1276.11 Q2241.91 1276.11 2245.01 1278.55 Q2248.11 1280.95 2248.11 1285.07 Q2248.11 1287.94 2246.47 1289.93 Q2244.82 1291.9 2241.79 1292.67 Z" fill="#000000" fill-rule="nonzero" fill-opacity="1" /><path clip-path="url(#clip080)" d="M2267.79 1279.82 Q2264.18 1279.82 2262.35 1283.38 Q2260.54 1286.92 2260.54 1294.05 Q2260.54 1301.16 2262.35 1304.73 Q2264.18 1308.27 2267.79 1308.27 Q2271.42 1308.27 2273.23 1304.73 Q2275.06 1301.16 2275.06 1294.05 Q2275.06 1286.92 2273.23 1283.38 Q2271.42 1279.82 2267.79 1279.82 M2267.79 1276.11 Q2273.6 1276.11 2276.65 1280.72 Q2279.73 1285.3 2279.73 1294.05 Q2279.73 1302.78 2276.65 1307.39 Q2273.6 1311.97 2267.79 1311.97 Q2261.98 1311.97 2258.9 1307.39 Q2255.84 1302.78 2255.84 1294.05 Q2255.84 1285.3 2258.9 1280.72 Q2261.98 1276.11 2267.79 1276.11 Z" fill="#000000" fill-rule="nonzero" fill-opacity="1" /><path clip-path="url(#clip080)" d="M2297.95 1279.82 Q2294.34 1279.82 2292.51 1283.38 Q2290.7 1286.92 2290.7 1294.05 Q2290.7 1301.16 2292.51 1304.73 Q2294.34 1308.27 2297.95 1308.27 Q2301.58 1308.27 2303.39 1304.73 Q2305.22 1301.16 2305.22 1294.05 Q2305.22 1286.92 2303.39 1283.38 Q2301.58 1279.82 2297.95 1279.82 M2297.95 1276.11 Q2303.76 1276.11 2306.82 1280.72 Q2309.89 1285.3 2309.89 1294.05 Q2309.89 1302.78 2306.82 1307.39 Q2303.76 1311.97 2297.95 1311.97 Q2292.14 1311.97 2289.06 1307.39 Q2286 1302.78 2286 1294.05 Q2286 1285.3 2289.06 1280.72 Q2292.14 1276.11 2297.95 1276.11 Z" fill="#000000" fill-rule="nonzero" fill-opacity="1" /><path clip-path="url(#clip080)" d="M1328.84 1352.7 L1328.84 1359.48 Q1325.59 1356.46 1321.9 1354.96 Q1318.24 1353.47 1314.1 1353.47 Q1305.96 1353.47 1301.63 1358.47 Q1297.3 1363.43 1297.3 1372.85 Q1297.3 1382.24 1301.63 1387.24 Q1305.96 1392.2 1314.1 1392.2 Q1318.24 1392.2 1321.9 1390.71 Q1325.59 1389.21 1328.84 1386.19 L1328.84 1392.9 Q1325.47 1395.2 1321.68 1396.34 Q1317.92 1397.49 1313.72 1397.49 Q1302.93 1397.49 1296.73 1390.9 Q1290.52 1384.28 1290.52 1372.85 Q1290.52 1361.39 1296.73 1354.8 Q1302.93 1348.18 1313.72 1348.18 Q1317.99 1348.18 1321.74 1349.33 Q1325.53 1350.44 1328.84 1352.7 Z" fill="#000000" fill-rule="nonzero" fill-opacity="1" /><path clip-path="url(#clip080)" d="M1354.72 1378.64 Q1347.62 1378.64 1344.88 1380.27 Q1342.14 1381.89 1342.14 1385.81 Q1342.14 1388.92 1344.18 1390.77 Q1346.25 1392.59 1349.78 1392.59 Q1354.65 1392.59 1357.58 1389.15 Q1360.54 1385.68 1360.54 1379.95 L1360.54 1378.64 L1354.72 1378.64 M1366.4 1376.23 L1366.4 1396.56 L1360.54 1396.56 L1360.54 1391.15 Q1358.54 1394.4 1355.54 1395.96 Q1352.55 1397.49 1348.22 1397.49 Q1342.75 1397.49 1339.5 1394.43 Q1336.29 1391.34 1336.29 1386.19 Q1336.29 1380.17 1340.3 1377.12 Q1344.34 1374.06 1352.33 1374.06 L1360.54 1374.06 L1360.54 1373.49 Q1360.54 1369.45 1357.87 1367.25 Q1355.23 1365.02 1350.42 1365.02 Q1347.36 1365.02 1344.47 1365.75 Q1341.57 1366.49 1338.9 1367.95 L1338.9 1362.54 Q1342.11 1361.3 1345.14 1360.69 Q1348.16 1360.06 1351.02 1360.06 Q1358.76 1360.06 1362.58 1364.07 Q1366.4 1368.08 1366.4 1376.23 Z" fill="#000000" fill-rule="nonzero" fill-opacity="1" /><path clip-path="url(#clip080)" d="M1378.46 1347.04 L1384.32 1347.04 L1384.32 1396.56 L1378.46 1396.56 L1378.46 1347.04 Z" fill="#000000" fill-rule="nonzero" fill-opacity="1" /><path clip-path="url(#clip080)" d="M1427.06 1377.28 L1427.06 1380.14 L1400.14 1380.14 Q1400.52 1386.19 1403.76 1389.37 Q1407.04 1392.52 1412.87 1392.52 Q1416.24 1392.52 1419.39 1391.69 Q1422.58 1390.87 1425.69 1389.21 L1425.69 1394.75 Q1422.54 1396.09 1419.23 1396.79 Q1415.92 1397.49 1412.52 1397.49 Q1403.99 1397.49 1398.99 1392.52 Q1394.03 1387.56 1394.03 1379.09 Q1394.03 1370.34 1398.74 1365.21 Q1403.48 1360.06 1411.5 1360.06 Q1418.69 1360.06 1422.86 1364.7 Q1427.06 1369.32 1427.06 1377.28 M1421.21 1375.56 Q1421.14 1370.75 1418.5 1367.89 Q1415.89 1365.02 1411.56 1365.02 Q1406.66 1365.02 1403.7 1367.79 Q1400.77 1370.56 1400.33 1375.59 L1421.21 1375.56 Z" fill="#000000" fill-rule="nonzero" fill-opacity="1" /><path clip-path="url(#clip080)" d="M1466.31 1375.05 L1466.31 1396.56 L1460.45 1396.56 L1460.45 1375.24 Q1460.45 1370.18 1458.48 1367.66 Q1456.5 1365.15 1452.56 1365.15 Q1447.82 1365.15 1445.08 1368.17 Q1442.34 1371.2 1442.34 1376.42 L1442.34 1396.56 L1436.45 1396.56 L1436.45 1360.92 L1442.34 1360.92 L1442.34 1366.45 Q1444.44 1363.24 1447.27 1361.65 Q1450.14 1360.06 1453.86 1360.06 Q1460.01 1360.06 1463.16 1363.88 Q1466.31 1367.66 1466.31 1375.05 Z" fill="#000000" fill-rule="nonzero" fill-opacity="1" /><path clip-path="url(#clip080)" d="M1501.45 1366.33 L1501.45 1347.04 L1507.3 1347.04 L1507.3 1396.56 L1501.45 1396.56 L1501.45 1391.22 Q1499.6 1394.4 1496.77 1395.96 Q1493.97 1397.49 1490.02 1397.49 Q1483.56 1397.49 1479.48 1392.33 Q1475.44 1387.17 1475.44 1378.77 Q1475.44 1370.37 1479.48 1365.21 Q1483.56 1360.06 1490.02 1360.06 Q1493.97 1360.06 1496.77 1361.62 Q1499.6 1363.14 1501.45 1366.33 M1481.49 1378.77 Q1481.49 1385.23 1484.13 1388.92 Q1486.81 1392.59 1491.45 1392.59 Q1496.1 1392.59 1498.77 1388.92 Q1501.45 1385.23 1501.45 1378.77 Q1501.45 1372.31 1498.77 1368.65 Q1496.1 1364.96 1491.45 1364.96 Q1486.81 1364.96 1484.13 1368.65 Q1481.49 1372.31 1481.49 1378.77 Z" fill="#000000" fill-rule="nonzero" fill-opacity="1" /><path clip-path="url(#clip080)" d="M1535.57 1378.64 Q1528.47 1378.64 1525.73 1380.27 Q1522.99 1381.89 1522.99 1385.81 Q1522.99 1388.92 1525.03 1390.77 Q1527.1 1392.59 1530.63 1392.59 Q1535.5 1392.59 1538.43 1389.15 Q1541.39 1385.68 1541.39 1379.95 L1541.39 1378.64 L1535.57 1378.64 M1547.25 1376.23 L1547.25 1396.56 L1541.39 1396.56 L1541.39 1391.15 Q1539.39 1394.4 1536.39 1395.96 Q1533.4 1397.49 1529.07 1397.49 Q1523.6 1397.49 1520.35 1394.43 Q1517.14 1391.34 1517.14 1386.19 Q1517.14 1380.17 1521.15 1377.12 Q1525.19 1374.06 1533.18 1374.06 L1541.39 1374.06 L1541.39 1373.49 Q1541.39 1369.45 1538.72 1367.25 Q1536.08 1365.02 1531.27 1365.02 Q1528.21 1365.02 1525.32 1365.75 Q1522.42 1366.49 1519.75 1367.95 L1519.75 1362.54 Q1522.96 1361.3 1525.99 1360.69 Q1529.01 1360.06 1531.87 1360.06 Q1539.61 1360.06 1543.43 1364.07 Q1547.25 1368.08 1547.25 1376.23 Z" fill="#000000" fill-rule="nonzero" fill-opacity="1" /><path clip-path="url(#clip080)" d="M1579.97 1366.39 Q1578.98 1365.82 1577.8 1365.56 Q1576.66 1365.28 1575.26 1365.28 Q1570.29 1365.28 1567.62 1368.52 Q1564.98 1371.74 1564.98 1377.79 L1564.98 1396.56 L1559.09 1396.56 L1559.09 1360.92 L1564.98 1360.92 L1564.98 1366.45 Q1566.82 1363.21 1569.78 1361.65 Q1572.74 1360.06 1576.98 1360.06 Q1577.58 1360.06 1578.31 1360.15 Q1579.04 1360.22 1579.94 1360.37 L1579.97 1366.39 Z" fill="#000000" fill-rule="nonzero" fill-opacity="1" /><path clip-path="url(#clip080)" d="M1630.29 1366.33 L1630.29 1347.04 L1636.14 1347.04 L1636.14 1396.56 L1630.29 1396.56 L1630.29 1391.22 Q1628.44 1394.4 1625.61 1395.96 Q1622.81 1397.49 1618.86 1397.49 Q1612.4 1397.49 1608.33 1392.33 Q1604.28 1387.17 1604.28 1378.77 Q1604.28 1370.37 1608.33 1365.21 Q1612.4 1360.06 1618.86 1360.06 Q1622.81 1360.06 1625.61 1361.62 Q1628.44 1363.14 1630.29 1366.33 M1610.33 1378.77 Q1610.33 1385.23 1612.97 1388.92 Q1615.65 1392.59 1620.29 1392.59 Q1624.94 1392.59 1627.61 1388.92 Q1630.29 1385.23 1630.29 1378.77 Q1630.29 1372.31 1627.61 1368.65 Q1624.94 1364.96 1620.29 1364.96 Q1615.65 1364.96 1612.97 1368.65 Q1610.33 1372.31 1610.33 1378.77 Z" fill="#000000" fill-rule="nonzero" fill-opacity="1" /><path clip-path="url(#clip080)" d="M1664.41 1378.64 Q1657.31 1378.64 1654.57 1380.27 Q1651.84 1381.89 1651.84 1385.81 Q1651.84 1388.92 1653.87 1390.77 Q1655.94 1392.59 1659.48 1392.59 Q1664.34 1392.59 1667.27 1389.15 Q1670.23 1385.68 1670.23 1379.95 L1670.23 1378.64 L1664.41 1378.64 M1676.09 1376.23 L1676.09 1396.56 L1670.23 1396.56 L1670.23 1391.15 Q1668.23 1394.4 1665.24 1395.96 Q1662.24 1397.49 1657.92 1397.49 Q1652.44 1397.49 1649.19 1394.43 Q1645.98 1391.34 1645.98 1386.19 Q1645.98 1380.17 1649.99 1377.12 Q1654.03 1374.06 1662.02 1374.06 L1670.23 1374.06 L1670.23 1373.49 Q1670.23 1369.45 1667.56 1367.25 Q1664.92 1365.02 1660.11 1365.02 Q1657.06 1365.02 1654.16 1365.75 Q1651.26 1366.49 1648.59 1367.95 L1648.59 1362.54 Q1651.8 1361.3 1654.83 1360.69 Q1657.85 1360.06 1660.72 1360.06 Q1668.45 1360.06 1672.27 1364.07 Q1676.09 1368.08 1676.09 1376.23 Z" fill="#000000" fill-rule="nonzero" fill-opacity="1" /><path clip-path="url(#clip080)" d="M1702.98 1399.87 Q1700.5 1406.24 1698.15 1408.18 Q1695.79 1410.12 1691.84 1410.12 L1687.17 1410.12 L1687.17 1405.22 L1690.6 1405.22 Q1693.02 1405.22 1694.36 1404.08 Q1695.7 1402.93 1697.32 1398.66 L1698.37 1395.99 L1683.95 1360.92 L1690.16 1360.92 L1701.3 1388.8 L1712.44 1360.92 L1718.64 1360.92 L1702.98 1399.87 Z" fill="#000000" fill-rule="nonzero" fill-opacity="1" /><polyline clip-path="url(#clip080)" style="stroke:#000000; stroke-linecap:round; stroke-linejoin:round; stroke-width:4; stroke-opacity:1; fill:none" points="256.407,1245.7 256.407,108.352 "/>
<polyline clip-path="url(#clip080)" style="stroke:#000000; stroke-linecap:round; stroke-linejoin:round; stroke-width:4; stroke-opacity:1; fill:none" points="256.407,1213.51 275.305,1213.51 "/>
<polyline clip-path="url(#clip080)" style="stroke:#000000; stroke-linecap:round; stroke-linejoin:round; stroke-width:4; stroke-opacity:1; fill:none" points="256.407,875.826 275.305,875.826 "/>
<polyline clip-path="url(#clip080)" style="stroke:#000000; stroke-linecap:round; stroke-linejoin:round; stroke-width:4; stroke-opacity:1; fill:none" points="256.407,538.141 275.305,538.141 "/>
<polyline clip-path="url(#clip080)" style="stroke:#000000; stroke-linecap:round; stroke-linejoin:round; stroke-width:4; stroke-opacity:1; fill:none" points="256.407,200.457 275.305,200.457 "/>
<path clip-path="url(#clip080)" d="M202.463 1199.31 Q198.852 1199.31 197.023 1202.87 Q195.218 1206.42 195.218 1213.55 Q195.218 1220.65 197.023 1224.22 Q198.852 1227.76 202.463 1227.76 Q206.097 1227.76 207.903 1224.22 Q209.731 1220.65 209.731 1213.55 Q209.731 1206.42 207.903 1202.87 Q206.097 1199.31 202.463 1199.31 M202.463 1195.61 Q208.273 1195.61 211.329 1200.21 Q214.407 1204.8 214.407 1213.55 Q214.407 1222.27 211.329 1226.88 Q208.273 1231.46 202.463 1231.46 Q196.653 1231.46 193.574 1226.88 Q190.519 1222.27 190.519 1213.55 Q190.519 1204.8 193.574 1200.21 Q196.653 1195.61 202.463 1195.61 Z" fill="#000000" fill-rule="nonzero" fill-opacity="1" /><path clip-path="url(#clip080)" d="M102.788 889.171 L110.426 889.171 L110.426 862.805 L102.116 864.472 L102.116 860.213 L110.38 858.546 L115.056 858.546 L115.056 889.171 L122.695 889.171 L122.695 893.106 L102.788 893.106 L102.788 889.171 Z" fill="#000000" fill-rule="nonzero" fill-opacity="1" /><path clip-path="url(#clip080)" d="M142.139 861.625 Q138.528 861.625 136.699 865.189 Q134.894 868.731 134.894 875.861 Q134.894 882.967 136.699 886.532 Q138.528 890.074 142.139 890.074 Q145.773 890.074 147.579 886.532 Q149.408 882.967 149.408 875.861 Q149.408 868.731 147.579 865.189 Q145.773 861.625 142.139 861.625 M142.139 857.921 Q147.949 857.921 151.005 862.527 Q154.084 867.111 154.084 875.861 Q154.084 884.588 151.005 889.194 Q147.949 893.777 142.139 893.777 Q136.329 893.777 133.25 889.194 Q130.195 884.588 130.195 875.861 Q130.195 867.111 133.25 862.527 Q136.329 857.921 142.139 857.921 Z" fill="#000000" fill-rule="nonzero" fill-opacity="1" /><path clip-path="url(#clip080)" d="M172.301 861.625 Q168.69 861.625 166.861 865.189 Q165.056 868.731 165.056 875.861 Q165.056 882.967 166.861 886.532 Q168.69 890.074 172.301 890.074 Q175.935 890.074 177.741 886.532 Q179.57 882.967 179.57 875.861 Q179.57 868.731 177.741 865.189 Q175.935 861.625 172.301 861.625 M172.301 857.921 Q178.111 857.921 181.167 862.527 Q184.245 867.111 184.245 875.861 Q184.245 884.588 181.167 889.194 Q178.111 893.777 172.301 893.777 Q166.491 893.777 163.412 889.194 Q160.357 884.588 160.357 875.861 Q160.357 867.111 163.412 862.527 Q166.491 857.921 172.301 857.921 Z" fill="#000000" fill-rule="nonzero" fill-opacity="1" /><path clip-path="url(#clip080)" d="M202.463 861.625 Q198.852 861.625 197.023 865.189 Q195.218 868.731 195.218 875.861 Q195.218 882.967 197.023 886.532 Q198.852 890.074 202.463 890.074 Q206.097 890.074 207.903 886.532 Q209.731 882.967 209.731 875.861 Q209.731 868.731 207.903 865.189 Q206.097 861.625 202.463 861.625 M202.463 857.921 Q208.273 857.921 211.329 862.527 Q214.407 867.111 214.407 875.861 Q214.407 884.588 211.329 889.194 Q208.273 893.777 202.463 893.777 Q196.653 893.777 193.574 889.194 Q190.519 884.588 190.519 875.861 Q190.519 867.111 193.574 862.527 Q196.653 857.921 202.463 857.921 Z" fill="#000000" fill-rule="nonzero" fill-opacity="1" /><path clip-path="url(#clip080)" d="M106.005 551.486 L122.324 551.486 L122.324 555.421 L100.38 555.421 L100.38 551.486 Q103.042 548.731 107.625 544.102 Q112.232 539.449 113.412 538.107 Q115.658 535.583 116.537 533.847 Q117.44 532.088 117.44 530.398 Q117.44 527.644 115.496 525.908 Q113.575 524.171 110.473 524.171 Q108.274 524.171 105.82 524.935 Q103.389 525.699 100.612 527.25 L100.612 522.528 Q103.436 521.394 105.889 520.815 Q108.343 520.236 110.38 520.236 Q115.75 520.236 118.945 522.921 Q122.139 525.607 122.139 530.097 Q122.139 532.227 121.329 534.148 Q120.542 536.046 118.436 538.639 Q117.857 539.31 114.755 542.528 Q111.653 545.722 106.005 551.486 Z" fill="#000000" fill-rule="nonzero" fill-opacity="1" /><path clip-path="url(#clip080)" d="M142.139 523.94 Q138.528 523.94 136.699 527.505 Q134.894 531.046 134.894 538.176 Q134.894 545.282 136.699 548.847 Q138.528 552.389 142.139 552.389 Q145.773 552.389 147.579 548.847 Q149.408 545.282 149.408 538.176 Q149.408 531.046 147.579 527.505 Q145.773 523.94 142.139 523.94 M142.139 520.236 Q147.949 520.236 151.005 524.843 Q154.084 529.426 154.084 538.176 Q154.084 546.903 151.005 551.509 Q147.949 556.093 142.139 556.093 Q136.329 556.093 133.25 551.509 Q130.195 546.903 130.195 538.176 Q130.195 529.426 133.25 524.843 Q136.329 520.236 142.139 520.236 Z" fill="#000000" fill-rule="nonzero" fill-opacity="1" /><path clip-path="url(#clip080)" d="M172.301 523.94 Q168.69 523.94 166.861 527.505 Q165.056 531.046 165.056 538.176 Q165.056 545.282 166.861 548.847 Q168.69 552.389 172.301 552.389 Q175.935 552.389 177.741 548.847 Q179.57 545.282 179.57 538.176 Q179.57 531.046 177.741 527.505 Q175.935 523.94 172.301 523.94 M172.301 520.236 Q178.111 520.236 181.167 524.843 Q184.245 529.426 184.245 538.176 Q184.245 546.903 181.167 551.509 Q178.111 556.093 172.301 556.093 Q166.491 556.093 163.412 551.509 Q160.357 546.903 160.357 538.176 Q160.357 529.426 163.412 524.843 Q166.491 520.236 172.301 520.236 Z" fill="#000000" fill-rule="nonzero" fill-opacity="1" /><path clip-path="url(#clip080)" d="M202.463 523.94 Q198.852 523.94 197.023 527.505 Q195.218 531.046 195.218 538.176 Q195.218 545.282 197.023 548.847 Q198.852 552.389 202.463 552.389 Q206.097 552.389 207.903 548.847 Q209.731 545.282 209.731 538.176 Q209.731 531.046 207.903 527.505 Q206.097 523.94 202.463 523.94 M202.463 520.236 Q208.273 520.236 211.329 524.843 Q214.407 529.426 214.407 538.176 Q214.407 546.903 211.329 551.509 Q208.273 556.093 202.463 556.093 Q196.653 556.093 193.574 551.509 Q190.519 546.903 190.519 538.176 Q190.519 529.426 193.574 524.843 Q196.653 520.236 202.463 520.236 Z" fill="#000000" fill-rule="nonzero" fill-opacity="1" /><path clip-path="url(#clip080)" d="M116.144 199.102 Q119.5 199.82 121.375 202.088 Q123.274 204.357 123.274 207.69 Q123.274 212.806 119.755 215.607 Q116.237 218.408 109.755 218.408 Q107.579 218.408 105.264 217.968 Q102.973 217.551 100.519 216.695 L100.519 212.181 Q102.463 213.315 104.778 213.894 Q107.093 214.473 109.616 214.473 Q114.014 214.473 116.306 212.737 Q118.621 211 118.621 207.69 Q118.621 204.635 116.468 202.922 Q114.338 201.186 110.519 201.186 L106.491 201.186 L106.491 197.343 L110.704 197.343 Q114.153 197.343 115.982 195.977 Q117.811 194.588 117.811 191.996 Q117.811 189.334 115.912 187.922 Q114.037 186.487 110.519 186.487 Q108.598 186.487 106.399 186.903 Q104.2 187.32 101.561 188.2 L101.561 184.033 Q104.223 183.292 106.538 182.922 Q108.875 182.552 110.936 182.552 Q116.26 182.552 119.362 184.982 Q122.463 187.389 122.463 191.51 Q122.463 194.38 120.82 196.371 Q119.176 198.338 116.144 199.102 Z" fill="#000000" fill-rule="nonzero" fill-opacity="1" /><path clip-path="url(#clip080)" d="M142.139 186.255 Q138.528 186.255 136.699 189.82 Q134.894 193.362 134.894 200.491 Q134.894 207.598 136.699 211.162 Q138.528 214.704 142.139 214.704 Q145.773 214.704 147.579 211.162 Q149.408 207.598 149.408 200.491 Q149.408 193.362 147.579 189.82 Q145.773 186.255 142.139 186.255 M142.139 182.552 Q147.949 182.552 151.005 187.158 Q154.084 191.741 154.084 200.491 Q154.084 209.218 151.005 213.824 Q147.949 218.408 142.139 218.408 Q136.329 218.408 133.25 213.824 Q130.195 209.218 130.195 200.491 Q130.195 191.741 133.25 187.158 Q136.329 182.552 142.139 182.552 Z" fill="#000000" fill-rule="nonzero" fill-opacity="1" /><path clip-path="url(#clip080)" d="M172.301 186.255 Q168.69 186.255 166.861 189.82 Q165.056 193.362 165.056 200.491 Q165.056 207.598 166.861 211.162 Q168.69 214.704 172.301 214.704 Q175.935 214.704 177.741 211.162 Q179.57 207.598 179.57 200.491 Q179.57 193.362 177.741 189.82 Q175.935 186.255 172.301 186.255 M172.301 182.552 Q178.111 182.552 181.167 187.158 Q184.245 191.741 184.245 200.491 Q184.245 209.218 181.167 213.824 Q178.111 218.408 172.301 218.408 Q166.491 218.408 163.412 213.824 Q160.357 209.218 160.357 200.491 Q160.357 191.741 163.412 187.158 Q166.491 182.552 172.301 182.552 Z" fill="#000000" fill-rule="nonzero" fill-opacity="1" /><path clip-path="url(#clip080)" d="M202.463 186.255 Q198.852 186.255 197.023 189.82 Q195.218 193.362 195.218 200.491 Q195.218 207.598 197.023 211.162 Q198.852 214.704 202.463 214.704 Q206.097 214.704 207.903 211.162 Q209.731 207.598 209.731 200.491 Q209.731 193.362 207.903 189.82 Q206.097 186.255 202.463 186.255 M202.463 182.552 Q208.273 182.552 211.329 187.158 Q214.407 191.741 214.407 200.491 Q214.407 209.218 211.329 213.824 Q208.273 218.408 202.463 218.408 Q196.653 218.408 193.574 213.824 Q190.519 209.218 190.519 200.491 Q190.519 191.741 193.574 187.158 Q196.653 182.552 202.463 182.552 Z" fill="#000000" fill-rule="nonzero" fill-opacity="1" /><path clip-path="url(#clip080)" d="M0.264439 1127.81 L7.04392 1127.81 Q4.02021 1131.06 2.52426 1134.75 Q1.02832 1138.41 1.02832 1142.55 Q1.02832 1150.7 6.0254 1155.03 Q10.9907 1159.36 20.4119 1159.36 Q29.8013 1159.36 34.7984 1155.03 Q39.7636 1150.7 39.7636 1142.55 Q39.7636 1138.41 38.2677 1134.75 Q36.7718 1131.06 33.7481 1127.81 L40.4639 1127.81 Q42.7555 1131.19 43.9014 1134.97 Q45.0472 1138.73 45.0472 1142.93 Q45.0472 1153.72 38.4587 1159.93 Q31.8383 1166.14 20.4119 1166.14 Q8.95363 1166.14 2.36512 1159.93 Q-4.25521 1153.72 -4.25521 1142.93 Q-4.25521 1138.67 -3.10939 1134.91 Q-1.99539 1131.12 0.264439 1127.81 Z" fill="#000000" fill-rule="nonzero" fill-opacity="1" /><path clip-path="url(#clip080)" d="M30.0559 1118.74 L8.4762 1118.74 L8.4762 1112.89 L29.8331 1112.89 Q34.8939 1112.89 37.4402 1110.91 Q39.9546 1108.94 39.9546 1104.99 Q39.9546 1100.25 36.9309 1097.51 Q33.9072 1094.74 28.6873 1094.74 L8.4762 1094.74 L8.4762 1088.89 L44.1242 1088.89 L44.1242 1094.74 L38.6496 1094.74 Q41.8962 1096.88 43.4876 1099.71 Q45.0472 1102.51 45.0472 1106.23 Q45.0472 1112.38 41.2278 1115.56 Q37.4083 1118.74 30.0559 1118.74 M7.61683 1104.01 L7.61683 1104.01 Z" fill="#000000" fill-rule="nonzero" fill-opacity="1" /><path clip-path="url(#clip080)" d="M15.3193 1049.07 Q11.3726 1046.87 9.49471 1043.82 Q7.61683 1040.76 7.61683 1036.62 Q7.61683 1031.05 11.5317 1028.03 Q15.4148 1025.01 22.6081 1025.01 L44.1242 1025.01 L44.1242 1030.9 L22.799 1030.9 Q17.6746 1030.9 15.192 1032.71 Q12.7094 1034.52 12.7094 1038.25 Q12.7094 1042.8 15.7331 1045.44 Q18.7568 1048.08 23.9767 1048.08 L44.1242 1048.08 L44.1242 1053.97 L22.799 1053.97 Q17.6428 1053.97 15.192 1055.79 Q12.7094 1057.6 12.7094 1061.39 Q12.7094 1065.88 15.7649 1068.52 Q18.7886 1071.16 23.9767 1071.16 L44.1242 1071.16 L44.1242 1077.05 L8.4762 1077.05 L8.4762 1071.16 L14.0144 1071.16 Q10.736 1069.15 9.17643 1066.35 Q7.61683 1063.55 7.61683 1059.7 Q7.61683 1055.82 9.5902 1053.11 Q11.5636 1050.37 15.3193 1049.07 Z" fill="#000000" fill-rule="nonzero" fill-opacity="1" /><path clip-path="url(#clip080)" d="M30.0559 1013.93 L8.4762 1013.93 L8.4762 1008.07 L29.8331 1008.07 Q34.8939 1008.07 37.4402 1006.1 Q39.9546 1004.13 39.9546 1000.18 Q39.9546 995.439 36.9309 992.701 Q33.9072 989.932 28.6873 989.932 L8.4762 989.932 L8.4762 984.076 L44.1242 984.076 L44.1242 989.932 L38.6496 989.932 Q41.8962 992.065 43.4876 994.898 Q45.0472 997.698 45.0472 1001.42 Q45.0472 1007.57 41.2278 1010.75 Q37.4083 1013.93 30.0559 1013.93 M7.61683 999.194 L7.61683 999.194 Z" fill="#000000" fill-rule="nonzero" fill-opacity="1" /><path clip-path="url(#clip080)" d="M-5.40104 972.013 L-5.40104 966.156 L44.1242 966.156 L44.1242 972.013 L-5.40104 972.013 Z" fill="#000000" fill-rule="nonzero" fill-opacity="1" /><path clip-path="url(#clip080)" d="M26.2047 937.702 Q26.2047 944.799 27.8279 947.537 Q29.4512 950.274 33.3661 950.274 Q36.4853 950.274 38.3314 948.237 Q40.1456 946.168 40.1456 942.635 Q40.1456 937.765 36.7081 934.837 Q33.2388 931.877 27.5097 931.877 L26.2047 931.877 L26.2047 937.702 M23.7857 926.021 L44.1242 926.021 L44.1242 931.877 L38.7133 931.877 Q41.9598 933.882 43.5194 936.874 Q45.0472 939.866 45.0472 944.195 Q45.0472 949.669 41.9916 952.916 Q38.9043 956.13 33.7481 956.13 Q27.7325 956.13 24.6769 952.12 Q21.6214 948.078 21.6214 940.089 L21.6214 931.877 L21.0485 931.877 Q17.0062 931.877 14.8101 934.551 Q12.5821 937.192 12.5821 941.999 Q12.5821 945.054 13.3141 947.95 Q14.0462 950.847 15.5103 953.52 L10.0995 953.52 Q8.85814 950.306 8.2534 947.282 Q7.61683 944.258 7.61683 941.394 Q7.61683 933.659 11.6272 929.84 Q15.6376 926.021 23.7857 926.021 Z" fill="#000000" fill-rule="nonzero" fill-opacity="1" /><path clip-path="url(#clip080)" d="M-1.64527 908.165 L8.4762 908.165 L8.4762 896.102 L13.0277 896.102 L13.0277 908.165 L32.3794 908.165 Q36.7399 908.165 37.9813 906.987 Q39.2226 905.778 39.2226 902.117 L39.2226 896.102 L44.1242 896.102 L44.1242 902.117 Q44.1242 908.897 41.6097 911.475 Q39.0634 914.053 32.3794 914.053 L13.0277 914.053 L13.0277 918.35 L8.4762 918.35 L8.4762 914.053 L-1.64527 914.053 L-1.64527 908.165 Z" fill="#000000" fill-rule="nonzero" fill-opacity="1" /><path clip-path="url(#clip080)" d="M8.4762 888.399 L8.4762 882.543 L44.1242 882.543 L44.1242 888.399 L8.4762 888.399 M-5.40104 888.399 L-5.40104 882.543 L2.01501 882.543 L2.01501 888.399 L-5.40104 888.399 Z" fill="#000000" fill-rule="nonzero" fill-opacity="1" /><path clip-path="url(#clip080)" d="M8.4762 874.49 L8.4762 868.284 L38.395 857.144 L8.4762 846.004 L8.4762 839.797 L44.1242 853.165 L44.1242 861.122 L8.4762 874.49 Z" fill="#000000" fill-rule="nonzero" fill-opacity="1" /><path clip-path="url(#clip080)" d="M24.8361 801.221 L27.7006 801.221 L27.7006 828.148 Q33.7481 827.766 36.9309 824.519 Q40.0819 821.241 40.0819 815.416 Q40.0819 812.043 39.2544 808.892 Q38.4269 805.709 36.7718 802.59 L42.3099 802.59 Q43.6467 805.741 44.347 809.051 Q45.0472 812.361 45.0472 815.767 Q45.0472 824.297 40.0819 829.294 Q35.1167 834.259 26.6503 834.259 Q17.8974 834.259 12.7731 829.548 Q7.61683 824.806 7.61683 816.785 Q7.61683 809.592 12.2638 805.422 Q16.8789 801.221 24.8361 801.221 M23.1173 807.077 Q18.3112 807.141 15.4466 809.783 Q12.5821 812.393 12.5821 816.721 Q12.5821 821.623 15.3512 824.583 Q18.1202 827.511 23.1492 827.957 L23.1173 807.077 Z" fill="#000000" fill-rule="nonzero" fill-opacity="1" /><path clip-path="url(#clip080)" d="M38.777 765.223 L57.6831 765.223 L57.6831 771.111 L8.4762 771.111 L8.4762 765.223 L13.8871 765.223 Q10.7042 763.377 9.17643 760.576 Q7.61683 757.743 7.61683 753.828 Q7.61683 747.335 12.7731 743.293 Q17.9293 739.219 26.332 739.219 Q34.7347 739.219 39.891 743.293 Q45.0472 747.335 45.0472 753.828 Q45.0472 757.743 43.5194 760.576 Q41.9598 763.377 38.777 765.223 M26.332 745.298 Q19.8708 745.298 16.2105 747.972 Q12.5184 750.614 12.5184 755.261 Q12.5184 759.907 16.2105 762.581 Q19.8708 765.223 26.332 765.223 Q32.7932 765.223 36.4853 762.581 Q40.1456 759.907 40.1456 755.261 Q40.1456 750.614 36.4853 747.972 Q32.7932 745.298 26.332 745.298 Z" fill="#000000" fill-rule="nonzero" fill-opacity="1" /><path clip-path="url(#clip080)" d="M22.6081 699.879 L44.1242 699.879 L44.1242 705.735 L22.799 705.735 Q17.7383 705.735 15.2238 707.709 Q12.7094 709.682 12.7094 713.629 Q12.7094 718.371 15.7331 721.109 Q18.7568 723.846 23.9767 723.846 L44.1242 723.846 L44.1242 729.734 L-5.40104 729.734 L-5.40104 723.846 L14.0144 723.846 Q10.7997 721.745 9.20826 718.912 Q7.61683 716.048 7.61683 712.324 Q7.61683 706.181 11.4363 703.03 Q15.2238 699.879 22.6081 699.879 Z" fill="#000000" fill-rule="nonzero" fill-opacity="1" /><path clip-path="url(#clip080)" d="M47.4343 673.366 Q53.8 675.848 55.7416 678.204 Q57.6831 680.559 57.6831 684.506 L57.6831 689.184 L52.7815 689.184 L52.7815 685.747 Q52.7815 683.328 51.6357 681.991 Q50.4899 680.654 46.2248 679.031 L43.5512 677.981 L8.4762 692.399 L8.4762 686.193 L36.358 675.053 L8.4762 663.913 L8.4762 657.706 L47.4343 673.366 Z" fill="#000000" fill-rule="nonzero" fill-opacity="1" /><path clip-path="url(#clip080)" d="M9.52654 626.896 L15.0647 626.896 Q13.7916 629.379 13.155 632.052 Q12.5184 634.726 12.5184 637.59 Q12.5184 641.951 13.8552 644.147 Q15.192 646.311 17.8656 646.311 Q19.9026 646.311 21.0803 644.752 Q22.2261 643.192 23.2765 638.482 L23.7221 636.476 Q25.0589 630.238 27.5097 627.628 Q29.9286 624.986 34.2891 624.986 Q39.2544 624.986 42.1508 628.933 Q45.0472 632.848 45.0472 639.723 Q45.0472 642.588 44.4743 645.707 Q43.9332 648.794 42.8192 652.232 L36.7718 652.232 Q38.4587 648.985 39.318 645.834 Q40.1456 642.683 40.1456 639.596 Q40.1456 635.458 38.7451 633.23 Q37.3129 631.002 34.7347 631.002 Q32.3476 631.002 31.0745 632.625 Q29.8013 634.217 28.6237 639.659 L28.1462 641.696 Q27.0004 647.139 24.6451 649.558 Q22.258 651.977 18.1202 651.977 Q13.0913 651.977 10.3541 648.412 Q7.61683 644.847 7.61683 638.291 Q7.61683 635.044 8.09426 632.18 Q8.57169 629.315 9.52654 626.896 Z" fill="#000000" fill-rule="nonzero" fill-opacity="1" /><path clip-path="url(#clip080)" d="M8.4762 615.661 L8.4762 609.804 L44.1242 609.804 L44.1242 615.661 L8.4762 615.661 M-5.40104 615.661 L-5.40104 609.804 L2.01501 609.804 L2.01501 615.661 L-5.40104 615.661 Z" fill="#000000" fill-rule="nonzero" fill-opacity="1" /><path clip-path="url(#clip080)" d="M12.5821 583.737 Q12.5821 588.447 16.2742 591.184 Q19.9345 593.922 26.332 593.922 Q32.7295 593.922 36.4217 591.216 Q40.0819 588.479 40.0819 583.737 Q40.0819 579.058 36.3898 576.321 Q32.6977 573.583 26.332 573.583 Q19.9981 573.583 16.306 576.321 Q12.5821 579.058 12.5821 583.737 M7.61683 583.737 Q7.61683 576.098 12.5821 571.737 Q17.5473 567.377 26.332 567.377 Q35.0849 567.377 40.0819 571.737 Q45.0472 576.098 45.0472 583.737 Q45.0472 591.407 40.0819 595.768 Q35.0849 600.096 26.332 600.096 Q17.5473 600.096 12.5821 595.768 Q7.61683 591.407 7.61683 583.737 Z" fill="#000000" fill-rule="nonzero" fill-opacity="1" /><path clip-path="url(#clip080)" d="M-5.40104 557.669 L-5.40104 551.813 L44.1242 551.813 L44.1242 557.669 L-5.40104 557.669 Z" fill="#000000" fill-rule="nonzero" fill-opacity="1" /><path clip-path="url(#clip080)" d="M12.5821 525.745 Q12.5821 530.456 16.2742 533.193 Q19.9345 535.93 26.332 535.93 Q32.7295 535.93 36.4217 533.225 Q40.0819 530.487 40.0819 525.745 Q40.0819 521.066 36.3898 518.329 Q32.6977 515.592 26.332 515.592 Q19.9981 515.592 16.306 518.329 Q12.5821 521.066 12.5821 525.745 M7.61683 525.745 Q7.61683 518.106 12.5821 513.746 Q17.5473 509.385 26.332 509.385 Q35.0849 509.385 40.0819 513.746 Q45.0472 518.106 45.0472 525.745 Q45.0472 533.416 40.0819 537.776 Q35.0849 542.105 26.332 542.105 Q17.5473 542.105 12.5821 537.776 Q7.61683 533.416 7.61683 525.745 Z" fill="#000000" fill-rule="nonzero" fill-opacity="1" /><path clip-path="url(#clip080)" d="M25.8864 476.22 Q19.5207 476.22 16.0196 478.862 Q12.5184 481.471 12.5184 486.214 Q12.5184 490.925 16.0196 493.566 Q19.5207 496.176 25.8864 496.176 Q32.2203 496.176 35.7214 493.566 Q39.2226 490.925 39.2226 486.214 Q39.2226 481.471 35.7214 478.862 Q32.2203 476.22 25.8864 476.22 M39.7 470.363 Q48.803 470.363 53.2271 474.406 Q57.6831 478.448 57.6831 486.787 Q57.6831 489.874 57.2057 492.611 Q56.7601 495.349 55.8052 497.927 L50.1079 497.927 Q51.5084 495.349 52.1768 492.834 Q52.8452 490.32 52.8452 487.71 Q52.8452 481.949 49.8215 479.084 Q46.8296 476.22 40.7503 476.22 L37.8539 476.22 Q41.005 478.034 42.5646 480.867 Q44.1242 483.699 44.1242 487.646 Q44.1242 494.203 39.1271 498.213 Q34.13 502.224 25.8864 502.224 Q17.611 502.224 12.6139 498.213 Q7.61683 494.203 7.61683 487.646 Q7.61683 483.699 9.17643 480.867 Q10.736 478.034 13.8871 476.22 L8.4762 476.22 L8.4762 470.363 L39.7 470.363 Z" fill="#000000" fill-rule="nonzero" fill-opacity="1" /><path clip-path="url(#clip080)" d="M8.4762 458.3 L8.4762 452.444 L44.1242 452.444 L44.1242 458.3 L8.4762 458.3 M-5.40104 458.3 L-5.40104 452.444 L2.01501 452.444 L2.01501 458.3 L-5.40104 458.3 Z" fill="#000000" fill-rule="nonzero" fill-opacity="1" /><path clip-path="url(#clip080)" d="M9.84483 414.536 L15.3193 414.536 Q13.9507 417.019 13.2823 419.533 Q12.5821 422.016 12.5821 424.562 Q12.5821 430.259 16.2105 433.41 Q19.8072 436.561 26.332 436.561 Q32.8569 436.561 36.4853 433.41 Q40.0819 430.259 40.0819 424.562 Q40.0819 422.016 39.4135 419.533 Q38.7133 417.019 37.3447 414.536 L42.7555 414.536 Q43.9014 416.987 44.4743 419.629 Q45.0472 422.239 45.0472 425.199 Q45.0472 433.251 39.9864 437.994 Q34.9257 442.736 26.332 442.736 Q17.611 442.736 12.6139 437.962 Q7.61683 433.156 7.61683 424.817 Q7.61683 422.111 8.18974 419.533 Q8.73083 416.955 9.84483 414.536 Z" fill="#000000" fill-rule="nonzero" fill-opacity="1" /><path clip-path="url(#clip080)" d="M26.2047 388.15 Q26.2047 395.248 27.8279 397.985 Q29.4512 400.722 33.3661 400.722 Q36.4853 400.722 38.3314 398.685 Q40.1456 396.617 40.1456 393.084 Q40.1456 388.214 36.7081 385.286 Q33.2388 382.326 27.5097 382.326 L26.2047 382.326 L26.2047 388.15 M23.7857 376.469 L44.1242 376.469 L44.1242 382.326 L38.7133 382.326 Q41.9598 384.331 43.5194 387.323 Q45.0472 390.315 45.0472 394.643 Q45.0472 400.118 41.9916 403.364 Q38.9043 406.579 33.7481 406.579 Q27.7325 406.579 24.6769 402.569 Q21.6214 398.526 21.6214 390.537 L21.6214 382.326 L21.0485 382.326 Q17.0062 382.326 14.8101 384.999 Q12.5821 387.641 12.5821 392.447 Q12.5821 395.503 13.3141 398.399 Q14.0462 401.295 15.5103 403.969 L10.0995 403.969 Q8.85814 400.754 8.2534 397.731 Q7.61683 394.707 7.61683 391.842 Q7.61683 384.108 11.6272 380.289 Q15.6376 376.469 23.7857 376.469 Z" fill="#000000" fill-rule="nonzero" fill-opacity="1" /><path clip-path="url(#clip080)" d="M-5.40104 364.406 L-5.40104 358.55 L44.1242 358.55 L44.1242 364.406 L-5.40104 364.406 Z" fill="#000000" fill-rule="nonzero" fill-opacity="1" /><path clip-path="url(#clip080)" d="M-1.64527 319.783 L8.4762 319.783 L8.4762 307.72 L13.0277 307.72 L13.0277 319.783 L32.3794 319.783 Q36.7399 319.783 37.9813 318.605 Q39.2226 317.395 39.2226 313.735 L39.2226 307.72 L44.1242 307.72 L44.1242 313.735 Q44.1242 320.515 41.6097 323.093 Q39.0634 325.671 32.3794 325.671 L13.0277 325.671 L13.0277 329.968 L8.4762 329.968 L8.4762 325.671 L-1.64527 325.671 L-1.64527 319.783 Z" fill="#000000" fill-rule="nonzero" fill-opacity="1" /><path clip-path="url(#clip080)" d="M8.4762 300.017 L8.4762 294.161 L44.1242 294.161 L44.1242 300.017 L8.4762 300.017 M-5.40104 300.017 L-5.40104 294.161 L2.01501 294.161 L2.01501 300.017 L-5.40104 300.017 Z" fill="#000000" fill-rule="nonzero" fill-opacity="1" /><path clip-path="url(#clip080)" d="M15.3193 254.152 Q11.3726 251.956 9.49471 248.9 Q7.61683 245.845 7.61683 241.707 Q7.61683 236.137 11.5317 233.113 Q15.4148 230.09 22.6081 230.09 L44.1242 230.09 L44.1242 235.978 L22.799 235.978 Q17.6746 235.978 15.192 237.792 Q12.7094 239.606 12.7094 243.33 Q12.7094 247.882 15.7331 250.524 Q18.7568 253.165 23.9767 253.165 L44.1242 253.165 L44.1242 259.054 L22.799 259.054 Q17.6428 259.054 15.192 260.868 Q12.7094 262.682 12.7094 266.47 Q12.7094 270.958 15.7649 273.599 Q18.7886 276.241 23.9767 276.241 L44.1242 276.241 L44.1242 282.129 L8.4762 282.129 L8.4762 276.241 L14.0144 276.241 Q10.736 274.236 9.17643 271.435 Q7.61683 268.634 7.61683 264.783 Q7.61683 260.9 9.5902 258.194 Q11.5636 255.457 15.3193 254.152 Z" fill="#000000" fill-rule="nonzero" fill-opacity="1" /><path clip-path="url(#clip080)" d="M24.8361 187.917 L27.7006 187.917 L27.7006 214.844 Q33.7481 214.462 36.9309 211.215 Q40.0819 207.937 40.0819 202.112 Q40.0819 198.739 39.2544 195.588 Q38.4269 192.405 36.7718 189.286 L42.3099 189.286 Q43.6467 192.437 44.347 195.747 Q45.0472 199.057 45.0472 202.463 Q45.0472 210.993 40.0819 215.99 Q35.1167 220.955 26.6503 220.955 Q17.8974 220.955 12.7731 216.244 Q7.61683 211.502 7.61683 203.481 Q7.61683 196.288 12.2638 192.118 Q16.8789 187.917 24.8361 187.917 M23.1173 193.773 Q18.3112 193.837 15.4466 196.479 Q12.5821 199.089 12.5821 203.417 Q12.5821 208.319 15.3512 211.279 Q18.1202 214.207 23.1492 214.653 L23.1173 193.773 Z" fill="#000000" fill-rule="nonzero" fill-opacity="1" /><path clip-path="url(#clip080)" d="M627.014 12.096 L678.177 12.096 L678.177 18.9825 L656.707 18.9825 L656.707 72.576 L648.484 72.576 L648.484 18.9825 L627.014 18.9825 L627.014 12.096 Z" fill="#000000" fill-rule="nonzero" fill-opacity="1" /><path clip-path="url(#clip080)" d="M683.2 27.2059 L690.654 27.2059 L690.654 72.576 L683.2 72.576 L683.2 27.2059 M683.2 9.54393 L690.654 9.54393 L690.654 18.9825 L683.2 18.9825 L683.2 9.54393 Z" fill="#000000" fill-rule="nonzero" fill-opacity="1" /><path clip-path="url(#clip080)" d="M741.574 35.9153 Q744.369 30.8922 748.258 28.5022 Q752.146 26.1121 757.413 26.1121 Q764.502 26.1121 768.35 31.0947 Q772.198 36.0368 772.198 45.1919 L772.198 72.576 L764.704 72.576 L764.704 45.4349 Q764.704 38.913 762.395 35.7533 Q760.086 32.5936 755.347 32.5936 Q749.554 32.5936 746.192 36.4419 Q742.829 40.2903 742.829 46.9338 L742.829 72.576 L735.335 72.576 L735.335 45.4349 Q735.335 38.8725 733.026 35.7533 Q730.717 32.5936 725.897 32.5936 Q720.185 32.5936 716.823 36.4824 Q713.46 40.3308 713.46 46.9338 L713.46 72.576 L705.966 72.576 L705.966 27.2059 L713.46 27.2059 L713.46 34.2544 Q716.012 30.082 719.577 28.0971 Q723.142 26.1121 728.044 26.1121 Q732.986 26.1121 736.429 28.6237 Q739.913 31.1352 741.574 35.9153 Z" fill="#000000" fill-rule="nonzero" fill-opacity="1" /><path clip-path="url(#clip080)" d="M825.873 48.0275 L825.873 51.6733 L791.602 51.6733 Q792.088 59.3701 796.22 63.421 Q800.393 67.4314 807.806 67.4314 Q812.1 67.4314 816.11 66.3781 Q820.161 65.3249 824.131 63.2184 L824.131 70.267 Q820.121 71.9684 815.908 72.8596 Q811.695 73.7508 807.36 73.7508 Q796.504 73.7508 790.144 67.4314 Q783.824 61.1119 783.824 50.3365 Q783.824 39.1965 789.82 32.6746 Q795.856 26.1121 806.064 26.1121 Q815.219 26.1121 820.526 32.0264 Q825.873 37.9003 825.873 48.0275 M818.419 45.84 Q818.338 39.7232 814.976 36.0774 Q811.654 32.4315 806.145 32.4315 Q799.907 32.4315 796.139 35.9558 Q792.412 39.4801 791.845 45.8805 L818.419 45.84 Z" fill="#000000" fill-rule="nonzero" fill-opacity="1" /><path clip-path="url(#clip080)" d="M834.339 46.5287 L856.174 46.5287 L856.174 53.1722 L834.339 53.1722 L834.339 46.5287 Z" fill="#000000" fill-rule="nonzero" fill-opacity="1" /><path clip-path="url(#clip080)" d="M913.656 16.7545 L913.656 25.383 Q909.524 21.5346 904.825 19.6307 Q900.166 17.7268 894.9 17.7268 Q884.53 17.7268 879.021 24.0867 Q873.512 30.4061 873.512 42.3968 Q873.512 54.3469 879.021 60.7069 Q884.53 67.0263 894.9 67.0263 Q900.166 67.0263 904.825 65.1223 Q909.524 63.2184 913.656 59.3701 L913.656 67.9175 Q909.362 70.8341 904.541 72.2924 Q899.761 73.7508 894.414 73.7508 Q880.682 73.7508 872.782 65.3654 Q864.883 56.9395 864.883 42.3968 Q864.883 27.8135 872.782 19.4281 Q880.682 11.0023 894.414 11.0023 Q899.842 11.0023 904.622 12.4606 Q909.443 13.8784 913.656 16.7545 Z" fill="#000000" fill-rule="nonzero" fill-opacity="1" /><path clip-path="url(#clip080)" d="M963.685 45.1919 L963.685 72.576 L956.231 72.576 L956.231 45.4349 Q956.231 38.994 953.719 35.7938 Q951.208 32.5936 946.185 32.5936 Q940.149 32.5936 936.665 36.4419 Q933.181 40.2903 933.181 46.9338 L933.181 72.576 L925.687 72.576 L925.687 9.54393 L933.181 9.54393 L933.181 34.2544 Q935.855 30.163 939.46 28.1376 Q943.106 26.1121 947.846 26.1121 Q955.664 26.1121 959.674 30.9732 Q963.685 35.7938 963.685 45.1919 Z" fill="#000000" fill-rule="nonzero" fill-opacity="1" /><path clip-path="url(#clip080)" d="M999.171 49.7694 Q990.137 49.7694 986.653 51.8354 Q983.169 53.9013 983.169 58.8839 Q983.169 62.8538 985.762 65.2034 Q988.395 67.5124 992.892 67.5124 Q999.09 67.5124 1002.82 63.1374 Q1006.58 58.7219 1006.58 51.4303 L1006.58 49.7694 L999.171 49.7694 M1014.04 46.6907 L1014.04 72.576 L1006.58 72.576 L1006.58 65.6895 Q1004.03 69.8214 1000.22 71.8063 Q996.416 73.7508 990.907 73.7508 Q983.939 73.7508 979.807 69.8619 Q975.716 65.9325 975.716 59.3701 Q975.716 51.7138 980.82 47.825 Q985.965 43.9361 996.132 43.9361 L1006.58 43.9361 L1006.58 43.2069 Q1006.58 38.0623 1003.18 35.2672 Q999.819 32.4315 993.702 32.4315 Q989.813 32.4315 986.127 33.3632 Q982.44 34.295 979.038 36.1584 L979.038 29.2718 Q983.129 27.692 986.977 26.9223 Q990.826 26.1121 994.472 26.1121 Q1004.32 26.1121 1009.18 31.2163 Q1014.04 36.3204 1014.04 46.6907 Z" fill="#000000" fill-rule="nonzero" fill-opacity="1" /><path clip-path="url(#clip080)" d="M1067.1 45.1919 L1067.1 72.576 L1059.65 72.576 L1059.65 45.4349 Q1059.65 38.994 1057.14 35.7938 Q1054.63 32.5936 1049.6 32.5936 Q1043.57 32.5936 1040.08 36.4419 Q1036.6 40.2903 1036.6 46.9338 L1036.6 72.576 L1029.11 72.576 L1029.11 27.2059 L1036.6 27.2059 L1036.6 34.2544 Q1039.27 30.163 1042.88 28.1376 Q1046.53 26.1121 1051.27 26.1121 Q1059.08 26.1121 1063.09 30.9732 Q1067.1 35.7938 1067.1 45.1919 Z" fill="#000000" fill-rule="nonzero" fill-opacity="1" /><path clip-path="url(#clip080)" d="M1111.83 49.3643 Q1111.83 41.2625 1108.46 36.8065 Q1105.14 32.3505 1099.11 32.3505 Q1093.11 32.3505 1089.75 36.8065 Q1086.43 41.2625 1086.43 49.3643 Q1086.43 57.4256 1089.75 61.8816 Q1093.11 66.3376 1099.11 66.3376 Q1105.14 66.3376 1108.46 61.8816 Q1111.83 57.4256 1111.83 49.3643 M1119.28 66.9452 Q1119.28 78.5308 1114.14 84.1616 Q1108.99 89.8329 1098.38 89.8329 Q1094.45 89.8329 1090.96 89.2252 Q1087.48 88.6581 1084.2 87.4428 L1084.2 80.1917 Q1087.48 81.9741 1090.68 82.8248 Q1093.88 83.6755 1097.2 83.6755 Q1104.53 83.6755 1108.18 79.8271 Q1111.83 76.0193 1111.83 68.282 L1111.83 64.5957 Q1109.52 68.6061 1105.91 70.5911 Q1102.31 72.576 1097.28 72.576 Q1088.94 72.576 1083.83 66.2161 Q1078.73 59.8562 1078.73 49.3643 Q1078.73 38.832 1083.83 32.472 Q1088.94 26.1121 1097.28 26.1121 Q1102.31 26.1121 1105.91 28.0971 Q1109.52 30.082 1111.83 34.0924 L1111.83 27.2059 L1119.28 27.2059 L1119.28 66.9452 Z" fill="#000000" fill-rule="nonzero" fill-opacity="1" /><path clip-path="url(#clip080)" d="M1173.44 48.0275 L1173.44 51.6733 L1139.17 51.6733 Q1139.66 59.3701 1143.79 63.421 Q1147.96 67.4314 1155.37 67.4314 Q1159.67 67.4314 1163.68 66.3781 Q1167.73 65.3249 1171.7 63.2184 L1171.7 70.267 Q1167.69 71.9684 1163.48 72.8596 Q1159.26 73.7508 1154.93 73.7508 Q1144.07 73.7508 1137.71 67.4314 Q1131.39 61.1119 1131.39 50.3365 Q1131.39 39.1965 1137.39 32.6746 Q1143.42 26.1121 1153.63 26.1121 Q1162.79 26.1121 1168.09 32.0264 Q1173.44 37.9003 1173.44 48.0275 M1165.99 45.84 Q1165.91 39.7232 1162.54 36.0774 Q1159.22 32.4315 1153.71 32.4315 Q1147.47 32.4315 1143.71 35.9558 Q1139.98 39.4801 1139.41 45.8805 L1165.99 45.84 Z" fill="#000000" fill-rule="nonzero" fill-opacity="1" /><path clip-path="url(#clip080)" d="M1212.37 12.096 L1224.56 12.096 L1240 53.2532 L1255.51 12.096 L1267.7 12.096 L1267.7 72.576 L1259.72 72.576 L1259.72 19.4686 L1244.13 60.9499 L1235.91 60.9499 L1220.31 19.4686 L1220.31 72.576 L1212.37 72.576 L1212.37 12.096 Z" fill="#000000" fill-rule="nonzero" fill-opacity="1" /><path clip-path="url(#clip080)" d="M1304.24 49.7694 Q1295.21 49.7694 1291.73 51.8354 Q1288.24 53.9013 1288.24 58.8839 Q1288.24 62.8538 1290.84 65.2034 Q1293.47 67.5124 1297.97 67.5124 Q1304.16 67.5124 1307.89 63.1374 Q1311.66 58.7219 1311.66 51.4303 L1311.66 49.7694 L1304.24 49.7694 M1319.11 46.6907 L1319.11 72.576 L1311.66 72.576 L1311.66 65.6895 Q1309.11 69.8214 1305.3 71.8063 Q1301.49 73.7508 1295.98 73.7508 Q1289.01 73.7508 1284.88 69.8619 Q1280.79 65.9325 1280.79 59.3701 Q1280.79 51.7138 1285.89 47.825 Q1291.04 43.9361 1301.21 43.9361 L1311.66 43.9361 L1311.66 43.2069 Q1311.66 38.0623 1308.25 35.2672 Q1304.89 32.4315 1298.78 32.4315 Q1294.89 32.4315 1291.2 33.3632 Q1287.51 34.295 1284.11 36.1584 L1284.11 29.2718 Q1288.2 27.692 1292.05 26.9223 Q1295.9 26.1121 1299.55 26.1121 Q1309.39 26.1121 1314.25 31.2163 Q1319.11 36.3204 1319.11 46.6907 Z" fill="#000000" fill-rule="nonzero" fill-opacity="1" /><path clip-path="url(#clip080)" d="M1341.67 65.7705 L1341.67 89.8329 L1334.18 89.8329 L1334.18 27.2059 L1341.67 27.2059 L1341.67 34.0924 Q1344.02 30.0415 1347.59 28.0971 Q1351.19 26.1121 1356.18 26.1121 Q1364.44 26.1121 1369.59 32.6746 Q1374.77 39.2371 1374.77 49.9314 Q1374.77 60.6258 1369.59 67.1883 Q1364.44 73.7508 1356.18 73.7508 Q1351.19 73.7508 1347.59 71.8063 Q1344.02 69.8214 1341.67 65.7705 M1367.03 49.9314 Q1367.03 41.7081 1363.63 37.0496 Q1360.27 32.3505 1354.35 32.3505 Q1348.44 32.3505 1345.04 37.0496 Q1341.67 41.7081 1341.67 49.9314 Q1341.67 58.1548 1345.04 62.8538 Q1348.44 67.5124 1354.35 67.5124 Q1360.27 67.5124 1363.63 62.8538 Q1367.03 58.1548 1367.03 49.9314 Z" fill="#000000" fill-rule="nonzero" fill-opacity="1" /><path clip-path="url(#clip080)" d="M1416.05 28.5427 L1416.05 35.5912 Q1412.89 33.9709 1409.49 33.1607 Q1406.08 32.3505 1402.44 32.3505 Q1396.89 32.3505 1394.09 34.0519 Q1391.34 35.7533 1391.34 39.156 Q1391.34 41.7486 1393.32 43.2475 Q1395.31 44.7058 1401.3 46.0426 L1403.86 46.6097 Q1411.8 48.3111 1415.12 51.4303 Q1418.48 54.509 1418.48 60.0587 Q1418.48 66.3781 1413.46 70.0644 Q1408.47 73.7508 1399.72 73.7508 Q1396.08 73.7508 1392.11 73.0216 Q1388.18 72.3329 1383.8 70.9151 L1383.8 63.2184 Q1387.94 65.3654 1391.95 66.4591 Q1395.96 67.5124 1399.89 67.5124 Q1405.15 67.5124 1407.99 65.73 Q1410.82 63.9071 1410.82 60.6258 Q1410.82 57.5877 1408.76 55.9673 Q1406.73 54.3469 1399.8 52.8481 L1397.21 52.2405 Q1390.29 50.7821 1387.21 47.7845 Q1384.13 44.7463 1384.13 39.4801 Q1384.13 33.0797 1388.66 29.5959 Q1393.2 26.1121 1401.55 26.1121 Q1405.68 26.1121 1409.32 26.7198 Q1412.97 27.3274 1416.05 28.5427 Z" fill="#000000" fill-rule="nonzero" fill-opacity="1" /><path clip-path="url(#clip080)" d="M1456.11 12.096 L1464.34 12.096 L1464.34 48.8377 Q1464.34 58.5599 1467.86 62.8538 Q1471.38 67.1073 1479.28 67.1073 Q1487.14 67.1073 1490.67 62.8538 Q1494.19 58.5599 1494.19 48.8377 L1494.19 12.096 L1502.41 12.096 L1502.41 49.8504 Q1502.41 61.6791 1496.54 67.7149 Q1490.71 73.7508 1479.28 73.7508 Q1467.82 73.7508 1461.95 67.7149 Q1456.11 61.6791 1456.11 49.8504 L1456.11 12.096 Z" fill="#000000" fill-rule="nonzero" fill-opacity="1" /><path clip-path="url(#clip080)" d="M1555.16 45.1919 L1555.16 72.576 L1547.7 72.576 L1547.7 45.4349 Q1547.7 38.994 1545.19 35.7938 Q1542.68 32.5936 1537.66 32.5936 Q1531.62 32.5936 1528.14 36.4419 Q1524.65 40.2903 1524.65 46.9338 L1524.65 72.576 L1517.16 72.576 L1517.16 27.2059 L1524.65 27.2059 L1524.65 34.2544 Q1527.33 30.163 1530.93 28.1376 Q1534.58 26.1121 1539.32 26.1121 Q1547.14 26.1121 1551.15 30.9732 Q1555.16 35.7938 1555.16 45.1919 Z" fill="#000000" fill-rule="nonzero" fill-opacity="1" /><path clip-path="url(#clip080)" d="M1599.88 34.0924 L1599.88 9.54393 L1607.33 9.54393 L1607.33 72.576 L1599.88 72.576 L1599.88 65.7705 Q1597.53 69.8214 1593.92 71.8063 Q1590.36 73.7508 1585.34 73.7508 Q1577.11 73.7508 1571.93 67.1883 Q1566.78 60.6258 1566.78 49.9314 Q1566.78 39.2371 1571.93 32.6746 Q1577.11 26.1121 1585.34 26.1121 Q1590.36 26.1121 1593.92 28.0971 Q1597.53 30.0415 1599.88 34.0924 M1574.48 49.9314 Q1574.48 58.1548 1577.84 62.8538 Q1581.24 67.5124 1587.16 67.5124 Q1593.07 67.5124 1596.48 62.8538 Q1599.88 58.1548 1599.88 49.9314 Q1599.88 41.7081 1596.48 37.0496 Q1593.07 32.3505 1587.16 32.3505 Q1581.24 32.3505 1577.84 37.0496 Q1574.48 41.7081 1574.48 49.9314 Z" fill="#000000" fill-rule="nonzero" fill-opacity="1" /><path clip-path="url(#clip080)" d="M1661.49 48.0275 L1661.49 51.6733 L1627.22 51.6733 Q1627.71 59.3701 1631.84 63.421 Q1636.01 67.4314 1643.43 67.4314 Q1647.72 67.4314 1651.73 66.3781 Q1655.78 65.3249 1659.75 63.2184 L1659.75 70.267 Q1655.74 71.9684 1651.53 72.8596 Q1647.32 73.7508 1642.98 73.7508 Q1632.12 73.7508 1625.76 67.4314 Q1619.45 61.1119 1619.45 50.3365 Q1619.45 39.1965 1625.44 32.6746 Q1631.48 26.1121 1641.68 26.1121 Q1650.84 26.1121 1656.15 32.0264 Q1661.49 37.9003 1661.49 48.0275 M1654.04 45.84 Q1653.96 39.7232 1650.6 36.0774 Q1647.27 32.4315 1641.77 32.4315 Q1635.53 32.4315 1631.76 35.9558 Q1628.03 39.4801 1627.47 45.8805 L1654.04 45.84 Z" fill="#000000" fill-rule="nonzero" fill-opacity="1" /><path clip-path="url(#clip080)" d="M1700.02 34.1734 Q1698.76 33.4443 1697.26 33.1202 Q1695.8 32.7556 1694.02 32.7556 Q1687.7 32.7556 1684.3 36.8875 Q1680.94 40.9789 1680.94 48.6757 L1680.94 72.576 L1673.44 72.576 L1673.44 27.2059 L1680.94 27.2059 L1680.94 34.2544 Q1683.29 30.1225 1687.05 28.1376 Q1690.82 26.1121 1696.21 26.1121 Q1696.98 26.1121 1697.91 26.2337 Q1698.84 26.3147 1699.98 26.5172 L1700.02 34.1734 Z" fill="#000000" fill-rule="nonzero" fill-opacity="1" /><path clip-path="url(#clip080)" d="M1742.71 18.8205 L1742.71 65.8515 L1752.6 65.8515 Q1765.12 65.8515 1770.91 60.1802 Q1776.74 54.509 1776.74 42.2752 Q1776.74 30.1225 1770.91 24.4918 Q1765.12 18.8205 1752.6 18.8205 L1742.71 18.8205 M1734.53 12.096 L1751.34 12.096 Q1768.92 12.096 1777.15 19.4281 Q1785.37 26.7198 1785.37 42.2752 Q1785.37 57.9117 1777.11 65.2439 Q1768.84 72.576 1751.34 72.576 L1734.53 72.576 L1734.53 12.096 Z" fill="#000000" fill-rule="nonzero" fill-opacity="1" /><path clip-path="url(#clip080)" d="M1798.09 27.2059 L1805.54 27.2059 L1805.54 72.576 L1798.09 72.576 L1798.09 27.2059 M1798.09 9.54393 L1805.54 9.54393 L1805.54 18.9825 L1798.09 18.9825 L1798.09 9.54393 Z" fill="#000000" fill-rule="nonzero" fill-opacity="1" /><path clip-path="url(#clip080)" d="M1844.11 9.54393 L1844.11 15.7418 L1836.98 15.7418 Q1832.97 15.7418 1831.39 17.3622 Q1829.85 18.9825 1829.85 23.1955 L1829.85 27.2059 L1842.12 27.2059 L1842.12 32.9987 L1829.85 32.9987 L1829.85 72.576 L1822.35 72.576 L1822.35 32.9987 L1815.23 32.9987 L1815.23 27.2059 L1822.35 27.2059 L1822.35 24.0462 Q1822.35 16.471 1825.88 13.0277 Q1829.4 9.54393 1837.06 9.54393 L1844.11 9.54393 Z" fill="#000000" fill-rule="nonzero" fill-opacity="1" /><path clip-path="url(#clip080)" d="M1873.32 9.54393 L1873.32 15.7418 L1866.19 15.7418 Q1862.18 15.7418 1860.6 17.3622 Q1859.06 18.9825 1859.06 23.1955 L1859.06 27.2059 L1871.33 27.2059 L1871.33 32.9987 L1859.06 32.9987 L1859.06 72.576 L1851.56 72.576 L1851.56 32.9987 L1844.43 32.9987 L1844.43 27.2059 L1851.56 27.2059 L1851.56 24.0462 Q1851.56 16.471 1855.09 13.0277 Q1858.61 9.54393 1866.27 9.54393 L1873.32 9.54393 Z" fill="#000000" fill-rule="nonzero" fill-opacity="1" /><path clip-path="url(#clip080)" d="M1918.36 48.0275 L1918.36 51.6733 L1884.09 51.6733 Q1884.58 59.3701 1888.71 63.421 Q1892.88 67.4314 1900.29 67.4314 Q1904.59 67.4314 1908.6 66.3781 Q1912.65 65.3249 1916.62 63.2184 L1916.62 70.267 Q1912.61 71.9684 1908.4 72.8596 Q1904.18 73.7508 1899.85 73.7508 Q1888.99 73.7508 1882.63 67.4314 Q1876.31 61.1119 1876.31 50.3365 Q1876.31 39.1965 1882.31 32.6746 Q1888.34 26.1121 1898.55 26.1121 Q1907.71 26.1121 1913.01 32.0264 Q1918.36 37.9003 1918.36 48.0275 M1910.91 45.84 Q1910.83 39.7232 1907.46 36.0774 Q1904.14 32.4315 1898.63 32.4315 Q1892.39 32.4315 1888.63 35.9558 Q1884.9 39.4801 1884.33 45.8805 L1910.91 45.84 Z" fill="#000000" fill-rule="nonzero" fill-opacity="1" /><path clip-path="url(#clip080)" d="M1956.89 34.1734 Q1955.63 33.4443 1954.13 33.1202 Q1952.67 32.7556 1950.89 32.7556 Q1944.57 32.7556 1941.17 36.8875 Q1937.81 40.9789 1937.81 48.6757 L1937.81 72.576 L1930.31 72.576 L1930.31 27.2059 L1937.81 27.2059 L1937.81 34.2544 Q1940.16 30.1225 1943.92 28.1376 Q1947.69 26.1121 1953.08 26.1121 Q1953.85 26.1121 1954.78 26.2337 Q1955.71 26.3147 1956.84 26.5172 L1956.89 34.1734 Z" fill="#000000" fill-rule="nonzero" fill-opacity="1" /><path clip-path="url(#clip080)" d="M2001.69 48.0275 L2001.69 51.6733 L1967.42 51.6733 Q1967.9 59.3701 1972.04 63.421 Q1976.21 67.4314 1983.62 67.4314 Q1987.92 67.4314 1991.93 66.3781 Q1995.98 65.3249 1999.95 63.2184 L1999.95 70.267 Q1995.94 71.9684 1991.72 72.8596 Q1987.51 73.7508 1983.18 73.7508 Q1972.32 73.7508 1965.96 67.4314 Q1959.64 61.1119 1959.64 50.3365 Q1959.64 39.1965 1965.64 32.6746 Q1971.67 26.1121 1981.88 26.1121 Q1991.03 26.1121 1996.34 32.0264 Q2001.69 37.9003 2001.69 48.0275 M1994.23 45.84 Q1994.15 39.7232 1990.79 36.0774 Q1987.47 32.4315 1981.96 32.4315 Q1975.72 32.4315 1971.95 35.9558 Q1968.23 39.4801 1967.66 45.8805 L1994.23 45.84 Z" fill="#000000" fill-rule="nonzero" fill-opacity="1" /><path clip-path="url(#clip080)" d="M2051.64 45.1919 L2051.64 72.576 L2044.18 72.576 L2044.18 45.4349 Q2044.18 38.994 2041.67 35.7938 Q2039.16 32.5936 2034.14 32.5936 Q2028.1 32.5936 2024.62 36.4419 Q2021.13 40.2903 2021.13 46.9338 L2021.13 72.576 L2013.64 72.576 L2013.64 27.2059 L2021.13 27.2059 L2021.13 34.2544 Q2023.81 30.163 2027.41 28.1376 Q2031.06 26.1121 2035.8 26.1121 Q2043.62 26.1121 2047.63 30.9732 Q2051.64 35.7938 2051.64 45.1919 Z" fill="#000000" fill-rule="nonzero" fill-opacity="1" /><path clip-path="url(#clip080)" d="M2073.88 14.324 L2073.88 27.2059 L2089.23 27.2059 L2089.23 32.9987 L2073.88 32.9987 L2073.88 57.6282 Q2073.88 63.1779 2075.37 64.7578 Q2076.91 66.3376 2081.57 66.3376 L2089.23 66.3376 L2089.23 72.576 L2081.57 72.576 Q2072.94 72.576 2069.66 69.3758 Q2066.38 66.1351 2066.38 57.6282 L2066.38 32.9987 L2060.91 32.9987 L2060.91 27.2059 L2066.38 27.2059 L2066.38 14.324 L2073.88 14.324 Z" fill="#000000" fill-rule="nonzero" fill-opacity="1" /><path clip-path="url(#clip080)" d="M2171.02 16.7545 L2171.02 25.383 Q2166.88 21.5346 2162.19 19.6307 Q2157.53 17.7268 2152.26 17.7268 Q2141.89 17.7268 2136.38 24.0867 Q2130.87 30.4061 2130.87 42.3968 Q2130.87 54.3469 2136.38 60.7069 Q2141.89 67.0263 2152.26 67.0263 Q2157.53 67.0263 2162.19 65.1223 Q2166.88 63.2184 2171.02 59.3701 L2171.02 67.9175 Q2166.72 70.8341 2161.9 72.2924 Q2157.12 73.7508 2151.77 73.7508 Q2138.04 73.7508 2130.14 65.3654 Q2122.24 56.9395 2122.24 42.3968 Q2122.24 27.8135 2130.14 19.4281 Q2138.04 11.0023 2151.77 11.0023 Q2157.2 11.0023 2161.98 12.4606 Q2166.8 13.8784 2171.02 16.7545 Z" fill="#000000" fill-rule="nonzero" fill-opacity="1" /><path clip-path="url(#clip080)" d="M2183.33 9.54393 L2190.78 9.54393 L2190.78 72.576 L2183.33 72.576 L2183.33 9.54393 Z" fill="#000000" fill-rule="nonzero" fill-opacity="1" /><path clip-path="url(#clip080)" d="M2223.96 32.4315 Q2217.97 32.4315 2214.48 37.1306 Q2211 41.7891 2211 49.9314 Q2211 58.0738 2214.44 62.7728 Q2217.93 67.4314 2223.96 67.4314 Q2229.92 67.4314 2233.4 62.7323 Q2236.88 58.0333 2236.88 49.9314 Q2236.88 41.8701 2233.4 37.1711 Q2229.92 32.4315 2223.96 32.4315 M2223.96 26.1121 Q2233.68 26.1121 2239.23 32.4315 Q2244.78 38.7509 2244.78 49.9314 Q2244.78 61.0714 2239.23 67.4314 Q2233.68 73.7508 2223.96 73.7508 Q2214.2 73.7508 2208.65 67.4314 Q2203.14 61.0714 2203.14 49.9314 Q2203.14 38.7509 2208.65 32.4315 Q2214.2 26.1121 2223.96 26.1121 Z" fill="#000000" fill-rule="nonzero" fill-opacity="1" /><path clip-path="url(#clip080)" d="M2289.79 28.9478 L2289.79 35.9153 Q2286.63 34.1734 2283.43 33.3227 Q2280.27 32.4315 2277.03 32.4315 Q2269.78 32.4315 2265.77 37.0496 Q2261.76 41.6271 2261.76 49.9314 Q2261.76 58.2358 2265.77 62.8538 Q2269.78 67.4314 2277.03 67.4314 Q2280.27 67.4314 2283.43 66.5807 Q2286.63 65.6895 2289.79 63.9476 L2289.79 70.8341 Q2286.67 72.2924 2283.31 73.0216 Q2279.99 73.7508 2276.22 73.7508 Q2265.97 73.7508 2259.93 67.3098 Q2253.9 60.8689 2253.9 49.9314 Q2253.9 38.832 2259.97 32.472 Q2266.09 26.1121 2276.7 26.1121 Q2280.15 26.1121 2283.43 26.8413 Q2286.71 27.5299 2289.79 28.9478 Z" fill="#000000" fill-rule="nonzero" fill-opacity="1" /><path clip-path="url(#clip080)" d="M2302.47 9.54393 L2309.96 9.54393 L2309.96 46.7717 L2332.2 27.2059 L2341.72 27.2059 L2317.66 48.4326 L2342.73 72.576 L2333.01 72.576 L2309.96 50.4176 L2309.96 72.576 L2302.47 72.576 L2302.47 9.54393 Z" fill="#000000" fill-rule="nonzero" fill-opacity="1" /><path clip-path="url(#clip080)" d="M2379.72 28.5427 L2379.72 35.5912 Q2376.56 33.9709 2373.16 33.1607 Q2369.75 32.3505 2366.11 32.3505 Q2360.56 32.3505 2357.76 34.0519 Q2355.01 35.7533 2355.01 39.156 Q2355.01 41.7486 2356.99 43.2475 Q2358.98 44.7058 2364.97 46.0426 L2367.53 46.6097 Q2375.47 48.3111 2378.79 51.4303 Q2382.15 54.509 2382.15 60.0587 Q2382.15 66.3781 2377.13 70.0644 Q2372.14 73.7508 2363.39 73.7508 Q2359.75 73.7508 2355.78 73.0216 Q2351.85 72.3329 2347.47 70.9151 L2347.47 63.2184 Q2351.61 65.3654 2355.62 66.4591 Q2359.63 67.5124 2363.56 67.5124 Q2368.82 67.5124 2371.66 65.73 Q2374.49 63.9071 2374.49 60.6258 Q2374.49 57.5877 2372.43 55.9673 Q2370.4 54.3469 2363.47 52.8481 L2360.88 52.2405 Q2353.95 50.7821 2350.88 47.7845 Q2347.8 44.7463 2347.8 39.4801 Q2347.8 33.0797 2352.33 29.5959 Q2356.87 26.1121 2365.22 26.1121 Q2369.35 26.1121 2372.99 26.7198 Q2376.64 27.3274 2379.72 28.5427 Z" fill="#000000" fill-rule="nonzero" fill-opacity="1" /><polyline clip-path="url(#clip081)" style="stroke:#4682b4; stroke-linecap:round; stroke-linejoin:round; stroke-width:10; stroke-opacity:1; fill:none" points="327.059,1213.51 333.529,1213.51 339.999,1213.51 346.468,1213.51 352.938,1213.51 359.408,1213.51 365.878,1213.51 372.348,1213.51 378.818,1213.51 385.288,1213.51 391.758,1213.51 398.228,1213.51 404.698,1213.51 411.167,1213.51 417.637,1213.51 424.107,1213.51 430.577,1213.51 437.047,1213.51 443.517,1213.51 449.987,1213.51 456.457,1213.51 462.927,1213.51 469.397,1213.51 475.867,1213.51 482.336,1213.51 488.806,1213.51 495.276,1213.51 501.746,1213.51 508.216,1213.51 514.686,1213.51 521.156,1213.51 527.626,1213.51 534.096,1213.51 540.566,1213.51 547.036,1213.51 553.505,1213.51 559.975,1213.51 566.445,1213.51 572.915,1213.49 579.385,1213.42 585.855,1213.29 592.325,1213.11 598.795,1212.87 605.265,1212.58 611.735,1212.23 618.204,1211.83 624.674,1211.37 631.144,1210.85 637.614,1210.26 644.084,1209.62 650.554,1208.92 657.024,1208.16 663.494,1207.34 669.964,1206.45 676.434,1205.51 682.904,1204.5 689.373,1203.42 695.843,1202.28 702.313,1201.08 708.783,1199.81 715.253,1198.48 721.723,1197.08 728.193,1195.61 734.663,1194.08 741.133,1192.48 747.603,1190.81 754.073,1189.08 760.542,1187.28 767.012,1185.41 773.482,1183.47 779.952,1181.46 786.422,1179.38 792.892,1177.24 799.362,1175.02 805.832,1172.74 812.302,1170.39 818.772,1167.96 825.241,1165.47 831.711,1162.91 838.181,1160.28 844.651,1157.58 851.121,1154.81 857.591,1151.96 864.061,1149.05 870.531,1146.07 877.001,1143.02 883.471,1139.9 889.941,1136.72 896.41,1133.46 902.88,1130.13 909.35,1126.74 915.82,1123.27 922.29,1119.74 928.76,1116.14 935.23,1112.47 941.7,1108.73 948.17,1104.93 954.64,1101.06 961.109,1097.12 967.579,1093.12 974.049,1089.05 980.519,1084.92 986.989,1080.72 993.459,1076.45 999.929,1072.12 1006.4,1067.73 1012.87,1063.28 1019.34,1058.76 1025.81,1054.18 1032.28,1049.54 1038.75,1044.83 1045.22,1040.07 1051.69,1035.25 1058.16,1030.37 1064.63,1025.43 1071.1,1020.43 1077.57,1015.37 1084.04,1010.26 1090.51,1005.1 1096.98,999.874 1103.45,994.598 1109.92,989.268 1116.39,983.885 1122.86,978.451 1129.33,972.965 1135.8,967.429 1142.27,961.844 1148.74,956.21 1155.21,950.529 1161.68,944.8 1168.15,939.026 1174.62,933.207 1181.09,927.343 1187.56,921.437 1194.03,915.488 1200.5,909.498 1206.97,903.468 1213.44,897.398 1219.91,891.29 1226.38,885.145 1232.85,878.964 1239.32,872.747 1245.79,866.496 1252.26,860.212 1258.73,853.896 1265.2,847.549 1271.66,841.173 1278.13,834.767 1284.6,828.333 1291.07,821.873 1297.54,815.388 1304.01,808.878 1310.48,802.344 1316.95,795.789 1323.42,789.213 1329.89,782.617 1336.36,776.002 1342.83,769.369 1349.3,762.721 1355.77,756.057 1362.24,749.379 1368.71,742.688 1375.18,735.986 1381.65,729.273 1388.12,722.55 1394.59,715.82 1401.06,709.083 1407.53,702.34 1414,695.593 1420.47,688.842 1426.94,682.089 1433.41,675.336 1439.88,668.582 1446.35,661.831 1452.82,655.081 1459.29,648.336 1465.76,641.596 1472.23,634.862 1478.7,628.136 1485.17,621.418 1491.64,614.71 1498.11,608.013 1504.58,601.329 1511.05,594.658 1517.52,588.001 1523.99,581.361 1530.46,574.737 1536.93,568.131 1543.4,561.545 1549.87,554.979 1556.34,548.434 1562.81,541.913 1569.28,535.415 1575.75,528.942 1582.22,522.495 1588.69,516.075 1595.16,509.684 1601.63,503.322 1608.1,496.99 1614.57,490.69 1621.04,484.422 1627.51,478.189 1633.98,471.989 1640.45,465.826 1646.92,459.699 1653.39,453.611 1659.86,447.561 1666.33,441.55 1672.8,435.581 1679.27,429.653 1685.74,423.768 1692.21,417.926 1698.68,412.13 1705.15,406.378 1711.62,400.673 1718.09,395.015 1724.56,389.406 1731.03,383.845 1737.5,378.334 1743.97,372.874 1750.44,367.465 1756.91,362.109 1763.38,356.806 1769.85,351.556 1776.32,346.362 1782.79,341.222 1789.26,336.139 1795.73,331.112 1802.2,326.143 1808.67,321.233 1815.14,316.38 1821.61,311.588 1828.08,306.855 1834.55,302.183 1841.02,297.572 1847.49,293.024 1853.96,288.537 1860.43,284.113 1866.9,279.753 1873.37,275.457 1879.84,271.225 1886.31,267.057 1892.78,262.955 1899.25,258.919 1905.72,254.949 1912.19,251.045 1918.66,247.208 1925.13,243.438 1931.6,239.736 1938.07,236.101 1944.54,232.534 1951.01,229.036 1957.48,225.606 1963.94,222.245 1970.41,218.952 1976.88,215.729 1983.35,212.575 1989.82,209.491 1996.29,206.476 2002.76,203.53 2009.23,200.654 2015.7,197.848 2022.17,195.112 2028.64,192.445 2035.11,189.848 2041.58,187.321 2048.05,184.864 2054.52,182.476 2060.99,180.157 2067.46,177.908 2073.93,175.729 2080.4,173.618 2086.87,171.576 2093.34,169.603 2099.81,167.699 2106.28,165.862 2112.75,164.094 2119.22,162.394 2125.69,160.761 2132.16,159.195 2138.63,157.696 2145.1,156.263 2151.57,154.896 2158.04,153.595 2164.51,152.36 2170.98,151.189 2177.45,150.082 2183.92,149.039 2190.39,148.06 2196.86,147.144 2203.33,146.29 2209.8,145.497 2216.27,144.766 2222.74,144.096 2229.21,143.486 2235.68,142.935 2242.15,142.443 2248.62,142.009 2255.09,141.633 2261.56,141.313 2268.03,141.049 2274.5,140.841 2280.97,140.688 2287.44,140.588 2293.91,140.541 2300.38,140.541 2306.85,140.541 2313.32,140.541 2319.79,140.541 2326.26,140.541 2332.73,140.541 2339.2,140.541 2345.67,140.541 2352.14,140.541 2358.61,140.541 2365.08,140.541 2371.55,140.541 2378.02,140.541 2384.49,140.541 2390.96,140.541 2397.43,140.541 2403.9,140.541 2410.37,140.541 2416.84,140.541 2423.31,140.541 2429.78,140.541 2436.25,140.541 2442.72,140.541 2449.19,140.541 2455.66,140.541 2462.13,140.541 2468.6,140.541 2475.07,140.541 2481.54,140.541 2488.01,140.541 2494.48,140.541 2500.95,140.541 2507.42,140.541 2513.89,140.541 2520.36,140.541 2526.83,140.541 2533.3,140.541 2539.77,140.541 2546.24,140.541 2552.71,140.541 2559.18,140.541 2565.65,140.541 2572.12,140.541 2578.59,140.541 2585.06,140.541 2591.53,140.541 2598,140.541 2604.47,140.541 2610.94,140.541 2617.41,140.541 2623.88,140.541 2630.35,140.541 2636.82,140.541 2643.29,140.541 2649.75,140.541 2656.22,140.541 2662.69,140.541 2669.16,140.541 2675.63,140.541 2682.1,140.541 "/>
<polyline clip-path="url(#clip081)" style="stroke:#b22222; stroke-linecap:round; stroke-linejoin:round; stroke-width:10; stroke-opacity:1; fill:none" stroke-dasharray="40, 25" points="327.059,1213.51 333.529,1213.51 339.999,1213.51 346.468,1213.51 352.938,1213.51 359.408,1213.51 365.878,1213.51 372.348,1213.51 378.818,1213.51 385.288,1213.51 391.758,1213.51 398.228,1213.51 404.698,1213.51 411.167,1213.51 417.637,1213.51 424.107,1213.51 430.577,1213.51 437.047,1213.51 443.517,1213.51 449.987,1213.51 456.457,1213.51 462.927,1213.51 469.397,1213.51 475.867,1213.51 482.336,1213.51 488.806,1213.51 495.276,1213.51 501.746,1213.51 508.216,1213.51 514.686,1213.51 521.156,1213.51 527.626,1213.51 534.096,1213.51 540.566,1213.51 547.036,1213.51 553.505,1213.51 559.975,1213.51 566.445,1213.51 572.915,1213.5 579.385,1213.44 585.855,1213.34 592.325,1213.2 598.795,1213.01 605.265,1212.77 611.735,1212.49 618.204,1212.16 624.674,1211.77 631.144,1211.33 637.614,1210.83 644.084,1210.28 650.554,1209.67 657.024,1209 663.494,1208.27 669.964,1207.47 676.434,1206.61 682.904,1205.68 689.373,1204.69 695.843,1203.62 702.313,1202.49 708.783,1201.28 715.253,1200 721.723,1198.64 728.193,1197.21 734.663,1195.7 741.133,1194.11 747.603,1192.44 754.073,1190.69 760.542,1188.85 767.012,1186.94 773.482,1184.94 779.952,1182.85 786.422,1180.68 792.892,1178.42 799.362,1176.07 805.832,1173.64 812.302,1171.12 818.772,1168.5 825.241,1165.8 831.711,1163.01 838.181,1160.13 844.651,1157.16 851.121,1154.09 857.591,1150.94 864.061,1147.7 870.531,1144.36 877.001,1140.94 883.471,1137.43 889.941,1133.82 896.41,1130.13 902.88,1126.35 909.35,1122.48 915.82,1118.53 922.29,1114.49 928.76,1110.37 935.23,1106.16 941.7,1101.87 948.17,1097.5 954.64,1093.04 961.109,1088.51 967.579,1083.9 974.049,1079.21 980.519,1074.45 986.989,1069.62 993.459,1064.72 999.929,1059.74 1006.4,1054.7 1012.87,1049.59 1019.34,1044.42 1025.81,1039.19 1032.28,1033.9 1038.75,1028.55 1045.22,1023.15 1051.69,1017.69 1058.16,1012.18 1064.63,1006.63 1071.1,1001.02 1077.57,995.379 1084.04,989.693 1090.51,983.968 1096.98,978.207 1103.45,972.412 1109.92,966.586 1116.39,960.731 1122.86,954.849 1129.33,948.943 1135.8,943.016 1142.27,937.07 1148.74,931.107 1155.21,925.13 1161.68,919.141 1168.15,913.142 1174.62,907.136 1181.09,901.124 1187.56,895.109 1194.03,889.093 1200.5,883.078 1206.97,877.066 1213.44,871.058 1219.91,865.057 1226.38,859.064 1232.85,853.081 1239.32,847.109 1245.79,841.15 1252.26,835.204 1258.73,829.273 1265.2,823.359 1271.66,817.461 1278.13,811.582 1284.6,805.72 1291.07,799.878 1297.54,794.055 1304.01,788.252 1310.48,782.468 1316.95,776.705 1323.42,770.961 1329.89,765.237 1336.36,759.532 1342.83,753.845 1349.3,748.176 1355.77,742.525 1362.24,736.89 1368.71,731.27 1375.18,725.665 1381.65,720.073 1388.12,714.492 1394.59,708.922 1401.06,703.362 1407.53,697.808 1414,692.261 1420.47,686.718 1426.94,681.179 1433.41,675.64 1439.88,670.101 1446.35,664.56 1452.82,659.015 1459.29,653.465 1465.76,647.908 1472.23,642.343 1478.7,636.768 1485.17,631.182 1491.64,625.583 1498.11,619.971 1504.58,614.344 1511.05,608.701 1517.52,603.041 1523.99,597.363 1530.46,591.667 1536.93,585.953 1543.4,580.219 1549.87,574.465 1556.34,568.692 1562.81,562.898 1569.28,557.085 1575.75,551.252 1582.22,545.401 1588.69,539.53 1595.16,533.641 1601.63,527.735 1608.1,521.812 1614.57,515.874 1621.04,509.922 1627.51,503.956 1633.98,497.978 1640.45,491.99 1646.92,485.992 1653.39,479.988 1659.86,473.978 1666.33,467.964 1672.8,461.948 1679.27,455.933 1685.74,449.919 1692.21,443.91 1698.68,437.907 1705.15,431.912 1711.62,425.929 1718.09,419.959 1724.56,414.004 1731.03,408.067 1737.5,402.15 1743.97,396.256 1750.44,390.388 1756.91,384.547 1763.38,378.736 1769.85,372.957 1776.32,367.214 1782.79,361.508 1789.26,355.842 1795.73,350.218 1802.2,344.639 1808.67,339.107 1815.14,333.625 1821.61,328.194 1828.08,322.818 1834.55,317.497 1841.02,312.235 1847.49,307.033 1853.96,301.894 1860.43,296.82 1866.9,291.812 1873.37,286.873 1879.84,282.004 1886.31,277.206 1892.78,272.483 1899.25,267.835 1905.72,263.264 1912.19,258.771 1918.66,254.358 1925.13,250.025 1931.6,245.776 1938.07,241.609 1944.54,237.527 1951.01,233.53 1957.48,229.62 1963.94,225.797 1970.41,222.061 1976.88,218.414 1983.35,214.856 1989.82,211.388 1996.29,208.009 2002.76,204.72 2009.23,201.522 2015.7,198.414 2022.17,195.396 2028.64,192.469 2035.11,189.632 2041.58,186.886 2048.05,184.228 2054.52,181.661 2060.99,179.182 2067.46,176.792 2073.93,174.489 2080.4,172.274 2086.87,170.145 2093.34,168.101 2099.81,166.142 2106.28,164.267 2112.75,162.475 2119.22,160.765 2125.69,159.135 2132.16,157.585 2138.63,156.113 2145.1,154.719 2151.57,153.4 2158.04,152.155 2164.51,150.983 2170.98,149.884 2177.45,148.854 2183.92,147.893 2190.39,146.999 2196.86,146.171 2203.33,145.407 2209.8,144.705 2216.27,144.064 2222.74,143.483 2229.21,142.96 2235.68,142.492 2242.15,142.079 2248.62,141.719 2255.09,141.41 2261.56,141.151 2268.03,140.94 2274.5,140.774 2280.97,140.654 2287.44,140.577 2293.91,140.541 2300.38,140.541 2306.85,140.541 2313.32,140.541 2319.79,140.541 2326.26,140.541 2332.73,140.541 2339.2,140.541 2345.67,140.541 2352.14,140.541 2358.61,140.541 2365.08,140.541 2371.55,140.541 2378.02,140.541 2384.49,140.541 2390.96,140.541 2397.43,140.541 2403.9,140.541 2410.37,140.541 2416.84,140.541 2423.31,140.541 2429.78,140.541 2436.25,140.541 2442.72,140.541 2449.19,140.541 2455.66,140.541 2462.13,140.541 2468.6,140.541 2475.07,140.541 2481.54,140.541 2488.01,140.541 2494.48,140.541 2500.95,140.541 2507.42,140.541 2513.89,140.541 2520.36,140.541 2526.83,140.541 2533.3,140.541 2539.77,140.541 2546.24,140.541 2552.71,140.541 2559.18,140.541 2565.65,140.541 2572.12,140.541 2578.59,140.541 2585.06,140.541 2591.53,140.541 2598,140.541 2604.47,140.541 2610.94,140.541 2617.41,140.541 2623.88,140.541 2630.35,140.541 2636.82,140.541 2643.29,140.541 2649.75,140.541 2656.22,140.541 2662.69,140.541 2669.16,140.541 2675.63,140.541 2682.1,140.541 "/>
<path clip-path="url(#clip080)" d="M339.619 301.784 L1073.6 301.784 L1073.6 146.264 L339.619 146.264  Z" fill="#ffffff" fill-rule="evenodd" fill-opacity="1"/>
<polyline clip-path="url(#clip080)" style="stroke:#000000; stroke-linecap:round; stroke-linejoin:round; stroke-width:4; stroke-opacity:1; fill:none" points="339.619,301.784 1073.6,301.784 1073.6,146.264 339.619,146.264 339.619,301.784 "/>
<polyline clip-path="url(#clip080)" style="stroke:#4682b4; stroke-linecap:round; stroke-linejoin:round; stroke-width:10; stroke-opacity:1; fill:none" points="367.356,198.104 533.779,198.104 "/>
<path clip-path="url(#clip080)" d="M561.517 180.824 L566.192 180.824 L566.192 211.449 L583.021 211.449 L583.021 215.384 L561.517 215.384 L561.517 180.824 Z" fill="#000000" fill-rule="nonzero" fill-opacity="1" /><path clip-path="url(#clip080)" d="M587.743 189.458 L592.003 189.458 L592.003 215.384 L587.743 215.384 L587.743 189.458 M587.743 179.365 L592.003 179.365 L592.003 184.759 L587.743 184.759 L587.743 179.365 Z" fill="#000000" fill-rule="nonzero" fill-opacity="1" /><path clip-path="url(#clip080)" d="M622.465 199.736 L622.465 215.384 L618.206 215.384 L618.206 199.875 Q618.206 196.194 616.771 194.365 Q615.336 192.537 612.465 192.537 Q609.016 192.537 607.026 194.736 Q605.035 196.935 605.035 200.731 L605.035 215.384 L600.752 215.384 L600.752 189.458 L605.035 189.458 L605.035 193.486 Q606.563 191.148 608.623 189.99 Q610.706 188.833 613.414 188.833 Q617.882 188.833 620.174 191.611 Q622.465 194.365 622.465 199.736 Z" fill="#000000" fill-rule="nonzero" fill-opacity="1" /><path clip-path="url(#clip080)" d="M653.136 201.356 L653.136 203.439 L633.553 203.439 Q633.831 207.837 636.192 210.152 Q638.576 212.444 642.812 212.444 Q645.266 212.444 647.558 211.842 Q649.873 211.24 652.141 210.037 L652.141 214.064 Q649.849 215.036 647.442 215.546 Q645.035 216.055 642.558 216.055 Q636.354 216.055 632.72 212.444 Q629.109 208.833 629.109 202.675 Q629.109 196.31 632.535 192.583 Q635.984 188.833 641.817 188.833 Q647.049 188.833 650.081 192.213 Q653.136 195.569 653.136 201.356 M648.877 200.106 Q648.831 196.611 646.91 194.527 Q645.012 192.444 641.863 192.444 Q638.299 192.444 636.146 194.458 Q634.016 196.472 633.692 200.129 L648.877 200.106 Z" fill="#000000" fill-rule="nonzero" fill-opacity="1" /><path clip-path="url(#clip080)" d="M671.91 202.351 Q666.748 202.351 664.757 203.532 Q662.766 204.712 662.766 207.56 Q662.766 209.828 664.248 211.171 Q665.752 212.49 668.322 212.49 Q671.863 212.49 673.993 209.99 Q676.146 207.467 676.146 203.3 L676.146 202.351 L671.91 202.351 M680.405 200.592 L680.405 215.384 L676.146 215.384 L676.146 211.449 Q674.687 213.81 672.511 214.944 Q670.335 216.055 667.187 216.055 Q663.206 216.055 660.845 213.833 Q658.507 211.587 658.507 207.837 Q658.507 203.462 661.423 201.24 Q664.363 199.018 670.173 199.018 L676.146 199.018 L676.146 198.601 Q676.146 195.662 674.201 194.064 Q672.28 192.444 668.785 192.444 Q666.562 192.444 664.456 192.976 Q662.349 193.509 660.405 194.574 L660.405 190.638 Q662.743 189.736 664.942 189.296 Q667.141 188.833 669.224 188.833 Q674.849 188.833 677.627 191.75 Q680.405 194.666 680.405 200.592 Z" fill="#000000" fill-rule="nonzero" fill-opacity="1" /><path clip-path="url(#clip080)" d="M704.201 193.439 Q703.483 193.023 702.627 192.838 Q701.794 192.629 700.775 192.629 Q697.164 192.629 695.22 194.99 Q693.298 197.328 693.298 201.726 L693.298 215.384 L689.016 215.384 L689.016 189.458 L693.298 189.458 L693.298 193.486 Q694.641 191.125 696.794 189.99 Q698.946 188.833 702.025 188.833 Q702.465 188.833 702.997 188.902 Q703.53 188.949 704.178 189.064 L704.201 193.439 Z" fill="#000000" fill-rule="nonzero" fill-opacity="1" /><path clip-path="url(#clip080)" d="M736.446 210.662 Q737.28 211.773 739.78 211.773 L741.84 211.773 L741.84 215.384 L739.27 215.384 Q735.104 215.384 733.205 213.162 Q731.307 210.893 731.307 205.986 L731.307 193.717 L721.585 193.717 L721.585 189.458 L745.497 189.458 L745.497 193.717 L735.659 193.717 L735.659 206.24 Q735.659 209.597 736.446 210.662 Z" fill="#000000" fill-rule="nonzero" fill-opacity="1" /><path clip-path="url(#clip080)" d="M762.511 179.412 Q759.409 184.736 757.904 189.944 Q756.4 195.152 756.4 200.5 Q756.4 205.847 757.904 211.101 Q759.432 216.333 762.511 221.634 L758.807 221.634 Q755.335 216.194 753.599 210.939 Q751.886 205.685 751.886 200.5 Q751.886 195.338 753.599 190.106 Q755.312 184.875 758.807 179.412 L762.511 179.412 Z" fill="#000000" fill-rule="nonzero" fill-opacity="1" /><path clip-path="url(#clip080)" d="M774.988 182.097 L774.988 189.458 L783.761 189.458 L783.761 192.768 L774.988 192.768 L774.988 206.842 Q774.988 210.013 775.844 210.916 Q776.724 211.819 779.386 211.819 L783.761 211.819 L783.761 215.384 L779.386 215.384 Q774.455 215.384 772.58 213.555 Q770.705 211.703 770.705 206.842 L770.705 192.768 L767.58 192.768 L767.58 189.458 L770.705 189.458 L770.705 182.097 L774.988 182.097 Z" fill="#000000" fill-rule="nonzero" fill-opacity="1" /><path clip-path="url(#clip080)" d="M788.691 179.412 L792.395 179.412 Q795.867 184.875 797.58 190.106 Q799.316 195.338 799.316 200.5 Q799.316 205.685 797.58 210.939 Q795.867 216.194 792.395 221.634 L788.691 221.634 Q791.77 216.333 793.275 211.101 Q794.802 205.847 794.802 200.5 Q794.802 195.152 793.275 189.944 Q791.77 184.736 788.691 179.412 Z" fill="#000000" fill-rule="nonzero" fill-opacity="1" /><polyline clip-path="url(#clip080)" style="stroke:#b22222; stroke-linecap:round; stroke-linejoin:round; stroke-width:10; stroke-opacity:1; fill:none" stroke-dasharray="40, 25" points="367.356,249.944 533.779,249.944 "/>
<path clip-path="url(#clip080)" d="M566.192 250.719 L566.192 263.381 L573.692 263.381 Q577.466 263.381 579.271 261.83 Q581.1 260.256 581.1 257.039 Q581.1 253.798 579.271 252.27 Q577.466 250.719 573.692 250.719 L566.192 250.719 M566.192 236.506 L566.192 246.923 L573.114 246.923 Q576.54 246.923 578.206 245.65 Q579.896 244.353 579.896 241.715 Q579.896 239.099 578.206 237.803 Q576.54 236.506 573.114 236.506 L566.192 236.506 M561.517 232.664 L573.461 232.664 Q578.808 232.664 581.702 234.886 Q584.595 237.108 584.595 241.205 Q584.595 244.377 583.114 246.252 Q581.632 248.127 578.762 248.59 Q582.211 249.33 584.109 251.691 Q586.03 254.029 586.03 257.548 Q586.03 262.177 582.882 264.701 Q579.734 267.224 573.924 267.224 L561.517 267.224 L561.517 232.664 Z" fill="#000000" fill-rule="nonzero" fill-opacity="1" /><path clip-path="url(#clip080)" d="M608.877 245.279 Q608.16 244.863 607.303 244.678 Q606.47 244.469 605.452 244.469 Q601.84 244.469 599.896 246.83 Q597.975 249.168 597.975 253.566 L597.975 267.224 L593.692 267.224 L593.692 241.298 L597.975 241.298 L597.975 245.326 Q599.317 242.965 601.47 241.83 Q603.623 240.673 606.702 240.673 Q607.141 240.673 607.674 240.742 Q608.206 240.789 608.854 240.904 L608.877 245.279 Z" fill="#000000" fill-rule="nonzero" fill-opacity="1" /><path clip-path="url(#clip080)" d="M613.345 241.298 L617.604 241.298 L617.604 267.224 L613.345 267.224 L613.345 241.298 M613.345 231.205 L617.604 231.205 L617.604 236.599 L613.345 236.599 L613.345 231.205 Z" fill="#000000" fill-rule="nonzero" fill-opacity="1" /><path clip-path="url(#clip080)" d="M648.692 253.196 L648.692 255.279 L629.109 255.279 Q629.387 259.677 631.748 261.992 Q634.132 264.284 638.368 264.284 Q640.822 264.284 643.113 263.682 Q645.428 263.08 647.697 261.877 L647.697 265.904 Q645.405 266.876 642.998 267.386 Q640.59 267.895 638.113 267.895 Q631.91 267.895 628.275 264.284 Q624.664 260.673 624.664 254.515 Q624.664 248.15 628.09 244.423 Q631.539 240.673 637.373 240.673 Q642.604 240.673 645.637 244.053 Q648.692 247.409 648.692 253.196 M644.433 251.946 Q644.387 248.451 642.465 246.367 Q640.567 244.284 637.419 244.284 Q633.854 244.284 631.701 246.298 Q629.572 248.312 629.248 251.969 L644.433 251.946 M633.762 229.307 L640.289 237.965 L636.748 237.965 L629.201 229.307 L633.762 229.307 Z" fill="#000000" fill-rule="nonzero" fill-opacity="1" /><path clip-path="url(#clip080)" d="M670.706 245.279 Q669.988 244.863 669.132 244.678 Q668.298 244.469 667.28 244.469 Q663.669 244.469 661.724 246.83 Q659.803 249.168 659.803 253.566 L659.803 267.224 L655.521 267.224 L655.521 241.298 L659.803 241.298 L659.803 245.326 Q661.146 242.965 663.298 241.83 Q665.451 240.673 668.53 240.673 Q668.97 240.673 669.502 240.742 Q670.035 240.789 670.683 240.904 L670.706 245.279 Z" fill="#000000" fill-rule="nonzero" fill-opacity="1" /><path clip-path="url(#clip080)" d="M696.308 253.196 L696.308 255.279 L676.724 255.279 Q677.002 259.677 679.363 261.992 Q681.747 264.284 685.984 264.284 Q688.437 264.284 690.729 263.682 Q693.044 263.08 695.312 261.877 L695.312 265.904 Q693.021 266.876 690.613 267.386 Q688.206 267.895 685.729 267.895 Q679.525 267.895 675.891 264.284 Q672.28 260.673 672.28 254.515 Q672.28 248.15 675.706 244.423 Q679.155 240.673 684.988 240.673 Q690.22 240.673 693.252 244.053 Q696.308 247.409 696.308 253.196 M692.048 251.946 Q692.002 248.451 690.081 246.367 Q688.183 244.284 685.034 244.284 Q681.47 244.284 679.317 246.298 Q677.187 248.312 676.863 251.969 L692.048 251.946 Z" fill="#000000" fill-rule="nonzero" fill-opacity="1" /><path clip-path="url(#clip080)" d="M731.076 262.502 Q731.909 263.613 734.409 263.613 L736.469 263.613 L736.469 267.224 L733.9 267.224 Q729.733 267.224 727.835 265.002 Q725.937 262.733 725.937 257.826 L725.937 245.557 L716.215 245.557 L716.215 241.298 L740.127 241.298 L740.127 245.557 L730.289 245.557 L730.289 258.08 Q730.289 261.437 731.076 262.502 Z" fill="#000000" fill-rule="nonzero" fill-opacity="1" /><path clip-path="url(#clip080)" d="M757.141 231.252 Q754.039 236.576 752.534 241.784 Q751.029 246.992 751.029 252.34 Q751.029 257.687 752.534 262.941 Q754.062 268.173 757.141 273.474 L753.437 273.474 Q749.965 268.034 748.229 262.779 Q746.516 257.525 746.516 252.34 Q746.516 247.178 748.229 241.946 Q749.942 236.715 753.437 231.252 L757.141 231.252 Z" fill="#000000" fill-rule="nonzero" fill-opacity="1" /><path clip-path="url(#clip080)" d="M769.617 233.937 L769.617 241.298 L778.39 241.298 L778.39 244.608 L769.617 244.608 L769.617 258.682 Q769.617 261.853 770.474 262.756 Q771.353 263.659 774.015 263.659 L778.39 263.659 L778.39 267.224 L774.015 267.224 Q769.085 267.224 767.21 265.395 Q765.335 263.543 765.335 258.682 L765.335 244.608 L762.21 244.608 L762.21 241.298 L765.335 241.298 L765.335 233.937 L769.617 233.937 Z" fill="#000000" fill-rule="nonzero" fill-opacity="1" /><path clip-path="url(#clip080)" d="M783.321 231.252 L787.025 231.252 Q790.497 236.715 792.21 241.946 Q793.946 247.178 793.946 252.34 Q793.946 257.525 792.21 262.779 Q790.497 268.034 787.025 273.474 L783.321 273.474 Q786.4 268.173 787.904 262.941 Q789.432 257.687 789.432 252.34 Q789.432 246.992 787.904 241.784 Q786.4 236.576 783.321 231.252 Z" fill="#000000" fill-rule="nonzero" fill-opacity="1" /><path clip-path="url(#clip080)" d="M827.788 231.252 Q824.686 236.576 823.182 241.784 Q821.677 246.992 821.677 252.34 Q821.677 257.687 823.182 262.941 Q824.71 268.173 827.788 273.474 L824.085 273.474 Q820.612 268.034 818.876 262.779 Q817.163 257.525 817.163 252.34 Q817.163 247.178 818.876 241.946 Q820.589 236.715 824.085 231.252 L827.788 231.252 Z" fill="#000000" fill-rule="nonzero" fill-opacity="1" /><path clip-path="url(#clip080)" d="M851.075 245.279 Q850.358 244.863 849.501 244.678 Q848.668 244.469 847.649 244.469 Q844.038 244.469 842.094 246.83 Q840.173 249.168 840.173 253.566 L840.173 267.224 L835.89 267.224 L835.89 241.298 L840.173 241.298 L840.173 245.326 Q841.515 242.965 843.668 241.83 Q845.821 240.673 848.899 240.673 Q849.339 240.673 849.872 240.742 Q850.404 240.789 851.052 240.904 L851.075 245.279 Z" fill="#000000" fill-rule="nonzero" fill-opacity="1" /><path clip-path="url(#clip080)" d="M876.677 253.196 L876.677 255.279 L857.094 255.279 Q857.371 259.677 859.733 261.992 Q862.117 264.284 866.353 264.284 Q868.807 264.284 871.098 263.682 Q873.413 263.08 875.682 261.877 L875.682 265.904 Q873.39 266.876 870.983 267.386 Q868.575 267.895 866.098 267.895 Q859.895 267.895 856.26 264.284 Q852.649 260.673 852.649 254.515 Q852.649 248.15 856.075 244.423 Q859.524 240.673 865.358 240.673 Q870.589 240.673 873.621 244.053 Q876.677 247.409 876.677 253.196 M872.418 251.946 Q872.371 248.451 870.45 246.367 Q868.552 244.284 865.404 244.284 Q861.839 244.284 859.686 246.298 Q857.557 248.312 857.233 251.969 L872.418 251.946 Z" fill="#000000" fill-rule="nonzero" fill-opacity="1" /><path clip-path="url(#clip080)" d="M900.195 242.062 L900.195 246.09 Q898.39 245.164 896.445 244.701 Q894.501 244.238 892.418 244.238 Q889.246 244.238 887.649 245.21 Q886.075 246.182 886.075 248.127 Q886.075 249.608 887.209 250.465 Q888.344 251.298 891.769 252.062 L893.228 252.386 Q897.765 253.358 899.663 255.14 Q901.584 256.9 901.584 260.071 Q901.584 263.682 898.714 265.789 Q895.867 267.895 890.867 267.895 Q888.783 267.895 886.515 267.478 Q884.269 267.085 881.77 266.275 L881.77 261.877 Q884.131 263.103 886.422 263.728 Q888.714 264.33 890.959 264.33 Q893.969 264.33 895.589 263.312 Q897.209 262.27 897.209 260.395 Q897.209 258.659 896.029 257.733 Q894.871 256.807 890.913 255.951 L889.432 255.603 Q885.473 254.77 883.714 253.057 Q881.955 251.321 881.955 248.312 Q881.955 244.654 884.547 242.664 Q887.14 240.673 891.908 240.673 Q894.269 240.673 896.353 241.02 Q898.436 241.367 900.195 242.062 Z" fill="#000000" fill-rule="nonzero" fill-opacity="1" /><path clip-path="url(#clip080)" d="M927.024 242.293 L927.024 246.275 Q925.218 245.279 923.39 244.793 Q921.584 244.284 919.732 244.284 Q915.589 244.284 913.297 246.923 Q911.005 249.539 911.005 254.284 Q911.005 259.029 913.297 261.668 Q915.589 264.284 919.732 264.284 Q921.584 264.284 923.39 263.798 Q925.218 263.289 927.024 262.293 L927.024 266.228 Q925.241 267.062 923.32 267.478 Q921.422 267.895 919.269 267.895 Q913.413 267.895 909.964 264.214 Q906.515 260.534 906.515 254.284 Q906.515 247.941 909.987 244.307 Q913.482 240.673 919.547 240.673 Q921.515 240.673 923.39 241.09 Q925.265 241.483 927.024 242.293 Z" fill="#000000" fill-rule="nonzero" fill-opacity="1" /><path clip-path="url(#clip080)" d="M946.214 254.191 Q941.052 254.191 939.061 255.372 Q937.07 256.552 937.07 259.4 Q937.07 261.668 938.552 263.011 Q940.056 264.33 942.626 264.33 Q946.167 264.33 948.297 261.83 Q950.45 259.307 950.45 255.14 L950.45 254.191 L946.214 254.191 M954.709 252.432 L954.709 267.224 L950.45 267.224 L950.45 263.289 Q948.991 265.65 946.815 266.784 Q944.64 267.895 941.491 267.895 Q937.51 267.895 935.149 265.673 Q932.811 263.427 932.811 259.677 Q932.811 255.302 935.728 253.08 Q938.667 250.858 944.478 250.858 L950.45 250.858 L950.45 250.441 Q950.45 247.502 948.505 245.904 Q946.584 244.284 943.089 244.284 Q940.866 244.284 938.76 244.816 Q936.653 245.349 934.709 246.414 L934.709 242.478 Q937.047 241.576 939.246 241.136 Q941.445 240.673 943.528 240.673 Q949.153 240.673 951.931 243.59 Q954.709 246.506 954.709 252.432 Z" fill="#000000" fill-rule="nonzero" fill-opacity="1" /><path clip-path="url(#clip080)" d="M963.482 231.205 L967.741 231.205 L967.741 267.224 L963.482 267.224 L963.482 231.205 Z" fill="#000000" fill-rule="nonzero" fill-opacity="1" /><path clip-path="url(#clip080)" d="M998.829 253.196 L998.829 255.279 L979.246 255.279 Q979.524 259.677 981.885 261.992 Q984.269 264.284 988.505 264.284 Q990.959 264.284 993.25 263.682 Q995.565 263.08 997.834 261.877 L997.834 265.904 Q995.542 266.876 993.135 267.386 Q990.727 267.895 988.25 267.895 Q982.047 267.895 978.413 264.284 Q974.801 260.673 974.801 254.515 Q974.801 248.15 978.227 244.423 Q981.676 240.673 987.51 240.673 Q992.741 240.673 995.774 244.053 Q998.829 247.409 998.829 253.196 M994.57 251.946 Q994.524 248.451 992.602 246.367 Q990.704 244.284 987.556 244.284 Q983.991 244.284 981.838 246.298 Q979.709 248.312 979.385 251.969 L994.57 251.946 Z" fill="#000000" fill-rule="nonzero" fill-opacity="1" /><path clip-path="url(#clip080)" d="M1022.88 245.233 L1022.88 231.205 L1027.14 231.205 L1027.14 267.224 L1022.88 267.224 L1022.88 263.335 Q1021.54 265.65 1019.48 266.784 Q1017.44 267.895 1014.57 267.895 Q1009.87 267.895 1006.91 264.145 Q1003.97 260.395 1003.97 254.284 Q1003.97 248.173 1006.91 244.423 Q1009.87 240.673 1014.57 240.673 Q1017.44 240.673 1019.48 241.807 Q1021.54 242.918 1022.88 245.233 M1008.37 254.284 Q1008.37 258.983 1010.29 261.668 Q1012.23 264.33 1015.61 264.33 Q1018.99 264.33 1020.94 261.668 Q1022.88 258.983 1022.88 254.284 Q1022.88 249.585 1020.94 246.923 Q1018.99 244.238 1015.61 244.238 Q1012.23 244.238 1010.29 246.923 Q1008.37 249.585 1008.37 254.284 Z" fill="#000000" fill-rule="nonzero" fill-opacity="1" /><path clip-path="url(#clip080)" d="M1035.24 231.252 L1038.94 231.252 Q1042.42 236.715 1044.13 241.946 Q1045.87 247.178 1045.87 252.34 Q1045.87 257.525 1044.13 262.779 Q1042.42 268.034 1038.94 273.474 L1035.24 273.474 Q1038.32 268.173 1039.82 262.941 Q1041.35 257.687 1041.35 252.34 Q1041.35 246.992 1039.82 241.784 Q1038.32 236.576 1035.24 231.252 Z" fill="#000000" fill-rule="nonzero" fill-opacity="1" /></svg>
