<?xml version="1.0" encoding="utf-8"?>
<svg xmlns="http://www.w3.org/2000/svg" xmlns:xlink="http://www.w3.org/1999/xlink" width="672" height="480" viewBox="0 0 2688 1920">
<defs>
  <clipPath id="clip340">
    <rect x="0" y="0" width="2688" height="1920"/>
  </clipPath>
</defs>
<path clip-path="url(#clip340)" d="M0 1920 L2688 1920 L2688 -4.26326e-14 L0 -4.26326e-14  Z" fill="#ffffff" fill-rule="evenodd" fill-opacity="1"/>
<defs>
  <clipPath id="clip341">
    <rect x="226" y="127" width="2416" height="1607"/>
  </clipPath>
</defs>
<path clip-path="url(#clip340)" d="M226.141 1734.12 L2640.76 1734.12 L2640.76 127.792 L226.141 127.792  Z" fill="#ffffff" fill-rule="evenodd" fill-opacity="1"/>
<polyline clip-path="url(#clip341)" style="stroke:#000000; stroke-linecap:round; stroke-linejoin:round; stroke-width:2; stroke-opacity:0.1; fill:none" points="294.479,1734.12 294.479,127.792 "/>
<polyline clip-path="url(#clip341)" style="stroke:#000000; stroke-linecap:round; stroke-linejoin:round; stroke-width:2; stroke-opacity:0.1; fill:none" points="750.067,1734.12 750.067,127.792 "/>
<polyline clip-path="url(#clip341)" style="stroke:#000000; stroke-linecap:round; stroke-linejoin:round; stroke-width:2; stroke-opacity:0.1; fill:none" points="1205.65,1734.12 1205.65,127.792 "/>
<polyline clip-path="url(#clip341)" style="stroke:#000000; stroke-linecap:round; stroke-linejoin:round; stroke-width:2; stroke-opacity:0.1; fill:none" points="1661.24,1734.12 1661.24,127.792 "/>
<polyline clip-path="url(#clip341)" style="stroke:#000000; stroke-linecap:round; stroke-linejoin:round; stroke-width:2; stroke-opacity:0.1; fill:none" points="2116.83,1734.12 2116.83,127.792 "/>
<polyline clip-path="url(#clip341)" style="stroke:#000000; stroke-linecap:round; stroke-linejoin:round; stroke-width:2; stroke-opacity:0.1; fill:none" points="2572.42,1734.12 2572.42,127.792 "/>
<polyline clip-path="url(#clip341)" style="stroke:#000000; stroke-linecap:round; stroke-linejoin:round; stroke-width:2; stroke-opacity:0.1; fill:none" points="226.141,1688.66 2640.76,1688.66 "/>
<polyline clip-path="url(#clip341)" style="stroke:#000000; stroke-linecap:round; stroke-linejoin:round; stroke-width:2; stroke-opacity:0.1; fill:none" points="226.141,1444.25 2640.76,1444.25 "/>
<polyline clip-path="url(#clip341)" style="stroke:#000000; stroke-linecap:round; stroke-linejoin:round; stroke-width:2; stroke-opacity:0.1; fill:none" points="226.141,1199.85 2640.76,1199.85 "/>
<polyline clip-path="url(#clip341)" style="stroke:#000000; stroke-linecap:round; stroke-linejoin:round; stroke-width:2; stroke-opacity:0.1; fill:none" points="226.141,955.449 2640.76,955.449 "/>
<polyline clip-path="url(#clip341)" style="stroke:#000000; stroke-linecap:round; stroke-linejoin:round; stroke-width:2; stroke-opacity:0.1; fill:none" points="226.141,711.046 2640.76,711.046 "/>
<polyline clip-path="url(#clip341)" style="stroke:#000000; stroke-linecap:round; stroke-linejoin:round; stroke-width:2; stroke-opacity:0.1; fill:none" points="226.141,466.644 2640.76,466.644 "/>
<polyline clip-path="url(#clip341)" style="stroke:#000000; stroke-linecap:round; stroke-linejoin:round; stroke-width:2; stroke-opacity:0.1; fill:none" points="226.141,222.242 2640.76,222.242 "/>
<polyline clip-path="url(#clip340)" style="stroke:#000000; stroke-linecap:round; stroke-linejoin:round; stroke-width:4; stroke-opacity:1; fill:none" points="226.141,1734.12 2640.76,1734.12 "/>
<polyline clip-path="url(#clip340)" style="stroke:#000000; stroke-linecap:round; stroke-linejoin:round; stroke-width:4; stroke-opacity:1; fill:none" points="294.479,1734.12 294.479,1715.22 "/>
<polyline clip-path="url(#clip340)" style="stroke:#000000; stroke-linecap:round; stroke-linejoin:round; stroke-width:4; stroke-opacity:1; fill:none" points="750.067,1734.12 750.067,1715.22 "/>
<polyline clip-path="url(#clip340)" style="stroke:#000000; stroke-linecap:round; stroke-linejoin:round; stroke-width:4; stroke-opacity:1; fill:none" points="1205.65,1734.12 1205.65,1715.22 "/>
<polyline clip-path="url(#clip340)" style="stroke:#000000; stroke-linecap:round; stroke-linejoin:round; stroke-width:4; stroke-opacity:1; fill:none" points="1661.24,1734.12 1661.24,1715.22 "/>
<polyline clip-path="url(#clip340)" style="stroke:#000000; stroke-linecap:round; stroke-linejoin:round; stroke-width:4; stroke-opacity:1; fill:none" points="2116.83,1734.12 2116.83,1715.22 "/>
<polyline clip-path="url(#clip340)" style="stroke:#000000; stroke-linecap:round; stroke-linejoin:round; stroke-width:4; stroke-opacity:1; fill:none" points="2572.42,1734.12 2572.42,1715.22 "/>
<path clip-path="url(#clip340)" d="M294.479 1767.34 Q290.868 1767.34 289.039 1770.9 Q287.233 1774.45 287.233 1781.58 Q287.233 1788.68 289.039 1792.25 Q290.868 1795.79 294.479 1795.79 Q298.113 1795.79 299.919 1792.25 Q301.747 1788.68 301.747 1781.58 Q301.747 1774.45 299.919 1770.9 Q298.113 1767.34 294.479 1767.34 M294.479 1763.64 Q300.289 1763.64 303.344 1768.24 Q306.423 1772.83 306.423 1781.58 Q306.423 1790.3 303.344 1794.91 Q300.289 1799.49 294.479 1799.49 Q288.669 1799.49 285.59 1794.91 Q282.534 1790.3 282.534 1781.58 Q282.534 1772.83 285.59 1768.24 Q288.669 1763.64 294.479 1763.64 Z" fill="#000000" fill-rule="nonzero" fill-opacity="1" /><path clip-path="url(#clip340)" d="M740.449 1794.89 L748.087 1794.89 L748.087 1768.52 L739.777 1770.19 L739.777 1765.93 L748.041 1764.26 L752.717 1764.26 L752.717 1794.89 L760.356 1794.89 L760.356 1798.82 L740.449 1798.82 L740.449 1794.89 Z" fill="#000000" fill-rule="nonzero" fill-opacity="1" /><path clip-path="url(#clip340)" d="M1200.31 1794.89 L1216.63 1794.89 L1216.63 1798.82 L1194.68 1798.82 L1194.68 1794.89 Q1197.34 1792.13 1201.93 1787.5 Q1206.53 1782.85 1207.71 1781.51 Q1209.96 1778.98 1210.84 1777.25 Q1211.74 1775.49 1211.74 1773.8 Q1211.74 1771.04 1209.8 1769.31 Q1207.88 1767.57 1204.77 1767.57 Q1202.58 1767.57 1200.12 1768.34 Q1197.69 1769.1 1194.91 1770.65 L1194.91 1765.93 Q1197.74 1764.79 1200.19 1764.21 Q1202.65 1763.64 1204.68 1763.64 Q1210.05 1763.64 1213.25 1766.32 Q1216.44 1769.01 1216.44 1773.5 Q1216.44 1775.63 1215.63 1777.55 Q1214.84 1779.45 1212.74 1782.04 Q1212.16 1782.71 1209.06 1785.93 Q1205.96 1789.12 1200.31 1794.89 Z" fill="#000000" fill-rule="nonzero" fill-opacity="1" /><path clip-path="url(#clip340)" d="M1665.49 1780.19 Q1668.85 1780.9 1670.72 1783.17 Q1672.62 1785.44 1672.62 1788.77 Q1672.62 1793.89 1669.1 1796.69 Q1665.58 1799.49 1659.1 1799.49 Q1656.93 1799.49 1654.61 1799.05 Q1652.32 1798.64 1649.86 1797.78 L1649.86 1793.27 Q1651.81 1794.4 1654.12 1794.98 Q1656.44 1795.56 1658.96 1795.56 Q1663.36 1795.56 1665.65 1793.82 Q1667.97 1792.08 1667.97 1788.77 Q1667.97 1785.72 1665.81 1784.01 Q1663.68 1782.27 1659.86 1782.27 L1655.84 1782.27 L1655.84 1778.43 L1660.05 1778.43 Q1663.5 1778.43 1665.33 1777.06 Q1667.16 1775.67 1667.16 1773.08 Q1667.16 1770.42 1665.26 1769.01 Q1663.38 1767.57 1659.86 1767.57 Q1657.94 1767.57 1655.74 1767.99 Q1653.55 1768.4 1650.91 1769.28 L1650.91 1765.12 Q1653.57 1764.38 1655.88 1764.01 Q1658.22 1763.64 1660.28 1763.64 Q1665.61 1763.64 1668.71 1766.07 Q1671.81 1768.47 1671.81 1772.59 Q1671.81 1775.46 1670.17 1777.46 Q1668.52 1779.42 1665.49 1780.19 Z" fill="#000000" fill-rule="nonzero" fill-opacity="1" /><path clip-path="url(#clip340)" d="M2119.84 1768.34 L2108.03 1786.78 L2119.84 1786.78 L2119.84 1768.34 M2118.61 1764.26 L2124.49 1764.26 L2124.49 1786.78 L2129.42 1786.78 L2129.42 1790.67 L2124.49 1790.67 L2124.49 1798.82 L2119.84 1798.82 L2119.84 1790.67 L2104.24 1790.67 L2104.24 1786.16 L2118.61 1764.26 Z" fill="#000000" fill-rule="nonzero" fill-opacity="1" /><path clip-path="url(#clip340)" d="M2562.7 1764.26 L2581.05 1764.26 L2581.05 1768.2 L2566.98 1768.2 L2566.98 1776.67 Q2568 1776.32 2569.01 1776.16 Q2570.03 1775.97 2571.05 1775.97 Q2576.84 1775.97 2580.22 1779.15 Q2583.6 1782.32 2583.6 1787.73 Q2583.6 1793.31 2580.13 1796.41 Q2576.65 1799.49 2570.33 1799.49 Q2568.16 1799.49 2565.89 1799.12 Q2563.64 1798.75 2561.24 1798.01 L2561.24 1793.31 Q2563.32 1794.45 2565.54 1795 Q2567.76 1795.56 2570.24 1795.56 Q2574.25 1795.56 2576.58 1793.45 Q2578.92 1791.34 2578.92 1787.73 Q2578.92 1784.12 2576.58 1782.02 Q2574.25 1779.91 2570.24 1779.91 Q2568.37 1779.91 2566.49 1780.33 Q2564.64 1780.74 2562.7 1781.62 L2562.7 1764.26 Z" fill="#000000" fill-rule="nonzero" fill-opacity="1" /><path clip-path="url(#clip340)" d="M1412.7 1847.65 L1440.51 1847.65 L1440.51 1853 L1418.49 1878.62 L1440.51 1878.62 L1440.51 1883.3 L1411.9 1883.3 L1411.9 1877.95 L1433.93 1852.33 L1412.7 1852.33 L1412.7 1847.65 Z" fill="#000000" fill-rule="nonzero" fill-opacity="1" /><path clip-path="url(#clip340)" d="M1455 1835.78 L1455 1853.45 L1449.59 1853.45 L1449.59 1835.78 L1455 1835.78 Z" fill="#000000" fill-rule="nonzero" fill-opacity="1" /><polyline clip-path="url(#clip340)" style="stroke:#000000; stroke-linecap:round; stroke-linejoin:round; stroke-width:4; stroke-opacity:1; fill:none" points="226.141,1734.12 226.141,127.792 "/>
<polyline clip-path="url(#clip340)" style="stroke:#000000; stroke-linecap:round; stroke-linejoin:round; stroke-width:4; stroke-opacity:1; fill:none" points="226.141,1688.66 245.038,1688.66 "/>
<polyline clip-path="url(#clip340)" style="stroke:#000000; stroke-linecap:round; stroke-linejoin:round; stroke-width:4; stroke-opacity:1; fill:none" points="226.141,1444.25 245.038,1444.25 "/>
<polyline clip-path="url(#clip340)" style="stroke:#000000; stroke-linecap:round; stroke-linejoin:round; stroke-width:4; stroke-opacity:1; fill:none" points="226.141,1199.85 245.038,1199.85 "/>
<polyline clip-path="url(#clip340)" style="stroke:#000000; stroke-linecap:round; stroke-linejoin:round; stroke-width:4; stroke-opacity:1; fill:none" points="226.141,955.449 245.038,955.449 "/>
<polyline clip-path="url(#clip340)" style="stroke:#000000; stroke-linecap:round; stroke-linejoin:round; stroke-width:4; stroke-opacity:1; fill:none" points="226.141,711.046 245.038,711.046 "/>
<polyline clip-path="url(#clip340)" style="stroke:#000000; stroke-linecap:round; stroke-linejoin:round; stroke-width:4; stroke-opacity:1; fill:none" points="226.141,466.644 245.038,466.644 "/>
<polyline clip-path="url(#clip340)" style="stroke:#000000; stroke-linecap:round; stroke-linejoin:round; stroke-width:4; stroke-opacity:1; fill:none" points="226.141,222.242 245.038,222.242 "/>
<path clip-path="url(#clip340)" d="M128.645 1674.45 Q125.034 1674.45 123.205 1678.02 Q121.4 1681.56 121.4 1688.69 Q121.4 1695.8 123.205 1699.36 Q125.034 1702.9 128.645 1702.9 Q132.279 1702.9 134.085 1699.36 Q135.913 1695.8 135.913 1688.69 Q135.913 1681.56 134.085 1678.02 Q132.279 1674.45 128.645 1674.45 M128.645 1670.75 Q134.455 1670.75 137.511 1675.36 Q140.589 1679.94 140.589 1688.69 Q140.589 1697.42 137.511 1702.02 Q134.455 1706.61 128.645 1706.61 Q122.835 1706.61 119.756 1702.02 Q116.701 1697.42 116.701 1688.69 Q116.701 1679.94 119.756 1675.36 Q122.835 1670.75 128.645 1670.75 Z" fill="#000000" fill-rule="nonzero" fill-opacity="1" /><path clip-path="url(#clip340)" d="M148.807 1700.06 L153.691 1700.06 L153.691 1705.94 L148.807 1705.94 L148.807 1700.06 Z" fill="#000000" fill-rule="nonzero" fill-opacity="1" /><path clip-path="url(#clip340)" d="M173.876 1674.45 Q170.265 1674.45 168.436 1678.02 Q166.631 1681.56 166.631 1688.69 Q166.631 1695.8 168.436 1699.36 Q170.265 1702.9 173.876 1702.9 Q177.51 1702.9 179.316 1699.36 Q181.145 1695.8 181.145 1688.69 Q181.145 1681.56 179.316 1678.02 Q177.51 1674.45 173.876 1674.45 M173.876 1670.75 Q179.686 1670.75 182.742 1675.36 Q185.821 1679.94 185.821 1688.69 Q185.821 1697.42 182.742 1702.02 Q179.686 1706.61 173.876 1706.61 Q168.066 1706.61 164.987 1702.02 Q161.932 1697.42 161.932 1688.69 Q161.932 1679.94 164.987 1675.36 Q168.066 1670.75 173.876 1670.75 Z" fill="#000000" fill-rule="nonzero" fill-opacity="1" /><path clip-path="url(#clip340)" d="M129.872 1430.05 Q126.261 1430.05 124.432 1433.62 Q122.626 1437.16 122.626 1444.29 Q122.626 1451.39 124.432 1454.96 Q126.261 1458.5 129.872 1458.5 Q133.506 1458.5 135.312 1454.96 Q137.14 1451.39 137.14 1444.29 Q137.14 1437.16 135.312 1433.62 Q133.506 1430.05 129.872 1430.05 M129.872 1426.35 Q135.682 1426.35 138.737 1430.95 Q141.816 1435.54 141.816 1444.29 Q141.816 1453.01 138.737 1457.62 Q135.682 1462.2 129.872 1462.2 Q124.062 1462.2 120.983 1457.62 Q117.927 1453.01 117.927 1444.29 Q117.927 1435.54 120.983 1430.95 Q124.062 1426.35 129.872 1426.35 Z" fill="#000000" fill-rule="nonzero" fill-opacity="1" /><path clip-path="url(#clip340)" d="M150.034 1455.65 L154.918 1455.65 L154.918 1461.53 L150.034 1461.53 L150.034 1455.65 Z" fill="#000000" fill-rule="nonzero" fill-opacity="1" /><path clip-path="url(#clip340)" d="M165.913 1457.6 L173.552 1457.6 L173.552 1431.23 L165.242 1432.9 L165.242 1428.64 L173.506 1426.97 L178.182 1426.97 L178.182 1457.6 L185.821 1457.6 L185.821 1461.53 L165.913 1461.53 L165.913 1457.6 Z" fill="#000000" fill-rule="nonzero" fill-opacity="1" /><path clip-path="url(#clip340)" d="M130.242 1185.65 Q126.631 1185.65 124.802 1189.21 Q122.997 1192.76 122.997 1199.89 Q122.997 1206.99 124.802 1210.56 Q126.631 1214.1 130.242 1214.1 Q133.876 1214.1 135.682 1210.56 Q137.511 1206.99 137.511 1199.89 Q137.511 1192.76 135.682 1189.21 Q133.876 1185.65 130.242 1185.65 M130.242 1181.95 Q136.052 1181.95 139.108 1186.55 Q142.187 1191.14 142.187 1199.89 Q142.187 1208.61 139.108 1213.22 Q136.052 1217.8 130.242 1217.8 Q124.432 1217.8 121.353 1213.22 Q118.298 1208.61 118.298 1199.89 Q118.298 1191.14 121.353 1186.55 Q124.432 1181.95 130.242 1181.95 Z" fill="#000000" fill-rule="nonzero" fill-opacity="1" /><path clip-path="url(#clip340)" d="M150.404 1211.25 L155.288 1211.25 L155.288 1217.13 L150.404 1217.13 L150.404 1211.25 Z" fill="#000000" fill-rule="nonzero" fill-opacity="1" /><path clip-path="url(#clip340)" d="M169.501 1213.2 L185.821 1213.2 L185.821 1217.13 L163.876 1217.13 L163.876 1213.2 Q166.538 1210.44 171.122 1205.81 Q175.728 1201.16 176.909 1199.82 Q179.154 1197.29 180.034 1195.56 Q180.936 1193.8 180.936 1192.11 Q180.936 1189.35 178.992 1187.62 Q177.071 1185.88 173.969 1185.88 Q171.77 1185.88 169.316 1186.64 Q166.885 1187.41 164.108 1188.96 L164.108 1184.24 Q166.932 1183.1 169.385 1182.52 Q171.839 1181.95 173.876 1181.95 Q179.247 1181.95 182.441 1184.63 Q185.635 1187.32 185.635 1191.81 Q185.635 1193.94 184.825 1195.86 Q184.038 1197.76 181.932 1200.35 Q181.353 1201.02 178.251 1204.24 Q175.149 1207.43 169.501 1213.2 Z" fill="#000000" fill-rule="nonzero" fill-opacity="1" /><path clip-path="url(#clip340)" d="M129.293 941.247 Q125.682 941.247 123.853 944.812 Q122.048 948.354 122.048 955.483 Q122.048 962.59 123.853 966.155 Q125.682 969.696 129.293 969.696 Q132.927 969.696 134.733 966.155 Q136.562 962.59 136.562 955.483 Q136.562 948.354 134.733 944.812 Q132.927 941.247 129.293 941.247 M129.293 937.544 Q135.103 937.544 138.159 942.15 Q141.237 946.733 141.237 955.483 Q141.237 964.21 138.159 968.817 Q135.103 973.4 129.293 973.4 Q123.483 973.4 120.404 968.817 Q117.349 964.21 117.349 955.483 Q117.349 946.733 120.404 942.15 Q123.483 937.544 129.293 937.544 Z" fill="#000000" fill-rule="nonzero" fill-opacity="1" /><path clip-path="url(#clip340)" d="M149.455 966.849 L154.339 966.849 L154.339 972.729 L149.455 972.729 L149.455 966.849 Z" fill="#000000" fill-rule="nonzero" fill-opacity="1" /><path clip-path="url(#clip340)" d="M178.691 954.094 Q182.047 954.812 183.922 957.081 Q185.821 959.349 185.821 962.682 Q185.821 967.798 182.302 970.599 Q178.784 973.4 172.302 973.4 Q170.126 973.4 167.811 972.96 Q165.52 972.543 163.066 971.687 L163.066 967.173 Q165.01 968.307 167.325 968.886 Q169.64 969.465 172.163 969.465 Q176.561 969.465 178.853 967.729 Q181.168 965.993 181.168 962.682 Q181.168 959.627 179.015 957.914 Q176.885 956.178 173.066 956.178 L169.038 956.178 L169.038 952.335 L173.251 952.335 Q176.7 952.335 178.529 950.969 Q180.358 949.581 180.358 946.988 Q180.358 944.326 178.459 942.914 Q176.584 941.479 173.066 941.479 Q171.145 941.479 168.946 941.895 Q166.747 942.312 164.108 943.192 L164.108 939.025 Q166.77 938.284 169.085 937.914 Q171.422 937.544 173.483 937.544 Q178.807 937.544 181.909 939.974 Q185.01 942.382 185.01 946.502 Q185.01 949.372 183.367 951.363 Q181.723 953.331 178.691 954.094 Z" fill="#000000" fill-rule="nonzero" fill-opacity="1" /><path clip-path="url(#clip340)" d="M128.159 696.845 Q124.548 696.845 122.719 700.41 Q120.913 703.952 120.913 711.081 Q120.913 718.188 122.719 721.752 Q124.548 725.294 128.159 725.294 Q131.793 725.294 133.599 721.752 Q135.427 718.188 135.427 711.081 Q135.427 703.952 133.599 700.41 Q131.793 696.845 128.159 696.845 M128.159 693.141 Q133.969 693.141 137.025 697.748 Q140.103 702.331 140.103 711.081 Q140.103 719.808 137.025 724.414 Q133.969 728.998 128.159 728.998 Q122.349 728.998 119.27 724.414 Q116.214 719.808 116.214 711.081 Q116.214 702.331 119.27 697.748 Q122.349 693.141 128.159 693.141 Z" fill="#000000" fill-rule="nonzero" fill-opacity="1" /><path clip-path="url(#clip340)" d="M148.321 722.447 L153.205 722.447 L153.205 728.326 L148.321 728.326 L148.321 722.447 Z" fill="#000000" fill-rule="nonzero" fill-opacity="1" /><path clip-path="url(#clip340)" d="M176.237 697.84 L164.432 716.289 L176.237 716.289 L176.237 697.84 M175.01 693.766 L180.89 693.766 L180.89 716.289 L185.821 716.289 L185.821 720.178 L180.89 720.178 L180.89 728.326 L176.237 728.326 L176.237 720.178 L160.636 720.178 L160.636 715.664 L175.01 693.766 Z" fill="#000000" fill-rule="nonzero" fill-opacity="1" /><path clip-path="url(#clip340)" d="M129.64 452.443 Q126.029 452.443 124.201 456.008 Q122.395 459.549 122.395 466.679 Q122.395 473.785 124.201 477.35 Q126.029 480.892 129.64 480.892 Q133.275 480.892 135.08 477.35 Q136.909 473.785 136.909 466.679 Q136.909 459.549 135.08 456.008 Q133.275 452.443 129.64 452.443 M129.64 448.739 Q135.45 448.739 138.506 453.346 Q141.585 457.929 141.585 466.679 Q141.585 475.406 138.506 480.012 Q135.45 484.596 129.64 484.596 Q123.83 484.596 120.751 480.012 Q117.696 475.406 117.696 466.679 Q117.696 457.929 120.751 453.346 Q123.83 448.739 129.64 448.739 Z" fill="#000000" fill-rule="nonzero" fill-opacity="1" /><path clip-path="url(#clip340)" d="M149.802 478.045 L154.686 478.045 L154.686 483.924 L149.802 483.924 L149.802 478.045 Z" fill="#000000" fill-rule="nonzero" fill-opacity="1" /><path clip-path="url(#clip340)" d="M164.918 449.364 L183.274 449.364 L183.274 453.299 L169.2 453.299 L169.2 461.772 Q170.219 461.424 171.237 461.262 Q172.256 461.077 173.274 461.077 Q179.061 461.077 182.441 464.248 Q185.821 467.42 185.821 472.836 Q185.821 478.415 182.348 481.517 Q178.876 484.596 172.557 484.596 Q170.381 484.596 168.112 484.225 Q165.867 483.855 163.46 483.114 L163.46 478.415 Q165.543 479.549 167.765 480.105 Q169.987 480.66 172.464 480.66 Q176.469 480.66 178.807 478.554 Q181.145 476.447 181.145 472.836 Q181.145 469.225 178.807 467.119 Q176.469 465.012 172.464 465.012 Q170.589 465.012 168.714 465.429 Q166.862 465.846 164.918 466.725 L164.918 449.364 Z" fill="#000000" fill-rule="nonzero" fill-opacity="1" /><path clip-path="url(#clip340)" d="M128.483 208.041 Q124.872 208.041 123.043 211.606 Q121.238 215.147 121.238 222.277 Q121.238 229.383 123.043 232.948 Q124.872 236.49 128.483 236.49 Q132.117 236.49 133.923 232.948 Q135.751 229.383 135.751 222.277 Q135.751 215.147 133.923 211.606 Q132.117 208.041 128.483 208.041 M128.483 204.337 Q134.293 204.337 137.349 208.944 Q140.427 213.527 140.427 222.277 Q140.427 231.004 137.349 235.61 Q134.293 240.193 128.483 240.193 Q122.673 240.193 119.594 235.61 Q116.539 231.004 116.539 222.277 Q116.539 213.527 119.594 208.944 Q122.673 204.337 128.483 204.337 Z" fill="#000000" fill-rule="nonzero" fill-opacity="1" /><path clip-path="url(#clip340)" d="M148.645 233.642 L153.529 233.642 L153.529 239.522 L148.645 239.522 L148.645 233.642 Z" fill="#000000" fill-rule="nonzero" fill-opacity="1" /><path clip-path="url(#clip340)" d="M174.293 220.379 Q171.145 220.379 169.293 222.531 Q167.464 224.684 167.464 228.434 Q167.464 232.161 169.293 234.337 Q171.145 236.49 174.293 236.49 Q177.441 236.49 179.27 234.337 Q181.122 232.161 181.122 228.434 Q181.122 224.684 179.27 222.531 Q177.441 220.379 174.293 220.379 M183.575 205.726 L183.575 209.985 Q181.816 209.152 180.01 208.712 Q178.228 208.272 176.469 208.272 Q171.839 208.272 169.385 211.397 Q166.955 214.522 166.608 220.842 Q167.973 218.828 170.034 217.763 Q172.094 216.675 174.571 216.675 Q179.779 216.675 182.788 219.846 Q185.821 222.994 185.821 228.434 Q185.821 233.758 182.672 236.976 Q179.524 240.193 174.293 240.193 Q168.297 240.193 165.126 235.61 Q161.955 231.004 161.955 222.277 Q161.955 214.082 165.844 209.221 Q169.733 204.337 176.284 204.337 Q178.043 204.337 179.825 204.684 Q181.631 205.032 183.575 205.726 Z" fill="#000000" fill-rule="nonzero" fill-opacity="1" /><path clip-path="url(#clip340)" d="M14.1184 1127.8 L14.1184 1121.37 L34.2022 1121.37 L14.1184 1100.04 L14.1184 1091.77 L36.2711 1115.35 L61.6384 1090.08 L61.6384 1098.55 L38.7537 1121.37 L61.6384 1121.37 L61.6384 1127.8 L14.1184 1127.8 Z" fill="#000000" fill-rule="nonzero" fill-opacity="1" /><path clip-path="url(#clip340)" d="M42.3504 1058.06 L45.2149 1058.06 L45.2149 1084.99 Q51.2623 1084.61 54.4452 1081.36 Q57.5962 1078.08 57.5962 1072.26 Q57.5962 1068.88 56.7687 1065.73 Q55.9411 1062.55 54.2861 1059.43 L59.8242 1059.43 Q61.161 1062.58 61.8612 1065.89 Q62.5615 1069.2 62.5615 1072.61 Q62.5615 1081.14 57.5962 1086.13 Q52.631 1091.1 44.1646 1091.1 Q35.4117 1091.1 30.2873 1086.39 Q25.1311 1081.65 25.1311 1073.63 Q25.1311 1066.43 29.7781 1062.26 Q34.3932 1058.06 42.3504 1058.06 M40.6316 1063.92 Q35.8255 1063.98 32.9609 1066.62 Q30.0964 1069.23 30.0964 1073.56 Q30.0964 1078.46 32.8654 1081.42 Q35.6345 1084.35 40.6634 1084.8 L40.6316 1063.92 Z" fill="#000000" fill-rule="nonzero" fill-opacity="1" /><path clip-path="url(#clip340)" d="M31.465 1027.79 Q30.8921 1028.78 30.6375 1029.96 Q30.351 1031.1 30.351 1032.5 Q30.351 1037.47 33.5975 1040.14 Q36.8122 1042.78 42.8596 1042.78 L61.6384 1042.78 L61.6384 1048.67 L25.9905 1048.67 L25.9905 1042.78 L31.5287 1042.78 Q28.2821 1040.94 26.7225 1037.98 Q25.1311 1035.02 25.1311 1030.78 Q25.1311 1030.18 25.2266 1029.45 Q25.2903 1028.72 25.4494 1027.82 L31.465 1027.79 Z" fill="#000000" fill-rule="nonzero" fill-opacity="1" /><path clip-path="url(#clip340)" d="M40.1224 993.163 L61.6384 993.163 L61.6384 999.02 L40.3133 999.02 Q35.2526 999.02 32.7381 1000.99 Q30.2237 1002.97 30.2237 1006.91 Q30.2237 1011.66 33.2474 1014.39 Q36.2711 1017.13 41.491 1017.13 L61.6384 1017.13 L61.6384 1023.02 L25.9905 1023.02 L25.9905 1017.13 L31.5287 1017.13 Q28.314 1015.03 26.7225 1012.2 Q25.1311 1009.33 25.1311 1005.61 Q25.1311 999.465 28.9505 996.314 Q32.7381 993.163 40.1224 993.163 Z" fill="#000000" fill-rule="nonzero" fill-opacity="1" /><path clip-path="url(#clip340)" d="M42.3504 950.991 L45.2149 950.991 L45.2149 977.918 Q51.2623 977.536 54.4452 974.289 Q57.5962 971.011 57.5962 965.186 Q57.5962 961.812 56.7687 958.661 Q55.9411 955.478 54.2861 952.359 L59.8242 952.359 Q61.161 955.51 61.8612 958.82 Q62.5615 962.131 62.5615 965.536 Q62.5615 974.066 57.5962 979.063 Q52.631 984.029 44.1646 984.029 Q35.4117 984.029 30.2873 979.318 Q25.1311 974.576 25.1311 966.555 Q25.1311 959.362 29.7781 955.192 Q34.3932 950.991 42.3504 950.991 M40.6316 956.847 Q35.8255 956.911 32.9609 959.552 Q30.0964 962.162 30.0964 966.491 Q30.0964 971.393 32.8654 974.353 Q35.6345 977.281 40.6634 977.727 L40.6316 956.847 Z" fill="#000000" fill-rule="nonzero" fill-opacity="1" /><path clip-path="url(#clip340)" d="M12.1132 941.378 L12.1132 935.522 L61.6384 935.522 L61.6384 941.378 L12.1132 941.378 Z" fill="#000000" fill-rule="nonzero" fill-opacity="1" /><path clip-path="url(#clip340)" d="M25.9905 906.749 L25.9905 900.542 L55.9093 889.402 L25.9905 878.262 L25.9905 872.056 L61.6384 885.424 L61.6384 893.381 L25.9905 906.749 Z" fill="#000000" fill-rule="nonzero" fill-opacity="1" /><path clip-path="url(#clip340)" d="M43.719 847.771 Q43.719 854.868 45.3422 857.606 Q46.9655 860.343 50.8804 860.343 Q53.9996 860.343 55.8457 858.306 Q57.6599 856.237 57.6599 852.704 Q57.6599 847.834 54.2224 844.906 Q50.7531 841.946 45.0239 841.946 L43.719 841.946 L43.719 847.771 M41.3 836.09 L61.6384 836.09 L61.6384 841.946 L56.2276 841.946 Q59.4741 843.951 61.0337 846.943 Q62.5615 849.935 62.5615 854.264 Q62.5615 859.738 59.5059 862.985 Q56.4186 866.199 51.2623 866.199 Q45.2467 866.199 42.1912 862.189 Q39.1357 858.147 39.1357 850.158 L39.1357 841.946 L38.5628 841.946 Q34.5205 841.946 32.3244 844.62 Q30.0964 847.261 30.0964 852.068 Q30.0964 855.123 30.8284 858.019 Q31.5605 860.916 33.0246 863.589 L27.6137 863.589 Q26.3724 860.375 25.7677 857.351 Q25.1311 854.327 25.1311 851.463 Q25.1311 843.728 29.1415 839.909 Q33.1519 836.09 41.3 836.09 Z" fill="#000000" fill-rule="nonzero" fill-opacity="1" /><path clip-path="url(#clip340)" d="M12.1132 824.027 L12.1132 818.17 L61.6384 818.17 L61.6384 824.027 L12.1132 824.027 Z" fill="#000000" fill-rule="nonzero" fill-opacity="1" /><path clip-path="url(#clip340)" d="M47.5702 806.521 L25.9905 806.521 L25.9905 800.664 L47.3474 800.664 Q52.4082 800.664 54.9545 798.691 Q57.4689 796.718 57.4689 792.771 Q57.4689 788.029 54.4452 785.291 Q51.4215 782.522 46.2016 782.522 L25.9905 782.522 L25.9905 776.666 L61.6384 776.666 L61.6384 782.522 L56.1639 782.522 Q59.4104 784.655 61.0019 787.487 Q62.5615 790.288 62.5615 794.012 Q62.5615 800.155 58.742 803.338 Q54.9226 806.521 47.5702 806.521 M25.1311 791.784 L25.1311 791.784 Z" fill="#000000" fill-rule="nonzero" fill-opacity="1" /><path clip-path="url(#clip340)" d="M42.3504 734.111 L45.2149 734.111 L45.2149 761.038 Q51.2623 760.656 54.4452 757.409 Q57.5962 754.131 57.5962 748.307 Q57.5962 744.933 56.7687 741.782 Q55.9411 738.599 54.2861 735.48 L59.8242 735.48 Q61.161 738.631 61.8612 741.941 Q62.5615 745.251 62.5615 748.657 Q62.5615 757.187 57.5962 762.184 Q52.631 767.149 44.1646 767.149 Q35.4117 767.149 30.2873 762.438 Q25.1311 757.696 25.1311 749.675 Q25.1311 742.482 29.7781 738.312 Q34.3932 734.111 42.3504 734.111 M40.6316 739.967 Q35.8255 740.031 32.9609 742.673 Q30.0964 745.283 30.0964 749.611 Q30.0964 754.513 32.8654 757.473 Q35.6345 760.401 40.6634 760.847 L40.6316 739.967 Z" fill="#000000" fill-rule="nonzero" fill-opacity="1" /><path clip-path="url(#clip340)" d="M553.085 44.2197 Q555.719 45.1109 558.19 48.0275 Q560.701 50.9442 563.213 56.0483 L571.517 72.576 L562.727 72.576 L554.989 57.061 Q551.992 50.9847 549.156 48.9997 Q546.361 47.0148 541.5 47.0148 L532.588 47.0148 L532.588 72.576 L524.405 72.576 L524.405 12.096 L542.877 12.096 Q553.248 12.096 558.352 16.4305 Q563.456 20.7649 563.456 29.5149 Q563.456 35.2267 560.782 38.994 Q558.149 42.7613 553.085 44.2197 M532.588 18.8205 L532.588 40.2903 L542.877 40.2903 Q548.792 40.2903 551.789 37.5762 Q554.827 34.8216 554.827 29.5149 Q554.827 24.2082 551.789 21.5346 Q548.792 18.8205 542.877 18.8205 L532.588 18.8205 Z" fill="#000000" fill-rule="nonzero" fill-opacity="1" /><path clip-path="url(#clip340)" d="M581.725 27.2059 L589.179 27.2059 L589.179 72.576 L581.725 72.576 L581.725 27.2059 M581.725 9.54393 L589.179 9.54393 L589.179 18.9825 L581.725 18.9825 L581.725 9.54393 Z" fill="#000000" fill-rule="nonzero" fill-opacity="1" /><path clip-path="url(#clip340)" d="M634.63 49.3643 Q634.63 41.2625 631.268 36.8065 Q627.946 32.3505 621.91 32.3505 Q615.915 32.3505 612.553 36.8065 Q609.231 41.2625 609.231 49.3643 Q609.231 57.4256 612.553 61.8816 Q615.915 66.3376 621.91 66.3376 Q627.946 66.3376 631.268 61.8816 Q634.63 57.4256 634.63 49.3643 M642.084 66.9452 Q642.084 78.5308 636.939 84.1616 Q631.795 89.8329 621.181 89.8329 Q617.252 89.8329 613.768 89.2252 Q610.284 88.6581 607.003 87.4428 L607.003 80.1917 Q610.284 81.9741 613.484 82.8248 Q616.685 83.6755 620.006 83.6755 Q627.339 83.6755 630.984 79.8271 Q634.63 76.0193 634.63 68.282 L634.63 64.5957 Q632.321 68.6061 628.716 70.5911 Q625.111 72.576 620.087 72.576 Q611.743 72.576 606.638 66.2161 Q601.534 59.8562 601.534 49.3643 Q601.534 38.832 606.638 32.472 Q611.743 26.1121 620.087 26.1121 Q625.111 26.1121 628.716 28.0971 Q632.321 30.082 634.63 34.0924 L634.63 27.2059 L642.084 27.2059 L642.084 66.9452 Z" fill="#000000" fill-rule="nonzero" fill-opacity="1" /><path clip-path="url(#clip340)" d="M695.151 45.1919 L695.151 72.576 L687.697 72.576 L687.697 45.4349 Q687.697 38.994 685.185 35.7938 Q682.674 32.5936 677.651 32.5936 Q671.615 32.5936 668.131 36.4419 Q664.647 40.2903 664.647 46.9338 L664.647 72.576 L657.153 72.576 L657.153 9.54393 L664.647 9.54393 L664.647 34.2544 Q667.321 30.163 670.926 28.1376 Q674.572 26.1121 679.312 26.1121 Q687.13 26.1121 691.14 30.9732 Q695.151 35.7938 695.151 45.1919 Z" fill="#000000" fill-rule="nonzero" fill-opacity="1" /><path clip-path="url(#clip340)" d="M717.39 14.324 L717.39 27.2059 L732.743 27.2059 L732.743 32.9987 L717.39 32.9987 L717.39 57.6282 Q717.39 63.1779 718.889 64.7578 Q720.428 66.3376 725.087 66.3376 L732.743 66.3376 L732.743 72.576 L725.087 72.576 Q716.458 72.576 713.177 69.3758 Q709.896 66.1351 709.896 57.6282 L709.896 32.9987 L704.427 32.9987 L704.427 27.2059 L709.896 27.2059 L709.896 14.324 L717.39 14.324 Z" fill="#000000" fill-rule="nonzero" fill-opacity="1" /><path clip-path="url(#clip340)" d="M769.242 12.096 L777.425 12.096 L777.425 37.6572 L804.566 12.096 L815.098 12.096 L785.081 40.2903 L817.245 72.576 L806.47 72.576 L777.425 43.45 L777.425 72.576 L769.242 72.576 L769.242 12.096 Z" fill="#000000" fill-rule="nonzero" fill-opacity="1" /><path clip-path="url(#clip340)" d="M842.482 49.7694 Q833.449 49.7694 829.965 51.8354 Q826.481 53.9013 826.481 58.8839 Q826.481 62.8538 829.074 65.2034 Q831.707 67.5124 836.203 67.5124 Q842.401 67.5124 846.128 63.1374 Q849.895 58.7219 849.895 51.4303 L849.895 49.7694 L842.482 49.7694 M857.349 46.6907 L857.349 72.576 L849.895 72.576 L849.895 65.6895 Q847.343 69.8214 843.535 71.8063 Q839.727 73.7508 834.218 73.7508 Q827.251 73.7508 823.119 69.8619 Q819.027 65.9325 819.027 59.3701 Q819.027 51.7138 824.131 47.825 Q829.276 43.9361 839.444 43.9361 L849.895 43.9361 L849.895 43.2069 Q849.895 38.0623 846.492 35.2672 Q843.13 32.4315 837.013 32.4315 Q833.124 32.4315 829.438 33.3632 Q825.752 34.295 822.349 36.1584 L822.349 29.2718 Q826.44 27.692 830.289 26.9223 Q834.137 26.1121 837.783 26.1121 Q847.627 26.1121 852.488 31.2163 Q857.349 36.3204 857.349 46.6907 Z" fill="#000000" fill-rule="nonzero" fill-opacity="1" /><path clip-path="url(#clip340)" d="M910.416 45.1919 L910.416 72.576 L902.962 72.576 L902.962 45.4349 Q902.962 38.994 900.451 35.7938 Q897.939 32.5936 892.916 32.5936 Q886.88 32.5936 883.396 36.4419 Q879.912 40.2903 879.912 46.9338 L879.912 72.576 L872.418 72.576 L872.418 27.2059 L879.912 27.2059 L879.912 34.2544 Q882.586 30.163 886.191 28.1376 Q889.837 26.1121 894.577 26.1121 Q902.395 26.1121 906.405 30.9732 Q910.416 35.7938 910.416 45.1919 Z" fill="#000000" fill-rule="nonzero" fill-opacity="1" /><path clip-path="url(#clip340)" d="M990.462 48.0275 L990.462 51.6733 L956.191 51.6733 Q956.677 59.3701 960.809 63.421 Q964.981 67.4314 972.395 67.4314 Q976.689 67.4314 980.699 66.3781 Q984.75 65.3249 988.72 63.2184 L988.72 70.267 Q984.709 71.9684 980.496 72.8596 Q976.283 73.7508 971.949 73.7508 Q961.093 73.7508 954.733 67.4314 Q948.413 61.1119 948.413 50.3365 Q948.413 39.1965 954.409 32.6746 Q960.444 26.1121 970.653 26.1121 Q979.808 26.1121 985.114 32.0264 Q990.462 37.9003 990.462 48.0275 M983.008 45.84 Q982.927 39.7232 979.565 36.0774 Q976.243 32.4315 970.734 32.4315 Q964.495 32.4315 960.728 35.9558 Q957.001 39.4801 956.434 45.8805 L983.008 45.84 Z" fill="#000000" fill-rule="nonzero" fill-opacity="1" /><path clip-path="url(#clip340)" d="M1038.95 27.2059 L1022.54 49.2833 L1039.8 72.576 L1031.01 72.576 L1017.81 54.752 L1004.6 72.576 L995.809 72.576 L1013.43 48.8377 L997.308 27.2059 L1006.1 27.2059 L1018.13 43.369 L1030.16 27.2059 L1038.95 27.2059 Z" fill="#000000" fill-rule="nonzero" fill-opacity="1" /><path clip-path="url(#clip340)" d="M1057.71 14.324 L1057.71 27.2059 L1073.06 27.2059 L1073.06 32.9987 L1057.71 32.9987 L1057.71 57.6282 Q1057.71 63.1779 1059.21 64.7578 Q1060.74 66.3376 1065.4 66.3376 L1073.06 66.3376 L1073.06 72.576 L1065.4 72.576 Q1056.77 72.576 1053.49 69.3758 Q1050.21 66.1351 1050.21 57.6282 L1050.21 32.9987 L1044.74 32.9987 L1044.74 27.2059 L1050.21 27.2059 L1050.21 14.324 L1057.71 14.324 Z" fill="#000000" fill-rule="nonzero" fill-opacity="1" /><path clip-path="url(#clip340)" d="M1121.67 48.0275 L1121.67 51.6733 L1087.4 51.6733 Q1087.89 59.3701 1092.02 63.421 Q1096.19 67.4314 1103.6 67.4314 Q1107.9 67.4314 1111.91 66.3781 Q1115.96 65.3249 1119.93 63.2184 L1119.93 70.267 Q1115.92 71.9684 1111.71 72.8596 Q1107.49 73.7508 1103.16 73.7508 Q1092.3 73.7508 1085.94 67.4314 Q1079.62 61.1119 1079.62 50.3365 Q1079.62 39.1965 1085.62 32.6746 Q1091.65 26.1121 1101.86 26.1121 Q1111.02 26.1121 1116.32 32.0264 Q1121.67 37.9003 1121.67 48.0275 M1114.22 45.84 Q1114.14 39.7232 1110.77 36.0774 Q1107.45 32.4315 1101.94 32.4315 Q1095.7 32.4315 1091.94 35.9558 Q1088.21 39.4801 1087.64 45.8805 L1114.22 45.84 Z" fill="#000000" fill-rule="nonzero" fill-opacity="1" /><path clip-path="url(#clip340)" d="M1171.62 45.1919 L1171.62 72.576 L1164.16 72.576 L1164.16 45.4349 Q1164.16 38.994 1161.65 35.7938 Q1159.14 32.5936 1154.12 32.5936 Q1148.08 32.5936 1144.6 36.4419 Q1141.11 40.2903 1141.11 46.9338 L1141.11 72.576 L1133.62 72.576 L1133.62 27.2059 L1141.11 27.2059 L1141.11 34.2544 Q1143.79 30.163 1147.39 28.1376 Q1151.04 26.1121 1155.78 26.1121 Q1163.6 26.1121 1167.61 30.9732 Q1171.62 35.7938 1171.62 45.1919 Z" fill="#000000" fill-rule="nonzero" fill-opacity="1" /><path clip-path="url(#clip340)" d="M1215.41 28.5427 L1215.41 35.5912 Q1212.25 33.9709 1208.85 33.1607 Q1205.44 32.3505 1201.8 32.3505 Q1196.25 32.3505 1193.45 34.0519 Q1190.7 35.7533 1190.7 39.156 Q1190.7 41.7486 1192.68 43.2475 Q1194.67 44.7058 1200.66 46.0426 L1203.22 46.6097 Q1211.15 48.3111 1214.48 51.4303 Q1217.84 54.509 1217.84 60.0587 Q1217.84 66.3781 1212.82 70.0644 Q1207.83 73.7508 1199.08 73.7508 Q1195.44 73.7508 1191.47 73.0216 Q1187.54 72.3329 1183.16 70.9151 L1183.16 63.2184 Q1187.3 65.3654 1191.31 66.4591 Q1195.32 67.5124 1199.25 67.5124 Q1204.51 67.5124 1207.35 65.73 Q1210.18 63.9071 1210.18 60.6258 Q1210.18 57.5877 1208.12 55.9673 Q1206.09 54.3469 1199.16 52.8481 L1196.57 52.2405 Q1189.64 50.7821 1186.57 47.7845 Q1183.49 44.7463 1183.49 39.4801 Q1183.49 33.0797 1188.02 29.5959 Q1192.56 26.1121 1200.91 26.1121 Q1205.04 26.1121 1208.68 26.7198 Q1212.33 27.3274 1215.41 28.5427 Z" fill="#000000" fill-rule="nonzero" fill-opacity="1" /><path clip-path="url(#clip340)" d="M1229.71 27.2059 L1237.16 27.2059 L1237.16 72.576 L1229.71 72.576 L1229.71 27.2059 M1229.71 9.54393 L1237.16 9.54393 L1237.16 18.9825 L1229.71 18.9825 L1229.71 9.54393 Z" fill="#000000" fill-rule="nonzero" fill-opacity="1" /><path clip-path="url(#clip340)" d="M1270.34 32.4315 Q1264.34 32.4315 1260.86 37.1306 Q1257.38 41.7891 1257.38 49.9314 Q1257.38 58.0738 1260.82 62.7728 Q1264.3 67.4314 1270.34 67.4314 Q1276.29 67.4314 1279.78 62.7323 Q1283.26 58.0333 1283.26 49.9314 Q1283.26 41.8701 1279.78 37.1711 Q1276.29 32.4315 1270.34 32.4315 M1270.34 26.1121 Q1280.06 26.1121 1285.61 32.4315 Q1291.16 38.7509 1291.16 49.9314 Q1291.16 61.0714 1285.61 67.4314 Q1280.06 73.7508 1270.34 73.7508 Q1260.58 73.7508 1255.03 67.4314 Q1249.52 61.0714 1249.52 49.9314 Q1249.52 38.7509 1255.03 32.4315 Q1260.58 26.1121 1270.34 26.1121 Z" fill="#000000" fill-rule="nonzero" fill-opacity="1" /><path clip-path="url(#clip340)" d="M1341.23 45.1919 L1341.23 72.576 L1333.78 72.576 L1333.78 45.4349 Q1333.78 38.994 1331.26 35.7938 Q1328.75 32.5936 1323.73 32.5936 Q1317.69 32.5936 1314.21 36.4419 Q1310.73 40.2903 1310.73 46.9338 L1310.73 72.576 L1303.23 72.576 L1303.23 27.2059 L1310.73 27.2059 L1310.73 34.2544 Q1313.4 30.163 1317 28.1376 Q1320.65 26.1121 1325.39 26.1121 Q1333.21 26.1121 1337.22 30.9732 Q1341.23 35.7938 1341.23 45.1919 Z" fill="#000000" fill-rule="nonzero" fill-opacity="1" /><path clip-path="url(#clip340)" d="M1403.09 49.7694 Q1394.05 49.7694 1390.57 51.8354 Q1387.09 53.9013 1387.09 58.8839 Q1387.09 62.8538 1389.68 65.2034 Q1392.31 67.5124 1396.81 67.5124 Q1403.01 67.5124 1406.73 63.1374 Q1410.5 58.7219 1410.5 51.4303 L1410.5 49.7694 L1403.09 49.7694 M1417.95 46.6907 L1417.95 72.576 L1410.5 72.576 L1410.5 65.6895 Q1407.95 69.8214 1404.14 71.8063 Q1400.33 73.7508 1394.82 73.7508 Q1387.86 73.7508 1383.72 69.8619 Q1379.63 65.9325 1379.63 59.3701 Q1379.63 51.7138 1384.74 47.825 Q1389.88 43.9361 1400.05 43.9361 L1410.5 43.9361 L1410.5 43.2069 Q1410.5 38.0623 1407.1 35.2672 Q1403.73 32.4315 1397.62 32.4315 Q1393.73 32.4315 1390.04 33.3632 Q1386.36 34.295 1382.95 36.1584 L1382.95 29.2718 Q1387.05 27.692 1390.89 26.9223 Q1394.74 26.1121 1398.39 26.1121 Q1408.23 26.1121 1413.09 31.2163 Q1417.95 36.3204 1417.95 46.6907 Z" fill="#000000" fill-rule="nonzero" fill-opacity="1" /><path clip-path="url(#clip340)" d="M1440.68 14.324 L1440.68 27.2059 L1456.03 27.2059 L1456.03 32.9987 L1440.68 32.9987 L1440.68 57.6282 Q1440.68 63.1779 1442.18 64.7578 Q1443.72 66.3376 1448.38 66.3376 L1456.03 66.3376 L1456.03 72.576 L1448.38 72.576 Q1439.75 72.576 1436.47 69.3758 Q1433.18 66.1351 1433.18 57.6282 L1433.18 32.9987 L1427.72 32.9987 L1427.72 27.2059 L1433.18 27.2059 L1433.18 14.324 L1440.68 14.324 Z" fill="#000000" fill-rule="nonzero" fill-opacity="1" /><path clip-path="url(#clip340)" d="M1492.21 27.2059 L1499.66 27.2059 L1499.66 72.576 L1492.21 72.576 L1492.21 27.2059 M1492.21 9.54393 L1499.66 9.54393 L1499.66 18.9825 L1492.21 18.9825 L1492.21 9.54393 Z" fill="#000000" fill-rule="nonzero" fill-opacity="1" /><path clip-path="url(#clip340)" d="M1552.97 45.1919 L1552.97 72.576 L1545.52 72.576 L1545.52 45.4349 Q1545.52 38.994 1543 35.7938 Q1540.49 32.5936 1535.47 32.5936 Q1529.43 32.5936 1525.95 36.4419 Q1522.47 40.2903 1522.47 46.9338 L1522.47 72.576 L1514.97 72.576 L1514.97 27.2059 L1522.47 27.2059 L1522.47 34.2544 Q1525.14 30.163 1528.75 28.1376 Q1532.39 26.1121 1537.13 26.1121 Q1544.95 26.1121 1548.96 30.9732 Q1552.97 35.7938 1552.97 45.1919 Z" fill="#000000" fill-rule="nonzero" fill-opacity="1" /><path clip-path="url(#clip340)" d="M1600.49 28.9478 L1600.49 35.9153 Q1597.33 34.1734 1594.13 33.3227 Q1590.97 32.4315 1587.73 32.4315 Q1580.48 32.4315 1576.47 37.0496 Q1572.46 41.6271 1572.46 49.9314 Q1572.46 58.2358 1576.47 62.8538 Q1580.48 67.4314 1587.73 67.4314 Q1590.97 67.4314 1594.13 66.5807 Q1597.33 65.6895 1600.49 63.9476 L1600.49 70.8341 Q1597.37 72.2924 1594.01 73.0216 Q1590.68 73.7508 1586.92 73.7508 Q1576.67 73.7508 1570.63 67.3098 Q1564.6 60.8689 1564.6 49.9314 Q1564.6 38.832 1570.67 32.472 Q1576.79 26.1121 1587.4 26.1121 Q1590.85 26.1121 1594.13 26.8413 Q1597.41 27.5299 1600.49 28.9478 Z" fill="#000000" fill-rule="nonzero" fill-opacity="1" /><path clip-path="url(#clip340)" d="M1639.74 34.1734 Q1638.48 33.4443 1636.99 33.1202 Q1635.53 32.7556 1633.75 32.7556 Q1627.43 32.7556 1624.02 36.8875 Q1620.66 40.9789 1620.66 48.6757 L1620.66 72.576 L1613.17 72.576 L1613.17 27.2059 L1620.66 27.2059 L1620.66 34.2544 Q1623.01 30.1225 1626.78 28.1376 Q1630.54 26.1121 1635.93 26.1121 Q1636.7 26.1121 1637.63 26.2337 Q1638.57 26.3147 1639.7 26.5172 L1639.74 34.1734 Z" fill="#000000" fill-rule="nonzero" fill-opacity="1" /><path clip-path="url(#clip340)" d="M1684.54 48.0275 L1684.54 51.6733 L1650.27 51.6733 Q1650.76 59.3701 1654.89 63.421 Q1659.06 67.4314 1666.48 67.4314 Q1670.77 67.4314 1674.78 66.3781 Q1678.83 65.3249 1682.8 63.2184 L1682.8 70.267 Q1678.79 71.9684 1674.58 72.8596 Q1670.37 73.7508 1666.03 73.7508 Q1655.17 73.7508 1648.81 67.4314 Q1642.5 61.1119 1642.5 50.3365 Q1642.5 39.1965 1648.49 32.6746 Q1654.53 26.1121 1664.73 26.1121 Q1673.89 26.1121 1679.2 32.0264 Q1684.54 37.9003 1684.54 48.0275 M1677.09 45.84 Q1677.01 39.7232 1673.65 36.0774 Q1670.32 32.4315 1664.82 32.4315 Q1658.58 32.4315 1654.81 35.9558 Q1651.08 39.4801 1650.52 45.8805 L1677.09 45.84 Z" fill="#000000" fill-rule="nonzero" fill-opacity="1" /><path clip-path="url(#clip340)" d="M1717.4 49.7694 Q1708.36 49.7694 1704.88 51.8354 Q1701.4 53.9013 1701.4 58.8839 Q1701.4 62.8538 1703.99 65.2034 Q1706.62 67.5124 1711.12 67.5124 Q1717.32 67.5124 1721.04 63.1374 Q1724.81 58.7219 1724.81 51.4303 L1724.81 49.7694 L1717.4 49.7694 M1732.26 46.6907 L1732.26 72.576 L1724.81 72.576 L1724.81 65.6895 Q1722.26 69.8214 1718.45 71.8063 Q1714.64 73.7508 1709.13 73.7508 Q1702.16 73.7508 1698.03 69.8619 Q1693.94 65.9325 1693.94 59.3701 Q1693.94 51.7138 1699.05 47.825 Q1704.19 43.9361 1714.36 43.9361 L1724.81 43.9361 L1724.81 43.2069 Q1724.81 38.0623 1721.41 35.2672 Q1718.04 32.4315 1711.93 32.4315 Q1708.04 32.4315 1704.35 33.3632 Q1700.67 34.295 1697.26 36.1584 L1697.26 29.2718 Q1701.35 27.692 1705.2 26.9223 Q1709.05 26.1121 1712.7 26.1121 Q1722.54 26.1121 1727.4 31.2163 Q1732.26 36.3204 1732.26 46.6907 Z" fill="#000000" fill-rule="nonzero" fill-opacity="1" /><path clip-path="url(#clip340)" d="M1776.54 28.5427 L1776.54 35.5912 Q1773.38 33.9709 1769.98 33.1607 Q1766.57 32.3505 1762.93 32.3505 Q1757.38 32.3505 1754.58 34.0519 Q1751.83 35.7533 1751.83 39.156 Q1751.83 41.7486 1753.81 43.2475 Q1755.8 44.7058 1761.79 46.0426 L1764.35 46.6097 Q1772.29 48.3111 1775.61 51.4303 Q1778.97 54.509 1778.97 60.0587 Q1778.97 66.3781 1773.95 70.0644 Q1768.96 73.7508 1760.21 73.7508 Q1756.57 73.7508 1752.6 73.0216 Q1748.67 72.3329 1744.29 70.9151 L1744.29 63.2184 Q1748.43 65.3654 1752.44 66.4591 Q1756.45 67.5124 1760.38 67.5124 Q1765.64 67.5124 1768.48 65.73 Q1771.31 63.9071 1771.31 60.6258 Q1771.31 57.5877 1769.25 55.9673 Q1767.22 54.3469 1760.3 52.8481 L1757.7 52.2405 Q1750.78 50.7821 1747.7 47.7845 Q1744.62 44.7463 1744.62 39.4801 Q1744.62 33.0797 1749.16 29.5959 Q1753.69 26.1121 1762.04 26.1121 Q1766.17 26.1121 1769.82 26.7198 Q1773.46 27.3274 1776.54 28.5427 Z" fill="#000000" fill-rule="nonzero" fill-opacity="1" /><path clip-path="url(#clip340)" d="M1790.84 27.2059 L1798.29 27.2059 L1798.29 72.576 L1790.84 72.576 L1790.84 27.2059 M1790.84 9.54393 L1798.29 9.54393 L1798.29 18.9825 L1790.84 18.9825 L1790.84 9.54393 Z" fill="#000000" fill-rule="nonzero" fill-opacity="1" /><path clip-path="url(#clip340)" d="M1851.6 45.1919 L1851.6 72.576 L1844.15 72.576 L1844.15 45.4349 Q1844.15 38.994 1841.64 35.7938 Q1839.13 32.5936 1834.1 32.5936 Q1828.07 32.5936 1824.58 36.4419 Q1821.1 40.2903 1821.1 46.9338 L1821.1 72.576 L1813.61 72.576 L1813.61 27.2059 L1821.1 27.2059 L1821.1 34.2544 Q1823.77 30.163 1827.38 28.1376 Q1831.02 26.1121 1835.76 26.1121 Q1843.58 26.1121 1847.59 30.9732 Q1851.6 35.7938 1851.6 45.1919 Z" fill="#000000" fill-rule="nonzero" fill-opacity="1" /><path clip-path="url(#clip340)" d="M1896.32 49.3643 Q1896.32 41.2625 1892.96 36.8065 Q1889.64 32.3505 1883.6 32.3505 Q1877.61 32.3505 1874.25 36.8065 Q1870.93 41.2625 1870.93 49.3643 Q1870.93 57.4256 1874.25 61.8816 Q1877.61 66.3376 1883.6 66.3376 Q1889.64 66.3376 1892.96 61.8816 Q1896.32 57.4256 1896.32 49.3643 M1903.78 66.9452 Q1903.78 78.5308 1898.63 84.1616 Q1893.49 89.8329 1882.88 89.8329 Q1878.95 89.8329 1875.46 89.2252 Q1871.98 88.6581 1868.7 87.4428 L1868.7 80.1917 Q1871.98 81.9741 1875.18 82.8248 Q1878.38 83.6755 1881.7 83.6755 Q1889.03 83.6755 1892.68 79.8271 Q1896.32 76.0193 1896.32 68.282 L1896.32 64.5957 Q1894.02 68.6061 1890.41 70.5911 Q1886.81 72.576 1881.78 72.576 Q1873.44 72.576 1868.33 66.2161 Q1863.23 59.8562 1863.23 49.3643 Q1863.23 38.832 1868.33 32.472 Q1873.44 26.1121 1881.78 26.1121 Q1886.81 26.1121 1890.41 28.0971 Q1894.02 30.082 1896.32 34.0924 L1896.32 27.2059 L1903.78 27.2059 L1903.78 66.9452 Z" fill="#000000" fill-rule="nonzero" fill-opacity="1" /><path clip-path="url(#clip340)" d="M1971.79 34.1734 Q1970.54 33.4443 1969.04 33.1202 Q1967.58 32.7556 1965.8 32.7556 Q1959.48 32.7556 1956.08 36.8875 Q1952.71 40.9789 1952.71 48.6757 L1952.71 72.576 L1945.22 72.576 L1945.22 27.2059 L1952.71 27.2059 L1952.71 34.2544 Q1955.06 30.1225 1958.83 28.1376 Q1962.6 26.1121 1967.99 26.1121 Q1968.75 26.1121 1969.69 26.2337 Q1970.62 26.3147 1971.75 26.5172 L1971.79 34.1734 Z" fill="#000000" fill-rule="nonzero" fill-opacity="1" /><path clip-path="url(#clip340)" d="M2016.6 48.0275 L2016.6 51.6733 L1982.33 51.6733 Q1982.81 59.3701 1986.94 63.421 Q1991.12 67.4314 1998.53 67.4314 Q2002.82 67.4314 2006.83 66.3781 Q2010.88 65.3249 2014.85 63.2184 L2014.85 70.267 Q2010.84 71.9684 2006.63 72.8596 Q2002.42 73.7508 1998.08 73.7508 Q1987.23 73.7508 1980.87 67.4314 Q1974.55 61.1119 1974.55 50.3365 Q1974.55 39.1965 1980.54 32.6746 Q1986.58 26.1121 1996.79 26.1121 Q2005.94 26.1121 2011.25 32.0264 Q2016.6 37.9003 2016.6 48.0275 M2009.14 45.84 Q2009.06 39.7232 2005.7 36.0774 Q2002.38 32.4315 1996.87 32.4315 Q1990.63 32.4315 1986.86 35.9558 Q1983.14 39.4801 1982.57 45.8805 L2009.14 45.84 Z" fill="#000000" fill-rule="nonzero" fill-opacity="1" /><path clip-path="url(#clip340)" d="M2057.75 28.5427 L2057.75 35.5912 Q2054.59 33.9709 2051.19 33.1607 Q2047.79 32.3505 2044.14 32.3505 Q2038.59 32.3505 2035.8 34.0519 Q2033.04 35.7533 2033.04 39.156 Q2033.04 41.7486 2035.03 43.2475 Q2037.01 44.7058 2043.01 46.0426 L2045.56 46.6097 Q2053.5 48.3111 2056.82 51.4303 Q2060.18 54.509 2060.18 60.0587 Q2060.18 66.3781 2055.16 70.0644 Q2050.18 73.7508 2041.43 73.7508 Q2037.78 73.7508 2033.81 73.0216 Q2029.88 72.3329 2025.51 70.9151 L2025.51 63.2184 Q2029.64 65.3654 2033.65 66.4591 Q2037.66 67.5124 2041.59 67.5124 Q2046.86 67.5124 2049.69 65.73 Q2052.53 63.9071 2052.53 60.6258 Q2052.53 57.5877 2050.46 55.9673 Q2048.44 54.3469 2041.51 52.8481 L2038.92 52.2405 Q2031.99 50.7821 2028.91 47.7845 Q2025.83 44.7463 2025.83 39.4801 Q2025.83 33.0797 2030.37 29.5959 Q2034.91 26.1121 2043.25 26.1121 Q2047.38 26.1121 2051.03 26.7198 Q2054.67 27.3274 2057.75 28.5427 Z" fill="#000000" fill-rule="nonzero" fill-opacity="1" /><path clip-path="url(#clip340)" d="M2089.63 32.4315 Q2083.64 32.4315 2080.15 37.1306 Q2076.67 41.7891 2076.67 49.9314 Q2076.67 58.0738 2080.11 62.7728 Q2083.6 67.4314 2089.63 67.4314 Q2095.59 67.4314 2099.07 62.7323 Q2102.56 58.0333 2102.56 49.9314 Q2102.56 41.8701 2099.07 37.1711 Q2095.59 32.4315 2089.63 32.4315 M2089.63 26.1121 Q2099.36 26.1121 2104.91 32.4315 Q2110.46 38.7509 2110.46 49.9314 Q2110.46 61.0714 2104.91 67.4314 Q2099.36 73.7508 2089.63 73.7508 Q2079.87 73.7508 2074.32 67.4314 Q2068.81 61.0714 2068.81 49.9314 Q2068.81 38.7509 2074.32 32.4315 Q2079.87 26.1121 2089.63 26.1121 Z" fill="#000000" fill-rule="nonzero" fill-opacity="1" /><path clip-path="url(#clip340)" d="M2122.81 9.54393 L2130.26 9.54393 L2130.26 72.576 L2122.81 72.576 L2122.81 9.54393 Z" fill="#000000" fill-rule="nonzero" fill-opacity="1" /><path clip-path="url(#clip340)" d="M2145.09 54.671 L2145.09 27.2059 L2152.54 27.2059 L2152.54 54.3874 Q2152.54 60.8284 2155.06 64.0691 Q2157.57 67.2693 2162.59 67.2693 Q2168.63 67.2693 2172.11 63.421 Q2175.63 59.5726 2175.63 52.9291 L2175.63 27.2059 L2183.09 27.2059 L2183.09 72.576 L2175.63 72.576 L2175.63 65.6084 Q2172.92 69.7404 2169.32 71.7658 Q2165.75 73.7508 2161.01 73.7508 Q2153.19 73.7508 2149.14 68.8897 Q2145.09 64.0286 2145.09 54.671 M2163.85 26.1121 L2163.85 26.1121 Z" fill="#000000" fill-rule="nonzero" fill-opacity="1" /><path clip-path="url(#clip340)" d="M2205.81 14.324 L2205.81 27.2059 L2221.17 27.2059 L2221.17 32.9987 L2205.81 32.9987 L2205.81 57.6282 Q2205.81 63.1779 2207.31 64.7578 Q2208.85 66.3376 2213.51 66.3376 L2221.17 66.3376 L2221.17 72.576 L2213.51 72.576 Q2204.88 72.576 2201.6 69.3758 Q2198.32 66.1351 2198.32 57.6282 L2198.32 32.9987 L2192.85 32.9987 L2192.85 27.2059 L2198.32 27.2059 L2198.32 14.324 L2205.81 14.324 Z" fill="#000000" fill-rule="nonzero" fill-opacity="1" /><path clip-path="url(#clip340)" d="M2230.97 27.2059 L2238.42 27.2059 L2238.42 72.576 L2230.97 72.576 L2230.97 27.2059 M2230.97 9.54393 L2238.42 9.54393 L2238.42 18.9825 L2230.97 18.9825 L2230.97 9.54393 Z" fill="#000000" fill-rule="nonzero" fill-opacity="1" /><path clip-path="url(#clip340)" d="M2271.6 32.4315 Q2265.61 32.4315 2262.12 37.1306 Q2258.64 41.7891 2258.64 49.9314 Q2258.64 58.0738 2262.08 62.7728 Q2265.56 67.4314 2271.6 67.4314 Q2277.56 67.4314 2281.04 62.7323 Q2284.52 58.0333 2284.52 49.9314 Q2284.52 41.8701 2281.04 37.1711 Q2277.56 32.4315 2271.6 32.4315 M2271.6 26.1121 Q2281.32 26.1121 2286.87 32.4315 Q2292.42 38.7509 2292.42 49.9314 Q2292.42 61.0714 2286.87 67.4314 Q2281.32 73.7508 2271.6 73.7508 Q2261.84 73.7508 2256.29 67.4314 Q2250.78 61.0714 2250.78 49.9314 Q2250.78 38.7509 2256.29 32.4315 Q2261.84 26.1121 2271.6 26.1121 Z" fill="#000000" fill-rule="nonzero" fill-opacity="1" /><path clip-path="url(#clip340)" d="M2342.49 45.1919 L2342.49 72.576 L2335.04 72.576 L2335.04 45.4349 Q2335.04 38.994 2332.53 35.7938 Q2330.01 32.5936 2324.99 32.5936 Q2318.96 32.5936 2315.47 36.4419 Q2311.99 40.2903 2311.99 46.9338 L2311.99 72.576 L2304.49 72.576 L2304.49 27.2059 L2311.99 27.2059 L2311.99 34.2544 Q2314.66 30.163 2318.27 28.1376 Q2321.91 26.1121 2326.65 26.1121 Q2334.47 26.1121 2338.48 30.9732 Q2342.49 35.7938 2342.49 45.1919 Z" fill="#000000" fill-rule="nonzero" fill-opacity="1" /><polyline clip-path="url(#clip341)" style="stroke:#000000; stroke-linecap:round; stroke-linejoin:round; stroke-width:8; stroke-opacity:1; fill:none" points="294.479,1688.56 305.926,1688.54 317.373,1688.51 328.82,1688.47 340.266,1688.43 351.713,1688.38 363.16,1688.31 374.607,1688.24 386.054,1688.14 397.501,1688.03 408.948,1687.89 420.395,1687.73 431.842,1687.53 443.289,1687.3 454.736,1687.02 466.183,1686.69 477.63,1686.3 489.077,1685.83 500.523,1685.29 511.97,1684.64 523.417,1683.89 534.864,1683.01 546.311,1681.99 557.758,1680.8 569.205,1679.42 580.652,1677.83 592.099,1675.99 603.546,1673.88 614.993,1671.46 626.44,1668.69 637.887,1665.54 649.334,1661.96 660.78,1657.9 672.227,1653.31 683.674,1648.14 695.121,1642.33 706.568,1635.82 718.015,1628.55 729.462,1620.45 740.909,1611.46 752.356,1601.49 763.803,1590.5 775.25,1578.39 786.697,1565.1 798.144,1550.56 809.591,1534.7 821.037,1517.45 832.484,1498.74 843.931,1478.52 855.378,1456.74 866.825,1433.35 878.272,1408.3 889.719,1381.57 901.166,1353.15 912.613,1323.01 924.06,1291.18 935.507,1257.66 946.954,1222.5 958.401,1185.73 969.848,1147.44 981.295,1107.7 992.741,1066.62 1004.19,1024.3 1015.64,980.905 1027.08,936.572 1038.53,891.477 1049.98,845.81 1061.42,799.774 1072.87,753.587 1084.32,707.482 1095.76,661.699 1107.21,616.491 1118.66,572.117 1130.1,528.838 1141.55,486.92 1153,446.627 1164.45,408.221 1175.89,371.956 1187.34,338.079 1198.79,306.824 1210.23,278.411 1221.68,253.044 1233.13,230.907 1244.57,212.161 1256.02,196.945 1267.47,185.374 1278.91,177.534 1290.36,173.484 1301.81,173.254 1313.26,176.847 1324.7,184.235 1336.15,195.363 1347.6,210.146 1359.04,228.475 1370.49,250.214 1381.94,275.203 1393.38,303.26 1404.83,334.185 1416.28,367.76 1427.72,403.751 1439.17,441.913 1450.62,481.994 1462.07,523.73 1473.51,566.86 1484.96,611.117 1496.41,656.239 1507.85,701.966 1519.3,748.046 1530.75,794.235 1542.19,840.301 1553.64,886.024 1565.09,931.197 1576.53,975.631 1587.98,1019.15 1599.43,1061.6 1610.88,1102.84 1622.32,1142.75 1633.77,1181.22 1645.22,1218.17 1656.66,1253.53 1668.11,1287.24 1679.56,1319.28 1691,1349.62 1702.45,1378.25 1713.9,1405.18 1725.34,1430.43 1736.79,1454.02 1748.24,1475.99 1759.69,1496.4 1771.13,1515.28 1782.58,1532.7 1794.03,1548.73 1805.47,1563.42 1816.92,1576.86 1828.37,1589.1 1839.81,1600.23 1851.26,1610.31 1862.71,1619.42 1874.16,1627.62 1885.6,1634.99 1897.05,1641.59 1908.5,1647.48 1919.94,1652.72 1931.39,1657.38 1942.84,1661.5 1954.28,1665.13 1965.73,1668.33 1977.18,1671.14 1988.62,1673.6 2000.07,1675.75 2011.52,1677.62 2022.97,1679.24 2034.41,1680.64 2045.86,1681.86 2057.31,1682.9 2068.75,1683.79 2080.2,1684.56 2091.65,1685.21 2103.09,1685.77 2114.54,1686.24 2125.99,1686.65 2137.43,1686.98 2148.88,1687.27 2160.33,1687.51 2171.78,1687.71 2183.22,1687.87 2194.67,1688.01 2206.12,1688.13 2217.56,1688.23 2229.01,1688.31 2240.46,1688.37 2251.9,1688.42 2263.35,1688.47 2274.8,1688.5 2286.24,1688.53 2297.69,1688.56 2309.14,1688.58 2320.59,1688.59 2332.03,1688.61 2343.48,1688.62 2354.93,1688.62 2366.37,1688.63 2377.82,1688.64 2389.27,1688.64 2400.71,1688.64 2412.16,1688.65 2423.61,1688.65 2435.05,1688.65 2446.5,1688.65 2457.95,1688.65 2469.4,1688.65 2480.84,1688.65 2492.29,1688.65 2503.74,1688.65 2515.18,1688.65 2526.63,1688.65 2538.08,1688.65 2549.52,1688.65 2560.97,1688.65 2572.42,1688.65 "/>
<polyline clip-path="url(#clip341)" style="stroke:#ff0000; stroke-linecap:round; stroke-linejoin:round; stroke-width:4; stroke-opacity:0.7; fill:none" points="294.479,1685.4 305.926,1685.4 317.373,1685.4 328.82,1685.4 340.266,1685.4 351.713,1685.4 363.16,1685.4 374.607,1685.4 386.054,1685.4 397.501,1685.4 408.948,1685.4 420.395,1685.4 431.842,1685.4 443.289,1685.4 454.736,1685.4 466.183,1685.4 477.63,1685.4 489.077,1685.4 500.523,1685.4 511.97,1685.4 523.417,1623.19 534.864,1623.19 546.311,1623.19 557.758,1623.19 569.205,1623.19 580.652,1623.19 592.099,1623.19 603.546,1623.19 614.993,1623.19 626.44,1623.19 637.887,1623.19 649.334,1623.19 660.78,1623.19 672.227,1623.19 683.674,1623.19 695.121,1623.19 706.568,1623.19 718.015,1623.19 729.462,1623.19 740.909,1623.19 752.356,1204.95 763.803,1204.95 775.25,1204.95 786.697,1204.95 798.144,1204.95 809.591,1204.95 821.037,1204.95 832.484,1204.95 843.931,1204.95 855.378,1204.95 866.825,1204.95 878.272,1204.95 889.719,1204.95 901.166,1204.95 912.613,1204.95 924.06,1204.95 935.507,1204.95 946.954,1204.95 958.401,1204.95 969.848,1204.95 981.295,373.797 992.741,373.797 1004.19,373.797 1015.64,373.797 1027.08,373.797 1038.53,373.797 1049.98,373.797 1061.42,373.797 1072.87,373.797 1084.32,373.797 1095.76,373.797 1107.21,373.797 1118.66,373.797 1130.1,373.797 1141.55,373.797 1153,373.797 1164.45,373.797 1175.89,373.797 1187.34,373.797 1198.79,373.797 1210.23,373.797 1221.68,373.797 1233.13,373.797 1244.57,373.797 1256.02,373.797 1267.47,373.797 1278.91,373.797 1290.36,373.797 1301.81,373.797 1313.26,373.797 1324.7,373.797 1336.15,373.797 1347.6,373.797 1359.04,373.797 1370.49,373.797 1381.94,373.797 1393.38,373.797 1404.83,373.797 1416.28,373.797 1427.72,373.797 1439.17,1204.95 1450.62,1204.95 1462.07,1204.95 1473.51,1204.95 1484.96,1204.95 1496.41,1204.95 1507.85,1204.95 1519.3,1204.95 1530.75,1204.95 1542.19,1204.95 1553.64,1204.95 1565.09,1204.95 1576.53,1204.95 1587.98,1204.95 1599.43,1204.95 1610.88,1204.95 1622.32,1204.95 1633.77,1204.95 1645.22,1204.95 1656.66,1204.95 1668.11,1623.19 1679.56,1623.19 1691,1623.19 1702.45,1623.19 1713.9,1623.19 1725.34,1623.19 1736.79,1623.19 1748.24,1623.19 1759.69,1623.19 1771.13,1623.19 1782.58,1623.19 1794.03,1623.19 1805.47,1623.19 1816.92,1623.19 1828.37,1623.19 1839.81,1623.19 1851.26,1623.19 1862.71,1623.19 1874.16,1623.19 1885.6,1623.19 1897.05,1685.4 1908.5,1685.4 1919.94,1685.4 1931.39,1685.4 1942.84,1685.4 1954.28,1685.4 1965.73,1685.4 1977.18,1685.4 1988.62,1685.4 2000.07,1685.4 2011.52,1685.4 2022.97,1685.4 2034.41,1685.4 2045.86,1685.4 2057.31,1685.4 2068.75,1685.4 2080.2,1685.4 2091.65,1685.4 2103.09,1685.4 2114.54,1685.4 2125.99,1688.6 2137.43,1688.6 2148.88,1688.6 2160.33,1688.6 2171.78,1688.6 2183.22,1688.6 2194.67,1688.6 2206.12,1688.6 2217.56,1688.6 2229.01,1688.6 2240.46,1688.6 2251.9,1688.6 2263.35,1688.6 2274.8,1688.6 2286.24,1688.6 2297.69,1688.6 2309.14,1688.6 2320.59,1688.6 2332.03,1688.6 2343.48,1688.6 2354.93,1688.65 2366.37,1688.65 2377.82,1688.65 2389.27,1688.65 2400.71,1688.65 2412.16,1688.65 2423.61,1688.65 2435.05,1688.65 2446.5,1688.65 2457.95,1688.65 2469.4,1688.65 2480.84,1688.65 2492.29,1688.65 2503.74,1688.65 2515.18,1688.65 2526.63,1688.65 2538.08,1688.65 2549.52,1688.65 2560.97,1688.65 2572.42,1688.65 "/>
<polyline clip-path="url(#clip341)" style="stroke:#ffa500; stroke-linecap:round; stroke-linejoin:round; stroke-width:4; stroke-opacity:0.7; fill:none" points="294.479,1688.04 305.926,1688.04 317.373,1688.04 328.82,1688.04 340.266,1688.04 351.713,1688.04 363.16,1688.04 374.607,1688.04 386.054,1688.04 397.501,1688.04 408.948,1684.74 420.395,1684.74 431.842,1684.74 443.289,1684.74 454.736,1684.74 466.183,1684.74 477.63,1684.74 489.077,1684.74 500.523,1684.74 511.97,1684.74 523.417,1669.28 534.864,1669.28 546.311,1669.28 557.758,1669.28 569.205,1669.28 580.652,1669.28 592.099,1669.28 603.546,1669.28 614.993,1669.28 626.44,1669.28 637.887,1613.92 649.334,1613.92 660.78,1613.92 672.227,1613.92 683.674,1613.92 695.121,1613.92 706.568,1613.92 718.015,1613.92 729.462,1613.92 740.909,1613.92 752.356,1464.14 763.803,1464.14 775.25,1464.14 786.697,1464.14 798.144,1464.14 809.591,1464.14 821.037,1464.14 832.484,1464.14 843.931,1464.14 855.378,1464.14 866.825,1163.36 878.272,1163.36 889.719,1163.36 901.166,1163.36 912.613,1163.36 924.06,1163.36 935.507,1163.36 946.954,1163.36 958.401,1163.36 969.848,1163.36 981.295,731.509 992.741,731.509 1004.19,731.509 1015.64,731.509 1027.08,731.509 1038.53,731.509 1049.98,731.509 1061.42,731.509 1072.87,731.509 1084.32,731.509 1095.76,330.4 1107.21,330.4 1118.66,330.4 1130.1,330.4 1141.55,330.4 1153,330.4 1164.45,330.4 1175.89,330.4 1187.34,330.4 1198.79,330.4 1210.23,187.551 1221.68,187.551 1233.13,187.551 1244.57,187.551 1256.02,187.551 1267.47,187.551 1278.91,187.551 1290.36,187.551 1301.81,187.551 1313.26,187.551 1324.7,396.643 1336.15,396.643 1347.6,396.643 1359.04,396.643 1370.49,396.643 1381.94,396.643 1393.38,396.643 1404.83,396.643 1416.28,396.643 1427.72,396.643 1439.17,822.594 1450.62,822.594 1462.07,822.594 1473.51,822.594 1484.96,822.594 1496.41,822.594 1507.85,822.594 1519.3,822.594 1530.75,822.594 1542.19,822.594 1553.64,1236.53 1565.09,1236.53 1576.53,1236.53 1587.98,1236.53 1599.43,1236.53 1610.88,1236.53 1622.32,1236.53 1633.77,1236.53 1645.22,1236.53 1656.66,1236.53 1668.11,1504.84 1679.56,1504.84 1691,1504.84 1702.45,1504.84 1713.9,1504.84 1725.34,1504.84 1736.79,1504.84 1748.24,1504.84 1759.69,1504.84 1771.13,1504.84 1782.58,1630.45 1794.03,1630.45 1805.47,1630.45 1816.92,1630.45 1828.37,1630.45 1839.81,1630.45 1851.26,1630.45 1862.71,1630.45 1874.16,1630.45 1885.6,1630.45 1897.05,1674.3 1908.5,1674.3 1919.94,1674.3 1931.39,1674.3 1942.84,1674.3 1954.28,1674.3 1965.73,1674.3 1977.18,1674.3 1988.62,1674.3 2000.07,1674.3 2011.52,1685.9 2022.97,1685.9 2034.41,1685.9 2045.86,1685.9 2057.31,1685.9 2068.75,1685.9 2080.2,1685.9 2091.65,1685.9 2103.09,1685.9 2114.54,1685.9 2125.99,1688.24 2137.43,1688.24 2148.88,1688.24 2160.33,1688.24 2171.78,1688.24 2183.22,1688.24 2194.67,1688.24 2206.12,1688.24 2217.56,1688.24 2229.01,1688.24 2240.46,1688.61 2251.9,1688.61 2263.35,1688.61 2274.8,1688.61 2286.24,1688.61 2297.69,1688.61 2309.14,1688.61 2320.59,1688.61 2332.03,1688.61 2343.48,1688.61 2354.93,1688.65 2366.37,1688.65 2377.82,1688.65 2389.27,1688.65 2400.71,1688.65 2412.16,1688.65 2423.61,1688.65 2435.05,1688.65 2446.5,1688.65 2457.95,1688.65 2469.4,1688.65 2480.84,1688.65 2492.29,1688.65 2503.74,1688.65 2515.18,1688.65 2526.63,1688.65 2538.08,1688.65 2549.52,1688.65 2560.97,1688.65 2572.42,1688.65 "/>
<polyline clip-path="url(#clip341)" style="stroke:#0000ff; stroke-linecap:round; stroke-linejoin:round; stroke-width:4; stroke-opacity:0.7; fill:none" points="294.479,1688.45 305.926,1688.45 317.373,1688.45 328.82,1688.45 340.266,1688.19 351.713,1688.19 363.16,1688.19 374.607,1688.19 386.054,1687.63 397.501,1687.63 408.948,1687.63 420.395,1687.63 431.842,1686.5 443.289,1686.5 454.736,1686.5 466.183,1686.5 477.63,1684.3 489.077,1684.3 500.523,1684.3 511.97,1684.3 523.417,1680.19 534.864,1680.19 546.311,1680.19 557.758,1680.19 569.205,1672.85 580.652,1672.85 592.099,1672.85 603.546,1672.85 614.993,1660.32 626.44,1660.32 637.887,1660.32 649.334,1660.32 660.78,1639.84 672.227,1639.84 683.674,1639.84 695.121,1639.84 706.568,1607.84 718.015,1607.84 729.462,1607.84 740.909,1607.84 752.356,1560.13 763.803,1560.13 775.25,1560.13 786.697,1560.13 798.144,1492.26 809.591,1492.26 821.037,1492.26 832.484,1492.26 843.931,1400.32 855.378,1400.32 866.825,1400.32 878.272,1400.32 889.719,1281.94 901.166,1281.94 912.613,1281.94 924.06,1281.94 935.507,1137.44 946.954,1137.44 958.401,1137.44 969.848,1137.44 981.295,970.906 992.741,970.906 1004.19,970.906 1015.64,970.906 1027.08,790.7 1038.53,790.7 1049.98,790.7 1061.42,790.7 1072.87,609.299 1084.32,609.299 1095.76,609.299 1107.21,609.299 1118.66,442.124 1130.1,442.124 1141.55,442.124 1153,442.124 1164.45,305.504 1175.89,305.504 1187.34,305.504 1198.79,305.504 1210.23,214.088 1221.68,214.088 1233.13,214.088 1244.57,214.088 1256.02,178.27 1267.47,178.27 1278.91,178.27 1290.36,178.27 1301.81,202.244 1313.26,202.244 1324.7,202.244 1336.15,202.244 1347.6,283.195 1359.04,283.195 1370.49,283.195 1381.94,283.195 1393.38,411.846 1404.83,411.846 1416.28,411.846 1427.72,411.846 1439.17,574.201 1450.62,574.201 1462.07,574.201 1473.51,574.201 1484.96,754.054 1496.41,754.054 1507.85,754.054 1519.3,754.054 1530.75,935.614 1542.19,935.614 1553.64,935.614 1565.09,935.614 1576.53,1105.69 1587.98,1105.69 1599.43,1105.69 1610.88,1105.69 1622.32,1255.06 1633.77,1255.06 1645.22,1255.06 1656.66,1255.06 1668.11,1378.8 1679.56,1378.8 1691,1378.8 1702.45,1378.8 1713.9,1475.9 1725.34,1475.9 1736.79,1475.9 1748.24,1475.9 1759.69,1548.31 1771.13,1548.31 1782.58,1548.31 1794.03,1548.31 1805.47,1599.7 1816.92,1599.7 1828.37,1599.7 1839.81,1599.7 1851.26,1634.49 1862.71,1634.49 1874.16,1634.49 1885.6,1634.49 1897.05,1656.96 1908.5,1656.96 1919.94,1656.96 1931.39,1656.96 1942.84,1670.84 1954.28,1670.84 1965.73,1670.84 1977.18,1670.84 1988.62,1679.03 2000.07,1679.03 2011.52,1679.03 2022.97,1679.03 2034.41,1683.66 2045.86,1683.66 2057.31,1683.66 2068.75,1683.66 2080.2,1686.17 2091.65,1686.17 2103.09,1686.17 2114.54,1686.17 2125.99,1687.46 2137.43,1687.46 2148.88,1687.46 2160.33,1687.46 2171.78,1688.11 2183.22,1688.11 2194.67,1688.11 2206.12,1688.11 2217.56,1688.41 2229.01,1688.41 2240.46,1688.41 2251.9,1688.41 2263.35,1688.55 2274.8,1688.55 2286.24,1688.55 2297.69,1688.55 2309.14,1688.61 2320.59,1688.61 2332.03,1688.61 2343.48,1688.61 2354.93,1688.64 2366.37,1688.64 2377.82,1688.64 2389.27,1688.64 2400.71,1688.65 2412.16,1688.65 2423.61,1688.65 2435.05,1688.65 2446.5,1688.65 2457.95,1688.65 2469.4,1688.65 2480.84,1688.65 2492.29,1688.65 2503.74,1688.65 2515.18,1688.65 2526.63,1688.65 2538.08,1688.65 2549.52,1688.65 2560.97,1688.65 2572.42,1688.65 "/>
<path clip-path="url(#clip340)" d="M1979.36 440.536 L2560.27 440.536 L2560.27 181.336 L1979.36 181.336  Z" fill="#ffffff" fill-rule="evenodd" fill-opacity="1"/>
<polyline clip-path="url(#clip340)" style="stroke:#000000; stroke-linecap:round; stroke-linejoin:round; stroke-width:4; stroke-opacity:1; fill:none" points="1979.36,440.536 2560.27,440.536 2560.27,181.336 1979.36,181.336 1979.36,440.536 "/>
<polyline clip-path="url(#clip340)" style="stroke:#000000; stroke-linecap:round; stroke-linejoin:round; stroke-width:8; stroke-opacity:1; fill:none" points="2006.19,233.176 2167.17,233.176 "/>
<path clip-path="url(#clip340)" d="M2210.02 219.068 Q2204.92 219.068 2201.91 222.864 Q2198.93 226.66 2198.93 233.211 Q2198.93 239.739 2201.91 243.535 Q2204.92 247.331 2210.02 247.331 Q2215.11 247.331 2218.07 243.535 Q2221.06 239.739 2221.06 233.211 Q2221.06 226.66 2218.07 222.864 Q2215.11 219.068 2210.02 219.068 M2210.02 215.271 Q2217.28 215.271 2221.64 220.156 Q2225.99 225.017 2225.99 233.211 Q2225.99 241.382 2221.64 246.266 Q2217.28 251.128 2210.02 251.128 Q2202.72 251.128 2198.35 246.266 Q2194 241.405 2194 233.211 Q2194 225.017 2198.35 220.156 Q2202.72 215.271 2210.02 215.271 Z" fill="#000000" fill-rule="nonzero" fill-opacity="1" /><path clip-path="url(#clip340)" d="M2248.14 228.512 Q2247.42 228.095 2246.57 227.91 Q2245.73 227.702 2244.71 227.702 Q2241.1 227.702 2239.16 230.063 Q2237.24 232.401 2237.24 236.799 L2237.24 250.456 L2232.96 250.456 L2232.96 224.531 L2237.24 224.531 L2237.24 228.558 Q2238.58 226.197 2240.73 225.063 Q2242.89 223.906 2245.96 223.906 Q2246.4 223.906 2246.94 223.975 Q2247.47 224.021 2248.12 224.137 L2248.14 228.512 Z" fill="#000000" fill-rule="nonzero" fill-opacity="1" /><path clip-path="url(#clip340)" d="M2252.61 224.531 L2256.87 224.531 L2256.87 250.456 L2252.61 250.456 L2252.61 224.531 M2252.61 214.438 L2256.87 214.438 L2256.87 219.831 L2252.61 219.831 L2252.61 214.438 Z" fill="#000000" fill-rule="nonzero" fill-opacity="1" /><path clip-path="url(#clip340)" d="M2282.84 237.192 Q2282.84 232.563 2280.92 230.017 Q2279.02 227.47 2275.57 227.47 Q2272.14 227.47 2270.22 230.017 Q2268.33 232.563 2268.33 237.192 Q2268.33 241.799 2270.22 244.345 Q2272.14 246.891 2275.57 246.891 Q2279.02 246.891 2280.92 244.345 Q2282.84 241.799 2282.84 237.192 M2287.1 247.239 Q2287.1 253.859 2284.16 257.077 Q2281.22 260.317 2275.15 260.317 Q2272.91 260.317 2270.92 259.97 Q2268.93 259.646 2267.05 258.952 L2267.05 254.808 Q2268.93 255.827 2270.76 256.313 Q2272.58 256.799 2274.48 256.799 Q2278.67 256.799 2280.76 254.6 Q2282.84 252.424 2282.84 248.003 L2282.84 245.896 Q2281.52 248.188 2279.46 249.322 Q2277.4 250.456 2274.53 250.456 Q2269.76 250.456 2266.84 246.822 Q2263.93 243.188 2263.93 237.192 Q2263.93 231.174 2266.84 227.54 Q2269.76 223.906 2274.53 223.906 Q2277.4 223.906 2279.46 225.04 Q2281.52 226.174 2282.84 228.466 L2282.84 224.531 L2287.1 224.531 L2287.1 247.239 Z" fill="#000000" fill-rule="nonzero" fill-opacity="1" /><path clip-path="url(#clip340)" d="M2295.87 224.531 L2300.13 224.531 L2300.13 250.456 L2295.87 250.456 L2295.87 224.531 M2295.87 214.438 L2300.13 214.438 L2300.13 219.831 L2295.87 219.831 L2295.87 214.438 Z" fill="#000000" fill-rule="nonzero" fill-opacity="1" /><path clip-path="url(#clip340)" d="M2330.59 234.808 L2330.59 250.456 L2326.33 250.456 L2326.33 234.947 Q2326.33 231.267 2324.9 229.438 Q2323.46 227.609 2320.59 227.609 Q2317.14 227.609 2315.15 229.808 Q2313.16 232.007 2313.16 235.804 L2313.16 250.456 L2308.88 250.456 L2308.88 224.531 L2313.16 224.531 L2313.16 228.558 Q2314.69 226.22 2316.75 225.063 Q2318.83 223.906 2321.54 223.906 Q2326.01 223.906 2328.3 226.683 Q2330.59 229.438 2330.59 234.808 Z" fill="#000000" fill-rule="nonzero" fill-opacity="1" /><path clip-path="url(#clip340)" d="M2350.87 237.424 Q2345.71 237.424 2343.72 238.604 Q2341.73 239.785 2341.73 242.632 Q2341.73 244.901 2343.21 246.243 Q2344.71 247.563 2347.28 247.563 Q2350.82 247.563 2352.95 245.063 Q2355.11 242.54 2355.11 238.373 L2355.11 237.424 L2350.87 237.424 M2359.37 235.665 L2359.37 250.456 L2355.11 250.456 L2355.11 246.521 Q2353.65 248.882 2351.47 250.016 Q2349.3 251.128 2346.15 251.128 Q2342.17 251.128 2339.81 248.905 Q2337.47 246.66 2337.47 242.91 Q2337.47 238.535 2340.39 236.313 Q2343.32 234.091 2349.14 234.091 L2355.11 234.091 L2355.11 233.674 Q2355.11 230.734 2353.16 229.137 Q2351.24 227.517 2347.75 227.517 Q2345.52 227.517 2343.42 228.049 Q2341.31 228.581 2339.37 229.646 L2339.37 225.711 Q2341.7 224.808 2343.9 224.368 Q2346.1 223.906 2348.19 223.906 Q2353.81 223.906 2356.59 226.822 Q2359.37 229.739 2359.37 235.665 Z" fill="#000000" fill-rule="nonzero" fill-opacity="1" /><path clip-path="url(#clip340)" d="M2368.14 214.438 L2372.4 214.438 L2372.4 250.456 L2368.14 250.456 L2368.14 214.438 Z" fill="#000000" fill-rule="nonzero" fill-opacity="1" /><path clip-path="url(#clip340)" d="M2396.22 214.438 L2400.5 214.438 L2400.5 235.711 L2413.21 224.531 L2418.65 224.531 L2404.9 236.66 L2419.23 250.456 L2413.67 250.456 L2400.5 237.794 L2400.5 250.456 L2396.22 250.456 L2396.22 214.438 Z" fill="#000000" fill-rule="nonzero" fill-opacity="1" /><path clip-path="url(#clip340)" d="M2444.32 236.429 L2444.32 238.512 L2424.74 238.512 Q2425.01 242.91 2427.38 245.225 Q2429.76 247.516 2434 247.516 Q2436.45 247.516 2438.74 246.915 Q2441.06 246.313 2443.32 245.109 L2443.32 249.137 Q2441.03 250.109 2438.63 250.618 Q2436.22 251.128 2433.74 251.128 Q2427.54 251.128 2423.9 247.516 Q2420.29 243.905 2420.29 237.748 Q2420.29 231.382 2423.72 227.655 Q2427.17 223.906 2433 223.906 Q2438.23 223.906 2441.26 227.285 Q2444.32 230.642 2444.32 236.429 M2440.06 235.179 Q2440.01 231.683 2438.09 229.6 Q2436.19 227.517 2433.05 227.517 Q2429.48 227.517 2427.33 229.53 Q2425.2 231.544 2424.88 235.202 L2440.06 235.179 Z" fill="#000000" fill-rule="nonzero" fill-opacity="1" /><path clip-path="url(#clip340)" d="M2466.33 228.512 Q2465.62 228.095 2464.76 227.91 Q2463.93 227.702 2462.91 227.702 Q2459.3 227.702 2457.35 230.063 Q2455.43 232.401 2455.43 236.799 L2455.43 250.456 L2451.15 250.456 L2451.15 224.531 L2455.43 224.531 L2455.43 228.558 Q2456.77 226.197 2458.93 225.063 Q2461.08 223.906 2464.16 223.906 Q2464.6 223.906 2465.13 223.975 Q2465.66 224.021 2466.31 224.137 L2466.33 228.512 Z" fill="#000000" fill-rule="nonzero" fill-opacity="1" /><path clip-path="url(#clip340)" d="M2491.52 234.808 L2491.52 250.456 L2487.26 250.456 L2487.26 234.947 Q2487.26 231.267 2485.82 229.438 Q2484.39 227.609 2481.52 227.609 Q2478.07 227.609 2476.08 229.808 Q2474.09 232.007 2474.09 235.804 L2474.09 250.456 L2469.81 250.456 L2469.81 224.531 L2474.09 224.531 L2474.09 228.558 Q2475.62 226.22 2477.68 225.063 Q2479.76 223.906 2482.47 223.906 Q2486.94 223.906 2489.23 226.683 Q2491.52 229.438 2491.52 234.808 Z" fill="#000000" fill-rule="nonzero" fill-opacity="1" /><path clip-path="url(#clip340)" d="M2522.19 236.429 L2522.19 238.512 L2502.61 238.512 Q2502.88 242.91 2505.25 245.225 Q2507.63 247.516 2511.87 247.516 Q2514.32 247.516 2516.61 246.915 Q2518.93 246.313 2521.19 245.109 L2521.19 249.137 Q2518.9 250.109 2516.5 250.618 Q2514.09 251.128 2511.61 251.128 Q2505.41 251.128 2501.77 247.516 Q2498.16 243.905 2498.16 237.748 Q2498.16 231.382 2501.59 227.655 Q2505.04 223.906 2510.87 223.906 Q2516.1 223.906 2519.13 227.285 Q2522.19 230.642 2522.19 236.429 M2517.93 235.179 Q2517.88 231.683 2515.96 229.6 Q2514.06 227.517 2510.92 227.517 Q2507.35 227.517 2505.2 229.53 Q2503.07 231.544 2502.75 235.202 L2517.93 235.179 Z" fill="#000000" fill-rule="nonzero" fill-opacity="1" /><path clip-path="url(#clip340)" d="M2529.18 214.438 L2533.44 214.438 L2533.44 250.456 L2529.18 250.456 L2529.18 214.438 Z" fill="#000000" fill-rule="nonzero" fill-opacity="1" /><polyline clip-path="url(#clip340)" style="stroke:#ff0000; stroke-linecap:round; stroke-linejoin:round; stroke-width:4; stroke-opacity:0.7; fill:none" points="2006.19,285.016 2167.17,285.016 "/>
<path clip-path="url(#clip340)" d="M2215.71 286.648 L2215.71 302.296 L2211.45 302.296 L2211.45 286.787 Q2211.45 283.107 2210.02 281.278 Q2208.58 279.449 2205.71 279.449 Q2202.26 279.449 2200.27 281.648 Q2198.28 283.847 2198.28 287.644 L2198.28 302.296 L2194 302.296 L2194 276.371 L2198.28 276.371 L2198.28 280.398 Q2199.81 278.06 2201.87 276.903 Q2203.95 275.746 2206.66 275.746 Q2211.13 275.746 2213.42 278.523 Q2215.71 281.278 2215.71 286.648 Z" fill="#000000" fill-rule="nonzero" fill-opacity="1" /><path clip-path="url(#clip340)" d="M2224.76 280.769 L2254.44 280.769 L2254.44 284.657 L2224.76 284.657 L2224.76 280.769 M2224.76 290.213 L2254.44 290.213 L2254.44 294.148 L2224.76 294.148 L2224.76 290.213 Z" fill="#000000" fill-rule="nonzero" fill-opacity="1" /><path clip-path="url(#clip340)" d="M2265.34 298.361 L2272.98 298.361 L2272.98 271.996 L2264.67 273.662 L2264.67 269.403 L2272.93 267.736 L2277.61 267.736 L2277.61 298.361 L2285.25 298.361 L2285.25 302.296 L2265.34 302.296 L2265.34 298.361 Z" fill="#000000" fill-rule="nonzero" fill-opacity="1" /><path clip-path="url(#clip340)" d="M2304.69 270.815 Q2301.08 270.815 2299.25 274.38 Q2297.45 277.921 2297.45 285.051 Q2297.45 292.157 2299.25 295.722 Q2301.08 299.264 2304.69 299.264 Q2308.33 299.264 2310.13 295.722 Q2311.96 292.157 2311.96 285.051 Q2311.96 277.921 2310.13 274.38 Q2308.33 270.815 2304.69 270.815 M2304.69 267.111 Q2310.5 267.111 2313.56 271.718 Q2316.64 276.301 2316.64 285.051 Q2316.64 293.778 2313.56 298.384 Q2310.5 302.968 2304.69 302.968 Q2298.88 302.968 2295.8 298.384 Q2292.75 293.778 2292.75 285.051 Q2292.75 276.301 2295.8 271.718 Q2298.88 267.111 2304.69 267.111 Z" fill="#000000" fill-rule="nonzero" fill-opacity="1" /><polyline clip-path="url(#clip340)" style="stroke:#ffa500; stroke-linecap:round; stroke-linejoin:round; stroke-width:4; stroke-opacity:0.7; fill:none" points="2006.19,336.856 2167.17,336.856 "/>
<path clip-path="url(#clip340)" d="M2215.71 338.488 L2215.71 354.136 L2211.45 354.136 L2211.45 338.627 Q2211.45 334.947 2210.02 333.118 Q2208.58 331.289 2205.71 331.289 Q2202.26 331.289 2200.27 333.488 Q2198.28 335.687 2198.28 339.484 L2198.28 354.136 L2194 354.136 L2194 328.211 L2198.28 328.211 L2198.28 332.238 Q2199.81 329.9 2201.87 328.743 Q2203.95 327.586 2206.66 327.586 Q2211.13 327.586 2213.42 330.363 Q2215.71 333.118 2215.71 338.488 Z" fill="#000000" fill-rule="nonzero" fill-opacity="1" /><path clip-path="url(#clip340)" d="M2224.76 332.609 L2254.44 332.609 L2254.44 336.497 L2224.76 336.497 L2224.76 332.609 M2224.76 342.053 L2254.44 342.053 L2254.44 345.988 L2224.76 345.988 L2224.76 342.053 Z" fill="#000000" fill-rule="nonzero" fill-opacity="1" /><path clip-path="url(#clip340)" d="M2268.56 350.201 L2284.88 350.201 L2284.88 354.136 L2262.93 354.136 L2262.93 350.201 Q2265.59 347.447 2270.18 342.817 Q2274.78 338.164 2275.96 336.822 Q2278.21 334.298 2279.09 332.562 Q2279.99 330.803 2279.99 329.113 Q2279.99 326.359 2278.05 324.623 Q2276.13 322.886 2273.02 322.886 Q2270.83 322.886 2268.37 323.65 Q2265.94 324.414 2263.16 325.965 L2263.16 321.243 Q2265.99 320.109 2268.44 319.53 Q2270.89 318.951 2272.93 318.951 Q2278.3 318.951 2281.5 321.636 Q2284.69 324.322 2284.69 328.812 Q2284.69 330.942 2283.88 332.863 Q2283.09 334.761 2280.99 337.354 Q2280.41 338.025 2277.31 341.243 Q2274.2 344.437 2268.56 350.201 Z" fill="#000000" fill-rule="nonzero" fill-opacity="1" /><path clip-path="url(#clip340)" d="M2304.69 322.655 Q2301.08 322.655 2299.25 326.22 Q2297.45 329.761 2297.45 336.891 Q2297.45 343.997 2299.25 347.562 Q2301.08 351.104 2304.69 351.104 Q2308.33 351.104 2310.13 347.562 Q2311.96 343.997 2311.96 336.891 Q2311.96 329.761 2310.13 326.22 Q2308.33 322.655 2304.69 322.655 M2304.69 318.951 Q2310.5 318.951 2313.56 323.558 Q2316.64 328.141 2316.64 336.891 Q2316.64 345.618 2313.56 350.224 Q2310.5 354.808 2304.69 354.808 Q2298.88 354.808 2295.8 350.224 Q2292.75 345.618 2292.75 336.891 Q2292.75 328.141 2295.8 323.558 Q2298.88 318.951 2304.69 318.951 Z" fill="#000000" fill-rule="nonzero" fill-opacity="1" /><polyline clip-path="url(#clip340)" style="stroke:#0000ff; stroke-linecap:round; stroke-linejoin:round; stroke-width:4; stroke-opacity:0.7; fill:none" points="2006.19,388.696 2167.17,388.696 "/>
<path clip-path="url(#clip340)" d="M2215.71 390.328 L2215.71 405.976 L2211.45 405.976 L2211.45 390.467 Q2211.45 386.787 2210.02 384.958 Q2208.58 383.129 2205.71 383.129 Q2202.26 383.129 2200.27 385.328 Q2198.28 387.527 2198.28 391.324 L2198.28 405.976 L2194 405.976 L2194 380.051 L2198.28 380.051 L2198.28 384.078 Q2199.81 381.74 2201.87 380.583 Q2203.95 379.426 2206.66 379.426 Q2211.13 379.426 2213.42 382.203 Q2215.71 384.958 2215.71 390.328 Z" fill="#000000" fill-rule="nonzero" fill-opacity="1" /><path clip-path="url(#clip340)" d="M2224.76 384.449 L2254.44 384.449 L2254.44 388.337 L2224.76 388.337 L2224.76 384.449 M2224.76 393.893 L2254.44 393.893 L2254.44 397.828 L2224.76 397.828 L2224.76 393.893 Z" fill="#000000" fill-rule="nonzero" fill-opacity="1" /><path clip-path="url(#clip340)" d="M2264.58 371.416 L2282.93 371.416 L2282.93 375.351 L2268.86 375.351 L2268.86 383.824 Q2269.88 383.476 2270.89 383.314 Q2271.91 383.129 2272.93 383.129 Q2278.72 383.129 2282.1 386.3 Q2285.48 389.472 2285.48 394.888 Q2285.48 400.467 2282.01 403.569 Q2278.53 406.648 2272.21 406.648 Q2270.04 406.648 2267.77 406.277 Q2265.52 405.907 2263.12 405.166 L2263.12 400.467 Q2265.2 401.601 2267.42 402.157 Q2269.64 402.712 2272.12 402.712 Q2276.13 402.712 2278.46 400.606 Q2280.8 398.499 2280.8 394.888 Q2280.8 391.277 2278.46 389.171 Q2276.13 387.064 2272.12 387.064 Q2270.25 387.064 2268.37 387.481 Q2266.52 387.898 2264.58 388.777 L2264.58 371.416 Z" fill="#000000" fill-rule="nonzero" fill-opacity="1" /><path clip-path="url(#clip340)" d="M2304.69 374.495 Q2301.08 374.495 2299.25 378.06 Q2297.45 381.601 2297.45 388.731 Q2297.45 395.837 2299.25 399.402 Q2301.08 402.944 2304.69 402.944 Q2308.33 402.944 2310.13 399.402 Q2311.96 395.837 2311.96 388.731 Q2311.96 381.601 2310.13 378.06 Q2308.33 374.495 2304.69 374.495 M2304.69 370.791 Q2310.5 370.791 2313.56 375.398 Q2316.64 379.981 2316.64 388.731 Q2316.64 397.458 2313.56 402.064 Q2310.5 406.648 2304.69 406.648 Q2298.88 406.648 2295.8 402.064 Q2292.75 397.458 2292.75 388.731 Q2292.75 379.981 2295.8 375.398 Q2298.88 370.791 2304.69 370.791 Z" fill="#000000" fill-rule="nonzero" fill-opacity="1" /></svg>
