<?xml version="1.0" encoding="utf-8"?>
<svg xmlns="http://www.w3.org/2000/svg" xmlns:xlink="http://www.w3.org/1999/xlink" width="672" height="480" viewBox="0 0 2688 1920">
<defs>
  <clipPath id="clip830">
    <rect x="0" y="0" width="2688" height="1920"/>
  </clipPath>
</defs>
<path clip-path="url(#clip830)" d="M0 1920 L2688 1920 L2688 -4.26326e-14 L0 -4.26326e-14  Z" fill="#ffffff" fill-rule="evenodd" fill-opacity="1"/>
<defs>
  <clipPath id="clip831">
    <rect x="225" y="127" width="2416" height="1607"/>
  </clipPath>
</defs>
<path clip-path="url(#clip830)" d="M225.816 1734.12 L2640.76 1734.12 L2640.76 127.792 L225.816 127.792  Z" fill="#ffffff" fill-rule="evenodd" fill-opacity="1"/>
<polyline clip-path="url(#clip831)" style="stroke:#000000; stroke-linecap:round; stroke-linejoin:round; stroke-width:2; stroke-opacity:0.1; fill:none" points="521.988,1734.12 521.988,127.792 "/>
<polyline clip-path="url(#clip831)" style="stroke:#000000; stroke-linecap:round; stroke-linejoin:round; stroke-width:2; stroke-opacity:0.1; fill:none" points="977.637,1734.12 977.637,127.792 "/>
<polyline clip-path="url(#clip831)" style="stroke:#000000; stroke-linecap:round; stroke-linejoin:round; stroke-width:2; stroke-opacity:0.1; fill:none" points="1433.29,1734.12 1433.29,127.792 "/>
<polyline clip-path="url(#clip831)" style="stroke:#000000; stroke-linecap:round; stroke-linejoin:round; stroke-width:2; stroke-opacity:0.1; fill:none" points="1888.94,1734.12 1888.94,127.792 "/>
<polyline clip-path="url(#clip831)" style="stroke:#000000; stroke-linecap:round; stroke-linejoin:round; stroke-width:2; stroke-opacity:0.1; fill:none" points="2344.58,1734.12 2344.58,127.792 "/>
<polyline clip-path="url(#clip831)" style="stroke:#000000; stroke-linecap:round; stroke-linejoin:round; stroke-width:2; stroke-opacity:0.1; fill:none" points="225.816,1533.36 2640.76,1533.36 "/>
<polyline clip-path="url(#clip831)" style="stroke:#000000; stroke-linecap:round; stroke-linejoin:round; stroke-width:2; stroke-opacity:0.1; fill:none" points="225.816,1200.11 2640.76,1200.11 "/>
<polyline clip-path="url(#clip831)" style="stroke:#000000; stroke-linecap:round; stroke-linejoin:round; stroke-width:2; stroke-opacity:0.1; fill:none" points="225.816,866.864 2640.76,866.864 "/>
<polyline clip-path="url(#clip831)" style="stroke:#000000; stroke-linecap:round; stroke-linejoin:round; stroke-width:2; stroke-opacity:0.1; fill:none" points="225.816,533.614 2640.76,533.614 "/>
<polyline clip-path="url(#clip831)" style="stroke:#000000; stroke-linecap:round; stroke-linejoin:round; stroke-width:2; stroke-opacity:0.1; fill:none" points="225.816,200.364 2640.76,200.364 "/>
<polyline clip-path="url(#clip830)" style="stroke:#000000; stroke-linecap:round; stroke-linejoin:round; stroke-width:4; stroke-opacity:1; fill:none" points="225.816,1734.12 2640.76,1734.12 "/>
<polyline clip-path="url(#clip830)" style="stroke:#000000; stroke-linecap:round; stroke-linejoin:round; stroke-width:4; stroke-opacity:1; fill:none" points="521.988,1734.12 521.988,1715.22 "/>
<polyline clip-path="url(#clip830)" style="stroke:#000000; stroke-linecap:round; stroke-linejoin:round; stroke-width:4; stroke-opacity:1; fill:none" points="977.637,1734.12 977.637,1715.22 "/>
<polyline clip-path="url(#clip830)" style="stroke:#000000; stroke-linecap:round; stroke-linejoin:round; stroke-width:4; stroke-opacity:1; fill:none" points="1433.29,1734.12 1433.29,1715.22 "/>
<polyline clip-path="url(#clip830)" style="stroke:#000000; stroke-linecap:round; stroke-linejoin:round; stroke-width:4; stroke-opacity:1; fill:none" points="1888.94,1734.12 1888.94,1715.22 "/>
<polyline clip-path="url(#clip830)" style="stroke:#000000; stroke-linecap:round; stroke-linejoin:round; stroke-width:4; stroke-opacity:1; fill:none" points="2344.58,1734.12 2344.58,1715.22 "/>
<path clip-path="url(#clip830)" d="M499.292 1767.34 Q495.681 1767.34 493.852 1770.9 Q492.046 1774.45 492.046 1781.58 Q492.046 1788.68 493.852 1792.25 Q495.681 1795.79 499.292 1795.79 Q502.926 1795.79 504.731 1792.25 Q506.56 1788.68 506.56 1781.58 Q506.56 1774.45 504.731 1770.9 Q502.926 1767.34 499.292 1767.34 M499.292 1763.64 Q505.102 1763.64 508.157 1768.24 Q511.236 1772.83 511.236 1781.58 Q511.236 1790.3 508.157 1794.91 Q505.102 1799.49 499.292 1799.49 Q493.482 1799.49 490.403 1794.91 Q487.347 1790.3 487.347 1781.58 Q487.347 1772.83 490.403 1768.24 Q493.482 1763.64 499.292 1763.64 Z" fill="#000000" fill-rule="nonzero" fill-opacity="1" /><path clip-path="url(#clip830)" d="M519.454 1792.94 L524.338 1792.94 L524.338 1798.82 L519.454 1798.82 L519.454 1792.94 Z" fill="#000000" fill-rule="nonzero" fill-opacity="1" /><path clip-path="url(#clip830)" d="M545.102 1779.68 Q541.953 1779.68 540.102 1781.83 Q538.273 1783.98 538.273 1787.73 Q538.273 1791.46 540.102 1793.64 Q541.953 1795.79 545.102 1795.79 Q548.25 1795.79 550.078 1793.64 Q551.93 1791.46 551.93 1787.73 Q551.93 1783.98 550.078 1781.83 Q548.25 1779.68 545.102 1779.68 M554.384 1765.02 L554.384 1769.28 Q552.625 1768.45 550.819 1768.01 Q549.037 1767.57 547.278 1767.57 Q542.648 1767.57 540.194 1770.7 Q537.764 1773.82 537.416 1780.14 Q538.782 1778.13 540.842 1777.06 Q542.903 1775.97 545.379 1775.97 Q550.588 1775.97 553.597 1779.15 Q556.629 1782.29 556.629 1787.73 Q556.629 1793.06 553.481 1796.27 Q550.333 1799.49 545.102 1799.49 Q539.106 1799.49 535.935 1794.91 Q532.764 1790.3 532.764 1781.58 Q532.764 1773.38 536.653 1768.52 Q540.541 1763.64 547.092 1763.64 Q548.852 1763.64 550.634 1763.98 Q552.44 1764.33 554.384 1765.02 Z" fill="#000000" fill-rule="nonzero" fill-opacity="1" /><path clip-path="url(#clip830)" d="M955.068 1767.34 Q951.457 1767.34 949.628 1770.9 Q947.823 1774.45 947.823 1781.58 Q947.823 1788.68 949.628 1792.25 Q951.457 1795.79 955.068 1795.79 Q958.702 1795.79 960.508 1792.25 Q962.336 1788.68 962.336 1781.58 Q962.336 1774.45 960.508 1770.9 Q958.702 1767.34 955.068 1767.34 M955.068 1763.64 Q960.878 1763.64 963.934 1768.24 Q967.012 1772.83 967.012 1781.58 Q967.012 1790.3 963.934 1794.91 Q960.878 1799.49 955.068 1799.49 Q949.258 1799.49 946.179 1794.91 Q943.124 1790.3 943.124 1781.58 Q943.124 1772.83 946.179 1768.24 Q949.258 1763.64 955.068 1763.64 Z" fill="#000000" fill-rule="nonzero" fill-opacity="1" /><path clip-path="url(#clip830)" d="M975.23 1792.94 L980.114 1792.94 L980.114 1798.82 L975.23 1798.82 L975.23 1792.94 Z" fill="#000000" fill-rule="nonzero" fill-opacity="1" /><path clip-path="url(#clip830)" d="M1000.3 1782.41 Q996.966 1782.41 995.045 1784.19 Q993.146 1785.97 993.146 1789.1 Q993.146 1792.22 995.045 1794.01 Q996.966 1795.79 1000.3 1795.79 Q1003.63 1795.79 1005.55 1794.01 Q1007.48 1792.2 1007.48 1789.1 Q1007.48 1785.97 1005.55 1784.19 Q1003.66 1782.41 1000.3 1782.41 M995.623 1780.42 Q992.614 1779.68 990.924 1777.62 Q989.258 1775.56 989.258 1772.59 Q989.258 1768.45 992.197 1766.04 Q995.16 1763.64 1000.3 1763.64 Q1005.46 1763.64 1008.4 1766.04 Q1011.34 1768.45 1011.34 1772.59 Q1011.34 1775.56 1009.65 1777.62 Q1007.98 1779.68 1005 1780.42 Q1008.38 1781.21 1010.25 1783.5 Q1012.15 1785.79 1012.15 1789.1 Q1012.15 1794.12 1009.07 1796.81 Q1006.02 1799.49 1000.3 1799.49 Q994.582 1799.49 991.503 1796.81 Q988.447 1794.12 988.447 1789.1 Q988.447 1785.79 990.346 1783.5 Q992.244 1781.21 995.623 1780.42 M993.91 1773.03 Q993.91 1775.72 995.577 1777.22 Q997.267 1778.73 1000.3 1778.73 Q1003.31 1778.73 1005 1777.22 Q1006.71 1775.72 1006.71 1773.03 Q1006.71 1770.35 1005 1768.84 Q1003.31 1767.34 1000.3 1767.34 Q997.267 1767.34 995.577 1768.84 Q993.91 1770.35 993.91 1773.03 Z" fill="#000000" fill-rule="nonzero" fill-opacity="1" /><path clip-path="url(#clip830)" d="M1400.44 1794.89 L1408.08 1794.89 L1408.08 1768.52 L1399.77 1770.19 L1399.77 1765.93 L1408.03 1764.26 L1412.71 1764.26 L1412.71 1794.89 L1420.35 1794.89 L1420.35 1798.82 L1400.44 1798.82 L1400.44 1794.89 Z" fill="#000000" fill-rule="nonzero" fill-opacity="1" /><path clip-path="url(#clip830)" d="M1429.79 1792.94 L1434.68 1792.94 L1434.68 1798.82 L1429.79 1798.82 L1429.79 1792.94 Z" fill="#000000" fill-rule="nonzero" fill-opacity="1" /><path clip-path="url(#clip830)" d="M1454.86 1767.34 Q1451.25 1767.34 1449.42 1770.9 Q1447.61 1774.45 1447.61 1781.58 Q1447.61 1788.68 1449.42 1792.25 Q1451.25 1795.79 1454.86 1795.79 Q1458.49 1795.79 1460.3 1792.25 Q1462.13 1788.68 1462.13 1781.58 Q1462.13 1774.45 1460.3 1770.9 Q1458.49 1767.34 1454.86 1767.34 M1454.86 1763.64 Q1460.67 1763.64 1463.73 1768.24 Q1466.8 1772.83 1466.8 1781.58 Q1466.8 1790.3 1463.73 1794.91 Q1460.67 1799.49 1454.86 1799.49 Q1449.05 1799.49 1445.97 1794.91 Q1442.92 1790.3 1442.92 1781.58 Q1442.92 1772.83 1445.97 1768.24 Q1449.05 1763.64 1454.86 1763.64 Z" fill="#000000" fill-rule="nonzero" fill-opacity="1" /><path clip-path="url(#clip830)" d="M1856.89 1794.89 L1864.53 1794.89 L1864.53 1768.52 L1856.22 1770.19 L1856.22 1765.93 L1864.48 1764.26 L1869.16 1764.26 L1869.16 1794.89 L1876.79 1794.89 L1876.79 1798.82 L1856.89 1798.82 L1856.89 1794.89 Z" fill="#000000" fill-rule="nonzero" fill-opacity="1" /><path clip-path="url(#clip830)" d="M1886.24 1792.94 L1891.12 1792.94 L1891.12 1798.82 L1886.24 1798.82 L1886.24 1792.94 Z" fill="#000000" fill-rule="nonzero" fill-opacity="1" /><path clip-path="url(#clip830)" d="M1905.34 1794.89 L1921.65 1794.89 L1921.65 1798.82 L1899.71 1798.82 L1899.71 1794.89 Q1902.37 1792.13 1906.96 1787.5 Q1911.56 1782.85 1912.74 1781.51 Q1914.99 1778.98 1915.87 1777.25 Q1916.77 1775.49 1916.77 1773.8 Q1916.77 1771.04 1914.83 1769.31 Q1912.9 1767.57 1909.8 1767.57 Q1907.6 1767.57 1905.15 1768.34 Q1902.72 1769.1 1899.94 1770.65 L1899.94 1765.93 Q1902.77 1764.79 1905.22 1764.21 Q1907.67 1763.64 1909.71 1763.64 Q1915.08 1763.64 1918.28 1766.32 Q1921.47 1769.01 1921.47 1773.5 Q1921.47 1775.63 1920.66 1777.55 Q1919.87 1779.45 1917.77 1782.04 Q1917.19 1782.71 1914.09 1785.93 Q1910.98 1789.12 1905.34 1794.89 Z" fill="#000000" fill-rule="nonzero" fill-opacity="1" /><path clip-path="url(#clip830)" d="M2311.49 1794.89 L2319.13 1794.89 L2319.13 1768.52 L2310.82 1770.19 L2310.82 1765.93 L2319.09 1764.26 L2323.76 1764.26 L2323.76 1794.89 L2331.4 1794.89 L2331.4 1798.82 L2311.49 1798.82 L2311.49 1794.89 Z" fill="#000000" fill-rule="nonzero" fill-opacity="1" /><path clip-path="url(#clip830)" d="M2340.85 1792.94 L2345.73 1792.94 L2345.73 1798.82 L2340.85 1798.82 L2340.85 1792.94 Z" fill="#000000" fill-rule="nonzero" fill-opacity="1" /><path clip-path="url(#clip830)" d="M2368.76 1768.34 L2356.96 1786.78 L2368.76 1786.78 L2368.76 1768.34 M2367.54 1764.26 L2373.41 1764.26 L2373.41 1786.78 L2378.35 1786.78 L2378.35 1790.67 L2373.41 1790.67 L2373.41 1798.82 L2368.76 1798.82 L2368.76 1790.67 L2353.16 1790.67 L2353.16 1786.16 L2367.54 1764.26 Z" fill="#000000" fill-rule="nonzero" fill-opacity="1" /><path clip-path="url(#clip830)" d="M1242.14 1837.34 L1242.14 1843.61 Q1238.48 1841.86 1235.23 1841 Q1231.99 1840.14 1228.96 1840.14 Q1223.71 1840.14 1220.85 1842.18 Q1218.01 1844.22 1218.01 1847.97 Q1218.01 1851.12 1219.89 1852.75 Q1221.8 1854.34 1227.09 1855.32 L1230.97 1856.12 Q1238.16 1857.49 1241.57 1860.96 Q1245 1864.39 1245 1870.19 Q1245 1877.09 1240.36 1880.66 Q1235.74 1884.22 1226.8 1884.22 Q1223.42 1884.22 1219.61 1883.46 Q1215.82 1882.7 1211.74 1881.2 L1211.74 1874.58 Q1215.66 1876.78 1219.41 1877.89 Q1223.17 1879 1226.8 1879 Q1232.3 1879 1235.3 1876.84 Q1238.29 1874.68 1238.29 1870.67 Q1238.29 1867.16 1236.12 1865.19 Q1233.99 1863.22 1229.09 1862.23 L1225.18 1861.47 Q1217.98 1860.03 1214.77 1856.98 Q1211.55 1853.92 1211.55 1848.48 Q1211.55 1842.18 1215.98 1838.55 Q1220.43 1834.92 1228.23 1834.92 Q1231.57 1834.92 1235.04 1835.53 Q1238.51 1836.13 1242.14 1837.34 Z" fill="#000000" fill-rule="nonzero" fill-opacity="1" /><path clip-path="url(#clip830)" d="M1280.43 1849.02 L1280.43 1854.5 Q1277.95 1853.13 1275.43 1852.46 Q1272.95 1851.76 1270.4 1851.76 Q1264.71 1851.76 1261.56 1855.39 Q1258.4 1858.98 1258.4 1865.51 Q1258.4 1872.03 1261.56 1875.66 Q1264.71 1879.26 1270.4 1879.26 Q1272.95 1879.26 1275.43 1878.59 Q1277.95 1877.89 1280.43 1876.52 L1280.43 1881.93 Q1277.98 1883.08 1275.34 1883.65 Q1272.73 1884.22 1269.77 1884.22 Q1261.71 1884.22 1256.97 1879.16 Q1252.23 1874.1 1252.23 1865.51 Q1252.23 1856.79 1257 1851.79 Q1261.81 1846.79 1270.15 1846.79 Q1272.85 1846.79 1275.43 1847.37 Q1278.01 1847.91 1280.43 1849.02 Z" fill="#000000" fill-rule="nonzero" fill-opacity="1" /><path clip-path="url(#clip830)" d="M1306.82 1865.38 Q1299.72 1865.38 1296.98 1867 Q1294.24 1868.63 1294.24 1872.54 Q1294.24 1875.66 1296.28 1877.51 Q1298.35 1879.32 1301.88 1879.32 Q1306.75 1879.32 1309.68 1875.88 Q1312.64 1872.42 1312.64 1866.69 L1312.64 1865.38 L1306.82 1865.38 M1318.5 1862.96 L1318.5 1883.3 L1312.64 1883.3 L1312.64 1877.89 Q1310.63 1881.14 1307.64 1882.7 Q1304.65 1884.22 1300.32 1884.22 Q1294.85 1884.22 1291.6 1881.17 Q1288.39 1878.08 1288.39 1872.92 Q1288.39 1866.91 1292.4 1863.85 Q1296.44 1860.8 1304.43 1860.8 L1312.64 1860.8 L1312.64 1860.23 Q1312.64 1856.18 1309.97 1853.99 Q1307.32 1851.76 1302.52 1851.76 Q1299.46 1851.76 1296.57 1852.49 Q1293.67 1853.22 1291 1854.69 L1291 1849.28 Q1294.21 1848.03 1297.24 1847.43 Q1300.26 1846.79 1303.12 1846.79 Q1310.86 1846.79 1314.68 1850.8 Q1318.5 1854.81 1318.5 1862.96 Z" fill="#000000" fill-rule="nonzero" fill-opacity="1" /><path clip-path="url(#clip830)" d="M1330.56 1833.78 L1336.42 1833.78 L1336.42 1883.3 L1330.56 1883.3 L1330.56 1833.78 Z" fill="#000000" fill-rule="nonzero" fill-opacity="1" /><path clip-path="url(#clip830)" d="M1348.67 1847.65 L1354.53 1847.65 L1354.53 1883.3 L1348.67 1883.3 L1348.67 1847.65 M1348.67 1833.78 L1354.53 1833.78 L1354.53 1841.19 L1348.67 1841.19 L1348.67 1833.78 Z" fill="#000000" fill-rule="nonzero" fill-opacity="1" /><path clip-path="url(#clip830)" d="M1396.41 1861.78 L1396.41 1883.3 L1390.56 1883.3 L1390.56 1861.98 Q1390.56 1856.92 1388.58 1854.4 Q1386.61 1851.89 1382.66 1851.89 Q1377.92 1851.89 1375.18 1854.91 Q1372.45 1857.93 1372.45 1863.15 L1372.45 1883.3 L1366.56 1883.3 L1366.56 1847.65 L1372.45 1847.65 L1372.45 1853.19 Q1374.55 1849.98 1377.38 1848.39 Q1380.24 1846.79 1383.97 1846.79 Q1390.11 1846.79 1393.26 1850.61 Q1396.41 1854.4 1396.41 1861.78 Z" fill="#000000" fill-rule="nonzero" fill-opacity="1" /><path clip-path="url(#clip830)" d="M1431.55 1865.06 Q1431.55 1858.7 1428.91 1855.2 Q1426.3 1851.7 1421.56 1851.7 Q1416.85 1851.7 1414.2 1855.2 Q1411.6 1858.7 1411.6 1865.06 Q1411.6 1871.4 1414.2 1874.9 Q1416.85 1878.4 1421.56 1878.4 Q1426.3 1878.4 1428.91 1874.9 Q1431.55 1871.4 1431.55 1865.06 M1437.41 1878.88 Q1437.41 1887.98 1433.37 1892.4 Q1429.32 1896.86 1420.98 1896.86 Q1417.9 1896.86 1415.16 1896.38 Q1412.42 1895.94 1409.84 1894.98 L1409.84 1889.28 Q1412.42 1890.69 1414.94 1891.35 Q1417.45 1892.02 1420.06 1892.02 Q1425.82 1892.02 1428.69 1889 Q1431.55 1886.01 1431.55 1879.93 L1431.55 1877.03 Q1429.74 1880.18 1426.9 1881.74 Q1424.07 1883.3 1420.13 1883.3 Q1413.57 1883.3 1409.56 1878.3 Q1405.55 1873.31 1405.55 1865.06 Q1405.55 1856.79 1409.56 1851.79 Q1413.57 1846.79 1420.13 1846.79 Q1424.07 1846.79 1426.9 1848.35 Q1429.74 1849.91 1431.55 1853.06 L1431.55 1847.65 L1437.41 1847.65 L1437.41 1878.88 Z" fill="#000000" fill-rule="nonzero" fill-opacity="1" /><path clip-path="url(#clip830)" d="M1488.24 1833.78 L1488.24 1838.65 L1482.64 1838.65 Q1479.49 1838.65 1478.24 1839.92 Q1477.03 1841.19 1477.03 1844.5 L1477.03 1847.65 L1486.68 1847.65 L1486.68 1852.2 L1477.03 1852.2 L1477.03 1883.3 L1471.15 1883.3 L1471.15 1852.2 L1465.54 1852.2 L1465.54 1847.65 L1471.15 1847.65 L1471.15 1845.17 Q1471.15 1839.22 1473.92 1836.51 Q1476.68 1833.78 1482.7 1833.78 L1488.24 1833.78 Z" fill="#000000" fill-rule="nonzero" fill-opacity="1" /><path clip-path="url(#clip830)" d="M1509.34 1865.38 Q1502.24 1865.38 1499.51 1867 Q1496.77 1868.63 1496.77 1872.54 Q1496.77 1875.66 1498.81 1877.51 Q1500.87 1879.32 1504.41 1879.32 Q1509.28 1879.32 1512.21 1875.88 Q1515.17 1872.42 1515.17 1866.69 L1515.17 1865.38 L1509.34 1865.38 M1521.02 1862.96 L1521.02 1883.3 L1515.17 1883.3 L1515.17 1877.89 Q1513.16 1881.14 1510.17 1882.7 Q1507.18 1884.22 1502.85 1884.22 Q1497.37 1884.22 1494.13 1881.17 Q1490.91 1878.08 1490.91 1872.92 Q1490.91 1866.91 1494.92 1863.85 Q1498.96 1860.8 1506.95 1860.8 L1515.17 1860.8 L1515.17 1860.23 Q1515.17 1856.18 1512.49 1853.99 Q1509.85 1851.76 1505.04 1851.76 Q1501.99 1851.76 1499.09 1852.49 Q1496.2 1853.22 1493.52 1854.69 L1493.52 1849.28 Q1496.74 1848.03 1499.76 1847.43 Q1502.78 1846.79 1505.65 1846.79 Q1513.38 1846.79 1517.2 1850.8 Q1521.02 1854.81 1521.02 1862.96 Z" fill="#000000" fill-rule="nonzero" fill-opacity="1" /><path clip-path="url(#clip830)" d="M1558.74 1849.02 L1558.74 1854.5 Q1556.26 1853.13 1553.74 1852.46 Q1551.26 1851.76 1548.71 1851.76 Q1543.02 1851.76 1539.86 1855.39 Q1536.71 1858.98 1536.71 1865.51 Q1536.71 1872.03 1539.86 1875.66 Q1543.02 1879.26 1548.71 1879.26 Q1551.26 1879.26 1553.74 1878.59 Q1556.26 1877.89 1558.74 1876.52 L1558.74 1881.93 Q1556.29 1883.08 1553.65 1883.65 Q1551.04 1884.22 1548.08 1884.22 Q1540.02 1884.22 1535.28 1879.16 Q1530.54 1874.1 1530.54 1865.51 Q1530.54 1856.79 1535.31 1851.79 Q1540.12 1846.79 1548.46 1846.79 Q1551.16 1846.79 1553.74 1847.37 Q1556.32 1847.91 1558.74 1849.02 Z" fill="#000000" fill-rule="nonzero" fill-opacity="1" /><path clip-path="url(#clip830)" d="M1574.72 1837.53 L1574.72 1847.65 L1586.78 1847.65 L1586.78 1852.2 L1574.72 1852.2 L1574.72 1871.56 Q1574.72 1875.92 1575.89 1877.16 Q1577.1 1878.4 1580.76 1878.4 L1586.78 1878.4 L1586.78 1883.3 L1580.76 1883.3 Q1573.98 1883.3 1571.41 1880.79 Q1568.83 1878.24 1568.83 1871.56 L1568.83 1852.2 L1564.53 1852.2 L1564.53 1847.65 L1568.83 1847.65 L1568.83 1837.53 L1574.72 1837.53 Z" fill="#000000" fill-rule="nonzero" fill-opacity="1" /><path clip-path="url(#clip830)" d="M1608.3 1851.76 Q1603.58 1851.76 1600.85 1855.45 Q1598.11 1859.11 1598.11 1865.51 Q1598.11 1871.91 1600.82 1875.6 Q1603.55 1879.26 1608.3 1879.26 Q1612.97 1879.26 1615.71 1875.57 Q1618.45 1871.87 1618.45 1865.51 Q1618.45 1859.17 1615.71 1855.48 Q1612.97 1851.76 1608.3 1851.76 M1608.3 1846.79 Q1615.93 1846.79 1620.29 1851.76 Q1624.66 1856.72 1624.66 1865.51 Q1624.66 1874.26 1620.29 1879.26 Q1615.93 1884.22 1608.3 1884.22 Q1600.62 1884.22 1596.26 1879.26 Q1591.94 1874.26 1591.94 1865.51 Q1591.94 1856.72 1596.26 1851.76 Q1600.62 1846.79 1608.3 1846.79 Z" fill="#000000" fill-rule="nonzero" fill-opacity="1" /><path clip-path="url(#clip830)" d="M1655.02 1853.13 Q1654.03 1852.55 1652.86 1852.3 Q1651.71 1852.01 1650.31 1852.01 Q1645.34 1852.01 1642.67 1855.26 Q1640.03 1858.47 1640.03 1864.52 L1640.03 1883.3 L1634.14 1883.3 L1634.14 1847.65 L1640.03 1847.65 L1640.03 1853.19 Q1641.87 1849.94 1644.83 1848.39 Q1647.79 1846.79 1652.03 1846.79 Q1652.63 1846.79 1653.36 1846.89 Q1654.1 1846.95 1654.99 1847.11 L1655.02 1853.13 Z" fill="#000000" fill-rule="nonzero" fill-opacity="1" /><polyline clip-path="url(#clip830)" style="stroke:#000000; stroke-linecap:round; stroke-linejoin:round; stroke-width:4; stroke-opacity:1; fill:none" points="225.816,1734.12 225.816,127.792 "/>
<polyline clip-path="url(#clip830)" style="stroke:#000000; stroke-linecap:round; stroke-linejoin:round; stroke-width:4; stroke-opacity:1; fill:none" points="225.816,1533.36 244.714,1533.36 "/>
<polyline clip-path="url(#clip830)" style="stroke:#000000; stroke-linecap:round; stroke-linejoin:round; stroke-width:4; stroke-opacity:1; fill:none" points="225.816,1200.11 244.714,1200.11 "/>
<polyline clip-path="url(#clip830)" style="stroke:#000000; stroke-linecap:round; stroke-linejoin:round; stroke-width:4; stroke-opacity:1; fill:none" points="225.816,866.864 244.714,866.864 "/>
<polyline clip-path="url(#clip830)" style="stroke:#000000; stroke-linecap:round; stroke-linejoin:round; stroke-width:4; stroke-opacity:1; fill:none" points="225.816,533.614 244.714,533.614 "/>
<polyline clip-path="url(#clip830)" style="stroke:#000000; stroke-linecap:round; stroke-linejoin:round; stroke-width:4; stroke-opacity:1; fill:none" points="225.816,200.364 244.714,200.364 "/>
<path clip-path="url(#clip830)" d="M128.159 1519.16 Q124.548 1519.16 122.719 1522.73 Q120.913 1526.27 120.913 1533.4 Q120.913 1540.5 122.719 1544.07 Q124.548 1547.61 128.159 1547.61 Q131.793 1547.61 133.599 1544.07 Q135.427 1540.5 135.427 1533.4 Q135.427 1526.27 133.599 1522.73 Q131.793 1519.16 128.159 1519.16 M128.159 1515.46 Q133.969 1515.46 137.025 1520.06 Q140.103 1524.65 140.103 1533.4 Q140.103 1542.12 137.025 1546.73 Q133.969 1551.31 128.159 1551.31 Q122.349 1551.31 119.27 1546.73 Q116.214 1542.12 116.214 1533.4 Q116.214 1524.65 119.27 1520.06 Q122.349 1515.46 128.159 1515.46 Z" fill="#000000" fill-rule="nonzero" fill-opacity="1" /><path clip-path="url(#clip830)" d="M148.321 1544.76 L153.205 1544.76 L153.205 1550.64 L148.321 1550.64 L148.321 1544.76 Z" fill="#000000" fill-rule="nonzero" fill-opacity="1" /><path clip-path="url(#clip830)" d="M173.969 1531.5 Q170.821 1531.5 168.969 1533.65 Q167.14 1535.81 167.14 1539.56 Q167.14 1543.28 168.969 1545.46 Q170.821 1547.61 173.969 1547.61 Q177.117 1547.61 178.946 1545.46 Q180.797 1543.28 180.797 1539.56 Q180.797 1535.81 178.946 1533.65 Q177.117 1531.5 173.969 1531.5 M183.251 1516.85 L183.251 1521.11 Q181.492 1520.27 179.686 1519.83 Q177.904 1519.39 176.145 1519.39 Q171.515 1519.39 169.061 1522.52 Q166.631 1525.64 166.284 1531.96 Q167.649 1529.95 169.71 1528.88 Q171.77 1527.8 174.247 1527.8 Q179.455 1527.8 182.464 1530.97 Q185.496 1534.12 185.496 1539.56 Q185.496 1544.88 182.348 1548.1 Q179.2 1551.31 173.969 1551.31 Q167.973 1551.31 164.802 1546.73 Q161.631 1542.12 161.631 1533.4 Q161.631 1525.2 165.52 1520.34 Q169.409 1515.46 175.959 1515.46 Q177.719 1515.46 179.501 1515.81 Q181.307 1516.15 183.251 1516.85 Z" fill="#000000" fill-rule="nonzero" fill-opacity="1" /><path clip-path="url(#clip830)" d="M128.413 1185.91 Q124.802 1185.91 122.974 1189.48 Q121.168 1193.02 121.168 1200.15 Q121.168 1207.25 122.974 1210.82 Q124.802 1214.36 128.413 1214.36 Q132.048 1214.36 133.853 1210.82 Q135.682 1207.25 135.682 1200.15 Q135.682 1193.02 133.853 1189.48 Q132.048 1185.91 128.413 1185.91 M128.413 1182.21 Q134.224 1182.21 137.279 1186.81 Q140.358 1191.4 140.358 1200.15 Q140.358 1208.87 137.279 1213.48 Q134.224 1218.06 128.413 1218.06 Q122.603 1218.06 119.525 1213.48 Q116.469 1208.87 116.469 1200.15 Q116.469 1191.4 119.525 1186.81 Q122.603 1182.21 128.413 1182.21 Z" fill="#000000" fill-rule="nonzero" fill-opacity="1" /><path clip-path="url(#clip830)" d="M148.575 1211.51 L153.46 1211.51 L153.46 1217.39 L148.575 1217.39 L148.575 1211.51 Z" fill="#000000" fill-rule="nonzero" fill-opacity="1" /><path clip-path="url(#clip830)" d="M173.645 1200.98 Q170.311 1200.98 168.39 1202.76 Q166.492 1204.55 166.492 1207.67 Q166.492 1210.8 168.39 1212.58 Q170.311 1214.36 173.645 1214.36 Q176.978 1214.36 178.899 1212.58 Q180.821 1210.77 180.821 1207.67 Q180.821 1204.55 178.899 1202.76 Q177.001 1200.98 173.645 1200.98 M168.969 1198.99 Q165.96 1198.25 164.27 1196.19 Q162.603 1194.13 162.603 1191.17 Q162.603 1187.02 165.543 1184.62 Q168.506 1182.21 173.645 1182.21 Q178.807 1182.21 181.746 1184.62 Q184.686 1187.02 184.686 1191.17 Q184.686 1194.13 182.996 1196.19 Q181.33 1198.25 178.344 1198.99 Q181.723 1199.78 183.598 1202.07 Q185.496 1204.36 185.496 1207.67 Q185.496 1212.69 182.418 1215.38 Q179.362 1218.06 173.645 1218.06 Q167.927 1218.06 164.848 1215.38 Q161.793 1212.69 161.793 1207.67 Q161.793 1204.36 163.691 1202.07 Q165.589 1199.78 168.969 1198.99 M167.256 1191.61 Q167.256 1194.29 168.922 1195.8 Q170.612 1197.3 173.645 1197.3 Q176.654 1197.3 178.344 1195.8 Q180.057 1194.29 180.057 1191.61 Q180.057 1188.92 178.344 1187.42 Q176.654 1185.91 173.645 1185.91 Q170.612 1185.91 168.922 1187.42 Q167.256 1188.92 167.256 1191.61 Z" fill="#000000" fill-rule="nonzero" fill-opacity="1" /><path clip-path="url(#clip830)" d="M119.131 880.208 L126.77 880.208 L126.77 853.843 L118.46 855.509 L118.46 851.25 L126.724 849.584 L131.4 849.584 L131.4 880.208 L139.038 880.208 L139.038 884.144 L119.131 884.144 L119.131 880.208 Z" fill="#000000" fill-rule="nonzero" fill-opacity="1" /><path clip-path="url(#clip830)" d="M148.483 878.264 L153.367 878.264 L153.367 884.144 L148.483 884.144 L148.483 878.264 Z" fill="#000000" fill-rule="nonzero" fill-opacity="1" /><path clip-path="url(#clip830)" d="M173.552 852.662 Q169.941 852.662 168.112 856.227 Q166.307 859.769 166.307 866.898 Q166.307 874.005 168.112 877.57 Q169.941 881.111 173.552 881.111 Q177.186 881.111 178.992 877.57 Q180.821 874.005 180.821 866.898 Q180.821 859.769 178.992 856.227 Q177.186 852.662 173.552 852.662 M173.552 848.959 Q179.362 848.959 182.418 853.565 Q185.496 858.148 185.496 866.898 Q185.496 875.625 182.418 880.232 Q179.362 884.815 173.552 884.815 Q167.742 884.815 164.663 880.232 Q161.608 875.625 161.608 866.898 Q161.608 858.148 164.663 853.565 Q167.742 848.959 173.552 848.959 Z" fill="#000000" fill-rule="nonzero" fill-opacity="1" /><path clip-path="url(#clip830)" d="M120.728 546.959 L128.367 546.959 L128.367 520.593 L120.057 522.26 L120.057 518 L128.321 516.334 L132.997 516.334 L132.997 546.959 L140.636 546.959 L140.636 550.894 L120.728 550.894 L120.728 546.959 Z" fill="#000000" fill-rule="nonzero" fill-opacity="1" /><path clip-path="url(#clip830)" d="M150.08 545.014 L154.964 545.014 L154.964 550.894 L150.08 550.894 L150.08 545.014 Z" fill="#000000" fill-rule="nonzero" fill-opacity="1" /><path clip-path="url(#clip830)" d="M169.177 546.959 L185.496 546.959 L185.496 550.894 L163.552 550.894 L163.552 546.959 Q166.214 544.204 170.797 539.574 Q175.404 534.922 176.584 533.579 Q178.83 531.056 179.709 529.32 Q180.612 527.561 180.612 525.871 Q180.612 523.116 178.668 521.38 Q176.747 519.644 173.645 519.644 Q171.446 519.644 168.992 520.408 Q166.561 521.172 163.784 522.723 L163.784 518 Q166.608 516.866 169.061 516.287 Q171.515 515.709 173.552 515.709 Q178.922 515.709 182.117 518.394 Q185.311 521.079 185.311 525.57 Q185.311 527.699 184.501 529.621 Q183.714 531.519 181.608 534.111 Q181.029 534.783 177.927 538 Q174.825 541.195 169.177 546.959 Z" fill="#000000" fill-rule="nonzero" fill-opacity="1" /><path clip-path="url(#clip830)" d="M118.645 213.709 L126.284 213.709 L126.284 187.343 L117.974 189.01 L117.974 184.751 L126.238 183.084 L130.913 183.084 L130.913 213.709 L138.552 213.709 L138.552 217.644 L118.645 217.644 L118.645 213.709 Z" fill="#000000" fill-rule="nonzero" fill-opacity="1" /><path clip-path="url(#clip830)" d="M147.997 211.764 L152.881 211.764 L152.881 217.644 L147.997 217.644 L147.997 211.764 Z" fill="#000000" fill-rule="nonzero" fill-opacity="1" /><path clip-path="url(#clip830)" d="M175.913 187.158 L164.108 205.607 L175.913 205.607 L175.913 187.158 M174.686 183.084 L180.566 183.084 L180.566 205.607 L185.496 205.607 L185.496 209.496 L180.566 209.496 L180.566 217.644 L175.913 217.644 L175.913 209.496 L160.311 209.496 L160.311 204.982 L174.686 183.084 Z" fill="#000000" fill-rule="nonzero" fill-opacity="1" /><path clip-path="url(#clip830)" d="M17.6832 930.063 L61.6384 913.608 L61.6384 919.815 L35.2844 929.809 L61.6384 942.095 L61.6384 948.301 L27.4546 932.673 L21.1525 935.029 Q17.1422 936.525 17.1422 939.93 L17.1422 942.986 L12.1132 942.986 L12.1769 939.262 Q12.2724 932.069 17.6832 930.063 Z" fill="#000000" fill-rule="nonzero" fill-opacity="1" /><path clip-path="url(#clip830)" d="M728.226 14.0809 L728.226 22.0612 Q723.568 19.8332 719.436 18.7395 Q715.304 17.6457 711.456 17.6457 Q704.772 17.6457 701.126 20.2383 Q697.52 22.8309 697.52 27.611 Q697.52 31.6214 699.91 33.6873 Q702.341 35.7128 709.066 36.9686 L714.008 37.9813 Q723.163 39.7232 727.497 44.1387 Q731.872 48.5136 731.872 55.8863 Q731.872 64.6767 725.958 69.2137 Q720.084 73.7508 708.701 73.7508 Q704.407 73.7508 699.546 72.7785 Q694.725 71.8063 689.54 69.9024 L689.54 61.4765 Q694.523 64.2716 699.303 65.6895 Q704.083 67.1073 708.701 67.1073 Q715.709 67.1073 719.517 64.3527 Q723.325 61.598 723.325 56.4939 Q723.325 52.0379 720.57 49.5264 Q717.856 47.0148 711.618 45.759 L706.635 44.7868 Q697.48 42.9639 693.389 39.075 Q689.297 35.1862 689.297 28.2591 Q689.297 20.2383 694.928 15.6203 Q700.599 11.0023 710.524 11.0023 Q714.777 11.0023 719.193 11.7719 Q723.608 12.5416 728.226 14.0809 Z" fill="#000000" fill-rule="nonzero" fill-opacity="1" /><path clip-path="url(#clip830)" d="M783.116 48.0275 L783.116 51.6733 L748.845 51.6733 Q749.332 59.3701 753.463 63.421 Q757.636 67.4314 765.049 67.4314 Q769.343 67.4314 773.353 66.3781 Q777.404 65.3249 781.374 63.2184 L781.374 70.267 Q777.364 71.9684 773.151 72.8596 Q768.938 73.7508 764.603 73.7508 Q753.747 73.7508 747.387 67.4314 Q741.068 61.1119 741.068 50.3365 Q741.068 39.1965 747.063 32.6746 Q753.099 26.1121 763.307 26.1121 Q772.462 26.1121 777.769 32.0264 Q783.116 37.9003 783.116 48.0275 M775.662 45.84 Q775.581 39.7232 772.219 36.0774 Q768.897 32.4315 763.388 32.4315 Q757.15 32.4315 753.382 35.9558 Q749.656 39.4801 749.088 45.8805 L775.662 45.84 Z" fill="#000000" fill-rule="nonzero" fill-opacity="1" /><path clip-path="url(#clip830)" d="M833.064 45.1919 L833.064 72.576 L825.61 72.576 L825.61 45.4349 Q825.61 38.994 823.098 35.7938 Q820.587 32.5936 815.564 32.5936 Q809.528 32.5936 806.044 36.4419 Q802.56 40.2903 802.56 46.9338 L802.56 72.576 L795.066 72.576 L795.066 27.2059 L802.56 27.2059 L802.56 34.2544 Q805.234 30.163 808.839 28.1376 Q812.485 26.1121 817.225 26.1121 Q825.043 26.1121 829.053 30.9732 Q833.064 35.7938 833.064 45.1919 Z" fill="#000000" fill-rule="nonzero" fill-opacity="1" /><path clip-path="url(#clip830)" d="M876.854 28.5427 L876.854 35.5912 Q873.694 33.9709 870.292 33.1607 Q866.889 32.3505 863.243 32.3505 Q857.693 32.3505 854.898 34.0519 Q852.143 35.7533 852.143 39.156 Q852.143 41.7486 854.128 43.2475 Q856.113 44.7058 862.109 46.0426 L864.661 46.6097 Q872.601 48.3111 875.922 51.4303 Q879.285 54.509 879.285 60.0587 Q879.285 66.3781 874.261 70.0644 Q869.279 73.7508 860.529 73.7508 Q856.883 73.7508 852.913 73.0216 Q848.984 72.3329 844.609 70.9151 L844.609 63.2184 Q848.741 65.3654 852.751 66.4591 Q856.762 67.5124 860.691 67.5124 Q865.957 67.5124 868.793 65.73 Q871.628 63.9071 871.628 60.6258 Q871.628 57.5877 869.562 55.9673 Q867.537 54.3469 860.61 52.8481 L858.017 52.2405 Q851.09 50.7821 848.012 47.7845 Q844.933 44.7463 844.933 39.4801 Q844.933 33.0797 849.47 29.5959 Q854.007 26.1121 862.352 26.1121 Q866.484 26.1121 870.129 26.7198 Q873.775 27.3274 876.854 28.5427 Z" fill="#000000" fill-rule="nonzero" fill-opacity="1" /><path clip-path="url(#clip830)" d="M891.154 27.2059 L898.607 27.2059 L898.607 72.576 L891.154 72.576 L891.154 27.2059 M891.154 9.54393 L898.607 9.54393 L898.607 18.9825 L891.154 18.9825 L891.154 9.54393 Z" fill="#000000" fill-rule="nonzero" fill-opacity="1" /><path clip-path="url(#clip830)" d="M921.576 14.324 L921.576 27.2059 L936.929 27.2059 L936.929 32.9987 L921.576 32.9987 L921.576 57.6282 Q921.576 63.1779 923.075 64.7578 Q924.614 66.3376 929.273 66.3376 L936.929 66.3376 L936.929 72.576 L929.273 72.576 Q920.644 72.576 917.363 69.3758 Q914.082 66.1351 914.082 57.6282 L914.082 32.9987 L908.613 32.9987 L908.613 27.2059 L914.082 27.2059 L914.082 14.324 L921.576 14.324 Z" fill="#000000" fill-rule="nonzero" fill-opacity="1" /><path clip-path="url(#clip830)" d="M946.732 27.2059 L954.186 27.2059 L954.186 72.576 L946.732 72.576 L946.732 27.2059 M946.732 9.54393 L954.186 9.54393 L954.186 18.9825 L946.732 18.9825 L946.732 9.54393 Z" fill="#000000" fill-rule="nonzero" fill-opacity="1" /><path clip-path="url(#clip830)" d="M964.435 27.2059 L972.334 27.2059 L986.512 65.2844 L1000.69 27.2059 L1008.59 27.2059 L991.576 72.576 L981.448 72.576 L964.435 27.2059 Z" fill="#000000" fill-rule="nonzero" fill-opacity="1" /><path clip-path="url(#clip830)" d="M1018.88 27.2059 L1026.33 27.2059 L1026.33 72.576 L1018.88 72.576 L1018.88 27.2059 M1018.88 9.54393 L1026.33 9.54393 L1026.33 18.9825 L1018.88 18.9825 L1018.88 9.54393 Z" fill="#000000" fill-rule="nonzero" fill-opacity="1" /><path clip-path="url(#clip830)" d="M1049.3 14.324 L1049.3 27.2059 L1064.65 27.2059 L1064.65 32.9987 L1049.3 32.9987 L1049.3 57.6282 Q1049.3 63.1779 1050.8 64.7578 Q1052.34 66.3376 1057 66.3376 L1064.65 66.3376 L1064.65 72.576 L1057 72.576 Q1048.37 72.576 1045.09 69.3758 Q1041.81 66.1351 1041.81 57.6282 L1041.81 32.9987 L1036.34 32.9987 L1036.34 27.2059 L1041.81 27.2059 L1041.81 14.324 L1049.3 14.324 Z" fill="#000000" fill-rule="nonzero" fill-opacity="1" /><path clip-path="url(#clip830)" d="M1093.33 76.7889 Q1090.17 84.8907 1087.18 87.3618 Q1084.18 89.8329 1079.16 89.8329 L1073.2 89.8329 L1073.2 83.5945 L1077.58 83.5945 Q1080.65 83.5945 1082.36 82.1361 Q1084.06 80.6778 1086.12 75.2496 L1087.46 71.8468 L1069.11 27.2059 L1077.01 27.2059 L1091.19 62.6918 L1105.37 27.2059 L1113.26 27.2059 L1093.33 76.7889 Z" fill="#000000" fill-rule="nonzero" fill-opacity="1" /><path clip-path="url(#clip830)" d="M1167.51 32.4315 Q1161.51 32.4315 1158.03 37.1306 Q1154.54 41.7891 1154.54 49.9314 Q1154.54 58.0738 1157.99 62.7728 Q1161.47 67.4314 1167.51 67.4314 Q1173.46 67.4314 1176.94 62.7323 Q1180.43 58.0333 1180.43 49.9314 Q1180.43 41.8701 1176.94 37.1711 Q1173.46 32.4315 1167.51 32.4315 M1167.51 26.1121 Q1177.23 26.1121 1182.78 32.4315 Q1188.33 38.7509 1188.33 49.9314 Q1188.33 61.0714 1182.78 67.4314 Q1177.23 73.7508 1167.51 73.7508 Q1157.74 73.7508 1152.19 67.4314 Q1146.68 61.0714 1146.68 49.9314 Q1146.68 38.7509 1152.19 32.4315 Q1157.74 26.1121 1167.51 26.1121 Z" fill="#000000" fill-rule="nonzero" fill-opacity="1" /><path clip-path="url(#clip830)" d="M1223.65 9.54393 L1223.65 15.7418 L1216.52 15.7418 Q1212.51 15.7418 1210.93 17.3622 Q1209.39 18.9825 1209.39 23.1955 L1209.39 27.2059 L1221.67 27.2059 L1221.67 32.9987 L1209.39 32.9987 L1209.39 72.576 L1201.9 72.576 L1201.9 32.9987 L1194.77 32.9987 L1194.77 27.2059 L1201.9 27.2059 L1201.9 24.0462 Q1201.9 16.471 1205.42 13.0277 Q1208.95 9.54393 1216.6 9.54393 L1223.65 9.54393 Z" fill="#000000" fill-rule="nonzero" fill-opacity="1" /><path clip-path="url(#clip830)" d="M1274.13 16.633 L1295.07 72.576 L1287.17 72.576 L1274.45 39.0345 L1258.81 72.576 L1250.91 72.576 L1270.8 29.0693 L1267.81 21.0485 Q1265.9 15.9444 1261.57 15.9444 L1257.68 15.9444 L1257.68 9.54393 L1262.42 9.62495 Q1271.57 9.74648 1274.13 16.633 Z" fill="#000000" fill-rule="nonzero" fill-opacity="1" /><path clip-path="url(#clip830)" d="M1339.1 14.324 L1339.1 27.2059 L1354.46 27.2059 L1354.46 32.9987 L1339.1 32.9987 L1339.1 57.6282 Q1339.1 63.1779 1340.6 64.7578 Q1342.14 66.3376 1346.8 66.3376 L1354.46 66.3376 L1354.46 72.576 L1346.8 72.576 Q1338.17 72.576 1334.89 69.3758 Q1331.61 66.1351 1331.61 57.6282 L1331.61 32.9987 L1326.14 32.9987 L1326.14 27.2059 L1331.61 27.2059 L1331.61 14.324 L1339.1 14.324 Z" fill="#000000" fill-rule="nonzero" fill-opacity="1" /><path clip-path="url(#clip830)" d="M1381.84 32.4315 Q1375.84 32.4315 1372.36 37.1306 Q1368.88 41.7891 1368.88 49.9314 Q1368.88 58.0738 1372.32 62.7728 Q1375.8 67.4314 1381.84 67.4314 Q1387.79 67.4314 1391.28 62.7323 Q1394.76 58.0333 1394.76 49.9314 Q1394.76 41.8701 1391.28 37.1711 Q1387.79 32.4315 1381.84 32.4315 M1381.84 26.1121 Q1391.56 26.1121 1397.11 32.4315 Q1402.66 38.7509 1402.66 49.9314 Q1402.66 61.0714 1397.11 67.4314 Q1391.56 73.7508 1381.84 73.7508 Q1372.08 73.7508 1366.53 67.4314 Q1361.02 61.0714 1361.02 49.9314 Q1361.02 38.7509 1366.53 32.4315 Q1372.08 26.1121 1381.84 26.1121 Z" fill="#000000" fill-rule="nonzero" fill-opacity="1" /><path clip-path="url(#clip830)" d="M1470.31 28.5427 L1470.31 35.5912 Q1467.15 33.9709 1463.75 33.1607 Q1460.35 32.3505 1456.7 32.3505 Q1451.15 32.3505 1448.36 34.0519 Q1445.6 35.7533 1445.6 39.156 Q1445.6 41.7486 1447.59 43.2475 Q1449.57 44.7058 1455.57 46.0426 L1458.12 46.6097 Q1466.06 48.3111 1469.38 51.4303 Q1472.74 54.509 1472.74 60.0587 Q1472.74 66.3781 1467.72 70.0644 Q1462.74 73.7508 1453.99 73.7508 Q1450.34 73.7508 1446.37 73.0216 Q1442.44 72.3329 1438.07 70.9151 L1438.07 63.2184 Q1442.2 65.3654 1446.21 66.4591 Q1450.22 67.5124 1454.15 67.5124 Q1459.41 67.5124 1462.25 65.73 Q1465.09 63.9071 1465.09 60.6258 Q1465.09 57.5877 1463.02 55.9673 Q1460.99 54.3469 1454.07 52.8481 L1451.47 52.2405 Q1444.55 50.7821 1441.47 47.7845 Q1438.39 44.7463 1438.39 39.4801 Q1438.39 33.0797 1442.93 29.5959 Q1447.46 26.1121 1455.81 26.1121 Q1459.94 26.1121 1463.59 26.7198 Q1467.23 27.3274 1470.31 28.5427 Z" fill="#000000" fill-rule="nonzero" fill-opacity="1" /><path clip-path="url(#clip830)" d="M1483.84 54.671 L1483.84 27.2059 L1491.3 27.2059 L1491.3 54.3874 Q1491.3 60.8284 1493.81 64.0691 Q1496.32 67.2693 1501.34 67.2693 Q1507.38 67.2693 1510.86 63.421 Q1514.39 59.5726 1514.39 52.9291 L1514.39 27.2059 L1521.84 27.2059 L1521.84 72.576 L1514.39 72.576 L1514.39 65.6084 Q1511.67 69.7404 1508.07 71.7658 Q1504.5 73.7508 1499.76 73.7508 Q1491.94 73.7508 1487.89 68.8897 Q1483.84 64.0286 1483.84 54.671 M1502.6 26.1121 L1502.6 26.1121 Z" fill="#000000" fill-rule="nonzero" fill-opacity="1" /><path clip-path="url(#clip830)" d="M1569.76 49.9314 Q1569.76 41.7081 1566.36 37.0496 Q1563 32.3505 1557.08 32.3505 Q1551.17 32.3505 1547.76 37.0496 Q1544.4 41.7081 1544.4 49.9314 Q1544.4 58.1548 1547.76 62.8538 Q1551.17 67.5124 1557.08 67.5124 Q1563 67.5124 1566.36 62.8538 Q1569.76 58.1548 1569.76 49.9314 M1544.4 34.0924 Q1546.75 30.0415 1550.32 28.0971 Q1553.92 26.1121 1558.9 26.1121 Q1567.17 26.1121 1572.31 32.6746 Q1577.5 39.2371 1577.5 49.9314 Q1577.5 60.6258 1572.31 67.1883 Q1567.17 73.7508 1558.9 73.7508 Q1553.92 73.7508 1550.32 71.8063 Q1546.75 69.8214 1544.4 65.7705 L1544.4 72.576 L1536.91 72.576 L1536.91 9.54393 L1544.4 9.54393 L1544.4 34.0924 Z" fill="#000000" fill-rule="nonzero" fill-opacity="1" /><path clip-path="url(#clip830)" d="M1586.09 46.5287 L1607.92 46.5287 L1607.92 53.1722 L1586.09 53.1722 L1586.09 46.5287 Z" fill="#000000" fill-rule="nonzero" fill-opacity="1" /><path clip-path="url(#clip830)" d="M1619.51 9.54393 L1627 9.54393 L1627 46.7717 L1649.24 27.2059 L1658.76 27.2059 L1634.7 48.4326 L1659.77 72.576 L1650.05 72.576 L1627 50.4176 L1627 72.576 L1619.51 72.576 L1619.51 9.54393 Z" fill="#000000" fill-rule="nonzero" fill-opacity="1" /><path clip-path="url(#clip830)" d="M1703.68 48.0275 L1703.68 51.6733 L1669.41 51.6733 Q1669.9 59.3701 1674.03 63.421 Q1678.2 67.4314 1685.62 67.4314 Q1689.91 67.4314 1693.92 66.3781 Q1697.97 65.3249 1701.94 63.2184 L1701.94 70.267 Q1697.93 71.9684 1693.72 72.8596 Q1689.51 73.7508 1685.17 73.7508 Q1674.31 73.7508 1667.96 67.4314 Q1661.64 61.1119 1661.64 50.3365 Q1661.64 39.1965 1667.63 32.6746 Q1673.67 26.1121 1683.88 26.1121 Q1693.03 26.1121 1698.34 32.0264 Q1703.68 37.9003 1703.68 48.0275 M1696.23 45.84 Q1696.15 39.7232 1692.79 36.0774 Q1689.47 32.4315 1683.96 32.4315 Q1677.72 32.4315 1673.95 35.9558 Q1670.22 39.4801 1669.66 45.8805 L1696.23 45.84 Z" fill="#000000" fill-rule="nonzero" fill-opacity="1" /><path clip-path="url(#clip830)" d="M1742.21 34.1734 Q1740.95 33.4443 1739.45 33.1202 Q1738 32.7556 1736.21 32.7556 Q1729.89 32.7556 1726.49 36.8875 Q1723.13 40.9789 1723.13 48.6757 L1723.13 72.576 L1715.63 72.576 L1715.63 27.2059 L1723.13 27.2059 L1723.13 34.2544 Q1725.48 30.1225 1729.25 28.1376 Q1733.01 26.1121 1738.4 26.1121 Q1739.17 26.1121 1740.1 26.2337 Q1741.03 26.3147 1742.17 26.5172 L1742.21 34.1734 Z" fill="#000000" fill-rule="nonzero" fill-opacity="1" /><path clip-path="url(#clip830)" d="M1786.28 45.1919 L1786.28 72.576 L1778.83 72.576 L1778.83 45.4349 Q1778.83 38.994 1776.32 35.7938 Q1773.81 32.5936 1768.78 32.5936 Q1762.75 32.5936 1759.26 36.4419 Q1755.78 40.2903 1755.78 46.9338 L1755.78 72.576 L1748.28 72.576 L1748.28 27.2059 L1755.78 27.2059 L1755.78 34.2544 Q1758.45 30.163 1762.06 28.1376 Q1765.7 26.1121 1770.44 26.1121 Q1778.26 26.1121 1782.27 30.9732 Q1786.28 35.7938 1786.28 45.1919 Z" fill="#000000" fill-rule="nonzero" fill-opacity="1" /><path clip-path="url(#clip830)" d="M1839.96 48.0275 L1839.96 51.6733 L1805.69 51.6733 Q1806.17 59.3701 1810.3 63.421 Q1814.48 67.4314 1821.89 67.4314 Q1826.18 67.4314 1830.19 66.3781 Q1834.24 65.3249 1838.21 63.2184 L1838.21 70.267 Q1834.2 71.9684 1829.99 72.8596 Q1825.78 73.7508 1821.44 73.7508 Q1810.59 73.7508 1804.23 67.4314 Q1797.91 61.1119 1797.91 50.3365 Q1797.91 39.1965 1803.9 32.6746 Q1809.94 26.1121 1820.15 26.1121 Q1829.3 26.1121 1834.61 32.0264 Q1839.96 37.9003 1839.96 48.0275 M1832.5 45.84 Q1832.42 39.7232 1829.06 36.0774 Q1825.74 32.4315 1820.23 32.4315 Q1813.99 32.4315 1810.22 35.9558 Q1806.5 39.4801 1805.93 45.8805 L1832.5 45.84 Z" fill="#000000" fill-rule="nonzero" fill-opacity="1" /><path clip-path="url(#clip830)" d="M1852.19 9.54393 L1859.64 9.54393 L1859.64 72.576 L1852.19 72.576 L1852.19 9.54393 Z" fill="#000000" fill-rule="nonzero" fill-opacity="1" /><path clip-path="url(#clip830)" d="M1930.53 28.5427 L1930.53 35.5912 Q1927.37 33.9709 1923.97 33.1607 Q1920.57 32.3505 1916.92 32.3505 Q1911.37 32.3505 1908.58 34.0519 Q1905.82 35.7533 1905.82 39.156 Q1905.82 41.7486 1907.81 43.2475 Q1909.79 44.7058 1915.79 46.0426 L1918.34 46.6097 Q1926.28 48.3111 1929.6 51.4303 Q1932.97 54.509 1932.97 60.0587 Q1932.97 66.3781 1927.94 70.0644 Q1922.96 73.7508 1914.21 73.7508 Q1910.56 73.7508 1906.59 73.0216 Q1902.66 72.3329 1898.29 70.9151 L1898.29 63.2184 Q1902.42 65.3654 1906.43 66.4591 Q1910.44 67.5124 1914.37 67.5124 Q1919.64 67.5124 1922.47 65.73 Q1925.31 63.9071 1925.31 60.6258 Q1925.31 57.5877 1923.24 55.9673 Q1921.22 54.3469 1914.29 52.8481 L1911.7 52.2405 Q1904.77 50.7821 1901.69 47.7845 Q1898.61 44.7463 1898.61 39.4801 Q1898.61 33.0797 1903.15 29.5959 Q1907.69 26.1121 1916.03 26.1121 Q1920.16 26.1121 1923.81 26.7198 Q1927.46 27.3274 1930.53 28.5427 Z" fill="#000000" fill-rule="nonzero" fill-opacity="1" /><path clip-path="url(#clip830)" d="M1977.48 28.9478 L1977.48 35.9153 Q1974.32 34.1734 1971.12 33.3227 Q1967.97 32.4315 1964.72 32.4315 Q1957.47 32.4315 1953.46 37.0496 Q1949.45 41.6271 1949.45 49.9314 Q1949.45 58.2358 1953.46 62.8538 Q1957.47 67.4314 1964.72 67.4314 Q1967.97 67.4314 1971.12 66.5807 Q1974.32 65.6895 1977.48 63.9476 L1977.48 70.8341 Q1974.37 72.2924 1971 73.0216 Q1967.68 73.7508 1963.91 73.7508 Q1953.67 73.7508 1947.63 67.3098 Q1941.59 60.8689 1941.59 49.9314 Q1941.59 38.832 1947.67 32.472 Q1953.79 26.1121 1964.4 26.1121 Q1967.84 26.1121 1971.12 26.8413 Q1974.41 27.5299 1977.48 28.9478 Z" fill="#000000" fill-rule="nonzero" fill-opacity="1" /><path clip-path="url(#clip830)" d="M2011.07 49.7694 Q2002.03 49.7694 1998.55 51.8354 Q1995.07 53.9013 1995.07 58.8839 Q1995.07 62.8538 1997.66 65.2034 Q2000.29 67.5124 2004.79 67.5124 Q2010.99 67.5124 2014.71 63.1374 Q2018.48 58.7219 2018.48 51.4303 L2018.48 49.7694 L2011.07 49.7694 M2025.93 46.6907 L2025.93 72.576 L2018.48 72.576 L2018.48 65.6895 Q2015.93 69.8214 2012.12 71.8063 Q2008.31 73.7508 2002.8 73.7508 Q1995.84 73.7508 1991.7 69.8619 Q1987.61 65.9325 1987.61 59.3701 Q1987.61 51.7138 1992.72 47.825 Q1997.86 43.9361 2008.03 43.9361 L2018.48 43.9361 L2018.48 43.2069 Q2018.48 38.0623 2015.08 35.2672 Q2011.71 32.4315 2005.6 32.4315 Q2001.71 32.4315 1998.02 33.3632 Q1994.34 34.295 1990.93 36.1584 L1990.93 29.2718 Q1995.03 27.692 1998.87 26.9223 Q2002.72 26.1121 2006.37 26.1121 Q2016.21 26.1121 2021.07 31.2163 Q2025.93 36.3204 2025.93 46.6907 Z" fill="#000000" fill-rule="nonzero" fill-opacity="1" /><path clip-path="url(#clip830)" d="M2041.29 9.54393 L2048.74 9.54393 L2048.74 72.576 L2041.29 72.576 L2041.29 9.54393 Z" fill="#000000" fill-rule="nonzero" fill-opacity="1" /><path clip-path="url(#clip830)" d="M2064.34 27.2059 L2071.79 27.2059 L2071.79 72.576 L2064.34 72.576 L2064.34 27.2059 M2064.34 9.54393 L2071.79 9.54393 L2071.79 18.9825 L2064.34 18.9825 L2064.34 9.54393 Z" fill="#000000" fill-rule="nonzero" fill-opacity="1" /><path clip-path="url(#clip830)" d="M2125.1 45.1919 L2125.1 72.576 L2117.65 72.576 L2117.65 45.4349 Q2117.65 38.994 2115.13 35.7938 Q2112.62 32.5936 2107.6 32.5936 Q2101.56 32.5936 2098.08 36.4419 Q2094.6 40.2903 2094.6 46.9338 L2094.6 72.576 L2087.1 72.576 L2087.1 27.2059 L2094.6 27.2059 L2094.6 34.2544 Q2097.27 30.163 2100.88 28.1376 Q2104.52 26.1121 2109.26 26.1121 Q2117.08 26.1121 2121.09 30.9732 Q2125.1 35.7938 2125.1 45.1919 Z" fill="#000000" fill-rule="nonzero" fill-opacity="1" /><path clip-path="url(#clip830)" d="M2169.82 49.3643 Q2169.82 41.2625 2166.46 36.8065 Q2163.14 32.3505 2157.1 32.3505 Q2151.11 32.3505 2147.74 36.8065 Q2144.42 41.2625 2144.42 49.3643 Q2144.42 57.4256 2147.74 61.8816 Q2151.11 66.3376 2157.1 66.3376 Q2163.14 66.3376 2166.46 61.8816 Q2169.82 57.4256 2169.82 49.3643 M2177.28 66.9452 Q2177.28 78.5308 2172.13 84.1616 Q2166.99 89.8329 2156.37 89.8329 Q2152.44 89.8329 2148.96 89.2252 Q2145.48 88.6581 2142.19 87.4428 L2142.19 80.1917 Q2145.48 81.9741 2148.68 82.8248 Q2151.88 83.6755 2155.2 83.6755 Q2162.53 83.6755 2166.18 79.8271 Q2169.82 76.0193 2169.82 68.282 L2169.82 64.5957 Q2167.51 68.6061 2163.91 70.5911 Q2160.3 72.576 2155.28 72.576 Q2146.93 72.576 2141.83 66.2161 Q2136.73 59.8562 2136.73 49.3643 Q2136.73 38.832 2141.83 32.472 Q2146.93 26.1121 2155.28 26.1121 Q2160.3 26.1121 2163.91 28.0971 Q2167.51 30.082 2169.82 34.0924 L2169.82 27.2059 L2177.28 27.2059 L2177.28 66.9452 Z" fill="#000000" fill-rule="nonzero" fill-opacity="1" /><polyline clip-path="url(#clip831)" style="stroke:#008080; stroke-linecap:round; stroke-linejoin:round; stroke-width:8; stroke-opacity:1; fill:none" points="294.164,1688.65 414.071,1608.45 533.979,1528.34 653.887,1448.33 773.794,1368.38 893.702,1288.5 1013.61,1208.66 1133.52,1128.87 1253.42,1049.11 1373.33,969.387 1493.24,889.69 1613.15,810.019 1733.06,730.368 1852.96,650.737 1972.87,571.123 2092.78,491.524 2212.69,411.939 2332.59,332.367 2452.5,252.805 2572.41,173.254 "/>
<polyline clip-path="url(#clip831)" style="stroke:#ff7f50; stroke-linecap:round; stroke-linejoin:round; stroke-width:8; stroke-opacity:1; fill:none" points="294.164,975.501 414.071,970.53 533.979,965.593 653.887,960.688 773.794,955.815 893.702,950.972 1013.61,946.159 1133.52,941.375 1253.42,936.619 1373.33,931.89 1493.24,927.187 1613.15,922.51 1733.06,917.858 1852.96,913.231 1972.87,908.627 2092.78,904.046 2212.69,899.487 2332.59,894.951 2452.5,890.435 2572.41,885.941 "/>
<polyline clip-path="url(#clip831)" style="stroke:#808080; stroke-linecap:round; stroke-linejoin:round; stroke-width:4; stroke-opacity:1; fill:none" stroke-dasharray="16, 10" points="-2189.12,866.864 5055.7,866.864 "/>
<polyline clip-path="url(#clip831)" style="stroke:#808080; stroke-linecap:round; stroke-linejoin:round; stroke-width:4; stroke-opacity:1; fill:none" stroke-dasharray="2, 4" points="1433.29,3340.44 1433.29,-1478.53 "/>
<path clip-path="url(#clip830)" d="M306.314 388.696 L1131.67 388.696 L1131.67 181.336 L306.314 181.336  Z" fill="#ffffff" fill-rule="evenodd" fill-opacity="1"/>
<polyline clip-path="url(#clip830)" style="stroke:#000000; stroke-linecap:round; stroke-linejoin:round; stroke-width:4; stroke-opacity:1; fill:none" points="306.314,388.696 1131.67,388.696 1131.67,181.336 306.314,181.336 306.314,388.696 "/>
<polyline clip-path="url(#clip830)" style="stroke:#008080; stroke-linecap:round; stroke-linejoin:round; stroke-width:8; stroke-opacity:1; fill:none" points="333.147,233.176 494.143,233.176 "/>
<path clip-path="url(#clip830)" d="M543.221 217.031 L543.221 221.591 Q540.559 220.318 538.198 219.693 Q535.837 219.068 533.638 219.068 Q529.818 219.068 527.735 220.549 Q525.675 222.031 525.675 224.762 Q525.675 227.054 527.041 228.234 Q528.429 229.392 532.272 230.109 L535.096 230.688 Q540.327 231.683 542.804 234.206 Q545.304 236.706 545.304 240.919 Q545.304 245.942 541.925 248.535 Q538.568 251.128 532.064 251.128 Q529.61 251.128 526.832 250.572 Q524.078 250.016 521.115 248.929 L521.115 244.114 Q523.962 245.711 526.693 246.521 Q529.425 247.331 532.064 247.331 Q536.068 247.331 538.244 245.757 Q540.42 244.183 540.42 241.267 Q540.42 238.72 538.846 237.285 Q537.295 235.85 533.73 235.132 L530.883 234.577 Q525.652 233.535 523.314 231.313 Q520.976 229.091 520.976 225.132 Q520.976 220.549 524.193 217.91 Q527.434 215.271 533.105 215.271 Q535.536 215.271 538.059 215.711 Q540.582 216.151 543.221 217.031 Z" fill="#000000" fill-rule="nonzero" fill-opacity="1" /><path clip-path="url(#clip830)" d="M571.068 225.526 L571.068 229.507 Q569.263 228.512 567.434 228.026 Q565.628 227.517 563.776 227.517 Q559.633 227.517 557.341 230.155 Q555.05 232.771 555.05 237.517 Q555.05 242.262 557.341 244.901 Q559.633 247.516 563.776 247.516 Q565.628 247.516 567.434 247.03 Q569.263 246.521 571.068 245.526 L571.068 249.461 Q569.286 250.294 567.364 250.711 Q565.466 251.128 563.313 251.128 Q557.457 251.128 554.008 247.447 Q550.559 243.767 550.559 237.517 Q550.559 231.174 554.031 227.54 Q557.526 223.906 563.591 223.906 Q565.559 223.906 567.434 224.322 Q569.309 224.716 571.068 225.526 Z" fill="#000000" fill-rule="nonzero" fill-opacity="1" /><path clip-path="url(#clip830)" d="M590.258 237.424 Q585.096 237.424 583.105 238.604 Q581.114 239.785 581.114 242.632 Q581.114 244.901 582.596 246.243 Q584.1 247.563 586.67 247.563 Q590.211 247.563 592.341 245.063 Q594.494 242.54 594.494 238.373 L594.494 237.424 L590.258 237.424 M598.753 235.665 L598.753 250.456 L594.494 250.456 L594.494 246.521 Q593.036 248.882 590.86 250.016 Q588.684 251.128 585.536 251.128 Q581.554 251.128 579.193 248.905 Q576.855 246.66 576.855 242.91 Q576.855 238.535 579.772 236.313 Q582.712 234.091 588.522 234.091 L594.494 234.091 L594.494 233.674 Q594.494 230.734 592.549 229.137 Q590.628 227.517 587.133 227.517 Q584.911 227.517 582.804 228.049 Q580.698 228.581 578.753 229.646 L578.753 225.711 Q581.091 224.808 583.29 224.368 Q585.489 223.906 587.573 223.906 Q593.198 223.906 595.975 226.822 Q598.753 229.739 598.753 235.665 Z" fill="#000000" fill-rule="nonzero" fill-opacity="1" /><path clip-path="url(#clip830)" d="M607.526 214.438 L611.785 214.438 L611.785 250.456 L607.526 250.456 L607.526 214.438 Z" fill="#000000" fill-rule="nonzero" fill-opacity="1" /><path clip-path="url(#clip830)" d="M642.873 236.429 L642.873 238.512 L623.29 238.512 Q623.568 242.91 625.929 245.225 Q628.313 247.516 632.549 247.516 Q635.003 247.516 637.295 246.915 Q639.609 246.313 641.878 245.109 L641.878 249.137 Q639.586 250.109 637.179 250.618 Q634.771 251.128 632.295 251.128 Q626.091 251.128 622.457 247.516 Q618.846 243.905 618.846 237.748 Q618.846 231.382 622.271 227.655 Q625.721 223.906 631.554 223.906 Q636.785 223.906 639.818 227.285 Q642.873 230.642 642.873 236.429 M638.614 235.179 Q638.568 231.683 636.646 229.6 Q634.748 227.517 631.6 227.517 Q628.035 227.517 625.883 229.53 Q623.753 231.544 623.429 235.202 L638.614 235.179 Z" fill="#000000" fill-rule="nonzero" fill-opacity="1" /><path clip-path="url(#clip830)" d="M669.794 219.739 L669.794 232.725 L675.674 232.725 Q678.938 232.725 680.72 231.035 Q682.503 229.345 682.503 226.22 Q682.503 223.118 680.72 221.429 Q678.938 219.739 675.674 219.739 L669.794 219.739 M665.118 215.896 L675.674 215.896 Q681.484 215.896 684.447 218.535 Q687.433 221.151 687.433 226.22 Q687.433 231.336 684.447 233.952 Q681.484 236.567 675.674 236.567 L669.794 236.567 L669.794 250.456 L665.118 250.456 L665.118 215.896 Z" fill="#000000" fill-rule="nonzero" fill-opacity="1" /><path clip-path="url(#clip830)" d="M718.822 214.484 Q715.72 219.808 714.215 225.017 Q712.711 230.225 712.711 235.572 Q712.711 240.919 714.215 246.174 Q715.743 251.405 718.822 256.706 L715.118 256.706 Q711.646 251.266 709.91 246.012 Q708.197 240.757 708.197 235.572 Q708.197 230.41 709.91 225.179 Q711.623 219.947 715.118 214.484 L718.822 214.484 Z" fill="#000000" fill-rule="nonzero" fill-opacity="1" /><path clip-path="url(#clip830)" d="M743.613 225.294 L743.613 229.322 Q741.808 228.396 739.863 227.933 Q737.919 227.47 735.836 227.47 Q732.664 227.47 731.067 228.443 Q729.493 229.415 729.493 231.359 Q729.493 232.841 730.627 233.697 Q731.762 234.53 735.188 235.294 L736.646 235.618 Q741.183 236.591 743.081 238.373 Q745.002 240.132 745.002 243.304 Q745.002 246.915 742.132 249.021 Q739.285 251.128 734.285 251.128 Q732.201 251.128 729.933 250.711 Q727.688 250.317 725.188 249.507 L725.188 245.109 Q727.549 246.336 729.84 246.961 Q732.132 247.563 734.377 247.563 Q737.387 247.563 739.007 246.544 Q740.627 245.503 740.627 243.628 Q740.627 241.892 739.447 240.966 Q738.289 240.04 734.331 239.183 L732.85 238.836 Q728.891 238.003 727.132 236.29 Q725.373 234.554 725.373 231.544 Q725.373 227.887 727.965 225.896 Q730.558 223.906 735.326 223.906 Q737.688 223.906 739.771 224.253 Q741.854 224.6 743.613 225.294 Z" fill="#000000" fill-rule="nonzero" fill-opacity="1" /><path clip-path="url(#clip830)" d="M751.345 240.225 L751.345 224.531 L755.604 224.531 L755.604 240.063 Q755.604 243.743 757.039 245.595 Q758.474 247.424 761.345 247.424 Q764.794 247.424 766.785 245.225 Q768.798 243.026 768.798 239.229 L768.798 224.531 L773.058 224.531 L773.058 250.456 L768.798 250.456 L768.798 246.475 Q767.248 248.836 765.187 249.993 Q763.15 251.128 760.442 251.128 Q755.974 251.128 753.66 248.35 Q751.345 245.572 751.345 240.225 M762.062 223.906 L762.062 223.906 Z" fill="#000000" fill-rule="nonzero" fill-opacity="1" /><path clip-path="url(#clip830)" d="M796.854 228.512 Q796.136 228.095 795.28 227.91 Q794.446 227.702 793.428 227.702 Q789.817 227.702 787.872 230.063 Q785.951 232.401 785.951 236.799 L785.951 250.456 L781.669 250.456 L781.669 224.531 L785.951 224.531 L785.951 228.558 Q787.294 226.197 789.447 225.063 Q791.599 223.906 794.678 223.906 Q795.118 223.906 795.65 223.975 Q796.183 224.021 796.831 224.137 L796.854 228.512 Z" fill="#000000" fill-rule="nonzero" fill-opacity="1" /><path clip-path="url(#clip830)" d="M798.266 224.531 L802.78 224.531 L810.882 246.29 L818.983 224.531 L823.497 224.531 L813.775 250.456 L807.988 250.456 L798.266 224.531 Z" fill="#000000" fill-rule="nonzero" fill-opacity="1" /><path clip-path="url(#clip830)" d="M829.377 224.531 L833.636 224.531 L833.636 250.456 L829.377 250.456 L829.377 224.531 M829.377 214.438 L833.636 214.438 L833.636 219.831 L829.377 219.831 L829.377 214.438 Z" fill="#000000" fill-rule="nonzero" fill-opacity="1" /><path clip-path="url(#clip830)" d="M839.493 224.531 L844.006 224.531 L852.108 246.29 L860.21 224.531 L864.724 224.531 L855.002 250.456 L849.215 250.456 L839.493 224.531 Z" fill="#000000" fill-rule="nonzero" fill-opacity="1" /><path clip-path="url(#clip830)" d="M882.386 237.424 Q877.224 237.424 875.233 238.604 Q873.242 239.785 873.242 242.632 Q873.242 244.901 874.724 246.243 Q876.228 247.563 878.798 247.563 Q882.34 247.563 884.469 245.063 Q886.622 242.54 886.622 238.373 L886.622 237.424 L882.386 237.424 M890.881 235.665 L890.881 250.456 L886.622 250.456 L886.622 246.521 Q885.164 248.882 882.988 250.016 Q880.812 251.128 877.664 251.128 Q873.682 251.128 871.321 248.905 Q868.983 246.66 868.983 242.91 Q868.983 238.535 871.9 236.313 Q874.84 234.091 880.65 234.091 L886.622 234.091 L886.622 233.674 Q886.622 230.734 884.677 229.137 Q882.756 227.517 879.261 227.517 Q877.039 227.517 874.932 228.049 Q872.826 228.581 870.881 229.646 L870.881 225.711 Q873.219 224.808 875.418 224.368 Q877.617 223.906 879.701 223.906 Q885.326 223.906 888.103 226.822 Q890.881 229.739 890.881 235.665 Z" fill="#000000" fill-rule="nonzero" fill-opacity="1" /><path clip-path="url(#clip830)" d="M899.654 214.438 L903.914 214.438 L903.914 250.456 L899.654 250.456 L899.654 214.438 Z" fill="#000000" fill-rule="nonzero" fill-opacity="1" /><path clip-path="url(#clip830)" d="M910.673 235.572 L923.15 235.572 L923.15 239.368 L910.673 239.368 L910.673 235.572 Z" fill="#000000" fill-rule="nonzero" fill-opacity="1" /><path clip-path="url(#clip830)" d="M946.992 237.192 Q946.992 232.563 945.071 230.017 Q943.173 227.47 939.723 227.47 Q936.298 227.47 934.376 230.017 Q932.478 232.563 932.478 237.192 Q932.478 241.799 934.376 244.345 Q936.298 246.891 939.723 246.891 Q943.173 246.891 945.071 244.345 Q946.992 241.799 946.992 237.192 M951.251 247.239 Q951.251 253.859 948.311 257.077 Q945.372 260.317 939.307 260.317 Q937.061 260.317 935.071 259.97 Q933.08 259.646 931.205 258.952 L931.205 254.808 Q933.08 255.827 934.909 256.313 Q936.737 256.799 938.636 256.799 Q942.825 256.799 944.909 254.6 Q946.992 252.424 946.992 248.003 L946.992 245.896 Q945.673 248.188 943.612 249.322 Q941.552 250.456 938.682 250.456 Q933.913 250.456 930.997 246.822 Q928.08 243.188 928.08 237.192 Q928.08 231.174 930.997 227.54 Q933.913 223.906 938.682 223.906 Q941.552 223.906 943.612 225.04 Q945.673 226.174 946.992 228.466 L946.992 224.531 L951.251 224.531 L951.251 247.239 Z" fill="#000000" fill-rule="nonzero" fill-opacity="1" /><path clip-path="url(#clip830)" d="M975.047 228.512 Q974.33 228.095 973.473 227.91 Q972.64 227.702 971.621 227.702 Q968.01 227.702 966.066 230.063 Q964.145 232.401 964.145 236.799 L964.145 250.456 L959.862 250.456 L959.862 224.531 L964.145 224.531 L964.145 228.558 Q965.487 226.197 967.64 225.063 Q969.793 223.906 972.871 223.906 Q973.311 223.906 973.844 223.975 Q974.376 224.021 975.024 224.137 L975.047 228.512 Z" fill="#000000" fill-rule="nonzero" fill-opacity="1" /><path clip-path="url(#clip830)" d="M988.52 227.517 Q985.094 227.517 983.103 230.202 Q981.112 232.864 981.112 237.517 Q981.112 242.169 983.08 244.854 Q985.07 247.516 988.52 247.516 Q991.922 247.516 993.913 244.831 Q995.904 242.146 995.904 237.517 Q995.904 232.91 993.913 230.225 Q991.922 227.517 988.52 227.517 M988.52 223.906 Q994.075 223.906 997.246 227.517 Q1000.42 231.128 1000.42 237.517 Q1000.42 243.882 997.246 247.516 Q994.075 251.128 988.52 251.128 Q982.941 251.128 979.77 247.516 Q976.621 243.882 976.621 237.517 Q976.621 231.128 979.77 227.517 Q982.941 223.906 988.52 223.906 Z" fill="#000000" fill-rule="nonzero" fill-opacity="1" /><path clip-path="url(#clip830)" d="M1005 224.531 L1009.26 224.531 L1014.58 244.762 L1019.89 224.531 L1024.91 224.531 L1030.23 244.762 L1035.53 224.531 L1039.79 224.531 L1033.01 250.456 L1027.99 250.456 L1022.41 229.206 L1016.81 250.456 L1011.78 250.456 L1005 224.531 Z" fill="#000000" fill-rule="nonzero" fill-opacity="1" /><path clip-path="url(#clip830)" d="M1050.46 217.169 L1050.46 224.531 L1059.24 224.531 L1059.24 227.841 L1050.46 227.841 L1050.46 241.915 Q1050.46 245.086 1051.32 245.989 Q1052.2 246.891 1054.86 246.891 L1059.24 246.891 L1059.24 250.456 L1054.86 250.456 Q1049.93 250.456 1048.06 248.628 Q1046.18 246.776 1046.18 241.915 L1046.18 227.841 L1043.06 227.841 L1043.06 224.531 L1046.18 224.531 L1046.18 217.169 L1050.46 217.169 Z" fill="#000000" fill-rule="nonzero" fill-opacity="1" /><path clip-path="url(#clip830)" d="M1086.39 234.808 L1086.39 250.456 L1082.13 250.456 L1082.13 234.947 Q1082.13 231.267 1080.69 229.438 Q1079.26 227.609 1076.39 227.609 Q1072.94 227.609 1070.95 229.808 Q1068.96 232.007 1068.96 235.804 L1068.96 250.456 L1064.68 250.456 L1064.68 214.438 L1068.96 214.438 L1068.96 228.558 Q1070.49 226.22 1072.55 225.063 Q1074.63 223.906 1077.34 223.906 Q1081.81 223.906 1084.1 226.683 Q1086.39 229.438 1086.39 234.808 Z" fill="#000000" fill-rule="nonzero" fill-opacity="1" /><path clip-path="url(#clip830)" d="M1094.21 214.484 L1097.92 214.484 Q1101.39 219.947 1103.1 225.179 Q1104.84 230.41 1104.84 235.572 Q1104.84 240.757 1103.1 246.012 Q1101.39 251.266 1097.92 256.706 L1094.21 256.706 Q1097.29 251.405 1098.8 246.174 Q1100.32 240.919 1100.32 235.572 Q1100.32 230.225 1098.8 225.017 Q1097.29 219.808 1094.21 214.484 Z" fill="#000000" fill-rule="nonzero" fill-opacity="1" /><polyline clip-path="url(#clip830)" style="stroke:#ff7f50; stroke-linecap:round; stroke-linejoin:round; stroke-width:8; stroke-opacity:1; fill:none" points="333.147,285.016 494.143,285.016 "/>
<path clip-path="url(#clip830)" d="M543.221 268.871 L543.221 273.431 Q540.559 272.158 538.198 271.533 Q535.837 270.908 533.638 270.908 Q529.818 270.908 527.735 272.389 Q525.675 273.871 525.675 276.602 Q525.675 278.894 527.041 280.074 Q528.429 281.232 532.272 281.949 L535.096 282.528 Q540.327 283.523 542.804 286.046 Q545.304 288.546 545.304 292.759 Q545.304 297.782 541.925 300.375 Q538.568 302.968 532.064 302.968 Q529.61 302.968 526.832 302.412 Q524.078 301.856 521.115 300.769 L521.115 295.954 Q523.962 297.551 526.693 298.361 Q529.425 299.171 532.064 299.171 Q536.068 299.171 538.244 297.597 Q540.42 296.023 540.42 293.107 Q540.42 290.56 538.846 289.125 Q537.295 287.69 533.73 286.972 L530.883 286.417 Q525.652 285.375 523.314 283.153 Q520.976 280.931 520.976 276.972 Q520.976 272.389 524.193 269.75 Q527.434 267.111 533.105 267.111 Q535.536 267.111 538.059 267.551 Q540.582 267.991 543.221 268.871 Z" fill="#000000" fill-rule="nonzero" fill-opacity="1" /><path clip-path="url(#clip830)" d="M571.068 277.366 L571.068 281.347 Q569.263 280.352 567.434 279.866 Q565.628 279.357 563.776 279.357 Q559.633 279.357 557.341 281.995 Q555.05 284.611 555.05 289.357 Q555.05 294.102 557.341 296.741 Q559.633 299.356 563.776 299.356 Q565.628 299.356 567.434 298.87 Q569.263 298.361 571.068 297.366 L571.068 301.301 Q569.286 302.134 567.364 302.551 Q565.466 302.968 563.313 302.968 Q557.457 302.968 554.008 299.287 Q550.559 295.607 550.559 289.357 Q550.559 283.014 554.031 279.38 Q557.526 275.746 563.591 275.746 Q565.559 275.746 567.434 276.162 Q569.309 276.556 571.068 277.366 Z" fill="#000000" fill-rule="nonzero" fill-opacity="1" /><path clip-path="url(#clip830)" d="M590.258 289.264 Q585.096 289.264 583.105 290.444 Q581.114 291.625 581.114 294.472 Q581.114 296.741 582.596 298.083 Q584.1 299.403 586.67 299.403 Q590.211 299.403 592.341 296.903 Q594.494 294.38 594.494 290.213 L594.494 289.264 L590.258 289.264 M598.753 287.505 L598.753 302.296 L594.494 302.296 L594.494 298.361 Q593.036 300.722 590.86 301.856 Q588.684 302.968 585.536 302.968 Q581.554 302.968 579.193 300.745 Q576.855 298.5 576.855 294.75 Q576.855 290.375 579.772 288.153 Q582.712 285.931 588.522 285.931 L594.494 285.931 L594.494 285.514 Q594.494 282.574 592.549 280.977 Q590.628 279.357 587.133 279.357 Q584.911 279.357 582.804 279.889 Q580.698 280.421 578.753 281.486 L578.753 277.551 Q581.091 276.648 583.29 276.208 Q585.489 275.746 587.573 275.746 Q593.198 275.746 595.975 278.662 Q598.753 281.579 598.753 287.505 Z" fill="#000000" fill-rule="nonzero" fill-opacity="1" /><path clip-path="url(#clip830)" d="M607.526 266.278 L611.785 266.278 L611.785 302.296 L607.526 302.296 L607.526 266.278 Z" fill="#000000" fill-rule="nonzero" fill-opacity="1" /><path clip-path="url(#clip830)" d="M642.873 288.269 L642.873 290.352 L623.29 290.352 Q623.568 294.75 625.929 297.065 Q628.313 299.356 632.549 299.356 Q635.003 299.356 637.295 298.755 Q639.609 298.153 641.878 296.949 L641.878 300.977 Q639.586 301.949 637.179 302.458 Q634.771 302.968 632.295 302.968 Q626.091 302.968 622.457 299.356 Q618.846 295.745 618.846 289.588 Q618.846 283.222 622.271 279.495 Q625.721 275.746 631.554 275.746 Q636.785 275.746 639.818 279.125 Q642.873 282.482 642.873 288.269 M638.614 287.019 Q638.568 283.523 636.646 281.44 Q634.748 279.357 631.6 279.357 Q628.035 279.357 625.883 281.37 Q623.753 283.384 623.429 287.042 L638.614 287.019 Z" fill="#000000" fill-rule="nonzero" fill-opacity="1" /><path clip-path="url(#clip830)" d="M665.118 267.736 L684.979 267.736 L684.979 271.671 L669.794 271.671 L669.794 281.857 L683.498 281.857 L683.498 285.792 L669.794 285.792 L669.794 302.296 L665.118 302.296 L665.118 267.736 Z" fill="#000000" fill-rule="nonzero" fill-opacity="1" /><path clip-path="url(#clip830)" d="M717.502 266.324 Q714.401 271.648 712.896 276.857 Q711.391 282.065 711.391 287.412 Q711.391 292.759 712.896 298.014 Q714.424 303.245 717.502 308.546 L713.799 308.546 Q710.327 303.106 708.59 297.852 Q706.878 292.597 706.878 287.412 Q706.878 282.25 708.59 277.019 Q710.303 271.787 713.799 266.324 L717.502 266.324 Z" fill="#000000" fill-rule="nonzero" fill-opacity="1" /><path clip-path="url(#clip830)" d="M738.891 266.278 L738.891 269.82 L734.817 269.82 Q732.526 269.82 731.623 270.746 Q730.743 271.671 730.743 274.079 L730.743 276.371 L737.757 276.371 L737.757 279.681 L730.743 279.681 L730.743 302.296 L726.461 302.296 L726.461 279.681 L722.387 279.681 L722.387 276.371 L726.461 276.371 L726.461 274.565 Q726.461 270.236 728.475 268.269 Q730.489 266.278 734.863 266.278 L738.891 266.278 Z" fill="#000000" fill-rule="nonzero" fill-opacity="1" /><path clip-path="url(#clip830)" d="M764.632 288.269 L764.632 290.352 L745.049 290.352 Q745.326 294.75 747.687 297.065 Q750.072 299.356 754.308 299.356 Q756.762 299.356 759.053 298.755 Q761.368 298.153 763.636 296.949 L763.636 300.977 Q761.345 301.949 758.937 302.458 Q756.53 302.968 754.053 302.968 Q747.85 302.968 744.215 299.356 Q740.604 295.745 740.604 289.588 Q740.604 283.222 744.03 279.495 Q747.479 275.746 753.312 275.746 Q758.544 275.746 761.576 279.125 Q764.632 282.482 764.632 288.269 M760.373 287.019 Q760.326 283.523 758.405 281.44 Q756.507 279.357 753.359 279.357 Q749.794 279.357 747.641 281.37 Q745.512 283.384 745.188 287.042 L760.373 287.019 Z" fill="#000000" fill-rule="nonzero" fill-opacity="1" /><path clip-path="url(#clip830)" d="M790.28 277.366 L790.28 281.347 Q788.474 280.352 786.646 279.866 Q784.84 279.357 782.988 279.357 Q778.845 279.357 776.553 281.995 Q774.261 284.611 774.261 289.357 Q774.261 294.102 776.553 296.741 Q778.845 299.356 782.988 299.356 Q784.84 299.356 786.646 298.87 Q788.474 298.361 790.28 297.366 L790.28 301.301 Q788.497 302.134 786.576 302.551 Q784.678 302.968 782.525 302.968 Q776.669 302.968 773.22 299.287 Q769.771 295.607 769.771 289.357 Q769.771 283.014 773.243 279.38 Q776.738 275.746 782.803 275.746 Q784.771 275.746 786.646 276.162 Q788.521 276.556 790.28 277.366 Z" fill="#000000" fill-rule="nonzero" fill-opacity="1" /><path clip-path="url(#clip830)" d="M797.247 292.065 L797.247 276.371 L801.507 276.371 L801.507 291.903 Q801.507 295.583 802.942 297.435 Q804.377 299.264 807.247 299.264 Q810.696 299.264 812.687 297.065 Q814.701 294.866 814.701 291.069 L814.701 276.371 L818.96 276.371 L818.96 302.296 L814.701 302.296 L814.701 298.315 Q813.15 300.676 811.09 301.833 Q809.053 302.968 806.345 302.968 Q801.877 302.968 799.562 300.19 Q797.247 297.412 797.247 292.065 M807.965 275.746 L807.965 275.746 Z" fill="#000000" fill-rule="nonzero" fill-opacity="1" /><path clip-path="url(#clip830)" d="M849.284 286.648 L849.284 302.296 L845.025 302.296 L845.025 286.787 Q845.025 283.107 843.59 281.278 Q842.155 279.449 839.284 279.449 Q835.835 279.449 833.844 281.648 Q831.854 283.847 831.854 287.644 L831.854 302.296 L827.571 302.296 L827.571 276.371 L831.854 276.371 L831.854 280.398 Q833.381 278.06 835.442 276.903 Q837.525 275.746 840.233 275.746 Q844.701 275.746 846.993 278.523 Q849.284 281.278 849.284 286.648 Z" fill="#000000" fill-rule="nonzero" fill-opacity="1" /><path clip-path="url(#clip830)" d="M874.84 280.306 L874.84 266.278 L879.099 266.278 L879.099 302.296 L874.84 302.296 L874.84 298.407 Q873.497 300.722 871.437 301.856 Q869.4 302.968 866.529 302.968 Q861.83 302.968 858.867 299.218 Q855.928 295.468 855.928 289.357 Q855.928 283.245 858.867 279.495 Q861.83 275.746 866.529 275.746 Q869.4 275.746 871.437 276.88 Q873.497 277.991 874.84 280.306 M860.326 289.357 Q860.326 294.056 862.247 296.741 Q864.191 299.403 867.571 299.403 Q870.951 299.403 872.895 296.741 Q874.84 294.056 874.84 289.357 Q874.84 284.657 872.895 281.995 Q870.951 279.31 867.571 279.31 Q864.191 279.31 862.247 281.995 Q860.326 284.657 860.326 289.357 Z" fill="#000000" fill-rule="nonzero" fill-opacity="1" /><path clip-path="url(#clip830)" d="M887.872 276.371 L892.131 276.371 L892.131 302.296 L887.872 302.296 L887.872 276.371 M887.872 266.278 L892.131 266.278 L892.131 271.671 L887.872 271.671 L887.872 266.278 Z" fill="#000000" fill-rule="nonzero" fill-opacity="1" /><path clip-path="url(#clip830)" d="M905.256 269.009 L905.256 276.371 L914.029 276.371 L914.029 279.681 L905.256 279.681 L905.256 293.755 Q905.256 296.926 906.113 297.829 Q906.992 298.731 909.654 298.731 L914.029 298.731 L914.029 302.296 L909.654 302.296 Q904.724 302.296 902.849 300.468 Q900.974 298.616 900.974 293.755 L900.974 279.681 L897.849 279.681 L897.849 276.371 L900.974 276.371 L900.974 269.009 L905.256 269.009 Z" fill="#000000" fill-rule="nonzero" fill-opacity="1" /><path clip-path="url(#clip830)" d="M930.418 304.704 Q928.612 309.333 926.899 310.745 Q925.187 312.157 922.316 312.157 L918.913 312.157 L918.913 308.593 L921.413 308.593 Q923.173 308.593 924.145 307.759 Q925.117 306.926 926.298 303.824 L927.062 301.88 L916.575 276.371 L921.089 276.371 L929.191 296.648 L937.293 276.371 L941.807 276.371 L930.418 304.704 Z" fill="#000000" fill-rule="nonzero" fill-opacity="1" /><path clip-path="url(#clip830)" d="M947.015 266.324 L950.719 266.324 Q954.191 271.787 955.904 277.019 Q957.64 282.25 957.64 287.412 Q957.64 292.597 955.904 297.852 Q954.191 303.106 950.719 308.546 L947.015 308.546 Q950.094 303.245 951.598 298.014 Q953.126 292.759 953.126 287.412 Q953.126 282.065 951.598 276.857 Q950.094 271.648 947.015 266.324 Z" fill="#000000" fill-rule="nonzero" fill-opacity="1" /><polyline clip-path="url(#clip830)" style="stroke:#808080; stroke-linecap:round; stroke-linejoin:round; stroke-width:4; stroke-opacity:1; fill:none" stroke-dasharray="16, 10" points="333.147,336.856 494.143,336.856 "/>
<path clip-path="url(#clip830)" d="M534.24 322.169 L546.207 354.136 L541.693 354.136 L534.425 334.97 L525.49 354.136 L520.976 354.136 L532.341 329.275 L530.628 324.692 Q529.541 321.775 527.064 321.775 L524.841 321.775 L524.841 318.118 L527.55 318.164 Q532.781 318.234 534.24 322.169 Z" fill="#000000" fill-rule="nonzero" fill-opacity="1" /><path clip-path="url(#clip830)" d="M567.712 332.609 L597.387 332.609 L597.387 336.497 L567.712 336.497 L567.712 332.609 M567.712 342.053 L597.387 342.053 L597.387 345.988 L567.712 345.988 L567.712 342.053 Z" fill="#000000" fill-rule="nonzero" fill-opacity="1" /><path clip-path="url(#clip830)" d="M623.359 350.201 L630.998 350.201 L630.998 323.836 L622.688 325.502 L622.688 321.243 L630.952 319.576 L635.628 319.576 L635.628 350.201 L643.267 350.201 L643.267 354.136 L623.359 354.136 L623.359 350.201 Z" fill="#000000" fill-rule="nonzero" fill-opacity="1" /></svg>
