<?xml version="1.0" encoding="utf-8"?>
<svg xmlns="http://www.w3.org/2000/svg" xmlns:xlink="http://www.w3.org/1999/xlink" width="672" height="480" viewBox="0 0 2688 1920">
<defs>
  <clipPath id="clip800">
    <rect x="0" y="0" width="2688" height="1920"/>
  </clipPath>
</defs>
<path clip-path="url(#clip800)" d="M0 1920 L2688 1920 L2688 -4.26326e-14 L0 -4.26326e-14  Z" fill="#ffffff" fill-rule="evenodd" fill-opacity="1"/>
<defs>
  <clipPath id="clip801">
    <rect x="255" y="127" width="2386" height="1607"/>
  </clipPath>
</defs>
<path clip-path="url(#clip800)" d="M255.978 1734.12 L2640.76 1734.12 L2640.76 127.792 L255.978 127.792  Z" fill="#ffffff" fill-rule="evenodd" fill-opacity="1"/>
<polyline clip-path="url(#clip801)" style="stroke:#000000; stroke-linecap:round; stroke-linejoin:round; stroke-width:2; stroke-opacity:0.1; fill:none" points="323.472,1734.12 323.472,127.792 "/>
<polyline clip-path="url(#clip801)" style="stroke:#000000; stroke-linecap:round; stroke-linejoin:round; stroke-width:2; stroke-opacity:0.1; fill:none" points="1073.4,1734.12 1073.4,127.792 "/>
<polyline clip-path="url(#clip801)" style="stroke:#000000; stroke-linecap:round; stroke-linejoin:round; stroke-width:2; stroke-opacity:0.1; fill:none" points="1823.33,1734.12 1823.33,127.792 "/>
<polyline clip-path="url(#clip801)" style="stroke:#000000; stroke-linecap:round; stroke-linejoin:round; stroke-width:2; stroke-opacity:0.1; fill:none" points="2573.26,1734.12 2573.26,127.792 "/>
<polyline clip-path="url(#clip801)" style="stroke:#000000; stroke-linecap:round; stroke-linejoin:round; stroke-width:2; stroke-opacity:0.1; fill:none" points="255.978,1551.67 2640.76,1551.67 "/>
<polyline clip-path="url(#clip801)" style="stroke:#000000; stroke-linecap:round; stroke-linejoin:round; stroke-width:2; stroke-opacity:0.1; fill:none" points="255.978,1275.98 2640.76,1275.98 "/>
<polyline clip-path="url(#clip801)" style="stroke:#000000; stroke-linecap:round; stroke-linejoin:round; stroke-width:2; stroke-opacity:0.1; fill:none" points="255.978,1000.3 2640.76,1000.3 "/>
<polyline clip-path="url(#clip801)" style="stroke:#000000; stroke-linecap:round; stroke-linejoin:round; stroke-width:2; stroke-opacity:0.1; fill:none" points="255.978,724.62 2640.76,724.62 "/>
<polyline clip-path="url(#clip801)" style="stroke:#000000; stroke-linecap:round; stroke-linejoin:round; stroke-width:2; stroke-opacity:0.1; fill:none" points="255.978,448.937 2640.76,448.937 "/>
<polyline clip-path="url(#clip801)" style="stroke:#000000; stroke-linecap:round; stroke-linejoin:round; stroke-width:2; stroke-opacity:0.1; fill:none" points="255.978,173.254 2640.76,173.254 "/>
<polyline clip-path="url(#clip800)" style="stroke:#000000; stroke-linecap:round; stroke-linejoin:round; stroke-width:4; stroke-opacity:1; fill:none" points="255.978,1734.12 2640.76,1734.12 "/>
<polyline clip-path="url(#clip800)" style="stroke:#000000; stroke-linecap:round; stroke-linejoin:round; stroke-width:4; stroke-opacity:1; fill:none" points="323.472,1734.12 323.472,1715.22 "/>
<polyline clip-path="url(#clip800)" style="stroke:#000000; stroke-linecap:round; stroke-linejoin:round; stroke-width:4; stroke-opacity:1; fill:none" points="1073.4,1734.12 1073.4,1715.22 "/>
<polyline clip-path="url(#clip800)" style="stroke:#000000; stroke-linecap:round; stroke-linejoin:round; stroke-width:4; stroke-opacity:1; fill:none" points="1823.33,1734.12 1823.33,1715.22 "/>
<polyline clip-path="url(#clip800)" style="stroke:#000000; stroke-linecap:round; stroke-linejoin:round; stroke-width:4; stroke-opacity:1; fill:none" points="2573.26,1734.12 2573.26,1715.22 "/>
<path clip-path="url(#clip800)" d="M300.856 1767.34 Q297.245 1767.34 295.417 1770.9 Q293.611 1774.45 293.611 1781.58 Q293.611 1788.68 295.417 1792.25 Q297.245 1795.79 300.856 1795.79 Q304.491 1795.79 306.296 1792.25 Q308.125 1788.68 308.125 1781.58 Q308.125 1774.45 306.296 1770.9 Q304.491 1767.34 300.856 1767.34 M300.856 1763.64 Q306.667 1763.64 309.722 1768.24 Q312.801 1772.83 312.801 1781.58 Q312.801 1790.3 309.722 1794.91 Q306.667 1799.49 300.856 1799.49 Q295.046 1799.49 291.968 1794.91 Q288.912 1790.3 288.912 1781.58 Q288.912 1772.83 291.968 1768.24 Q295.046 1763.64 300.856 1763.64 Z" fill="#000000" fill-rule="nonzero" fill-opacity="1" /><path clip-path="url(#clip800)" d="M321.018 1792.94 L325.903 1792.94 L325.903 1798.82 L321.018 1798.82 L321.018 1792.94 Z" fill="#000000" fill-rule="nonzero" fill-opacity="1" /><path clip-path="url(#clip800)" d="M346.088 1767.34 Q342.477 1767.34 340.648 1770.9 Q338.842 1774.45 338.842 1781.58 Q338.842 1788.68 340.648 1792.25 Q342.477 1795.79 346.088 1795.79 Q349.722 1795.79 351.527 1792.25 Q353.356 1788.68 353.356 1781.58 Q353.356 1774.45 351.527 1770.9 Q349.722 1767.34 346.088 1767.34 M346.088 1763.64 Q351.898 1763.64 354.953 1768.24 Q358.032 1772.83 358.032 1781.58 Q358.032 1790.3 354.953 1794.91 Q351.898 1799.49 346.088 1799.49 Q340.278 1799.49 337.199 1794.91 Q334.143 1790.3 334.143 1781.58 Q334.143 1772.83 337.199 1768.24 Q340.278 1763.64 346.088 1763.64 Z" fill="#000000" fill-rule="nonzero" fill-opacity="1" /><path clip-path="url(#clip800)" d="M1051.4 1767.34 Q1047.79 1767.34 1045.96 1770.9 Q1044.15 1774.45 1044.15 1781.58 Q1044.15 1788.68 1045.96 1792.25 Q1047.79 1795.79 1051.4 1795.79 Q1055.03 1795.79 1056.84 1792.25 Q1058.67 1788.68 1058.67 1781.58 Q1058.67 1774.45 1056.84 1770.9 Q1055.03 1767.34 1051.4 1767.34 M1051.4 1763.64 Q1057.21 1763.64 1060.27 1768.24 Q1063.34 1772.83 1063.34 1781.58 Q1063.34 1790.3 1060.27 1794.91 Q1057.21 1799.49 1051.4 1799.49 Q1045.59 1799.49 1042.51 1794.91 Q1039.46 1790.3 1039.46 1781.58 Q1039.46 1772.83 1042.51 1768.24 Q1045.59 1763.64 1051.4 1763.64 Z" fill="#000000" fill-rule="nonzero" fill-opacity="1" /><path clip-path="url(#clip800)" d="M1071.56 1792.94 L1076.45 1792.94 L1076.45 1798.82 L1071.56 1798.82 L1071.56 1792.94 Z" fill="#000000" fill-rule="nonzero" fill-opacity="1" /><path clip-path="url(#clip800)" d="M1087.44 1794.89 L1095.08 1794.89 L1095.08 1768.52 L1086.77 1770.19 L1086.77 1765.93 L1095.03 1764.26 L1099.71 1764.26 L1099.71 1794.89 L1107.35 1794.89 L1107.35 1798.82 L1087.44 1798.82 L1087.44 1794.89 Z" fill="#000000" fill-rule="nonzero" fill-opacity="1" /><path clip-path="url(#clip800)" d="M1801.52 1767.34 Q1797.9 1767.34 1796.08 1770.9 Q1794.27 1774.45 1794.27 1781.58 Q1794.27 1788.68 1796.08 1792.25 Q1797.9 1795.79 1801.52 1795.79 Q1805.15 1795.79 1806.95 1792.25 Q1808.78 1788.68 1808.78 1781.58 Q1808.78 1774.45 1806.95 1770.9 Q1805.15 1767.34 1801.52 1767.34 M1801.52 1763.64 Q1807.33 1763.64 1810.38 1768.24 Q1813.46 1772.83 1813.46 1781.58 Q1813.46 1790.3 1810.38 1794.91 Q1807.33 1799.49 1801.52 1799.49 Q1795.7 1799.49 1792.63 1794.91 Q1789.57 1790.3 1789.57 1781.58 Q1789.57 1772.83 1792.63 1768.24 Q1795.7 1763.64 1801.52 1763.64 Z" fill="#000000" fill-rule="nonzero" fill-opacity="1" /><path clip-path="url(#clip800)" d="M1821.68 1792.94 L1826.56 1792.94 L1826.56 1798.82 L1821.68 1798.82 L1821.68 1792.94 Z" fill="#000000" fill-rule="nonzero" fill-opacity="1" /><path clip-path="url(#clip800)" d="M1840.77 1794.89 L1857.09 1794.89 L1857.09 1798.82 L1835.15 1798.82 L1835.15 1794.89 Q1837.81 1792.13 1842.39 1787.5 Q1847 1782.85 1848.18 1781.51 Q1850.43 1778.98 1851.31 1777.25 Q1852.21 1775.49 1852.21 1773.8 Q1852.21 1771.04 1850.26 1769.31 Q1848.34 1767.57 1845.24 1767.57 Q1843.04 1767.57 1840.59 1768.34 Q1838.16 1769.1 1835.38 1770.65 L1835.38 1765.93 Q1838.2 1764.79 1840.66 1764.21 Q1843.11 1763.64 1845.15 1763.64 Q1850.52 1763.64 1853.71 1766.32 Q1856.91 1769.01 1856.91 1773.5 Q1856.91 1775.63 1856.1 1777.55 Q1855.31 1779.45 1853.2 1782.04 Q1852.63 1782.71 1849.52 1785.93 Q1846.42 1789.12 1840.77 1794.89 Z" fill="#000000" fill-rule="nonzero" fill-opacity="1" /><path clip-path="url(#clip800)" d="M2550.97 1767.34 Q2547.36 1767.34 2545.53 1770.9 Q2543.73 1774.45 2543.73 1781.58 Q2543.73 1788.68 2545.53 1792.25 Q2547.36 1795.79 2550.97 1795.79 Q2554.6 1795.79 2556.41 1792.25 Q2558.24 1788.68 2558.24 1781.58 Q2558.24 1774.45 2556.41 1770.9 Q2554.6 1767.34 2550.97 1767.34 M2550.97 1763.64 Q2556.78 1763.64 2559.84 1768.24 Q2562.92 1772.83 2562.92 1781.58 Q2562.92 1790.3 2559.84 1794.91 Q2556.78 1799.49 2550.97 1799.49 Q2545.16 1799.49 2542.08 1794.91 Q2539.03 1790.3 2539.03 1781.58 Q2539.03 1772.83 2542.08 1768.24 Q2545.16 1763.64 2550.97 1763.64 Z" fill="#000000" fill-rule="nonzero" fill-opacity="1" /><path clip-path="url(#clip800)" d="M2571.13 1792.94 L2576.02 1792.94 L2576.02 1798.82 L2571.13 1798.82 L2571.13 1792.94 Z" fill="#000000" fill-rule="nonzero" fill-opacity="1" /><path clip-path="url(#clip800)" d="M2600.37 1780.19 Q2603.73 1780.9 2605.6 1783.17 Q2607.5 1785.44 2607.5 1788.77 Q2607.5 1793.89 2603.98 1796.69 Q2600.46 1799.49 2593.98 1799.49 Q2591.8 1799.49 2589.49 1799.05 Q2587.2 1798.64 2584.74 1797.78 L2584.74 1793.27 Q2586.69 1794.4 2589 1794.98 Q2591.32 1795.56 2593.84 1795.56 Q2598.24 1795.56 2600.53 1793.82 Q2602.85 1792.08 2602.85 1788.77 Q2602.85 1785.72 2600.69 1784.01 Q2598.56 1782.27 2594.74 1782.27 L2590.72 1782.27 L2590.72 1778.43 L2594.93 1778.43 Q2598.38 1778.43 2600.21 1777.06 Q2602.04 1775.67 2602.04 1773.08 Q2602.04 1770.42 2600.14 1769.01 Q2598.26 1767.57 2594.74 1767.57 Q2592.82 1767.57 2590.62 1767.99 Q2588.42 1768.4 2585.79 1769.28 L2585.79 1765.12 Q2588.45 1764.38 2590.76 1764.01 Q2593.1 1763.64 2595.16 1763.64 Q2600.48 1763.64 2603.59 1766.07 Q2606.69 1768.47 2606.69 1772.59 Q2606.69 1775.46 2605.04 1777.46 Q2603.4 1779.42 2600.37 1780.19 Z" fill="#000000" fill-rule="nonzero" fill-opacity="1" /><path clip-path="url(#clip800)" d="M959.895 1835.78 L966.324 1835.78 L966.324 1883.3 L959.895 1883.3 L959.895 1835.78 Z" fill="#000000" fill-rule="nonzero" fill-opacity="1" /><path clip-path="url(#clip800)" d="M1008.5 1861.78 L1008.5 1883.3 L1002.64 1883.3 L1002.64 1861.98 Q1002.64 1856.92 1000.67 1854.4 Q998.694 1851.89 994.747 1851.89 Q990.004 1851.89 987.267 1854.91 Q984.53 1857.93 984.53 1863.15 L984.53 1883.3 L978.642 1883.3 L978.642 1847.65 L984.53 1847.65 L984.53 1853.19 Q986.631 1849.98 989.463 1848.39 Q992.328 1846.79 996.052 1846.79 Q1002.19 1846.79 1005.35 1850.61 Q1008.5 1854.4 1008.5 1861.78 Z" fill="#000000" fill-rule="nonzero" fill-opacity="1" /><path clip-path="url(#clip800)" d="M1025.97 1837.53 L1025.97 1847.65 L1038.03 1847.65 L1038.03 1852.2 L1025.97 1852.2 L1025.97 1871.56 Q1025.97 1875.92 1027.15 1877.16 Q1028.36 1878.4 1032.02 1878.4 L1038.03 1878.4 L1038.03 1883.3 L1032.02 1883.3 Q1025.24 1883.3 1022.66 1880.79 Q1020.08 1878.24 1020.08 1871.56 L1020.08 1852.2 L1015.79 1852.2 L1015.79 1847.65 L1020.08 1847.65 L1020.08 1837.53 L1025.97 1837.53 Z" fill="#000000" fill-rule="nonzero" fill-opacity="1" /><path clip-path="url(#clip800)" d="M1076.23 1864.01 L1076.23 1866.88 L1049.3 1866.88 Q1049.68 1872.92 1052.93 1876.11 Q1056.21 1879.26 1062.03 1879.26 Q1065.41 1879.26 1068.56 1878.43 Q1071.74 1877.6 1074.86 1875.95 L1074.86 1881.49 Q1071.71 1882.82 1068.4 1883.52 Q1065.09 1884.22 1061.68 1884.22 Q1053.15 1884.22 1048.16 1879.26 Q1043.19 1874.29 1043.19 1865.83 Q1043.19 1857.07 1047.9 1851.95 Q1052.64 1846.79 1060.66 1846.79 Q1067.86 1846.79 1072.03 1851.44 Q1076.23 1856.06 1076.23 1864.01 M1070.37 1862.29 Q1070.31 1857.49 1067.67 1854.62 Q1065.06 1851.76 1060.73 1851.76 Q1055.83 1851.76 1052.87 1854.53 Q1049.94 1857.3 1049.49 1862.33 L1070.37 1862.29 Z" fill="#000000" fill-rule="nonzero" fill-opacity="1" /><path clip-path="url(#clip800)" d="M1106.5 1853.13 Q1105.51 1852.55 1104.33 1852.3 Q1103.19 1852.01 1101.79 1852.01 Q1096.82 1852.01 1094.15 1855.26 Q1091.51 1858.47 1091.51 1864.52 L1091.51 1883.3 L1085.62 1883.3 L1085.62 1847.65 L1091.51 1847.65 L1091.51 1853.19 Q1093.35 1849.94 1096.31 1848.39 Q1099.27 1846.79 1103.5 1846.79 Q1104.11 1846.79 1104.84 1846.89 Q1105.57 1846.95 1106.47 1847.11 L1106.5 1853.13 Z" fill="#000000" fill-rule="nonzero" fill-opacity="1" /><path clip-path="url(#clip800)" d="M1105.51 1862.84 L1122.67 1862.84 L1122.67 1868.06 L1105.51 1868.06 L1105.51 1862.84 Z" fill="#000000" fill-rule="nonzero" fill-opacity="1" /><path clip-path="url(#clip800)" d="M1137.66 1877.95 L1137.66 1896.86 L1131.77 1896.86 L1131.77 1847.65 L1137.66 1847.65 L1137.66 1853.06 Q1139.5 1849.88 1142.3 1848.35 Q1145.14 1846.79 1149.05 1846.79 Q1155.54 1846.79 1159.59 1851.95 Q1163.66 1857.11 1163.66 1865.51 Q1163.66 1873.91 1159.59 1879.07 Q1155.54 1884.22 1149.05 1884.22 Q1145.14 1884.22 1142.3 1882.7 Q1139.5 1881.14 1137.66 1877.95 M1157.58 1865.51 Q1157.58 1859.05 1154.91 1855.39 Q1152.27 1851.7 1147.62 1851.7 Q1142.97 1851.7 1140.3 1855.39 Q1137.66 1859.05 1137.66 1865.51 Q1137.66 1871.97 1140.3 1875.66 Q1142.97 1879.32 1147.62 1879.32 Q1152.27 1879.32 1154.91 1875.66 Q1157.58 1871.97 1157.58 1865.51 Z" fill="#000000" fill-rule="nonzero" fill-opacity="1" /><path clip-path="url(#clip800)" d="M1187.18 1851.76 Q1182.47 1851.76 1179.73 1855.45 Q1177 1859.11 1177 1865.51 Q1177 1871.91 1179.7 1875.6 Q1182.44 1879.26 1187.18 1879.26 Q1191.86 1879.26 1194.6 1875.57 Q1197.34 1871.87 1197.34 1865.51 Q1197.34 1859.17 1194.6 1855.48 Q1191.86 1851.76 1187.18 1851.76 M1187.18 1846.79 Q1194.82 1846.79 1199.18 1851.76 Q1203.54 1856.72 1203.54 1865.51 Q1203.54 1874.26 1199.18 1879.26 Q1194.82 1884.22 1187.18 1884.22 Q1179.51 1884.22 1175.15 1879.26 Q1170.82 1874.26 1170.82 1865.51 Q1170.82 1856.72 1175.15 1851.76 Q1179.51 1846.79 1187.18 1846.79 Z" fill="#000000" fill-rule="nonzero" fill-opacity="1" /><path clip-path="url(#clip800)" d="M1218.92 1877.95 L1218.92 1896.86 L1213.03 1896.86 L1213.03 1847.65 L1218.92 1847.65 L1218.92 1853.06 Q1220.76 1849.88 1223.56 1848.35 Q1226.39 1846.79 1230.31 1846.79 Q1236.8 1846.79 1240.85 1851.95 Q1244.92 1857.11 1244.92 1865.51 Q1244.92 1873.91 1240.85 1879.07 Q1236.8 1884.22 1230.31 1884.22 Q1226.39 1884.22 1223.56 1882.7 Q1220.76 1881.14 1218.92 1877.95 M1238.84 1865.51 Q1238.84 1859.05 1236.17 1855.39 Q1233.52 1851.7 1228.88 1851.7 Q1224.23 1851.7 1221.56 1855.39 Q1218.92 1859.05 1218.92 1865.51 Q1218.92 1871.97 1221.56 1875.66 Q1224.23 1879.32 1228.88 1879.32 Q1233.52 1879.32 1236.17 1875.66 Q1238.84 1871.97 1238.84 1865.51 Z" fill="#000000" fill-rule="nonzero" fill-opacity="1" /><path clip-path="url(#clip800)" d="M1254.02 1869.23 L1254.02 1847.65 L1259.88 1847.65 L1259.88 1869.01 Q1259.88 1874.07 1261.85 1876.62 Q1263.83 1879.13 1267.77 1879.13 Q1272.51 1879.13 1275.25 1876.11 Q1278.02 1873.08 1278.02 1867.86 L1278.02 1847.65 L1283.88 1847.65 L1283.88 1883.3 L1278.02 1883.3 L1278.02 1877.83 Q1275.89 1881.07 1273.06 1882.66 Q1270.25 1884.22 1266.53 1884.22 Q1260.39 1884.22 1257.2 1880.4 Q1254.02 1876.59 1254.02 1869.23 M1268.76 1846.79 L1268.76 1846.79 Z" fill="#000000" fill-rule="nonzero" fill-opacity="1" /><path clip-path="url(#clip800)" d="M1295.94 1833.78 L1301.8 1833.78 L1301.8 1883.3 L1295.94 1883.3 L1295.94 1833.78 Z" fill="#000000" fill-rule="nonzero" fill-opacity="1" /><path clip-path="url(#clip800)" d="M1330.25 1865.38 Q1323.15 1865.38 1320.42 1867 Q1317.68 1868.63 1317.68 1872.54 Q1317.68 1875.66 1319.72 1877.51 Q1321.79 1879.32 1325.32 1879.32 Q1330.19 1879.32 1333.12 1875.88 Q1336.08 1872.42 1336.08 1866.69 L1336.08 1865.38 L1330.25 1865.38 M1341.93 1862.96 L1341.93 1883.3 L1336.08 1883.3 L1336.08 1877.89 Q1334.07 1881.14 1331.08 1882.7 Q1328.09 1884.22 1323.76 1884.22 Q1318.28 1884.22 1315.04 1881.17 Q1311.82 1878.08 1311.82 1872.92 Q1311.82 1866.91 1315.83 1863.85 Q1319.88 1860.8 1327.86 1860.8 L1336.08 1860.8 L1336.08 1860.23 Q1336.08 1856.18 1333.4 1853.99 Q1330.76 1851.76 1325.95 1851.76 Q1322.9 1851.76 1320 1852.49 Q1317.11 1853.22 1314.43 1854.69 L1314.43 1849.28 Q1317.65 1848.03 1320.67 1847.43 Q1323.69 1846.79 1326.56 1846.79 Q1334.29 1846.79 1338.11 1850.8 Q1341.93 1854.81 1341.93 1862.96 Z" fill="#000000" fill-rule="nonzero" fill-opacity="1" /><path clip-path="url(#clip800)" d="M1359.79 1837.53 L1359.79 1847.65 L1371.85 1847.65 L1371.85 1852.2 L1359.79 1852.2 L1359.79 1871.56 Q1359.79 1875.92 1360.97 1877.16 Q1362.18 1878.4 1365.84 1878.4 L1371.85 1878.4 L1371.85 1883.3 L1365.84 1883.3 Q1359.06 1883.3 1356.48 1880.79 Q1353.9 1878.24 1353.9 1871.56 L1353.9 1852.2 L1349.6 1852.2 L1349.6 1847.65 L1353.9 1847.65 L1353.9 1837.53 L1359.79 1837.53 Z" fill="#000000" fill-rule="nonzero" fill-opacity="1" /><path clip-path="url(#clip800)" d="M1379.55 1847.65 L1385.41 1847.65 L1385.41 1883.3 L1379.55 1883.3 L1379.55 1847.65 M1379.55 1833.78 L1385.41 1833.78 L1385.41 1841.19 L1379.55 1841.19 L1379.55 1833.78 Z" fill="#000000" fill-rule="nonzero" fill-opacity="1" /><path clip-path="url(#clip800)" d="M1411.48 1851.76 Q1406.77 1851.76 1404.03 1855.45 Q1401.29 1859.11 1401.29 1865.51 Q1401.29 1871.91 1404 1875.6 Q1406.74 1879.26 1411.48 1879.26 Q1416.16 1879.26 1418.89 1875.57 Q1421.63 1871.87 1421.63 1865.51 Q1421.63 1859.17 1418.89 1855.48 Q1416.16 1851.76 1411.48 1851.76 M1411.48 1846.79 Q1419.12 1846.79 1423.48 1851.76 Q1427.84 1856.72 1427.84 1865.51 Q1427.84 1874.26 1423.48 1879.26 Q1419.12 1884.22 1411.48 1884.22 Q1403.81 1884.22 1399.45 1879.26 Q1395.12 1874.26 1395.12 1865.51 Q1395.12 1856.72 1399.45 1851.76 Q1403.81 1846.79 1411.48 1846.79 Z" fill="#000000" fill-rule="nonzero" fill-opacity="1" /><path clip-path="url(#clip800)" d="M1467.18 1861.78 L1467.18 1883.3 L1461.32 1883.3 L1461.32 1861.98 Q1461.32 1856.92 1459.35 1854.4 Q1457.37 1851.89 1453.43 1851.89 Q1448.69 1851.89 1445.95 1854.91 Q1443.21 1857.93 1443.21 1863.15 L1443.21 1883.3 L1437.32 1883.3 L1437.32 1847.65 L1443.21 1847.65 L1443.21 1853.19 Q1445.31 1849.98 1448.14 1848.39 Q1451.01 1846.79 1454.73 1846.79 Q1460.88 1846.79 1464.03 1850.61 Q1467.18 1854.4 1467.18 1861.78 Z" fill="#000000" fill-rule="nonzero" fill-opacity="1" /><path clip-path="url(#clip800)" d="M1523.04 1853.06 L1523.04 1833.78 L1528.89 1833.78 L1528.89 1883.3 L1523.04 1883.3 L1523.04 1877.95 Q1521.19 1881.14 1518.36 1882.7 Q1515.56 1884.22 1511.61 1884.22 Q1505.15 1884.22 1501.08 1879.07 Q1497.03 1873.91 1497.03 1865.51 Q1497.03 1857.11 1501.08 1851.95 Q1505.15 1846.79 1511.61 1846.79 Q1515.56 1846.79 1518.36 1848.35 Q1521.19 1849.88 1523.04 1853.06 M1503.08 1865.51 Q1503.08 1871.97 1505.72 1875.66 Q1508.4 1879.32 1513.04 1879.32 Q1517.69 1879.32 1520.36 1875.66 Q1523.04 1871.97 1523.04 1865.51 Q1523.04 1859.05 1520.36 1855.39 Q1517.69 1851.7 1513.04 1851.7 Q1508.4 1851.7 1505.72 1855.39 Q1503.08 1859.05 1503.08 1865.51 Z" fill="#000000" fill-rule="nonzero" fill-opacity="1" /><path clip-path="url(#clip800)" d="M1540.96 1847.65 L1546.81 1847.65 L1546.81 1883.3 L1540.96 1883.3 L1540.96 1847.65 M1540.96 1833.78 L1546.81 1833.78 L1546.81 1841.19 L1540.96 1841.19 L1540.96 1833.78 Z" fill="#000000" fill-rule="nonzero" fill-opacity="1" /><path clip-path="url(#clip800)" d="M1581.79 1848.7 L1581.79 1854.24 Q1579.31 1852.97 1576.64 1852.33 Q1573.96 1851.7 1571.1 1851.7 Q1566.74 1851.7 1564.54 1853.03 Q1562.38 1854.37 1562.38 1857.04 Q1562.38 1859.08 1563.94 1860.26 Q1565.5 1861.4 1570.21 1862.45 L1572.21 1862.9 Q1578.45 1864.24 1581.06 1866.69 Q1583.7 1869.11 1583.7 1873.47 Q1583.7 1878.43 1579.76 1881.33 Q1575.84 1884.22 1568.97 1884.22 Q1566.1 1884.22 1562.98 1883.65 Q1559.89 1883.11 1556.46 1882 L1556.46 1875.95 Q1559.7 1877.64 1562.85 1878.49 Q1566.01 1879.32 1569.09 1879.32 Q1573.23 1879.32 1575.46 1877.92 Q1577.69 1876.49 1577.69 1873.91 Q1577.69 1871.52 1576.06 1870.25 Q1574.47 1868.98 1569.03 1867.8 L1566.99 1867.32 Q1561.55 1866.18 1559.13 1863.82 Q1556.71 1861.43 1556.71 1857.3 Q1556.71 1852.27 1560.28 1849.53 Q1563.84 1846.79 1570.4 1846.79 Q1573.64 1846.79 1576.51 1847.27 Q1579.37 1847.75 1581.79 1848.7 Z" fill="#000000" fill-rule="nonzero" fill-opacity="1" /><path clip-path="url(#clip800)" d="M1598.69 1877.95 L1598.69 1896.86 L1592.81 1896.86 L1592.81 1847.65 L1598.69 1847.65 L1598.69 1853.06 Q1600.54 1849.88 1603.34 1848.35 Q1606.17 1846.79 1610.09 1846.79 Q1616.58 1846.79 1620.62 1851.95 Q1624.7 1857.11 1624.7 1865.51 Q1624.7 1873.91 1620.62 1879.07 Q1616.58 1884.22 1610.09 1884.22 Q1606.17 1884.22 1603.34 1882.7 Q1600.54 1881.14 1598.69 1877.95 M1618.62 1865.51 Q1618.62 1859.05 1615.94 1855.39 Q1613.3 1851.7 1608.66 1851.7 Q1604.01 1851.7 1601.34 1855.39 Q1598.69 1859.05 1598.69 1865.51 Q1598.69 1871.97 1601.34 1875.66 Q1604.01 1879.32 1608.66 1879.32 Q1613.3 1879.32 1615.94 1875.66 Q1618.62 1871.97 1618.62 1865.51 Z" fill="#000000" fill-rule="nonzero" fill-opacity="1" /><path clip-path="url(#clip800)" d="M1664.9 1864.01 L1664.9 1866.88 L1637.97 1866.88 Q1638.35 1872.92 1641.6 1876.11 Q1644.88 1879.26 1650.7 1879.26 Q1654.07 1879.26 1657.23 1878.43 Q1660.41 1877.6 1663.53 1875.95 L1663.53 1881.49 Q1660.38 1882.82 1657.07 1883.52 Q1653.76 1884.22 1650.35 1884.22 Q1641.82 1884.22 1636.82 1879.26 Q1631.86 1874.29 1631.86 1865.83 Q1631.86 1857.07 1636.57 1851.95 Q1641.31 1846.79 1649.33 1846.79 Q1656.53 1846.79 1660.7 1851.44 Q1664.9 1856.06 1664.9 1864.01 M1659.04 1862.29 Q1658.98 1857.49 1656.33 1854.62 Q1653.72 1851.76 1649.4 1851.76 Q1644.49 1851.76 1641.53 1854.53 Q1638.61 1857.3 1638.16 1862.33 L1659.04 1862.29 Z" fill="#000000" fill-rule="nonzero" fill-opacity="1" /><path clip-path="url(#clip800)" d="M1695.17 1853.13 Q1694.18 1852.55 1693 1852.3 Q1691.86 1852.01 1690.45 1852.01 Q1685.49 1852.01 1682.82 1855.26 Q1680.17 1858.47 1680.17 1864.52 L1680.17 1883.3 L1674.29 1883.3 L1674.29 1847.65 L1680.17 1847.65 L1680.17 1853.19 Q1682.02 1849.94 1684.98 1848.39 Q1687.94 1846.79 1692.17 1846.79 Q1692.78 1846.79 1693.51 1846.89 Q1694.24 1846.95 1695.13 1847.11 L1695.17 1853.13 Z" fill="#000000" fill-rule="nonzero" fill-opacity="1" /><path clip-path="url(#clip800)" d="M1724.03 1848.7 L1724.03 1854.24 Q1721.55 1852.97 1718.88 1852.33 Q1716.2 1851.7 1713.34 1851.7 Q1708.98 1851.7 1706.78 1853.03 Q1704.62 1854.37 1704.62 1857.04 Q1704.62 1859.08 1706.18 1860.26 Q1707.74 1861.4 1712.45 1862.45 L1714.45 1862.9 Q1720.69 1864.24 1723.3 1866.69 Q1725.94 1869.11 1725.94 1873.47 Q1725.94 1878.43 1722 1881.33 Q1718.08 1884.22 1711.21 1884.22 Q1708.34 1884.22 1705.22 1883.65 Q1702.14 1883.11 1698.7 1882 L1698.7 1875.95 Q1701.95 1877.64 1705.1 1878.49 Q1708.25 1879.32 1711.33 1879.32 Q1715.47 1879.32 1717.7 1877.92 Q1719.93 1876.49 1719.93 1873.91 Q1719.93 1871.52 1718.3 1870.25 Q1716.71 1868.98 1711.27 1867.8 L1709.23 1867.32 Q1703.79 1866.18 1701.37 1863.82 Q1698.95 1861.43 1698.95 1857.3 Q1698.95 1852.27 1702.52 1849.53 Q1706.08 1846.79 1712.64 1846.79 Q1715.89 1846.79 1718.75 1847.27 Q1721.62 1847.75 1724.03 1848.7 Z" fill="#000000" fill-rule="nonzero" fill-opacity="1" /><path clip-path="url(#clip800)" d="M1751.47 1865.38 Q1744.37 1865.38 1741.64 1867 Q1738.9 1868.63 1738.9 1872.54 Q1738.9 1875.66 1740.94 1877.51 Q1743 1879.32 1746.54 1879.32 Q1751.41 1879.32 1754.33 1875.88 Q1757.29 1872.42 1757.29 1866.69 L1757.29 1865.38 L1751.47 1865.38 M1763.15 1862.96 L1763.15 1883.3 L1757.29 1883.3 L1757.29 1877.89 Q1755.29 1881.14 1752.3 1882.7 Q1749.31 1884.22 1744.98 1884.22 Q1739.5 1884.22 1736.26 1881.17 Q1733.04 1878.08 1733.04 1872.92 Q1733.04 1866.91 1737.05 1863.85 Q1741.09 1860.8 1749.08 1860.8 L1757.29 1860.8 L1757.29 1860.23 Q1757.29 1856.18 1754.62 1853.99 Q1751.98 1851.76 1747.17 1851.76 Q1744.12 1851.76 1741.22 1852.49 Q1738.33 1853.22 1735.65 1854.69 L1735.65 1849.28 Q1738.87 1848.03 1741.89 1847.43 Q1744.91 1846.79 1747.78 1846.79 Q1755.51 1846.79 1759.33 1850.8 Q1763.15 1854.81 1763.15 1862.96 Z" fill="#000000" fill-rule="nonzero" fill-opacity="1" /><path clip-path="url(#clip800)" d="M1775.21 1833.78 L1781.07 1833.78 L1781.07 1883.3 L1775.21 1883.3 L1775.21 1833.78 Z" fill="#000000" fill-rule="nonzero" fill-opacity="1" /><path clip-path="url(#clip800)" d="M1834.7 1853.13 Q1833.72 1852.55 1832.54 1852.3 Q1831.39 1852.01 1829.99 1852.01 Q1825.03 1852.01 1822.35 1855.26 Q1819.71 1858.47 1819.71 1864.52 L1819.71 1883.3 L1813.82 1883.3 L1813.82 1847.65 L1819.71 1847.65 L1819.71 1853.19 Q1821.56 1849.94 1824.52 1848.39 Q1827.48 1846.79 1831.71 1846.79 Q1832.31 1846.79 1833.05 1846.89 Q1833.78 1846.95 1834.67 1847.11 L1834.7 1853.13 Z" fill="#000000" fill-rule="nonzero" fill-opacity="1" /><path clip-path="url(#clip800)" d="M1857.05 1865.38 Q1849.95 1865.38 1847.21 1867 Q1844.47 1868.63 1844.47 1872.54 Q1844.47 1875.66 1846.51 1877.51 Q1848.58 1879.32 1852.11 1879.32 Q1856.98 1879.32 1859.91 1875.88 Q1862.87 1872.42 1862.87 1866.69 L1862.87 1865.38 L1857.05 1865.38 M1868.73 1862.96 L1868.73 1883.3 L1862.87 1883.3 L1862.87 1877.89 Q1860.86 1881.14 1857.87 1882.7 Q1854.88 1884.22 1850.55 1884.22 Q1845.08 1884.22 1841.83 1881.17 Q1838.62 1878.08 1838.62 1872.92 Q1838.62 1866.91 1842.63 1863.85 Q1846.67 1860.8 1854.66 1860.8 L1862.87 1860.8 L1862.87 1860.23 Q1862.87 1856.18 1860.2 1853.99 Q1857.55 1851.76 1852.75 1851.76 Q1849.69 1851.76 1846.8 1852.49 Q1843.9 1853.22 1841.23 1854.69 L1841.23 1849.28 Q1844.44 1848.03 1847.47 1847.43 Q1850.49 1846.79 1853.35 1846.79 Q1861.09 1846.79 1864.91 1850.8 Q1868.73 1854.81 1868.73 1862.96 Z" fill="#000000" fill-rule="nonzero" fill-opacity="1" /><path clip-path="url(#clip800)" d="M1886.58 1837.53 L1886.58 1847.65 L1898.65 1847.65 L1898.65 1852.2 L1886.58 1852.2 L1886.58 1871.56 Q1886.58 1875.92 1887.76 1877.16 Q1888.97 1878.4 1892.63 1878.4 L1898.65 1878.4 L1898.65 1883.3 L1892.63 1883.3 Q1885.85 1883.3 1883.27 1880.79 Q1880.69 1878.24 1880.69 1871.56 L1880.69 1852.2 L1876.4 1852.2 L1876.4 1847.65 L1880.69 1847.65 L1880.69 1837.53 L1886.58 1837.53 Z" fill="#000000" fill-rule="nonzero" fill-opacity="1" /><path clip-path="url(#clip800)" d="M1936.84 1864.01 L1936.84 1866.88 L1909.91 1866.88 Q1910.29 1872.92 1913.54 1876.11 Q1916.82 1879.26 1922.64 1879.26 Q1926.02 1879.26 1929.17 1878.43 Q1932.35 1877.6 1935.47 1875.95 L1935.47 1881.49 Q1932.32 1882.82 1929.01 1883.52 Q1925.7 1884.22 1922.29 1884.22 Q1913.76 1884.22 1908.77 1879.26 Q1903.8 1874.29 1903.8 1865.83 Q1903.8 1857.07 1908.51 1851.95 Q1913.25 1846.79 1921.28 1846.79 Q1928.47 1846.79 1932.64 1851.44 Q1936.84 1856.06 1936.84 1864.01 M1930.98 1862.29 Q1930.92 1857.49 1928.28 1854.62 Q1925.67 1851.76 1921.34 1851.76 Q1916.44 1851.76 1913.48 1854.53 Q1910.55 1857.3 1910.1 1862.33 L1930.98 1862.29 Z" fill="#000000" fill-rule="nonzero" fill-opacity="1" /><polyline clip-path="url(#clip800)" style="stroke:#000000; stroke-linecap:round; stroke-linejoin:round; stroke-width:4; stroke-opacity:1; fill:none" points="255.978,1734.12 255.978,127.792 "/>
<polyline clip-path="url(#clip800)" style="stroke:#000000; stroke-linecap:round; stroke-linejoin:round; stroke-width:4; stroke-opacity:1; fill:none" points="255.978,1551.67 274.876,1551.67 "/>
<polyline clip-path="url(#clip800)" style="stroke:#000000; stroke-linecap:round; stroke-linejoin:round; stroke-width:4; stroke-opacity:1; fill:none" points="255.978,1275.98 274.876,1275.98 "/>
<polyline clip-path="url(#clip800)" style="stroke:#000000; stroke-linecap:round; stroke-linejoin:round; stroke-width:4; stroke-opacity:1; fill:none" points="255.978,1000.3 274.876,1000.3 "/>
<polyline clip-path="url(#clip800)" style="stroke:#000000; stroke-linecap:round; stroke-linejoin:round; stroke-width:4; stroke-opacity:1; fill:none" points="255.978,724.62 274.876,724.62 "/>
<polyline clip-path="url(#clip800)" style="stroke:#000000; stroke-linecap:round; stroke-linejoin:round; stroke-width:4; stroke-opacity:1; fill:none" points="255.978,448.937 274.876,448.937 "/>
<polyline clip-path="url(#clip800)" style="stroke:#000000; stroke-linecap:round; stroke-linejoin:round; stroke-width:4; stroke-opacity:1; fill:none" points="255.978,173.254 274.876,173.254 "/>
<path clip-path="url(#clip800)" d="M129.316 1537.47 Q125.705 1537.47 123.876 1541.03 Q122.071 1544.57 122.071 1551.7 Q122.071 1558.81 123.876 1562.37 Q125.705 1565.92 129.316 1565.92 Q132.95 1565.92 134.756 1562.37 Q136.585 1558.81 136.585 1551.7 Q136.585 1544.57 134.756 1541.03 Q132.95 1537.47 129.316 1537.47 M129.316 1533.76 Q135.126 1533.76 138.182 1538.37 Q141.261 1542.95 141.261 1551.7 Q141.261 1560.43 138.182 1565.04 Q135.126 1569.62 129.316 1569.62 Q123.506 1569.62 120.427 1565.04 Q117.372 1560.43 117.372 1551.7 Q117.372 1542.95 120.427 1538.37 Q123.506 1533.76 129.316 1533.76 Z" fill="#000000" fill-rule="nonzero" fill-opacity="1" /><path clip-path="url(#clip800)" d="M149.478 1563.07 L154.362 1563.07 L154.362 1568.95 L149.478 1568.95 L149.478 1563.07 Z" fill="#000000" fill-rule="nonzero" fill-opacity="1" /><path clip-path="url(#clip800)" d="M164.686 1568.23 L164.686 1563.97 Q166.446 1564.8 168.251 1565.24 Q170.057 1565.68 171.793 1565.68 Q176.422 1565.68 178.853 1562.58 Q181.307 1559.46 181.654 1553.11 Q180.311 1555.11 178.251 1556.17 Q176.191 1557.23 173.691 1557.23 Q168.506 1557.23 165.473 1554.11 Q162.464 1550.96 162.464 1545.52 Q162.464 1540.2 165.612 1536.98 Q168.76 1533.76 173.992 1533.76 Q179.987 1533.76 183.135 1538.37 Q186.307 1542.95 186.307 1551.7 Q186.307 1559.87 182.418 1564.76 Q178.552 1569.62 172.001 1569.62 Q170.242 1569.62 168.436 1569.27 Q166.631 1568.92 164.686 1568.23 M173.992 1553.58 Q177.14 1553.58 178.969 1551.42 Q180.821 1549.27 180.821 1545.52 Q180.821 1541.8 178.969 1539.64 Q177.14 1537.47 173.992 1537.47 Q170.844 1537.47 168.992 1539.64 Q167.163 1541.8 167.163 1545.52 Q167.163 1549.27 168.992 1551.42 Q170.844 1553.58 173.992 1553.58 Z" fill="#000000" fill-rule="nonzero" fill-opacity="1" /><path clip-path="url(#clip800)" d="M194.756 1534.39 L213.112 1534.39 L213.112 1538.32 L199.038 1538.32 L199.038 1546.8 Q200.057 1546.45 201.075 1546.29 Q202.094 1546.1 203.112 1546.1 Q208.899 1546.1 212.279 1549.27 Q215.658 1552.44 215.658 1557.86 Q215.658 1563.44 212.186 1566.54 Q208.714 1569.62 202.395 1569.62 Q200.219 1569.62 197.95 1569.25 Q195.705 1568.88 193.297 1568.14 L193.297 1563.44 Q195.381 1564.57 197.603 1565.13 Q199.825 1565.68 202.302 1565.68 Q206.307 1565.68 208.645 1563.58 Q210.982 1561.47 210.982 1557.86 Q210.982 1554.25 208.645 1552.14 Q206.307 1550.04 202.302 1550.04 Q200.427 1550.04 198.552 1550.45 Q196.7 1550.87 194.756 1551.75 L194.756 1534.39 Z" fill="#000000" fill-rule="nonzero" fill-opacity="1" /><path clip-path="url(#clip800)" d="M128.159 1261.78 Q124.548 1261.78 122.719 1265.35 Q120.913 1268.89 120.913 1276.02 Q120.913 1283.13 122.719 1286.69 Q124.548 1290.23 128.159 1290.23 Q131.793 1290.23 133.599 1286.69 Q135.427 1283.13 135.427 1276.02 Q135.427 1268.89 133.599 1265.35 Q131.793 1261.78 128.159 1261.78 M128.159 1258.08 Q133.969 1258.08 137.025 1262.69 Q140.103 1267.27 140.103 1276.02 Q140.103 1284.75 137.025 1289.35 Q133.969 1293.94 128.159 1293.94 Q122.349 1293.94 119.27 1289.35 Q116.214 1284.75 116.214 1276.02 Q116.214 1267.27 119.27 1262.69 Q122.349 1258.08 128.159 1258.08 Z" fill="#000000" fill-rule="nonzero" fill-opacity="1" /><path clip-path="url(#clip800)" d="M148.321 1287.39 L153.205 1287.39 L153.205 1293.26 L148.321 1293.26 L148.321 1287.39 Z" fill="#000000" fill-rule="nonzero" fill-opacity="1" /><path clip-path="url(#clip800)" d="M163.529 1292.55 L163.529 1288.29 Q165.288 1289.12 167.094 1289.56 Q168.899 1290 170.635 1290 Q175.265 1290 177.696 1286.9 Q180.149 1283.77 180.497 1277.43 Q179.154 1279.42 177.094 1280.49 Q175.034 1281.55 172.534 1281.55 Q167.348 1281.55 164.316 1278.43 Q161.307 1275.28 161.307 1269.84 Q161.307 1264.52 164.455 1261.3 Q167.603 1258.08 172.835 1258.08 Q178.83 1258.08 181.978 1262.69 Q185.149 1267.27 185.149 1276.02 Q185.149 1284.19 181.26 1289.08 Q177.395 1293.94 170.844 1293.94 Q169.085 1293.94 167.279 1293.59 Q165.473 1293.24 163.529 1292.55 M172.835 1277.89 Q175.983 1277.89 177.811 1275.74 Q179.663 1273.59 179.663 1269.84 Q179.663 1266.11 177.811 1263.96 Q175.983 1261.78 172.835 1261.78 Q169.686 1261.78 167.835 1263.96 Q166.006 1266.11 166.006 1269.84 Q166.006 1273.59 167.835 1275.74 Q169.686 1277.89 172.835 1277.89 Z" fill="#000000" fill-rule="nonzero" fill-opacity="1" /><path clip-path="url(#clip800)" d="M204.131 1274.12 Q200.983 1274.12 199.131 1276.27 Q197.302 1278.43 197.302 1282.18 Q197.302 1285.9 199.131 1288.08 Q200.983 1290.23 204.131 1290.23 Q207.279 1290.23 209.107 1288.08 Q210.959 1285.9 210.959 1282.18 Q210.959 1278.43 209.107 1276.27 Q207.279 1274.12 204.131 1274.12 M213.413 1259.47 L213.413 1263.73 Q211.654 1262.89 209.848 1262.45 Q208.066 1262.02 206.307 1262.02 Q201.677 1262.02 199.223 1265.14 Q196.793 1268.27 196.445 1274.58 Q197.811 1272.57 199.871 1271.51 Q201.932 1270.42 204.408 1270.42 Q209.617 1270.42 212.626 1273.59 Q215.658 1276.74 215.658 1282.18 Q215.658 1287.5 212.51 1290.72 Q209.362 1293.94 204.131 1293.94 Q198.135 1293.94 194.964 1289.35 Q191.793 1284.75 191.793 1276.02 Q191.793 1267.83 195.682 1262.96 Q199.57 1258.08 206.121 1258.08 Q207.881 1258.08 209.663 1258.43 Q211.469 1258.77 213.413 1259.47 Z" fill="#000000" fill-rule="nonzero" fill-opacity="1" /><path clip-path="url(#clip800)" d="M129.224 986.101 Q125.613 986.101 123.784 989.666 Q121.978 993.207 121.978 1000.34 Q121.978 1007.44 123.784 1011.01 Q125.613 1014.55 129.224 1014.55 Q132.858 1014.55 134.663 1011.01 Q136.492 1007.44 136.492 1000.34 Q136.492 993.207 134.663 989.666 Q132.858 986.101 129.224 986.101 M129.224 982.397 Q135.034 982.397 138.089 987.004 Q141.168 991.587 141.168 1000.34 Q141.168 1009.06 138.089 1013.67 Q135.034 1018.25 129.224 1018.25 Q123.413 1018.25 120.335 1013.67 Q117.279 1009.06 117.279 1000.34 Q117.279 991.587 120.335 987.004 Q123.413 982.397 129.224 982.397 Z" fill="#000000" fill-rule="nonzero" fill-opacity="1" /><path clip-path="url(#clip800)" d="M149.386 1011.7 L154.27 1011.7 L154.27 1017.58 L149.386 1017.58 L149.386 1011.7 Z" fill="#000000" fill-rule="nonzero" fill-opacity="1" /><path clip-path="url(#clip800)" d="M164.594 1016.86 L164.594 1012.61 Q166.353 1013.44 168.159 1013.88 Q169.964 1014.32 171.7 1014.32 Q176.33 1014.32 178.76 1011.22 Q181.214 1008.09 181.561 1001.75 Q180.219 1003.74 178.159 1004.8 Q176.098 1005.87 173.598 1005.87 Q168.413 1005.87 165.381 1002.74 Q162.372 999.596 162.372 994.156 Q162.372 988.832 165.52 985.615 Q168.668 982.397 173.899 982.397 Q179.895 982.397 183.043 987.004 Q186.214 991.587 186.214 1000.34 Q186.214 1008.51 182.325 1013.39 Q178.459 1018.25 171.909 1018.25 Q170.149 1018.25 168.344 1017.91 Q166.538 1017.56 164.594 1016.86 M173.899 1002.21 Q177.047 1002.21 178.876 1000.06 Q180.728 997.906 180.728 994.156 Q180.728 990.43 178.876 988.277 Q177.047 986.101 173.899 986.101 Q170.751 986.101 168.899 988.277 Q167.071 990.43 167.071 994.156 Q167.071 997.906 168.899 1000.06 Q170.751 1002.21 173.899 1002.21 Z" fill="#000000" fill-rule="nonzero" fill-opacity="1" /><path clip-path="url(#clip800)" d="M193.436 983.022 L215.658 983.022 L215.658 985.013 L203.112 1017.58 L198.228 1017.58 L210.033 986.957 L193.436 986.957 L193.436 983.022 Z" fill="#000000" fill-rule="nonzero" fill-opacity="1" /><path clip-path="url(#clip800)" d="M128.413 710.418 Q124.802 710.418 122.974 713.983 Q121.168 717.525 121.168 724.654 Q121.168 731.761 122.974 735.326 Q124.802 738.867 128.413 738.867 Q132.048 738.867 133.853 735.326 Q135.682 731.761 135.682 724.654 Q135.682 717.525 133.853 713.983 Q132.048 710.418 128.413 710.418 M128.413 706.715 Q134.224 706.715 137.279 711.321 Q140.358 715.904 140.358 724.654 Q140.358 733.381 137.279 737.988 Q134.224 742.571 128.413 742.571 Q122.603 742.571 119.525 737.988 Q116.469 733.381 116.469 724.654 Q116.469 715.904 119.525 711.321 Q122.603 706.715 128.413 706.715 Z" fill="#000000" fill-rule="nonzero" fill-opacity="1" /><path clip-path="url(#clip800)" d="M148.575 736.02 L153.46 736.02 L153.46 741.9 L148.575 741.9 L148.575 736.02 Z" fill="#000000" fill-rule="nonzero" fill-opacity="1" /><path clip-path="url(#clip800)" d="M163.784 741.182 L163.784 736.923 Q165.543 737.756 167.348 738.196 Q169.154 738.636 170.89 738.636 Q175.52 738.636 177.95 735.534 Q180.404 732.409 180.751 726.066 Q179.409 728.057 177.348 729.122 Q175.288 730.187 172.788 730.187 Q167.603 730.187 164.571 727.062 Q161.561 723.914 161.561 718.474 Q161.561 713.15 164.71 709.932 Q167.858 706.715 173.089 706.715 Q179.084 706.715 182.233 711.321 Q185.404 715.904 185.404 724.654 Q185.404 732.826 181.515 737.71 Q177.649 742.571 171.098 742.571 Q169.339 742.571 167.534 742.224 Q165.728 741.876 163.784 741.182 M173.089 726.529 Q176.237 726.529 178.066 724.377 Q179.918 722.224 179.918 718.474 Q179.918 714.747 178.066 712.594 Q176.237 710.418 173.089 710.418 Q169.941 710.418 168.089 712.594 Q166.26 714.747 166.26 718.474 Q166.26 722.224 168.089 724.377 Q169.941 726.529 173.089 726.529 Z" fill="#000000" fill-rule="nonzero" fill-opacity="1" /><path clip-path="url(#clip800)" d="M203.807 725.488 Q200.473 725.488 198.552 727.27 Q196.654 729.052 196.654 732.177 Q196.654 735.302 198.552 737.085 Q200.473 738.867 203.807 738.867 Q207.14 738.867 209.061 737.085 Q210.982 735.279 210.982 732.177 Q210.982 729.052 209.061 727.27 Q207.163 725.488 203.807 725.488 M199.131 723.497 Q196.121 722.756 194.432 720.696 Q192.765 718.636 192.765 715.673 Q192.765 711.529 195.705 709.122 Q198.668 706.715 203.807 706.715 Q208.969 706.715 211.908 709.122 Q214.848 711.529 214.848 715.673 Q214.848 718.636 213.158 720.696 Q211.492 722.756 208.506 723.497 Q211.885 724.284 213.76 726.576 Q215.658 728.867 215.658 732.177 Q215.658 737.201 212.58 739.886 Q209.524 742.571 203.807 742.571 Q198.089 742.571 195.01 739.886 Q191.955 737.201 191.955 732.177 Q191.955 728.867 193.853 726.576 Q195.751 724.284 199.131 723.497 M197.418 716.113 Q197.418 718.798 199.084 720.302 Q200.774 721.807 203.807 721.807 Q206.816 721.807 208.506 720.302 Q210.219 718.798 210.219 716.113 Q210.219 713.427 208.506 711.923 Q206.816 710.418 203.807 710.418 Q200.774 710.418 199.084 711.923 Q197.418 713.427 197.418 716.113 Z" fill="#000000" fill-rule="nonzero" fill-opacity="1" /><path clip-path="url(#clip800)" d="M128.506 434.736 Q124.895 434.736 123.066 438.3 Q121.261 441.842 121.261 448.972 Q121.261 456.078 123.066 459.643 Q124.895 463.184 128.506 463.184 Q132.14 463.184 133.946 459.643 Q135.775 456.078 135.775 448.972 Q135.775 441.842 133.946 438.3 Q132.14 434.736 128.506 434.736 M128.506 431.032 Q134.316 431.032 137.372 435.638 Q140.45 440.222 140.45 448.972 Q140.45 457.698 137.372 462.305 Q134.316 466.888 128.506 466.888 Q122.696 466.888 119.617 462.305 Q116.562 457.698 116.562 448.972 Q116.562 440.222 119.617 435.638 Q122.696 431.032 128.506 431.032 Z" fill="#000000" fill-rule="nonzero" fill-opacity="1" /><path clip-path="url(#clip800)" d="M148.668 460.337 L153.552 460.337 L153.552 466.217 L148.668 466.217 L148.668 460.337 Z" fill="#000000" fill-rule="nonzero" fill-opacity="1" /><path clip-path="url(#clip800)" d="M163.876 465.499 L163.876 461.24 Q165.635 462.073 167.441 462.513 Q169.247 462.953 170.983 462.953 Q175.612 462.953 178.043 459.851 Q180.497 456.726 180.844 450.384 Q179.501 452.374 177.441 453.439 Q175.381 454.504 172.881 454.504 Q167.696 454.504 164.663 451.379 Q161.654 448.231 161.654 442.791 Q161.654 437.467 164.802 434.249 Q167.95 431.032 173.182 431.032 Q179.177 431.032 182.325 435.638 Q185.496 440.222 185.496 448.972 Q185.496 457.143 181.608 462.027 Q177.742 466.888 171.191 466.888 Q169.432 466.888 167.626 466.541 Q165.821 466.194 163.876 465.499 M173.182 450.847 Q176.33 450.847 178.159 448.694 Q180.01 446.541 180.01 442.791 Q180.01 439.064 178.159 436.911 Q176.33 434.736 173.182 434.736 Q170.034 434.736 168.182 436.911 Q166.353 439.064 166.353 442.791 Q166.353 446.541 168.182 448.694 Q170.034 450.847 173.182 450.847 Z" fill="#000000" fill-rule="nonzero" fill-opacity="1" /><path clip-path="url(#clip800)" d="M194.038 465.499 L194.038 461.24 Q195.797 462.073 197.603 462.513 Q199.408 462.953 201.145 462.953 Q205.774 462.953 208.205 459.851 Q210.658 456.726 211.006 450.384 Q209.663 452.374 207.603 453.439 Q205.543 454.504 203.043 454.504 Q197.858 454.504 194.825 451.379 Q191.816 448.231 191.816 442.791 Q191.816 437.467 194.964 434.249 Q198.112 431.032 203.344 431.032 Q209.339 431.032 212.487 435.638 Q215.658 440.222 215.658 448.972 Q215.658 457.143 211.769 462.027 Q207.904 466.888 201.353 466.888 Q199.594 466.888 197.788 466.541 Q195.983 466.194 194.038 465.499 M203.344 450.847 Q206.492 450.847 208.32 448.694 Q210.172 446.541 210.172 442.791 Q210.172 439.064 208.32 436.911 Q206.492 434.736 203.344 434.736 Q200.195 434.736 198.344 436.911 Q196.515 439.064 196.515 442.791 Q196.515 446.541 198.344 448.694 Q200.195 450.847 203.344 450.847 Z" fill="#000000" fill-rule="nonzero" fill-opacity="1" /><path clip-path="url(#clip800)" d="M119.131 186.599 L126.77 186.599 L126.77 160.233 L118.46 161.9 L118.46 157.641 L126.724 155.974 L131.4 155.974 L131.4 186.599 L139.038 186.599 L139.038 190.534 L119.131 190.534 L119.131 186.599 Z" fill="#000000" fill-rule="nonzero" fill-opacity="1" /><path clip-path="url(#clip800)" d="M148.483 184.655 L153.367 184.655 L153.367 190.534 L148.483 190.534 L148.483 184.655 Z" fill="#000000" fill-rule="nonzero" fill-opacity="1" /><path clip-path="url(#clip800)" d="M173.552 159.053 Q169.941 159.053 168.112 162.618 Q166.307 166.159 166.307 173.289 Q166.307 180.395 168.112 183.96 Q169.941 187.502 173.552 187.502 Q177.186 187.502 178.992 183.96 Q180.821 180.395 180.821 173.289 Q180.821 166.159 178.992 162.618 Q177.186 159.053 173.552 159.053 M173.552 155.349 Q179.362 155.349 182.418 159.956 Q185.496 164.539 185.496 173.289 Q185.496 182.016 182.418 186.622 Q179.362 191.205 173.552 191.205 Q167.742 191.205 164.663 186.622 Q161.608 182.016 161.608 173.289 Q161.608 164.539 164.663 159.956 Q167.742 155.349 173.552 155.349 Z" fill="#000000" fill-rule="nonzero" fill-opacity="1" /><path clip-path="url(#clip800)" d="M203.714 159.053 Q200.103 159.053 198.274 162.618 Q196.469 166.159 196.469 173.289 Q196.469 180.395 198.274 183.96 Q200.103 187.502 203.714 187.502 Q207.348 187.502 209.154 183.96 Q210.982 180.395 210.982 173.289 Q210.982 166.159 209.154 162.618 Q207.348 159.053 203.714 159.053 M203.714 155.349 Q209.524 155.349 212.58 159.956 Q215.658 164.539 215.658 173.289 Q215.658 182.016 212.58 186.622 Q209.524 191.205 203.714 191.205 Q197.904 191.205 194.825 186.622 Q191.77 182.016 191.77 173.289 Q191.77 164.539 194.825 159.956 Q197.904 155.349 203.714 155.349 Z" fill="#000000" fill-rule="nonzero" fill-opacity="1" /><path clip-path="url(#clip800)" d="M17.6832 930.063 L61.6384 913.608 L61.6384 919.815 L35.2844 929.809 L61.6384 942.095 L61.6384 948.301 L27.4546 932.673 L21.1525 935.029 Q17.1422 936.525 17.1422 939.93 L17.1422 942.986 L12.1132 942.986 L12.1769 939.262 Q12.2724 932.069 17.6832 930.063 Z" fill="#000000" fill-rule="nonzero" fill-opacity="1" /><path clip-path="url(#clip800)" d="M154.508 12.096 L166.702 12.096 L182.135 53.2532 L197.65 12.096 L209.844 12.096 L209.844 72.576 L201.863 72.576 L201.863 19.4686 L186.267 60.9499 L178.044 60.9499 L162.448 19.4686 L162.448 72.576 L154.508 72.576 L154.508 12.096 Z" fill="#000000" fill-rule="nonzero" fill-opacity="1" /><path clip-path="url(#clip800)" d="M264.571 48.0275 L264.571 51.6733 L230.301 51.6733 Q230.787 59.3701 234.919 63.421 Q239.091 67.4314 246.504 67.4314 Q250.798 67.4314 254.809 66.3781 Q258.86 65.3249 262.83 63.2184 L262.83 70.267 Q258.819 71.9684 254.606 72.8596 Q250.393 73.7508 246.059 73.7508 Q235.202 73.7508 228.842 67.4314 Q222.523 61.1119 222.523 50.3365 Q222.523 39.1965 228.518 32.6746 Q234.554 26.1121 244.762 26.1121 Q253.918 26.1121 259.224 32.0264 Q264.571 37.9003 264.571 48.0275 M257.118 45.84 Q257.037 39.7232 253.674 36.0774 Q250.353 32.4315 244.843 32.4315 Q238.605 32.4315 234.838 35.9558 Q231.111 39.4801 230.544 45.8805 L257.118 45.84 Z" fill="#000000" fill-rule="nonzero" fill-opacity="1" /><path clip-path="url(#clip800)" d="M284.178 14.324 L284.178 27.2059 L299.531 27.2059 L299.531 32.9987 L284.178 32.9987 L284.178 57.6282 Q284.178 63.1779 285.677 64.7578 Q287.216 66.3376 291.874 66.3376 L299.531 66.3376 L299.531 72.576 L291.874 72.576 Q283.246 72.576 279.965 69.3758 Q276.684 66.1351 276.684 57.6282 L276.684 32.9987 L271.215 32.9987 L271.215 27.2059 L276.684 27.2059 L276.684 14.324 L284.178 14.324 Z" fill="#000000" fill-rule="nonzero" fill-opacity="1" /><path clip-path="url(#clip800)" d="M329.953 49.7694 Q320.919 49.7694 317.436 51.8354 Q313.952 53.9013 313.952 58.8839 Q313.952 62.8538 316.544 65.2034 Q319.178 67.5124 323.674 67.5124 Q329.872 67.5124 333.599 63.1374 Q337.366 58.7219 337.366 51.4303 L337.366 49.7694 L329.953 49.7694 M344.82 46.6907 L344.82 72.576 L337.366 72.576 L337.366 65.6895 Q334.814 69.8214 331.006 71.8063 Q327.198 73.7508 321.689 73.7508 Q314.722 73.7508 310.59 69.8619 Q306.498 65.9325 306.498 59.3701 Q306.498 51.7138 311.602 47.825 Q316.747 43.9361 326.915 43.9361 L337.366 43.9361 L337.366 43.2069 Q337.366 38.0623 333.963 35.2672 Q330.601 32.4315 324.484 32.4315 Q320.595 32.4315 316.909 33.3632 Q313.223 34.295 309.82 36.1584 L309.82 29.2718 Q313.911 27.692 317.76 26.9223 Q321.608 26.1121 325.254 26.1121 Q335.098 26.1121 339.959 31.2163 Q344.82 36.3204 344.82 46.6907 Z" fill="#000000" fill-rule="nonzero" fill-opacity="1" /><path clip-path="url(#clip800)" d="M367.383 65.7705 L367.383 89.8329 L359.889 89.8329 L359.889 27.2059 L367.383 27.2059 L367.383 34.0924 Q369.733 30.0415 373.298 28.0971 Q376.903 26.1121 381.886 26.1121 Q390.149 26.1121 395.294 32.6746 Q400.479 39.2371 400.479 49.9314 Q400.479 60.6258 395.294 67.1883 Q390.149 73.7508 381.886 73.7508 Q376.903 73.7508 373.298 71.8063 Q369.733 69.8214 367.383 65.7705 M392.742 49.9314 Q392.742 41.7081 389.339 37.0496 Q385.977 32.3505 380.063 32.3505 Q374.148 32.3505 370.746 37.0496 Q367.383 41.7081 367.383 49.9314 Q367.383 58.1548 370.746 62.8538 Q374.148 67.5124 380.063 67.5124 Q385.977 67.5124 389.339 62.8538 Q392.742 58.1548 392.742 49.9314 Z" fill="#000000" fill-rule="nonzero" fill-opacity="1" /><path clip-path="url(#clip800)" d="M430.415 32.4315 Q424.42 32.4315 420.936 37.1306 Q417.453 41.7891 417.453 49.9314 Q417.453 58.0738 420.896 62.7728 Q424.38 67.4314 430.415 67.4314 Q436.37 67.4314 439.854 62.7323 Q443.338 58.0333 443.338 49.9314 Q443.338 41.8701 439.854 37.1711 Q436.37 32.4315 430.415 32.4315 M430.415 26.1121 Q440.138 26.1121 445.687 32.4315 Q451.237 38.7509 451.237 49.9314 Q451.237 61.0714 445.687 67.4314 Q440.138 73.7508 430.415 73.7508 Q420.653 73.7508 415.103 67.4314 Q409.594 61.0714 409.594 49.9314 Q409.594 38.7509 415.103 32.4315 Q420.653 26.1121 430.415 26.1121 Z" fill="#000000" fill-rule="nonzero" fill-opacity="1" /><path clip-path="url(#clip800)" d="M470.803 65.7705 L470.803 89.8329 L463.309 89.8329 L463.309 27.2059 L470.803 27.2059 L470.803 34.0924 Q473.152 30.0415 476.717 28.0971 Q480.323 26.1121 485.305 26.1121 Q493.569 26.1121 498.714 32.6746 Q503.899 39.2371 503.899 49.9314 Q503.899 60.6258 498.714 67.1883 Q493.569 73.7508 485.305 73.7508 Q480.323 73.7508 476.717 71.8063 Q473.152 69.8214 470.803 65.7705 M496.162 49.9314 Q496.162 41.7081 492.759 37.0496 Q489.397 32.3505 483.482 32.3505 Q477.568 32.3505 474.165 37.0496 Q470.803 41.7081 470.803 49.9314 Q470.803 58.1548 474.165 62.8538 Q477.568 67.5124 483.482 67.5124 Q489.397 67.5124 492.759 62.8538 Q496.162 58.1548 496.162 49.9314 Z" fill="#000000" fill-rule="nonzero" fill-opacity="1" /><path clip-path="url(#clip800)" d="M515.484 54.671 L515.484 27.2059 L522.938 27.2059 L522.938 54.3874 Q522.938 60.8284 525.45 64.0691 Q527.961 67.2693 532.984 67.2693 Q539.02 67.2693 542.504 63.421 Q546.028 59.5726 546.028 52.9291 L546.028 27.2059 L553.482 27.2059 L553.482 72.576 L546.028 72.576 L546.028 65.6084 Q543.314 69.7404 539.709 71.7658 Q536.144 73.7508 531.404 73.7508 Q523.586 73.7508 519.535 68.8897 Q515.484 64.0286 515.484 54.671 M534.24 26.1121 L534.24 26.1121 Z" fill="#000000" fill-rule="nonzero" fill-opacity="1" /><path clip-path="url(#clip800)" d="M568.835 9.54393 L576.288 9.54393 L576.288 72.576 L568.835 72.576 L568.835 9.54393 Z" fill="#000000" fill-rule="nonzero" fill-opacity="1" /><path clip-path="url(#clip800)" d="M612.504 49.7694 Q603.47 49.7694 599.986 51.8354 Q596.502 53.9013 596.502 58.8839 Q596.502 62.8538 599.095 65.2034 Q601.728 67.5124 606.225 67.5124 Q612.423 67.5124 616.149 63.1374 Q619.917 58.7219 619.917 51.4303 L619.917 49.7694 L612.504 49.7694 M627.37 46.6907 L627.37 72.576 L619.917 72.576 L619.917 65.6895 Q617.365 69.8214 613.557 71.8063 Q609.749 73.7508 604.24 73.7508 Q597.272 73.7508 593.14 69.8619 Q589.049 65.9325 589.049 59.3701 Q589.049 51.7138 594.153 47.825 Q599.298 43.9361 609.465 43.9361 L619.917 43.9361 L619.917 43.2069 Q619.917 38.0623 616.514 35.2672 Q613.152 32.4315 607.035 32.4315 Q603.146 32.4315 599.46 33.3632 Q595.773 34.295 592.371 36.1584 L592.371 29.2718 Q596.462 27.692 600.31 26.9223 Q604.159 26.1121 607.805 26.1121 Q617.648 26.1121 622.509 31.2163 Q627.37 36.3204 627.37 46.6907 Z" fill="#000000" fill-rule="nonzero" fill-opacity="1" /><path clip-path="url(#clip800)" d="M650.096 14.324 L650.096 27.2059 L665.449 27.2059 L665.449 32.9987 L650.096 32.9987 L650.096 57.6282 Q650.096 63.1779 651.595 64.7578 Q653.134 66.3376 657.793 66.3376 L665.449 66.3376 L665.449 72.576 L657.793 72.576 Q649.164 72.576 645.883 69.3758 Q642.602 66.1351 642.602 57.6282 L642.602 32.9987 L637.133 32.9987 L637.133 27.2059 L642.602 27.2059 L642.602 14.324 L650.096 14.324 Z" fill="#000000" fill-rule="nonzero" fill-opacity="1" /><path clip-path="url(#clip800)" d="M675.252 27.2059 L682.706 27.2059 L682.706 72.576 L675.252 72.576 L675.252 27.2059 M675.252 9.54393 L682.706 9.54393 L682.706 18.9825 L675.252 18.9825 L675.252 9.54393 Z" fill="#000000" fill-rule="nonzero" fill-opacity="1" /><path clip-path="url(#clip800)" d="M715.883 32.4315 Q709.887 32.4315 706.404 37.1306 Q702.92 41.7891 702.92 49.9314 Q702.92 58.0738 706.363 62.7728 Q709.847 67.4314 715.883 67.4314 Q721.837 67.4314 725.321 62.7323 Q728.805 58.0333 728.805 49.9314 Q728.805 41.8701 725.321 37.1711 Q721.837 32.4315 715.883 32.4315 M715.883 26.1121 Q725.605 26.1121 731.155 32.4315 Q736.704 38.7509 736.704 49.9314 Q736.704 61.0714 731.155 67.4314 Q725.605 73.7508 715.883 73.7508 Q706.12 73.7508 700.57 67.4314 Q695.061 61.0714 695.061 49.9314 Q695.061 38.7509 700.57 32.4315 Q706.12 26.1121 715.883 26.1121 Z" fill="#000000" fill-rule="nonzero" fill-opacity="1" /><path clip-path="url(#clip800)" d="M786.773 45.1919 L786.773 72.576 L779.32 72.576 L779.32 45.4349 Q779.32 38.994 776.808 35.7938 Q774.297 32.5936 769.274 32.5936 Q763.238 32.5936 759.754 36.4419 Q756.27 40.2903 756.27 46.9338 L756.27 72.576 L748.776 72.576 L748.776 27.2059 L756.27 27.2059 L756.27 34.2544 Q758.944 30.163 762.549 28.1376 Q766.195 26.1121 770.934 26.1121 Q778.753 26.1121 782.763 30.9732 Q786.773 35.7938 786.773 45.1919 Z" fill="#000000" fill-rule="nonzero" fill-opacity="1" /><path clip-path="url(#clip800)" d="M857.867 49.3643 Q857.867 41.2625 854.505 36.8065 Q851.183 32.3505 845.147 32.3505 Q839.152 32.3505 835.789 36.8065 Q832.468 41.2625 832.468 49.3643 Q832.468 57.4256 835.789 61.8816 Q839.152 66.3376 845.147 66.3376 Q851.183 66.3376 854.505 61.8816 Q857.867 57.4256 857.867 49.3643 M865.32 66.9452 Q865.32 78.5308 860.176 84.1616 Q855.031 89.8329 844.418 89.8329 Q840.488 89.8329 837.005 89.2252 Q833.521 88.6581 830.24 87.4428 L830.24 80.1917 Q833.521 81.9741 836.721 82.8248 Q839.921 83.6755 843.243 83.6755 Q850.575 83.6755 854.221 79.8271 Q857.867 76.0193 857.867 68.282 L857.867 64.5957 Q855.558 68.6061 851.953 70.5911 Q848.347 72.576 843.324 72.576 Q834.979 72.576 829.875 66.2161 Q824.771 59.8562 824.771 49.3643 Q824.771 38.832 829.875 32.472 Q834.979 26.1121 843.324 26.1121 Q848.347 26.1121 851.953 28.0971 Q855.558 30.082 857.867 34.0924 L857.867 27.2059 L865.32 27.2059 L865.32 66.9452 Z" fill="#000000" fill-rule="nonzero" fill-opacity="1" /><path clip-path="url(#clip800)" d="M906.964 34.1734 Q905.708 33.4443 904.209 33.1202 Q902.751 32.7556 900.968 32.7556 Q894.649 32.7556 891.246 36.8875 Q887.884 40.9789 887.884 48.6757 L887.884 72.576 L880.39 72.576 L880.39 27.2059 L887.884 27.2059 L887.884 34.2544 Q890.234 30.1225 894.001 28.1376 Q897.768 26.1121 903.156 26.1121 Q903.926 26.1121 904.857 26.2337 Q905.789 26.3147 906.923 26.5172 L906.964 34.1734 Z" fill="#000000" fill-rule="nonzero" fill-opacity="1" /><path clip-path="url(#clip800)" d="M930.54 32.4315 Q924.545 32.4315 921.061 37.1306 Q917.577 41.7891 917.577 49.9314 Q917.577 58.0738 921.02 62.7728 Q924.504 67.4314 930.54 67.4314 Q936.495 67.4314 939.979 62.7323 Q943.462 58.0333 943.462 49.9314 Q943.462 41.8701 939.979 37.1711 Q936.495 32.4315 930.54 32.4315 M930.54 26.1121 Q940.262 26.1121 945.812 32.4315 Q951.362 38.7509 951.362 49.9314 Q951.362 61.0714 945.812 67.4314 Q940.262 73.7508 930.54 73.7508 Q920.777 73.7508 915.228 67.4314 Q909.718 61.0714 909.718 49.9314 Q909.718 38.7509 915.228 32.4315 Q920.777 26.1121 930.54 26.1121 Z" fill="#000000" fill-rule="nonzero" fill-opacity="1" /><path clip-path="url(#clip800)" d="M959.382 27.2059 L966.836 27.2059 L976.153 62.6108 L985.43 27.2059 L994.22 27.2059 L1003.54 62.6108 L1012.81 27.2059 L1020.27 27.2059 L1008.4 72.576 L999.608 72.576 L989.845 35.3887 L980.042 72.576 L971.252 72.576 L959.382 27.2059 Z" fill="#000000" fill-rule="nonzero" fill-opacity="1" /><path clip-path="url(#clip800)" d="M1038.94 14.324 L1038.94 27.2059 L1054.3 27.2059 L1054.3 32.9987 L1038.94 32.9987 L1038.94 57.6282 Q1038.94 63.1779 1040.44 64.7578 Q1041.98 66.3376 1046.64 66.3376 L1054.3 66.3376 L1054.3 72.576 L1046.64 72.576 Q1038.01 72.576 1034.73 69.3758 Q1031.45 66.1351 1031.45 57.6282 L1031.45 32.9987 L1025.98 32.9987 L1025.98 27.2059 L1031.45 27.2059 L1031.45 14.324 L1038.94 14.324 Z" fill="#000000" fill-rule="nonzero" fill-opacity="1" /><path clip-path="url(#clip800)" d="M1101.81 45.1919 L1101.81 72.576 L1094.36 72.576 L1094.36 45.4349 Q1094.36 38.994 1091.85 35.7938 Q1089.34 32.5936 1084.31 32.5936 Q1078.28 32.5936 1074.79 36.4419 Q1071.31 40.2903 1071.31 46.9338 L1071.31 72.576 L1063.81 72.576 L1063.81 9.54393 L1071.31 9.54393 L1071.31 34.2544 Q1073.98 30.163 1077.59 28.1376 Q1081.23 26.1121 1085.97 26.1121 Q1093.79 26.1121 1097.8 30.9732 Q1101.81 35.7938 1101.81 45.1919 Z" fill="#000000" fill-rule="nonzero" fill-opacity="1" /><path clip-path="url(#clip800)" d="M1137.7 27.2059 L1145.6 27.2059 L1159.78 65.2844 L1173.96 27.2059 L1181.86 27.2059 L1164.84 72.576 L1154.72 72.576 L1137.7 27.2059 Z" fill="#000000" fill-rule="nonzero" fill-opacity="1" /><path clip-path="url(#clip800)" d="M1221.07 28.5427 L1221.07 35.5912 Q1217.91 33.9709 1214.51 33.1607 Q1211.11 32.3505 1207.46 32.3505 Q1201.91 32.3505 1199.11 34.0519 Q1196.36 35.7533 1196.36 39.156 Q1196.36 41.7486 1198.35 43.2475 Q1200.33 44.7058 1206.33 46.0426 L1208.88 46.6097 Q1216.82 48.3111 1220.14 51.4303 Q1223.5 54.509 1223.5 60.0587 Q1223.5 66.3781 1218.48 70.0644 Q1213.5 73.7508 1204.75 73.7508 Q1201.1 73.7508 1197.13 73.0216 Q1193.2 72.3329 1188.83 70.9151 L1188.83 63.2184 Q1192.96 65.3654 1196.97 66.4591 Q1200.98 67.5124 1204.91 67.5124 Q1210.17 67.5124 1213.01 65.73 Q1215.85 63.9071 1215.85 60.6258 Q1215.85 57.5877 1213.78 55.9673 Q1211.75 54.3469 1204.83 52.8481 L1202.23 52.2405 Q1195.31 50.7821 1192.23 47.7845 Q1189.15 44.7463 1189.15 39.4801 Q1189.15 33.0797 1193.69 29.5959 Q1198.22 26.1121 1206.57 26.1121 Q1210.7 26.1121 1214.35 26.7198 Q1217.99 27.3274 1221.07 28.5427 Z" fill="#000000" fill-rule="nonzero" fill-opacity="1" /><path clip-path="url(#clip800)" d="M1291.6 34.0924 L1291.6 9.54393 L1299.05 9.54393 L1299.05 72.576 L1291.6 72.576 L1291.6 65.7705 Q1289.25 69.8214 1285.64 71.8063 Q1282.08 73.7508 1277.05 73.7508 Q1268.83 73.7508 1263.65 67.1883 Q1258.5 60.6258 1258.5 49.9314 Q1258.5 39.2371 1263.65 32.6746 Q1268.83 26.1121 1277.05 26.1121 Q1282.08 26.1121 1285.64 28.0971 Q1289.25 30.0415 1291.6 34.0924 M1266.2 49.9314 Q1266.2 58.1548 1269.56 62.8538 Q1272.96 67.5124 1278.88 67.5124 Q1284.79 67.5124 1288.19 62.8538 Q1291.6 58.1548 1291.6 49.9314 Q1291.6 41.7081 1288.19 37.0496 Q1284.79 32.3505 1278.88 32.3505 Q1272.96 32.3505 1269.56 37.0496 Q1266.2 41.7081 1266.2 49.9314 Z" fill="#000000" fill-rule="nonzero" fill-opacity="1" /><path clip-path="url(#clip800)" d="M1314.4 27.2059 L1321.86 27.2059 L1321.86 72.576 L1314.4 72.576 L1314.4 27.2059 M1314.4 9.54393 L1321.86 9.54393 L1321.86 18.9825 L1314.4 18.9825 L1314.4 9.54393 Z" fill="#000000" fill-rule="nonzero" fill-opacity="1" /><path clip-path="url(#clip800)" d="M1366.38 28.5427 L1366.38 35.5912 Q1363.22 33.9709 1359.81 33.1607 Q1356.41 32.3505 1352.77 32.3505 Q1347.22 32.3505 1344.42 34.0519 Q1341.67 35.7533 1341.67 39.156 Q1341.67 41.7486 1343.65 43.2475 Q1345.64 44.7058 1351.63 46.0426 L1354.18 46.6097 Q1362.12 48.3111 1365.45 51.4303 Q1368.81 54.509 1368.81 60.0587 Q1368.81 66.3781 1363.78 70.0644 Q1358.8 73.7508 1350.05 73.7508 Q1346.41 73.7508 1342.44 73.0216 Q1338.51 72.3329 1334.13 70.9151 L1334.13 63.2184 Q1338.26 65.3654 1342.27 66.4591 Q1346.28 67.5124 1350.21 67.5124 Q1355.48 67.5124 1358.32 65.73 Q1361.15 63.9071 1361.15 60.6258 Q1361.15 57.5877 1359.09 55.9673 Q1357.06 54.3469 1350.13 52.8481 L1347.54 52.2405 Q1340.61 50.7821 1337.53 47.7845 Q1334.46 44.7463 1334.46 39.4801 Q1334.46 33.0797 1338.99 29.5959 Q1343.53 26.1121 1351.87 26.1121 Q1356.01 26.1121 1359.65 26.7198 Q1363.3 27.3274 1366.38 28.5427 Z" fill="#000000" fill-rule="nonzero" fill-opacity="1" /><path clip-path="url(#clip800)" d="M1387.89 65.7705 L1387.89 89.8329 L1380.39 89.8329 L1380.39 27.2059 L1387.89 27.2059 L1387.89 34.0924 Q1390.24 30.0415 1393.8 28.0971 Q1397.41 26.1121 1402.39 26.1121 Q1410.65 26.1121 1415.8 32.6746 Q1420.98 39.2371 1420.98 49.9314 Q1420.98 60.6258 1415.8 67.1883 Q1410.65 73.7508 1402.39 73.7508 Q1397.41 73.7508 1393.8 71.8063 Q1390.24 69.8214 1387.89 65.7705 M1413.25 49.9314 Q1413.25 41.7081 1409.84 37.0496 Q1406.48 32.3505 1400.57 32.3505 Q1394.65 32.3505 1391.25 37.0496 Q1387.89 41.7081 1387.89 49.9314 Q1387.89 58.1548 1391.25 62.8538 Q1394.65 67.5124 1400.57 67.5124 Q1406.48 67.5124 1409.84 62.8538 Q1413.25 58.1548 1413.25 49.9314 Z" fill="#000000" fill-rule="nonzero" fill-opacity="1" /><path clip-path="url(#clip800)" d="M1472.15 48.0275 L1472.15 51.6733 L1437.88 51.6733 Q1438.36 59.3701 1442.49 63.421 Q1446.67 67.4314 1454.08 67.4314 Q1458.37 67.4314 1462.38 66.3781 Q1466.43 65.3249 1470.4 63.2184 L1470.4 70.267 Q1466.39 71.9684 1462.18 72.8596 Q1457.97 73.7508 1453.63 73.7508 Q1442.78 73.7508 1436.42 67.4314 Q1430.1 61.1119 1430.1 50.3365 Q1430.1 39.1965 1436.09 32.6746 Q1442.13 26.1121 1452.34 26.1121 Q1461.49 26.1121 1466.8 32.0264 Q1472.15 37.9003 1472.15 48.0275 M1464.69 45.84 Q1464.61 39.7232 1461.25 36.0774 Q1457.93 32.4315 1452.42 32.4315 Q1446.18 32.4315 1442.41 35.9558 Q1438.69 39.4801 1438.12 45.8805 L1464.69 45.84 Z" fill="#000000" fill-rule="nonzero" fill-opacity="1" /><path clip-path="url(#clip800)" d="M1510.67 34.1734 Q1509.41 33.4443 1507.92 33.1202 Q1506.46 32.7556 1504.67 32.7556 Q1498.36 32.7556 1494.95 36.8875 Q1491.59 40.9789 1491.59 48.6757 L1491.59 72.576 L1484.1 72.576 L1484.1 27.2059 L1491.59 27.2059 L1491.59 34.2544 Q1493.94 30.1225 1497.71 28.1376 Q1501.47 26.1121 1506.86 26.1121 Q1507.63 26.1121 1508.56 26.2337 Q1509.5 26.3147 1510.63 26.5172 L1510.67 34.1734 Z" fill="#000000" fill-rule="nonzero" fill-opacity="1" /><path clip-path="url(#clip800)" d="M1547.41 28.5427 L1547.41 35.5912 Q1544.25 33.9709 1540.85 33.1607 Q1537.45 32.3505 1533.8 32.3505 Q1528.25 32.3505 1525.46 34.0519 Q1522.7 35.7533 1522.7 39.156 Q1522.7 41.7486 1524.69 43.2475 Q1526.67 44.7058 1532.67 46.0426 L1535.22 46.6097 Q1543.16 48.3111 1546.48 51.4303 Q1549.84 54.509 1549.84 60.0587 Q1549.84 66.3781 1544.82 70.0644 Q1539.84 73.7508 1531.09 73.7508 Q1527.44 73.7508 1523.47 73.0216 Q1519.54 72.3329 1515.17 70.9151 L1515.17 63.2184 Q1519.3 65.3654 1523.31 66.4591 Q1527.32 67.5124 1531.25 67.5124 Q1536.51 67.5124 1539.35 65.73 Q1542.19 63.9071 1542.19 60.6258 Q1542.19 57.5877 1540.12 55.9673 Q1538.09 54.3469 1531.17 52.8481 L1528.58 52.2405 Q1521.65 50.7821 1518.57 47.7845 Q1515.49 44.7463 1515.49 39.4801 Q1515.49 33.0797 1520.03 29.5959 Q1524.56 26.1121 1532.91 26.1121 Q1537.04 26.1121 1540.69 26.7198 Q1544.33 27.3274 1547.41 28.5427 Z" fill="#000000" fill-rule="nonzero" fill-opacity="1" /><path clip-path="url(#clip800)" d="M1582.33 49.7694 Q1573.3 49.7694 1569.81 51.8354 Q1566.33 53.9013 1566.33 58.8839 Q1566.33 62.8538 1568.92 65.2034 Q1571.56 67.5124 1576.05 67.5124 Q1582.25 67.5124 1585.98 63.1374 Q1589.74 58.7219 1589.74 51.4303 L1589.74 49.7694 L1582.33 49.7694 M1597.2 46.6907 L1597.2 72.576 L1589.74 72.576 L1589.74 65.6895 Q1587.19 69.8214 1583.38 71.8063 Q1579.58 73.7508 1574.07 73.7508 Q1567.1 73.7508 1562.97 69.8619 Q1558.88 65.9325 1558.88 59.3701 Q1558.88 51.7138 1563.98 47.825 Q1569.12 43.9361 1579.29 43.9361 L1589.74 43.9361 L1589.74 43.2069 Q1589.74 38.0623 1586.34 35.2672 Q1582.98 32.4315 1576.86 32.4315 Q1572.97 32.4315 1569.29 33.3632 Q1565.6 34.295 1562.2 36.1584 L1562.2 29.2718 Q1566.29 27.692 1570.14 26.9223 Q1573.99 26.1121 1577.63 26.1121 Q1587.48 26.1121 1592.34 31.2163 Q1597.2 36.3204 1597.2 46.6907 Z" fill="#000000" fill-rule="nonzero" fill-opacity="1" /><path clip-path="url(#clip800)" d="M1612.55 9.54393 L1620 9.54393 L1620 72.576 L1612.55 72.576 L1612.55 9.54393 Z" fill="#000000" fill-rule="nonzero" fill-opacity="1" /><path clip-path="url(#clip800)" d="M1679.88 9.62495 Q1674.45 18.942 1671.82 28.0566 Q1669.18 37.1711 1669.18 46.5287 Q1669.18 55.8863 1671.82 65.0818 Q1674.49 74.2369 1679.88 83.5134 L1673.39 83.5134 Q1667.32 73.9938 1664.28 64.7983 Q1661.28 55.6027 1661.28 46.5287 Q1661.28 37.4952 1664.28 28.3401 Q1667.28 19.1851 1673.39 9.62495 L1679.88 9.62495 Z" fill="#000000" fill-rule="nonzero" fill-opacity="1" /><path clip-path="url(#clip800)" d="M1696.81 65.6895 L1710.18 65.6895 L1710.18 19.5497 L1695.63 22.4663 L1695.63 15.0127 L1710.1 12.096 L1718.28 12.096 L1718.28 65.6895 L1731.65 65.6895 L1731.65 72.576 L1696.81 72.576 L1696.81 65.6895 Z" fill="#000000" fill-rule="nonzero" fill-opacity="1" /><path clip-path="url(#clip800)" d="M1765.43 12.096 L1816.59 12.096 L1816.59 18.9825 L1795.12 18.9825 L1795.12 72.576 L1786.9 72.576 L1786.9 18.9825 L1765.43 18.9825 L1765.43 12.096 Z" fill="#000000" fill-rule="nonzero" fill-opacity="1" /><path clip-path="url(#clip800)" d="M1824.49 12.096 L1862.73 12.096 L1862.73 18.9825 L1832.68 18.9825 L1832.68 36.8875 L1861.48 36.8875 L1861.48 43.7741 L1832.68 43.7741 L1832.68 65.6895 L1863.46 65.6895 L1863.46 72.576 L1824.49 72.576 L1824.49 12.096 Z" fill="#000000" fill-rule="nonzero" fill-opacity="1" /><path clip-path="url(#clip800)" d="M1885.1 18.8205 L1885.1 65.8515 L1894.98 65.8515 Q1907.5 65.8515 1913.29 60.1802 Q1919.12 54.509 1919.12 42.2752 Q1919.12 30.1225 1913.29 24.4918 Q1907.5 18.8205 1894.98 18.8205 L1885.1 18.8205 M1876.91 12.096 L1893.72 12.096 Q1911.3 12.096 1919.53 19.4281 Q1927.75 26.7198 1927.75 42.2752 Q1927.75 57.9117 1919.49 65.2439 Q1911.22 72.576 1893.72 72.576 L1876.91 72.576 L1876.91 12.096 Z" fill="#000000" fill-rule="nonzero" fill-opacity="1" /><path clip-path="url(#clip800)" d="M1997.18 20.5624 L1997.18 43.1259 L2019.75 43.1259 L2019.75 50.0125 L1997.18 50.0125 L1997.18 72.576 L1990.38 72.576 L1990.38 50.0125 L1967.81 50.0125 L1967.81 43.1259 L1990.38 43.1259 L1990.38 20.5624 L1997.18 20.5624 Z" fill="#000000" fill-rule="nonzero" fill-opacity="1" /><path clip-path="url(#clip800)" d="M2065.2 65.6895 L2078.57 65.6895 L2078.57 19.5497 L2064.02 22.4663 L2064.02 15.0127 L2078.49 12.096 L2086.67 12.096 L2086.67 65.6895 L2100.04 65.6895 L2100.04 72.576 L2065.2 72.576 L2065.2 65.6895 Z" fill="#000000" fill-rule="nonzero" fill-opacity="1" /><path clip-path="url(#clip800)" d="M2179.6 45.1919 L2179.6 72.576 L2172.14 72.576 L2172.14 45.4349 Q2172.14 38.994 2169.63 35.7938 Q2167.12 32.5936 2162.1 32.5936 Q2156.06 32.5936 2152.58 36.4419 Q2149.09 40.2903 2149.09 46.9338 L2149.09 72.576 L2141.6 72.576 L2141.6 27.2059 L2149.09 27.2059 L2149.09 34.2544 Q2151.77 30.163 2155.37 28.1376 Q2159.02 26.1121 2163.76 26.1121 Q2171.58 26.1121 2175.59 30.9732 Q2179.6 35.7938 2179.6 45.1919 Z" fill="#000000" fill-rule="nonzero" fill-opacity="1" /><path clip-path="url(#clip800)" d="M2212.04 32.4315 Q2206.05 32.4315 2202.56 37.1306 Q2199.08 41.7891 2199.08 49.9314 Q2199.08 58.0738 2202.52 62.7728 Q2206.01 67.4314 2212.04 67.4314 Q2218 67.4314 2221.48 62.7323 Q2224.97 58.0333 2224.97 49.9314 Q2224.97 41.8701 2221.48 37.1711 Q2218 32.4315 2212.04 32.4315 M2212.04 26.1121 Q2221.77 26.1121 2227.32 32.4315 Q2232.87 38.7509 2232.87 49.9314 Q2232.87 61.0714 2227.32 67.4314 Q2221.77 73.7508 2212.04 73.7508 Q2202.28 73.7508 2196.73 67.4314 Q2191.22 61.0714 2191.22 49.9314 Q2191.22 38.7509 2196.73 32.4315 Q2202.28 26.1121 2212.04 26.1121 Z" fill="#000000" fill-rule="nonzero" fill-opacity="1" /><path clip-path="url(#clip800)" d="M2242.99 46.5287 L2264.83 46.5287 L2264.83 53.1722 L2242.99 53.1722 L2242.99 46.5287 Z" fill="#000000" fill-rule="nonzero" fill-opacity="1" /><path clip-path="url(#clip800)" d="M2261.02 12.096 L2312.18 12.096 L2312.18 18.9825 L2290.71 18.9825 L2290.71 72.576 L2282.49 72.576 L2282.49 18.9825 L2261.02 18.9825 L2261.02 12.096 Z" fill="#000000" fill-rule="nonzero" fill-opacity="1" /><path clip-path="url(#clip800)" d="M2320.08 12.096 L2358.32 12.096 L2358.32 18.9825 L2328.26 18.9825 L2328.26 36.8875 L2357.07 36.8875 L2357.07 43.7741 L2328.26 43.7741 L2328.26 65.6895 L2359.05 65.6895 L2359.05 72.576 L2320.08 72.576 L2320.08 12.096 Z" fill="#000000" fill-rule="nonzero" fill-opacity="1" /><path clip-path="url(#clip800)" d="M2380.68 18.8205 L2380.68 65.8515 L2390.57 65.8515 Q2403.08 65.8515 2408.88 60.1802 Q2414.71 54.509 2414.71 42.2752 Q2414.71 30.1225 2408.88 24.4918 Q2403.08 18.8205 2390.57 18.8205 L2380.68 18.8205 M2372.5 12.096 L2389.31 12.096 Q2406.89 12.096 2415.12 19.4281 Q2423.34 26.7198 2423.34 42.2752 Q2423.34 57.9117 2415.07 65.2439 Q2406.81 72.576 2389.31 72.576 L2372.5 72.576 L2372.5 12.096 Z" fill="#000000" fill-rule="nonzero" fill-opacity="1" /><path clip-path="url(#clip800)" d="M2488.72 34.1734 Q2487.46 33.4443 2485.97 33.1202 Q2484.51 32.7556 2482.73 32.7556 Q2476.41 32.7556 2473 36.8875 Q2469.64 40.9789 2469.64 48.6757 L2469.64 72.576 L2462.15 72.576 L2462.15 27.2059 L2469.64 27.2059 L2469.64 34.2544 Q2471.99 30.1225 2475.76 28.1376 Q2479.52 26.1121 2484.91 26.1121 Q2485.68 26.1121 2486.61 26.2337 Q2487.55 26.3147 2488.68 26.5172 L2488.72 34.1734 Z" fill="#000000" fill-rule="nonzero" fill-opacity="1" /><path clip-path="url(#clip800)" d="M2533.52 48.0275 L2533.52 51.6733 L2499.25 51.6733 Q2499.74 59.3701 2503.87 63.421 Q2508.04 67.4314 2515.46 67.4314 Q2519.75 67.4314 2523.76 66.3781 Q2527.81 65.3249 2531.78 63.2184 L2531.78 70.267 Q2527.77 71.9684 2523.56 72.8596 Q2519.35 73.7508 2515.01 73.7508 Q2504.15 73.7508 2497.79 67.4314 Q2491.47 61.1119 2491.47 50.3365 Q2491.47 39.1965 2497.47 32.6746 Q2503.51 26.1121 2513.71 26.1121 Q2522.87 26.1121 2528.18 32.0264 Q2533.52 37.9003 2533.52 48.0275 M2526.07 45.84 Q2525.99 39.7232 2522.63 36.0774 Q2519.3 32.4315 2513.8 32.4315 Q2507.56 32.4315 2503.79 35.9558 Q2500.06 39.4801 2499.5 45.8805 L2526.07 45.84 Z" fill="#000000" fill-rule="nonzero" fill-opacity="1" /><path clip-path="url(#clip800)" d="M2575.61 49.3643 Q2575.61 41.2625 2572.25 36.8065 Q2568.93 32.3505 2562.89 32.3505 Q2556.9 32.3505 2553.53 36.8065 Q2550.21 41.2625 2550.21 49.3643 Q2550.21 57.4256 2553.53 61.8816 Q2556.9 66.3376 2562.89 66.3376 Q2568.93 66.3376 2572.25 61.8816 Q2575.61 57.4256 2575.61 49.3643 M2583.07 66.9452 Q2583.07 78.5308 2577.92 84.1616 Q2572.78 89.8329 2562.16 89.8329 Q2558.23 89.8329 2554.75 89.2252 Q2551.27 88.6581 2547.99 87.4428 L2547.99 80.1917 Q2551.27 81.9741 2554.47 82.8248 Q2557.67 83.6755 2560.99 83.6755 Q2568.32 83.6755 2571.97 79.8271 Q2575.61 76.0193 2575.61 68.282 L2575.61 64.5957 Q2573.3 68.6061 2569.7 70.5911 Q2566.09 72.576 2561.07 72.576 Q2552.72 72.576 2547.62 66.2161 Q2542.52 59.8562 2542.52 49.3643 Q2542.52 38.832 2547.62 32.472 Q2552.72 26.1121 2561.07 26.1121 Q2566.09 26.1121 2569.7 28.0971 Q2573.3 30.082 2575.61 34.0924 L2575.61 27.2059 L2583.07 27.2059 L2583.07 66.9452 Z" fill="#000000" fill-rule="nonzero" fill-opacity="1" /><path clip-path="url(#clip800)" d="M2598.42 27.2059 L2605.87 27.2059 L2605.87 72.576 L2598.42 72.576 L2598.42 27.2059 M2598.42 9.54393 L2605.87 9.54393 L2605.87 18.9825 L2598.42 18.9825 L2598.42 9.54393 Z" fill="#000000" fill-rule="nonzero" fill-opacity="1" /><path clip-path="url(#clip800)" d="M2639.05 32.4315 Q2633.05 32.4315 2629.57 37.1306 Q2626.09 41.7891 2626.09 49.9314 Q2626.09 58.0738 2629.53 62.7728 Q2633.01 67.4314 2639.05 67.4314 Q2645 67.4314 2648.49 62.7323 Q2651.97 58.0333 2651.97 49.9314 Q2651.97 41.8701 2648.49 37.1711 Q2645 32.4315 2639.05 32.4315 M2639.05 26.1121 Q2648.77 26.1121 2654.32 32.4315 Q2659.87 38.7509 2659.87 49.9314 Q2659.87 61.0714 2654.32 67.4314 Q2648.77 73.7508 2639.05 73.7508 Q2629.29 73.7508 2623.74 67.4314 Q2618.23 61.0714 2618.23 49.9314 Q2618.23 38.7509 2623.74 32.4315 Q2629.29 26.1121 2639.05 26.1121 Z" fill="#000000" fill-rule="nonzero" fill-opacity="1" /><path clip-path="url(#clip800)" d="M2709.94 45.1919 L2709.94 72.576 L2702.49 72.576 L2702.49 45.4349 Q2702.49 38.994 2699.98 35.7938 Q2697.46 32.5936 2692.44 32.5936 Q2686.4 32.5936 2682.92 36.4419 Q2679.44 40.2903 2679.44 46.9338 L2679.44 72.576 L2671.94 72.576 L2671.94 27.2059 L2679.44 27.2059 L2679.44 34.2544 Q2682.11 30.163 2685.72 28.1376 Q2689.36 26.1121 2694.1 26.1121 Q2701.92 26.1121 2705.93 30.9732 Q2709.94 35.7938 2709.94 45.1919 Z" fill="#000000" fill-rule="nonzero" fill-opacity="1" /><path clip-path="url(#clip800)" d="M2723.63 9.62495 L2730.11 9.62495 Q2736.19 19.1851 2739.19 28.3401 Q2742.23 37.4952 2742.23 46.5287 Q2742.23 55.6027 2739.19 64.7983 Q2736.19 73.9938 2730.11 83.5134 L2723.63 83.5134 Q2729.02 74.2369 2731.65 65.0818 Q2734.33 55.8863 2734.33 46.5287 Q2734.33 37.1711 2731.65 28.0566 Q2729.02 18.942 2723.63 9.62495 Z" fill="#000000" fill-rule="nonzero" fill-opacity="1" /><polyline clip-path="url(#clip801)" style="stroke:#0000ff; stroke-linecap:round; stroke-linejoin:round; stroke-width:8; stroke-opacity:1; fill:none" points="323.472,654.246 381.159,823.302 438.846,926.903 496.533,989.679 554.22,1029.64 611.907,1056.73 669.594,1076.16 727.281,1090.79 784.967,1102.25 842.654,1111.52 900.341,1119.23 958.028,1125.78 1015.72,1131.45 1073.4,1136.45 1131.09,1140.9 1188.78,1144.92 1246.46,1148.58 1304.15,1151.94 1361.84,1155.04 1419.52,1157.92 1477.21,1160.61 1534.9,1163.14 1592.58,1165.52 1650.27,1167.77 1707.96,1169.89 1765.65,1171.91 1823.33,1173.84 1881.02,1175.67 1938.71,1177.42 1996.39,1179.09 2054.08,1180.7 2111.77,1182.23 2169.45,1183.71 2227.14,1185.13 2284.83,1186.49 2342.51,1187.81 2400.2,1189.08 2457.89,1190.3 2515.58,1191.48 2573.26,1192.62 "/>
<polyline clip-path="url(#clip801)" style="stroke:#ff0000; stroke-linecap:round; stroke-linejoin:round; stroke-width:4; stroke-opacity:1; fill:none" stroke-dasharray="16, 10" points="-2128.8,173.254 5025.53,173.254 "/>
<polyline clip-path="url(#clip801)" style="stroke:#808080; stroke-linecap:round; stroke-linejoin:round; stroke-width:4; stroke-opacity:1; fill:none" stroke-dasharray="2, 4" points="-2128.8,1688.65 5025.53,1688.65 "/>
<polyline clip-path="url(#clip801)" style="stroke:#008080; stroke-linecap:round; stroke-linejoin:round; stroke-width:4; stroke-opacity:1; fill:none" stroke-dasharray="2, 4" points="-2128.8,654.246 5025.53,654.246 "/>
<path clip-path="url(#clip800)" d="M1872.9 1088.18 L2561.26 1088.18 L2561.26 828.979 L1872.9 828.979  Z" fill="#ffffff" fill-rule="evenodd" fill-opacity="1"/>
<polyline clip-path="url(#clip800)" style="stroke:#000000; stroke-linecap:round; stroke-linejoin:round; stroke-width:4; stroke-opacity:1; fill:none" points="1872.9,1088.18 2561.26,1088.18 2561.26,828.979 1872.9,828.979 1872.9,1088.18 "/>
<polyline clip-path="url(#clip800)" style="stroke:#0000ff; stroke-linecap:round; stroke-linejoin:round; stroke-width:8; stroke-opacity:1; fill:none" points="1899.4,880.819 2058.39,880.819 "/>
<path clip-path="url(#clip800)" d="M2098.15 866.131 L2110.12 898.099 L2105.6 898.099 L2098.33 878.932 L2089.4 898.099 L2084.88 898.099 L2096.25 873.238 L2094.54 868.654 Q2093.45 865.738 2090.97 865.738 L2088.75 865.738 L2088.75 862.08 L2091.46 862.127 Q2096.69 862.196 2098.15 866.131 Z" fill="#000000" fill-rule="nonzero" fill-opacity="1" /><path clip-path="url(#clip800)" d="M2141.3 862.127 Q2138.19 867.451 2136.69 872.659 Q2135.18 877.867 2135.18 883.215 Q2135.18 888.562 2136.69 893.816 Q2138.22 899.048 2141.3 904.349 L2137.59 904.349 Q2134.12 898.909 2132.38 893.654 Q2130.67 888.4 2130.67 883.215 Q2130.67 878.053 2132.38 872.821 Q2134.1 867.59 2137.59 862.127 L2141.3 862.127 Z" fill="#000000" fill-rule="nonzero" fill-opacity="1" /><path clip-path="url(#clip800)" d="M2169.74 877.15 Q2171.34 874.279 2173.56 872.914 Q2175.79 871.548 2178.8 871.548 Q2182.85 871.548 2185.05 874.395 Q2187.24 877.219 2187.24 882.451 L2187.24 898.099 L2182.96 898.099 L2182.96 882.59 Q2182.96 878.863 2181.64 877.057 Q2180.32 875.252 2177.61 875.252 Q2174.3 875.252 2172.38 877.451 Q2170.46 879.65 2170.46 883.446 L2170.46 898.099 L2166.18 898.099 L2166.18 882.59 Q2166.18 878.84 2164.86 877.057 Q2163.54 875.252 2160.79 875.252 Q2157.52 875.252 2155.6 877.474 Q2153.68 879.673 2153.68 883.446 L2153.68 898.099 L2149.4 898.099 L2149.4 872.173 L2153.68 872.173 L2153.68 876.201 Q2155.14 873.816 2157.18 872.682 Q2159.21 871.548 2162.01 871.548 Q2164.84 871.548 2166.8 872.983 Q2168.8 874.418 2169.74 877.15 Z" fill="#000000" fill-rule="nonzero" fill-opacity="1" /><path clip-path="url(#clip800)" d="M2217.92 884.071 L2217.92 886.154 L2198.33 886.154 Q2198.61 890.552 2200.97 892.867 Q2203.36 895.159 2207.59 895.159 Q2210.05 895.159 2212.34 894.557 Q2214.65 893.955 2216.92 892.752 L2216.92 896.779 Q2214.63 897.751 2212.22 898.261 Q2209.81 898.77 2207.34 898.77 Q2201.13 898.77 2197.5 895.159 Q2193.89 891.548 2193.89 885.39 Q2193.89 879.025 2197.31 875.298 Q2200.76 871.548 2206.6 871.548 Q2211.83 871.548 2214.86 874.928 Q2217.92 878.284 2217.92 884.071 M2213.66 882.821 Q2213.61 879.326 2211.69 877.242 Q2209.79 875.159 2206.64 875.159 Q2203.08 875.159 2200.92 877.173 Q2198.8 879.187 2198.47 882.844 L2213.66 882.821 Z" fill="#000000" fill-rule="nonzero" fill-opacity="1" /><path clip-path="url(#clip800)" d="M2229.12 864.812 L2229.12 872.173 L2237.89 872.173 L2237.89 875.483 L2229.12 875.483 L2229.12 889.557 Q2229.12 892.728 2229.98 893.631 Q2230.86 894.534 2233.52 894.534 L2237.89 894.534 L2237.89 898.099 L2233.52 898.099 Q2228.59 898.099 2226.71 896.27 Q2224.84 894.418 2224.84 889.557 L2224.84 875.483 L2221.71 875.483 L2221.71 872.173 L2224.84 872.173 L2224.84 864.812 L2229.12 864.812 Z" fill="#000000" fill-rule="nonzero" fill-opacity="1" /><path clip-path="url(#clip800)" d="M2255.28 885.066 Q2250.11 885.066 2248.12 886.247 Q2246.13 887.427 2246.13 890.275 Q2246.13 892.543 2247.61 893.886 Q2249.12 895.205 2251.69 895.205 Q2255.23 895.205 2257.36 892.705 Q2259.51 890.182 2259.51 886.015 L2259.51 885.066 L2255.28 885.066 M2263.77 883.307 L2263.77 898.099 L2259.51 898.099 L2259.51 894.164 Q2258.05 896.525 2255.88 897.659 Q2253.7 898.77 2250.55 898.77 Q2246.57 898.77 2244.21 896.548 Q2241.87 894.302 2241.87 890.552 Q2241.87 886.177 2244.79 883.955 Q2247.73 881.733 2253.54 881.733 L2259.51 881.733 L2259.51 881.316 Q2259.51 878.377 2257.57 876.779 Q2255.65 875.159 2252.15 875.159 Q2249.93 875.159 2247.82 875.691 Q2245.72 876.224 2243.77 877.289 L2243.77 873.353 Q2246.11 872.451 2248.31 872.011 Q2250.51 871.548 2252.59 871.548 Q2258.22 871.548 2260.99 874.465 Q2263.77 877.381 2263.77 883.307 Z" fill="#000000" fill-rule="nonzero" fill-opacity="1" /><path clip-path="url(#clip800)" d="M2276.67 894.21 L2276.67 907.96 L2272.38 907.96 L2272.38 872.173 L2276.67 872.173 L2276.67 876.108 Q2278.01 873.793 2280.04 872.682 Q2282.11 871.548 2284.95 871.548 Q2289.67 871.548 2292.61 875.298 Q2295.58 879.048 2295.58 885.159 Q2295.58 891.27 2292.61 895.02 Q2289.67 898.77 2284.95 898.77 Q2282.11 898.77 2280.04 897.659 Q2278.01 896.525 2276.67 894.21 M2291.16 885.159 Q2291.16 880.46 2289.21 877.798 Q2287.29 875.113 2283.91 875.113 Q2280.53 875.113 2278.59 877.798 Q2276.67 880.46 2276.67 885.159 Q2276.67 889.858 2278.59 892.543 Q2280.53 895.205 2283.91 895.205 Q2287.29 895.205 2289.21 892.543 Q2291.16 889.858 2291.16 885.159 Z" fill="#000000" fill-rule="nonzero" fill-opacity="1" /><path clip-path="url(#clip800)" d="M2312.68 875.159 Q2309.26 875.159 2307.27 877.844 Q2305.28 880.506 2305.28 885.159 Q2305.28 889.812 2307.24 892.497 Q2309.23 895.159 2312.68 895.159 Q2316.09 895.159 2318.08 892.474 Q2320.07 889.789 2320.07 885.159 Q2320.07 880.553 2318.08 877.867 Q2316.09 875.159 2312.68 875.159 M2312.68 871.548 Q2318.24 871.548 2321.41 875.159 Q2324.58 878.77 2324.58 885.159 Q2324.58 891.525 2321.41 895.159 Q2318.24 898.77 2312.68 898.77 Q2307.1 898.77 2303.93 895.159 Q2300.79 891.525 2300.79 885.159 Q2300.79 878.77 2303.93 875.159 Q2307.1 871.548 2312.68 871.548 Z" fill="#000000" fill-rule="nonzero" fill-opacity="1" /><path clip-path="url(#clip800)" d="M2335.76 894.21 L2335.76 907.96 L2331.48 907.96 L2331.48 872.173 L2335.76 872.173 L2335.76 876.108 Q2337.1 873.793 2339.14 872.682 Q2341.2 871.548 2344.05 871.548 Q2348.77 871.548 2351.71 875.298 Q2354.67 879.048 2354.67 885.159 Q2354.67 891.27 2351.71 895.02 Q2348.77 898.77 2344.05 898.77 Q2341.2 898.77 2339.14 897.659 Q2337.1 896.525 2335.76 894.21 M2350.25 885.159 Q2350.25 880.46 2348.31 877.798 Q2346.39 875.113 2343.01 875.113 Q2339.63 875.113 2337.68 877.798 Q2335.76 880.46 2335.76 885.159 Q2335.76 889.858 2337.68 892.543 Q2339.63 895.205 2343.01 895.205 Q2346.39 895.205 2348.31 892.543 Q2350.25 889.858 2350.25 885.159 Z" fill="#000000" fill-rule="nonzero" fill-opacity="1" /><path clip-path="url(#clip800)" d="M2361.29 887.867 L2361.29 872.173 L2365.55 872.173 L2365.55 887.705 Q2365.55 891.386 2366.99 893.238 Q2368.42 895.066 2371.29 895.066 Q2374.74 895.066 2376.73 892.867 Q2378.75 890.668 2378.75 886.872 L2378.75 872.173 L2383.01 872.173 L2383.01 898.099 L2378.75 898.099 L2378.75 894.117 Q2377.2 896.478 2375.14 897.636 Q2373.1 898.77 2370.39 898.77 Q2365.92 898.77 2363.61 895.992 Q2361.29 893.214 2361.29 887.867 M2372.01 871.548 L2372.01 871.548 Z" fill="#000000" fill-rule="nonzero" fill-opacity="1" /><path clip-path="url(#clip800)" d="M2391.78 862.08 L2396.04 862.08 L2396.04 898.099 L2391.78 898.099 L2391.78 862.08 Z" fill="#000000" fill-rule="nonzero" fill-opacity="1" /><path clip-path="url(#clip800)" d="M2416.73 885.066 Q2411.57 885.066 2409.58 886.247 Q2407.59 887.427 2407.59 890.275 Q2407.59 892.543 2409.07 893.886 Q2410.58 895.205 2413.15 895.205 Q2416.69 895.205 2418.82 892.705 Q2420.97 890.182 2420.97 886.015 L2420.97 885.066 L2416.73 885.066 M2425.23 883.307 L2425.23 898.099 L2420.97 898.099 L2420.97 894.164 Q2419.51 896.525 2417.34 897.659 Q2415.16 898.77 2412.01 898.77 Q2408.03 898.77 2405.67 896.548 Q2403.33 894.302 2403.33 890.552 Q2403.33 886.177 2406.25 883.955 Q2409.19 881.733 2415 881.733 L2420.97 881.733 L2420.97 881.316 Q2420.97 878.377 2419.03 876.779 Q2417.1 875.159 2413.61 875.159 Q2411.39 875.159 2409.28 875.691 Q2407.17 876.224 2405.23 877.289 L2405.23 873.353 Q2407.57 872.451 2409.77 872.011 Q2411.97 871.548 2414.05 871.548 Q2419.67 871.548 2422.45 874.465 Q2425.23 877.381 2425.23 883.307 Z" fill="#000000" fill-rule="nonzero" fill-opacity="1" /><path clip-path="url(#clip800)" d="M2438.22 864.812 L2438.22 872.173 L2446.99 872.173 L2446.99 875.483 L2438.22 875.483 L2438.22 889.557 Q2438.22 892.728 2439.07 893.631 Q2439.95 894.534 2442.61 894.534 L2446.99 894.534 L2446.99 898.099 L2442.61 898.099 Q2437.68 898.099 2435.81 896.27 Q2433.93 894.418 2433.93 889.557 L2433.93 875.483 L2430.81 875.483 L2430.81 872.173 L2433.93 872.173 L2433.93 864.812 L2438.22 864.812 Z" fill="#000000" fill-rule="nonzero" fill-opacity="1" /><path clip-path="url(#clip800)" d="M2452.59 872.173 L2456.85 872.173 L2456.85 898.099 L2452.59 898.099 L2452.59 872.173 M2452.59 862.08 L2456.85 862.08 L2456.85 867.474 L2452.59 867.474 L2452.59 862.08 Z" fill="#000000" fill-rule="nonzero" fill-opacity="1" /><path clip-path="url(#clip800)" d="M2475.81 875.159 Q2472.38 875.159 2470.39 877.844 Q2468.4 880.506 2468.4 885.159 Q2468.4 889.812 2470.37 892.497 Q2472.36 895.159 2475.81 895.159 Q2479.21 895.159 2481.2 892.474 Q2483.19 889.789 2483.19 885.159 Q2483.19 880.553 2481.2 877.867 Q2479.21 875.159 2475.81 875.159 M2475.81 871.548 Q2481.36 871.548 2484.53 875.159 Q2487.71 878.77 2487.71 885.159 Q2487.71 891.525 2484.53 895.159 Q2481.36 898.77 2475.81 898.77 Q2470.23 898.77 2467.06 895.159 Q2463.91 891.525 2463.91 885.159 Q2463.91 878.77 2467.06 875.159 Q2470.23 871.548 2475.81 871.548 Z" fill="#000000" fill-rule="nonzero" fill-opacity="1" /><path clip-path="url(#clip800)" d="M2516.32 882.451 L2516.32 898.099 L2512.06 898.099 L2512.06 882.59 Q2512.06 878.909 2510.62 877.08 Q2509.19 875.252 2506.32 875.252 Q2502.87 875.252 2500.88 877.451 Q2498.89 879.65 2498.89 883.446 L2498.89 898.099 L2494.6 898.099 L2494.6 872.173 L2498.89 872.173 L2498.89 876.201 Q2500.41 873.863 2502.47 872.705 Q2504.56 871.548 2507.27 871.548 Q2511.73 871.548 2514.03 874.326 Q2516.32 877.08 2516.32 882.451 Z" fill="#000000" fill-rule="nonzero" fill-opacity="1" /><path clip-path="url(#clip800)" d="M2524.14 862.127 L2527.84 862.127 Q2531.32 867.59 2533.03 872.821 Q2534.77 878.053 2534.77 883.215 Q2534.77 888.4 2533.03 893.654 Q2531.32 898.909 2527.84 904.349 L2524.14 904.349 Q2527.22 899.048 2528.72 893.816 Q2530.25 888.562 2530.25 883.215 Q2530.25 877.867 2528.72 872.659 Q2527.22 867.451 2524.14 862.127 Z" fill="#000000" fill-rule="nonzero" fill-opacity="1" /><polyline clip-path="url(#clip800)" style="stroke:#ff0000; stroke-linecap:round; stroke-linejoin:round; stroke-width:4; stroke-opacity:1; fill:none" stroke-dasharray="16, 10" points="1899.4,932.659 2058.39,932.659 "/>
<path clip-path="url(#clip800)" d="M2098.15 917.971 L2110.12 949.939 L2105.6 949.939 L2098.33 930.772 L2089.4 949.939 L2084.88 949.939 L2096.25 925.078 L2094.54 920.494 Q2093.45 917.578 2090.97 917.578 L2088.75 917.578 L2088.75 913.92 L2091.46 913.967 Q2096.69 914.036 2098.15 917.971 Z" fill="#000000" fill-rule="nonzero" fill-opacity="1" /><path clip-path="url(#clip800)" d="M2131.62 928.411 L2161.3 928.411 L2161.3 932.3 L2131.62 932.3 L2131.62 928.411 M2131.62 937.855 L2161.3 937.855 L2161.3 941.791 L2131.62 941.791 L2131.62 937.855 Z" fill="#000000" fill-rule="nonzero" fill-opacity="1" /><path clip-path="url(#clip800)" d="M2187.27 946.004 L2194.91 946.004 L2194.91 919.638 L2186.6 921.305 L2186.6 917.045 L2194.86 915.379 L2199.54 915.379 L2199.54 946.004 L2207.17 946.004 L2207.17 949.939 L2187.27 949.939 L2187.27 946.004 Z" fill="#000000" fill-rule="nonzero" fill-opacity="1" /><polyline clip-path="url(#clip800)" style="stroke:#808080; stroke-linecap:round; stroke-linejoin:round; stroke-width:4; stroke-opacity:1; fill:none" stroke-dasharray="2, 4" points="1899.4,984.499 2058.39,984.499 "/>
<path clip-path="url(#clip800)" d="M2098.15 969.811 L2110.12 1001.78 L2105.6 1001.78 L2098.33 982.612 L2089.4 1001.78 L2084.88 1001.78 L2096.25 976.918 L2094.54 972.334 Q2093.45 969.418 2090.97 969.418 L2088.75 969.418 L2088.75 965.76 L2091.46 965.807 Q2096.69 965.876 2098.15 969.811 Z" fill="#000000" fill-rule="nonzero" fill-opacity="1" /><path clip-path="url(#clip800)" d="M2141.3 965.807 Q2138.19 971.131 2136.69 976.339 Q2135.18 981.547 2135.18 986.895 Q2135.18 992.242 2136.69 997.496 Q2138.22 1002.73 2141.3 1008.03 L2137.59 1008.03 Q2134.12 1002.59 2132.38 997.334 Q2130.67 992.08 2130.67 986.895 Q2130.67 981.733 2132.38 976.501 Q2134.1 971.27 2137.59 965.807 L2141.3 965.807 Z" fill="#000000" fill-rule="nonzero" fill-opacity="1" /><path clip-path="url(#clip800)" d="M2171.11 986.131 L2171.11 1001.78 L2166.85 1001.78 L2166.85 986.27 Q2166.85 982.589 2165.42 980.76 Q2163.98 978.932 2161.11 978.932 Q2157.66 978.932 2155.67 981.131 Q2153.68 983.33 2153.68 987.126 L2153.68 1001.78 L2149.4 1001.78 L2149.4 975.853 L2153.68 975.853 L2153.68 979.881 Q2155.21 977.543 2157.27 976.385 Q2159.35 975.228 2162.06 975.228 Q2166.53 975.228 2168.82 978.006 Q2171.11 980.76 2171.11 986.131 Z" fill="#000000" fill-rule="nonzero" fill-opacity="1" /><path clip-path="url(#clip800)" d="M2189.65 978.839 Q2186.23 978.839 2184.24 981.524 Q2182.24 984.186 2182.24 988.839 Q2182.24 993.492 2184.21 996.177 Q2186.2 998.839 2189.65 998.839 Q2193.05 998.839 2195.05 996.154 Q2197.04 993.469 2197.04 988.839 Q2197.04 984.233 2195.05 981.547 Q2193.05 978.839 2189.65 978.839 M2189.65 975.228 Q2195.21 975.228 2198.38 978.839 Q2201.55 982.45 2201.55 988.839 Q2201.55 995.205 2198.38 998.839 Q2195.21 1002.45 2189.65 1002.45 Q2184.07 1002.45 2180.9 998.839 Q2177.75 995.205 2177.75 988.839 Q2177.75 982.45 2180.9 978.839 Q2184.07 975.228 2189.65 975.228 Z" fill="#000000" fill-rule="nonzero" fill-opacity="1" /><path clip-path="url(#clip800)" d="M2219.07 967.219 L2248.31 967.219 L2248.31 971.154 L2236.04 971.154 L2236.04 1001.78 L2231.34 1001.78 L2231.34 971.154 L2219.07 971.154 L2219.07 967.219 Z" fill="#000000" fill-rule="nonzero" fill-opacity="1" /><path clip-path="url(#clip800)" d="M2252.82 967.219 L2274.67 967.219 L2274.67 971.154 L2257.5 971.154 L2257.5 981.385 L2273.96 981.385 L2273.96 985.32 L2257.5 985.32 L2257.5 997.844 L2275.09 997.844 L2275.09 1001.78 L2252.82 1001.78 L2252.82 967.219 Z" fill="#000000" fill-rule="nonzero" fill-opacity="1" /><path clip-path="url(#clip800)" d="M2287.45 971.061 L2287.45 997.936 L2293.1 997.936 Q2300.25 997.936 2303.56 994.695 Q2306.9 991.455 2306.9 984.464 Q2306.9 977.52 2303.56 974.302 Q2300.25 971.061 2293.1 971.061 L2287.45 971.061 M2282.78 967.219 L2292.38 967.219 Q2302.43 967.219 2307.13 971.409 Q2311.83 975.575 2311.83 984.464 Q2311.83 993.399 2307.1 997.589 Q2302.38 1001.78 2292.38 1001.78 L2282.78 1001.78 L2282.78 967.219 Z" fill="#000000" fill-rule="nonzero" fill-opacity="1" /><path clip-path="url(#clip800)" d="M2335.62 976.617 L2335.62 980.645 Q2333.82 979.719 2331.87 979.256 Q2329.93 978.793 2327.85 978.793 Q2324.67 978.793 2323.08 979.765 Q2321.5 980.737 2321.5 982.682 Q2321.5 984.163 2322.64 985.02 Q2323.77 985.853 2327.2 986.617 L2328.66 986.941 Q2333.19 987.913 2335.09 989.695 Q2337.01 991.455 2337.01 994.626 Q2337.01 998.237 2334.14 1000.34 Q2331.29 1002.45 2326.29 1002.45 Q2324.21 1002.45 2321.94 1002.03 Q2319.7 1001.64 2317.2 1000.83 L2317.2 996.432 Q2319.56 997.658 2321.85 998.283 Q2324.14 998.885 2326.39 998.885 Q2329.4 998.885 2331.02 997.867 Q2332.64 996.825 2332.64 994.95 Q2332.64 993.214 2331.46 992.288 Q2330.3 991.362 2326.34 990.506 L2324.86 990.158 Q2320.9 989.325 2319.14 987.612 Q2317.38 985.876 2317.38 982.867 Q2317.38 979.209 2319.98 977.219 Q2322.57 975.228 2327.34 975.228 Q2329.7 975.228 2331.78 975.575 Q2333.86 975.922 2335.62 976.617 Z" fill="#000000" fill-rule="nonzero" fill-opacity="1" /><path clip-path="url(#clip800)" d="M2343.12 965.807 L2346.83 965.807 Q2350.3 971.27 2352.01 976.501 Q2353.75 981.733 2353.75 986.895 Q2353.75 992.08 2352.01 997.334 Q2350.3 1002.59 2346.83 1008.03 L2343.12 1008.03 Q2346.2 1002.73 2347.71 997.496 Q2349.23 992.242 2349.23 986.895 Q2349.23 981.547 2347.71 976.339 Q2346.2 971.131 2343.12 965.807 Z" fill="#000000" fill-rule="nonzero" fill-opacity="1" /><polyline clip-path="url(#clip800)" style="stroke:#008080; stroke-linecap:round; stroke-linejoin:round; stroke-width:4; stroke-opacity:1; fill:none" stroke-dasharray="2, 4" points="1899.4,1036.34 2058.39,1036.34 "/>
<path clip-path="url(#clip800)" d="M2098.15 1021.65 L2110.12 1053.62 L2105.6 1053.62 L2098.33 1034.45 L2089.4 1053.62 L2084.88 1053.62 L2096.25 1028.76 L2094.54 1024.17 Q2093.45 1021.26 2090.97 1021.26 L2088.75 1021.26 L2088.75 1017.6 L2091.46 1017.65 Q2096.69 1017.72 2098.15 1021.65 Z" fill="#000000" fill-rule="nonzero" fill-opacity="1" /><path clip-path="url(#clip800)" d="M2141.3 1017.65 Q2138.19 1022.97 2136.69 1028.18 Q2135.18 1033.39 2135.18 1038.73 Q2135.18 1044.08 2136.69 1049.34 Q2138.22 1054.57 2141.3 1059.87 L2137.59 1059.87 Q2134.12 1054.43 2132.38 1049.17 Q2130.67 1043.92 2130.67 1038.73 Q2130.67 1033.57 2132.38 1028.34 Q2134.1 1023.11 2137.59 1017.65 L2141.3 1017.65 Z" fill="#000000" fill-rule="nonzero" fill-opacity="1" /><path clip-path="url(#clip800)" d="M2147.08 1027.69 L2151.34 1027.69 L2156.67 1047.92 L2161.97 1027.69 L2166.99 1027.69 L2172.31 1047.92 L2177.61 1027.69 L2181.87 1027.69 L2175.09 1053.62 L2170.07 1053.62 L2164.49 1032.37 L2158.89 1053.62 L2153.87 1053.62 L2147.08 1027.69 Z" fill="#000000" fill-rule="nonzero" fill-opacity="1" /><path clip-path="url(#clip800)" d="M2188.33 1027.69 L2192.59 1027.69 L2192.59 1053.62 L2188.33 1053.62 L2188.33 1027.69 M2188.33 1017.6 L2192.59 1017.6 L2192.59 1022.99 L2188.33 1022.99 L2188.33 1017.6 Z" fill="#000000" fill-rule="nonzero" fill-opacity="1" /><path clip-path="url(#clip800)" d="M2205.72 1020.33 L2205.72 1027.69 L2214.49 1027.69 L2214.49 1031 L2205.72 1031 L2205.72 1045.08 Q2205.72 1048.25 2206.57 1049.15 Q2207.45 1050.05 2210.11 1050.05 L2214.49 1050.05 L2214.49 1053.62 L2210.11 1053.62 Q2205.18 1053.62 2203.31 1051.79 Q2201.43 1049.94 2201.43 1045.08 L2201.43 1031 L2198.31 1031 L2198.31 1027.69 L2201.43 1027.69 L2201.43 1020.33 L2205.72 1020.33 Z" fill="#000000" fill-rule="nonzero" fill-opacity="1" /><path clip-path="url(#clip800)" d="M2241.64 1037.97 L2241.64 1053.62 L2237.38 1053.62 L2237.38 1038.11 Q2237.38 1034.43 2235.95 1032.6 Q2234.51 1030.77 2231.64 1030.77 Q2228.19 1030.77 2226.2 1032.97 Q2224.21 1035.17 2224.21 1038.97 L2224.21 1053.62 L2219.93 1053.62 L2219.93 1017.6 L2224.21 1017.6 L2224.21 1031.72 Q2225.74 1029.38 2227.8 1028.23 Q2229.88 1027.07 2232.59 1027.07 Q2237.06 1027.07 2239.35 1029.85 Q2241.64 1032.6 2241.64 1037.97 Z" fill="#000000" fill-rule="nonzero" fill-opacity="1" /><path clip-path="url(#clip800)" d="M2260.6 1019.06 L2289.84 1019.06 L2289.84 1022.99 L2277.57 1022.99 L2277.57 1053.62 L2272.87 1053.62 L2272.87 1022.99 L2260.6 1022.99 L2260.6 1019.06 Z" fill="#000000" fill-rule="nonzero" fill-opacity="1" /><path clip-path="url(#clip800)" d="M2294.35 1019.06 L2316.2 1019.06 L2316.2 1022.99 L2299.03 1022.99 L2299.03 1033.23 L2315.48 1033.23 L2315.48 1037.16 L2299.03 1037.16 L2299.03 1049.68 L2316.62 1049.68 L2316.62 1053.62 L2294.35 1053.62 L2294.35 1019.06 Z" fill="#000000" fill-rule="nonzero" fill-opacity="1" /><path clip-path="url(#clip800)" d="M2328.98 1022.9 L2328.98 1049.78 L2334.63 1049.78 Q2341.78 1049.78 2345.09 1046.54 Q2348.42 1043.29 2348.42 1036.3 Q2348.42 1029.36 2345.09 1026.14 Q2341.78 1022.9 2334.63 1022.9 L2328.98 1022.9 M2324.3 1019.06 L2333.91 1019.06 Q2343.96 1019.06 2348.66 1023.25 Q2353.35 1027.42 2353.35 1036.3 Q2353.35 1045.24 2348.63 1049.43 Q2343.91 1053.62 2333.91 1053.62 L2324.3 1053.62 L2324.3 1019.06 Z" fill="#000000" fill-rule="nonzero" fill-opacity="1" /><path clip-path="url(#clip800)" d="M2377.15 1028.46 L2377.15 1032.48 Q2375.35 1031.56 2373.4 1031.1 Q2371.46 1030.63 2369.37 1030.63 Q2366.2 1030.63 2364.6 1031.6 Q2363.03 1032.58 2363.03 1034.52 Q2363.03 1036 2364.16 1036.86 Q2365.3 1037.69 2368.73 1038.46 L2370.18 1038.78 Q2374.72 1039.75 2376.62 1041.54 Q2378.54 1043.29 2378.54 1046.47 Q2378.54 1050.08 2375.67 1052.18 Q2372.82 1054.29 2367.82 1054.29 Q2365.74 1054.29 2363.47 1053.87 Q2361.23 1053.48 2358.73 1052.67 L2358.73 1048.27 Q2361.09 1049.5 2363.38 1050.12 Q2365.67 1050.73 2367.91 1050.73 Q2370.92 1050.73 2372.54 1049.71 Q2374.16 1048.67 2374.16 1046.79 Q2374.16 1045.05 2372.98 1044.13 Q2371.83 1043.2 2367.87 1042.35 L2366.39 1042 Q2362.43 1041.17 2360.67 1039.45 Q2358.91 1037.72 2358.91 1034.71 Q2358.91 1031.05 2361.5 1029.06 Q2364.1 1027.07 2368.86 1027.07 Q2371.23 1027.07 2373.31 1027.42 Q2375.39 1027.76 2377.15 1028.46 Z" fill="#000000" fill-rule="nonzero" fill-opacity="1" /><path clip-path="url(#clip800)" d="M2384.65 1017.65 L2388.35 1017.65 Q2391.83 1023.11 2393.54 1028.34 Q2395.28 1033.57 2395.28 1038.73 Q2395.28 1043.92 2393.54 1049.17 Q2391.83 1054.43 2388.35 1059.87 L2384.65 1059.87 Q2387.73 1054.57 2389.23 1049.34 Q2390.76 1044.08 2390.76 1038.73 Q2390.76 1033.39 2389.23 1028.18 Q2387.73 1022.97 2384.65 1017.65 Z" fill="#000000" fill-rule="nonzero" fill-opacity="1" /></svg>
